<svg xmlns="http://www.w3.org/2000/svg" viewBox="0 0 100 65" enable-background="new 0 0 100 65"><g fill="#C32033"><path d="M11.65 32.382l-2.39-5.966c-.48-1.127-.958-2.844-.958-2.844s-.45 1.717-.93 2.844l-2.39 5.966h6.67zM8.19 18.254h.335l8.386 19.33h-3.093l-1.097-2.7H3.97l-1.1 2.7H0l8.19-19.33zM29.347 18.452h3.124l3.377 10.188c.37 1.068.734 2.73.734 2.73s.48-1.634.928-2.73l4.39-10.384h.368l4.416 10.384c.452 1.068.902 2.73.902 2.73s.392-1.663.76-2.73l3.378-10.188h2.897l-6.616 19.332h-.363l-4.756-11.396c-.393-.93-.786-2.337-.786-2.337s-.453 1.407-.848 2.338l-4.867 11.396h-.365l-6.67-19.332zM65.746 32.382l-2.39-5.966c-.48-1.127-.96-2.844-.96-2.844s-.45 1.717-.926 2.844l-2.393 5.966h6.67zm-3.46-14.128h.336l8.386 19.33H67.91l-1.095-2.7H58.06l-1.094 2.7h-2.87l8.19-19.33zM76.33 31.538L69.066 18.45h3.295l4.332 7.88c.59 1.068 1.154 2.76 1.154 2.76s.59-1.692 1.153-2.76l4.196-7.88h3.07l-6.952 12.917v6.218H76.33v-6.047zM19.534 18.452h2.98V34.97h8.838v2.616H19.534zM86.888 33.874l2.444-1.352c.902 1.49 2.056 2.674 4.39 2.674 1.943 0 3.324-1.04 3.324-2.62 0-1.66-1.126-2.388-3.21-3.318l-1.266-.56c-2.785-1.24-4.47-2.648-4.47-5.602 0-2.842 2.19-4.868 5.372-4.868 2.53 0 4.248.956 5.4 3.01l-2.336 1.435c-.73-1.265-1.574-1.858-3.064-1.858-1.52 0-2.48.93-2.48 2.225 0 1.435.818 2.083 2.756 2.925l1.243.564c3.264 1.434 5.01 2.954 5.01 6.02 0 3.35-2.616 5.292-6.22 5.292-3.632 0-5.826-1.804-6.892-3.968"/></g></svg>