<svg xmlns="http://www.w3.org/2000/svg" viewBox="0 0 100 65" enable-background="new 0 0 100 65"><g fill="#C32033"><path d="M29.445 55.875c3.798 0 5.32-1.657 5.32-4.5 0-2.87-1.577-4.532-5.32-4.532h-1.69v9.033h1.69zm8.584 7.486h-3.435l-3.434-5.034c-.534.06-1.068.113-1.603.113h-1.802v4.92h-2.98V44.227h4.782c5.292 0 8.247 2.758 8.247 7.15 0 2.954-1.323 4.98-3.828 6.075l4.053 5.91zM42.887 44.227v19.136h12.55v-2.616h-9.57v-3.91h8.137V54.27h-8.138v-7.426h9.176v-2.62zM65.034 60.744c4.978 0 7.31-2.87 7.31-6.95s-2.332-6.95-7.31-6.95H62.95v13.9h2.084zm-5.066-16.517h5.26c6.137 0 10.217 3.827 10.217 9.568 0 5.742-4.053 9.566-10.217 9.566h-5.26V44.228z"/></g></svg>