<svg xmlns="http://www.w3.org/2000/svg" viewBox="0 0 100 15" enable-background="new 0 0 100 15"><g fill="#fff"><path d="M0 .37h6.908v4.61h.046L12.22.37h7.742l-6.357 5.65 7.352 7.76H12.22L6.954 8.29h-.046v5.49H0V.37zM30.934 0c7.842 0 9.973 1.613 9.973 7.113 0 5.503-2.13 7.117-9.973 7.117-7.84 0-9.97-1.614-9.97-7.117 0-5.5 2.13-7.113 9.97-7.113zm0 11.45c3.07 0 2.868-3.363 2.868-4.477 0-1.114.035-4.197-2.868-4.197-2.904 0-2.87 3.083-2.87 4.197 0 1.113-.206 4.477 2.87 4.477zM55.796 8.74v5.128h7.09V.458h-7.09v4.61h-5.084V.458h-7.09v13.41h7.09V8.74h5.084zM66.238.458h7.255v10.217s5.79.014 6.558.014c.773 0 1.224-.678 1.224-.678v3.855H66.238V.457zM98.185 4.9c-1.498-1.182-2.784-1.576-4.167-1.6-1.354-.02-2.588.44-2.588 1.248 0 .638.922.904 4.152 1.56 2.654.55 4.418 1.88 4.418 4.356 0 2.8-4.735 4.38-8.967 4.38-2.978 0-5.264-.526-7.305-1.425V9.66c1.264 1.295 4.09 1.984 6.255 1.984 1.202 0 1.79-.173 1.79-1.113 0-.58-.747-1.11-3.012-1.518-4.302-.773-5.752-1.982-5.752-4.047 0-2.966 3.76-4.73 8.38-4.73 2.496 0 4.79.074 6.8.995V4.9zM77.235 5.928l.497-.86C76.24 4.342 75.8 2.494 76.556 1.44c.816-1.133 3.084-1.62 4.31.137 1.04 1.497.045 2.765-.404 3.13-.458.36-3.227 1.22-3.227 1.22z"/></g></svg>