<svg xmlns="http://www.w3.org/2000/svg" viewBox="0 0 100 30" enable-background="new 0 0 100 30"><g fill="#c00"><path d="M44.974.013l-.496.036c-.503.034-1.22.13-1.712.23-4.662.93-7.82 4.052-8.892 8.787-.54 2.394-.52 5.292.05 7.645 1.172 4.806 4.57 7.895 9.513 8.65 1.836.28 3.922.24 5.677-.115 3.37-.675 5.826-2.443 7.185-5.17.61-1.22.997-2.636 1.134-4.112l.038-.402.013-.094H50.15l-.03.235c-.233 1.835-1.115 3.06-2.55 3.537-.894.297-2.038.305-2.99.023-1.664-.498-2.73-1.957-3.112-4.263-.127-.773-.15-1.095-.153-2.2 0-1.057.018-1.387.117-2.11.394-2.854 1.695-4.386 3.897-4.597.965-.092 1.94.063 2.667.422 1.067.526 1.702 1.52 1.915 2.995l.043.305 3.682.007c2.024.003 3.688-.002 3.696-.012.023-.028-.04-.656-.114-1.146-.448-2.873-1.73-5.084-3.82-6.582C51.47.702 48.797-.02 45.685.004c-.336.002-.656.007-.712.01zM88.136.016c-3.12.15-5.553 1.026-7.174 2.586-1.258 1.21-1.977 2.853-2.056 4.692-.08 1.845.333 3.336 1.273 4.59.347.466.944 1.035 1.468 1.406 1.06.747 3.305 1.526 7.273 2.525 1.685.422 2.18.57 2.59.777.67.333.93.727.932 1.405 0 .445-.117.74-.41 1.03-.464.46-1.193.693-2.285.728-1.395.043-2.376-.226-2.96-.82-.363-.37-.577-.798-.788-1.606-.008-.024-.786-.032-3.783-.032h-3.773v.064c0 .035.023.23.054.44.538 3.864 3 6.43 7.052 7.36.71.16 1.524.28 2.408.345.52.04 2.05.04 2.63 0 2.123-.145 3.874-.572 5.29-1.29 2.384-1.21 3.75-3.182 4.076-5.877.054-.462.064-1.66.013-2.058-.132-1.062-.452-1.96-.973-2.733-.617-.918-1.695-1.843-2.792-2.4-.945-.474-1.95-.802-4.332-1.407-3.39-.86-3.914-1.008-4.445-1.245-.547-.243-.89-.612-.98-1.054-.042-.2-.016-.635.05-.846.15-.47.574-.818 1.186-.973.39-.1.65-.127 1.218-.124.81 0 1.336.1 1.832.34.645.314 1.03.804 1.217 1.538l.058.23 3.663.006 3.666.005-.017-.194c-.046-.505-.206-1.283-.37-1.8C97.926 2.438 95.11.508 90.866.09c-.803-.08-1.966-.112-2.73-.074zM8.25.05C7.665.12 7.14.317 6.626.652c-.183.12-.642.567-3.038 2.963C.914 6.288.754 6.453.584 6.71.16 7.36-.023 8.026.002 8.813c.026.71.21 1.29.597 1.88.12.186 1.158 1.232 7.43 7.52 4.01 4.016 7.3 7.31 7.314 7.314.033.01 14.308-14.257 14.537-14.53.93-1.104 1.1-2.63.445-3.944-.23-.46-.2-.427-3.196-3.425C24.954 1.454 24.247.763 24.1.664c-1.282-.867-2.926-.836-4.17.076-.14.102-.928.87-2.393 2.335l-2.185 2.182-2.236-2.23C10.73.646 10.748.66 10.246.41 9.658.118 8.868-.025 8.25.05zM55.834.69c0 .004 1.824 5.443 4.05 12.087l4.05 12.08 3.86.007 3.862.005.14-.412c.38-1.144 7.977-23.716 7.987-23.744.01-.022-.76-.03-3.8-.03h-3.81l-.04.132c-.05.17-4.242 15.21-4.283 15.365-.025.092-.035.105-.05.064-.008-.028-.925-3.54-2.035-7.804L63.748.684h-3.956c-2.177 0-3.958.002-3.958.005z"/></g></svg>