<svg xmlns="http://www.w3.org/2000/svg" viewBox="0 0 100 25" enable-background="new 0 0 100 25"><g><path d="M0 10.675C0 4.78 4.78 0 10.675 0 16.57 0 21.35 4.78 21.35 10.675c0 5.896-4.78 10.675-10.675 10.675C4.78 21.35 0 16.57 0 10.675zm10.675 7.09c3.916 0 7.09-3.174 7.09-7.09s-3.174-7.09-7.09-7.09c-3.915 0-7.09 3.174-7.09 7.09s3.175 7.09 7.09 7.09zm0-3.476c2.033 0 3.682-1.65 3.682-3.683s-1.648-3.682-3.682-3.682c-2.033 0-3.682 1.648-3.682 3.682 0 2.033 1.65 3.682 3.682 3.682zm0-3.683" fill="#fff"/><g fill="#fff"><path d="M24.817 3.013H36.98v3.07h-4.183v12.3H29.08V6.105h-4.263zM48.344 3.013h7.22c4.103 0 4.67 2.808 4.67 4.445 0 2.376-2.045 3.57-2.227 3.615 0 0 1.796.67 1.796 2.706v2.864c0 1.148.705 1.467.83 1.74H57.7c-1.398-.16-1.375-1.274-1.364-1.91v-2.468c-.034-.603-.216-1.273-1.478-1.296H51.89v5.673h-3.558l.012-15.37zM55.3 6.105h-3.41v3.07s2.66.007 3.06 0c1.068-.024 1.895-.5 1.895-1.547 0-1.14-.703-1.523-1.544-1.523zM75.922 3.013v15.37h11.073v-3.16h-7.457v-3.434h6.366V8.88h-6.366V6.104h7.457V3.013zM87.518 6.105h4.388v12.278h3.638V6.105H100V3.013H87.518zM38.762 3.01h3.945l5.375 15.372H44.26l-1.112-3.194h-4.536l-1.047 3.194h-3.79L38.76 3.01zm2.06 5.426l-1.306 3.967h2.694l-1.387-3.967zM74.65 9.8h-6.606v2.99h3.138c-.005.615.09 1.23-.647 2.093-.25.294-1.11.954-2.31.954-1.01 0-1.738-.29-2.37-.825-1.393-1.184-1.722-3.396-1.722-4.552 0-1.455.58-5.07 4.138-5.218 0 0 2.4-.155 3.025 2.74h3.33c-.067-1.466-1.772-5.586-6.354-5.593-1.58-.003-3.588.473-5.25 2.138-1.203 1.205-2.286 3.23-2.286 6.08 0 3.093 1.14 5.104 2.18 6.21 1.828 1.94 3.67 2.09 4.63 2.09.76 0 2.216-.115 4.103-1.388l.5.864h2.5V9.8z"/></g><path d="M97.404 17.935h-.216V16.62h.5c.317 0 .48.11.48.377 0 .238-.147.337-.344.36l.37.577h-.246l-.34-.563h-.203v.565zm.242-.747c.162 0 .305-.016.305-.206 0-.16-.155-.178-.285-.178h-.26v.385h.24zm-.007 1.255c-.684 0-1.17-.512-1.17-1.19 0-.714.54-1.188 1.17-1.188.622 0 1.162.473 1.162 1.19 0 .715-.54 1.188-1.163 1.188zm0-2.17c-.516 0-.916.404-.916.982 0 .54.35.982.915.982.507 0 .908-.4.908-.982 0-.578-.4-.982-.91-.982z" fill="#fff"/></g></svg>