<svg xmlns="http://www.w3.org/2000/svg" viewBox="0 0 100 25" enable-background="new 0 0 100 25"><g><g fill="#fff"><path d="M57.895 12.492c0-2.328-.994-4.376-4.355-4.376-1.725 0-3.095.485-3.842.916l.547 1.87c.683-.43 1.772-.787 2.802-.787 1.705-.004 1.984.965 1.984 1.586v.148c-3.716-.006-6.064 1.28-6.064 3.903 0 1.602 1.196 3.102 3.275 3.102 1.28 0 2.35-.51 2.99-1.328h.063s.425 1.776 2.764 1.097c-.123-.738-.163-1.526-.163-2.475v-3.653zm-2.774 2.46c0 .19-.016.384-.068.555-.215.712-.952 1.313-1.874 1.313-.77 0-1.38-.436-1.38-1.36 0-1.41 1.555-1.8 3.323-1.79v1.28zM0 4.945s2.428 9.95 2.815 11.565c.452 1.885 1.267 2.58 3.617 2.11l1.516-6.168c.384-1.532.642-2.624.89-4.183h.042c.174 1.573.42 2.655.737 4.188 0 0 .617 2.8.933 4.27.317 1.472 1.2 2.398 3.5 1.894l3.613-13.675h-2.917l-1.233 5.912c-.332 1.72-.632 3.065-.864 4.64h-.042c-.21-1.56-.48-2.85-.816-4.528l-1.284-6.026h-3.04L6.096 10.82c-.39 1.785-.753 3.226-.985 4.747h-.04c-.238-1.432-.554-3.244-.896-4.97 0 0-.816-4.202-1.102-5.65H0zM25.953 12.492c0-2.328-.994-4.376-4.354-4.376-1.727 0-3.097.485-3.843.916l.546 1.87c.683-.43 1.77-.787 2.802-.787 1.706-.004 1.985.965 1.985 1.586v.148c-3.717-.006-6.065 1.28-6.065 3.903 0 1.602 1.195 3.102 3.274 3.102 1.278 0 2.348-.51 2.99-1.328h.062s.425 1.776 2.764 1.097c-.123-.738-.163-1.526-.163-2.475v-3.653zm-2.774 2.46c0 .19-.017.384-.07.555-.215.712-.952 1.313-1.874 1.313-.77 0-1.38-.436-1.38-1.36 0-1.41 1.555-1.8 3.323-1.79v1.28zM30.582 15.717V4.945h-2.777V18.62h2.777zM66.916 4.945v10.088c0 1.39.262 2.365.822 2.96.49.52 1.295.858 2.26.858.822 0 1.63-.155 2.01-.297l-.036-2.17c-.283.07-.61.125-1.055.125-.946 0-1.263-.606-1.263-1.855v-3.86h2.418V8.18h-2.418V4.944h-2.738zM59.747 8.347V18.62h2.865v-5.26c0-.284.017-.53.062-.758.212-1.102 1.055-1.806 2.265-1.806.33 0 .57.036.826.073V8.18c-.216-.045-.363-.065-.63-.065-1.07 0-2.286.69-2.797 2.17h-.08V8.347h-2.513zM32.527 8.347V18.62h2.792v-6.025c0-.282.03-.58.13-.84.23-.608.796-1.317 1.697-1.317 1.126 0 1.654.952 1.654 2.327v5.855h2.79v-6.098c0-.27.037-.594.116-.833.23-.69.838-1.253 1.675-1.253 1.143 0 1.69.936 1.69 2.553v5.63h2.792v-6.05c0-3.19-1.62-4.455-3.45-4.455-.81 0-1.448.203-2.026.558-.486.298-.92.722-1.3 1.28h-.042c-.44-1.107-1.48-1.838-2.83-1.838-1.74 0-2.52.88-2.993 1.628h-.04V8.347h-2.653z"/></g><g fill="#fff"><path d="M87.085 7.933c.552 0 1.007-.287 1.068-.658L88.7 1.11C88.7.5 87.984 0 87.086 0c-.897 0-1.61.5-1.61 1.11l.545 6.165c.06.37.515.658 1.065.658h-.002zM83.753 9.86c.277-.48.256-1.016-.036-1.254L78.65 5.052c-.527-.305-1.318.062-1.766.84-.45.777-.37 1.644.156 1.95l5.61 2.612c.35.13.83-.12 1.104-.597v.002zM90.42 9.856c.276.477.752.728 1.104.597l5.61-2.613c.53-.304.605-1.172.16-1.95-.45-.776-1.243-1.143-1.768-.84l-5.068 3.555c-.29.238-.31.776-.036 1.253l-.002-.002zM87.085 15.634c.552 0 1.007.285 1.068.656l.546 6.165c0 .61-.715 1.11-1.613 1.11-.897 0-1.61-.5-1.61-1.11l.545-6.165c.06-.37.515-.656 1.065-.656h-.002zM90.42 13.71c.276-.48.752-.728 1.104-.596l5.61 2.61c.53.306.605 1.174.16 1.95-.45.776-1.243 1.144-1.768.84l-5.068-3.55c-.29-.242-.31-.78-.036-1.256h-.002zM83.753 13.708c.277.477.256 1.014-.036 1.255l-5.068 3.55c-.527.305-1.318-.063-1.766-.838-.45-.777-.37-1.645.156-1.95l5.61-2.61c.35-.133.83.115 1.104.594v-.002z"/></g><path d="M99.11 17.256c.498 0 .89.386.89.877 0 .503-.392.89-.894.89-.503 0-.9-.387-.9-.89 0-.49.398-.877.9-.877h.005zm-.01.155c-.398 0-.7.327-.7.724 0 .41.303.73.71.73.4.005.69-.32.69-.724 0-.403-.29-.73-.694-.73H99.1zm-.155 1.21h-.17v-.922c.093-.016.192-.028.32-.028.154 0 .23.028.29.072.057.04.095.11.095.194 0 .116-.082.188-.182.22v.012c.083.033.127.105.155.22.027.144.044.2.066.232h-.178c-.028-.033-.05-.116-.072-.243-.022-.1-.083-.143-.215-.143h-.11v.386zm0-.52h.116c.128 0 .238-.038.238-.148 0-.088-.055-.15-.22-.15-.067 0-.106.007-.134.012v.287z" fill="#fff"/></g></svg>