<svg xmlns="http://www.w3.org/2000/svg" viewBox="0 0 100 25" enable-background="new 0 0 100 25"><g fill="#E31837"><path d="M10.96 16.327c4.965.915 8.6-3.896 10.927-8.057.932-1.668 2.347-6.034.762-7.685-1.452-1.595-2.574.5-3.435 1.2l.666.784c1.326 1.674.173 4.858-.613 6.558-1.18 2.092-3.408 5.26-6.01 4.817-.566-.13-1.034-.68-1.23-1.256 1.4-1.387 3.062-3.824 3.994-5.445.782-1.32 2.137-3.868.888-4.92-1.037-.718-3.114.318-4.228 1.257-.678.61-1.133 1.108-1.66 1.82-1.432 1.942-2.797 5.273-2.655 7.835-.688.497-1.473.994-2.408.706-.924-.206-1.09-.992-1.223-1.61C4.144 8.62 7.868 3.93 9.957 1.235c0 0-1.648.447-2.85.5C4.342 1.85 2.29.564.793 2.41c-.45.66-.71 1.35-.793 2.17.613-.523 1.52-.398 2.387-.348 1.5.132 2.24.312 3.592-.05-1.204 1.697-3.214 5.05-3.582 7.14-.195 1.387-.178 3.575 1.007 4.555 1.966 1.31 3.92.395 5.662-.81.517.6 1.156 1.125 1.893 1.257zm3.335-11.605c.522-.257.366.52.366.52-.074.88-.712 1.93-1.17 2.734-.465.824-2.104 2.765-2.816 3.182.03-1.174 1.287-3.738 1.93-4.717.33-.573 1.168-1.463 1.69-1.718zM93.374 7.017c-.274.36-1.203 1.373-1.507 1.69-.014.012-.156.15-.156.15-2.513 2.523-4.435 3.986-5.548 4.223-.76.166-1.107.208-1.462-.476l-.014-.036-.036-.32c0-.91 1.18-2.948 2.762-4.312.602-.528.675-.763.683-.82-.226-.352-.363-.52-.67-.647-.44-.023-1.112.443-1.556.754-.316.215-1.21 1.036-2.154 1.9-.79.723-1.603 1.47-2.058 1.846 0 0-.635.517-.77.632.006-.134.022-.4.022-.4.017-.47.51-1.253 1.216-2.305.253-.388.886-1.49.96-1.685l.01-.018-.01-.02c-.205-.334-.596-.595-.91-.61-.033.01-.28.216-.28.216-.532.433-1.665 1.454-2.76 2.446-1.005.91-1.954 1.764-2.19 1.937-1.845 1.37-3.446 2.265-5.024 2.82-.283.08-1.247.313-1.724-.225 0 0-.11-.12-.165-.188.07-.032.227-.098.227-.098 1.38-.588 3.117-1.395 4.38-2.476.017-.017 1.933-1.66 1.933-3.28 0-.07-.004-.14-.01-.21-.12-.582-.615-.76-1.325-.848-2.32.013-4.404 1.44-5.486 2.656l-.193.206c-.503.547-2.028 2.203-2.648 3.68 0 0-.028.065-.036.076-.003-.004-.057.02-.057.02-1.046.44-2.182.866-3.445.998-.68.086-1.647.144-2.187-.35 0 0-.133-.115-.192-.172.107-.055 2.636-1.41 2.636-1.41 2.087-1.267 3.484-3.194 3.484-4.197-.043-1.165-1.134-1.43-2.042-1.44-1.35.005-2.595.505-4.168 1.662-.91.672-2.818 2.85-3.327 5.086 0 0-.014.075-.024.107-.043.013-.2.05-.2.05-.998.248-2.675.654-2.984-.32-.497-1.586 1.09-3.11 2.36-4.333 0-.002.717-.703.717-.703.098-.11.22-.374.186-.58-.013-.097-.062-.17-.15-.224-.68-.3-1.332-.067-2.024.18-.518.182-1.057.372-1.625.33 0 0-.113-.012-.18-.017.007-.06.017-.18.017-.18.03-.335.225-.536.4-.713.003 0 .056-.06.056-.06.03-.034.046-.103.046-.183 0-.07-.013-.147-.045-.218-.043-.108-.11-.172-.195-.178-.4-.05-1.086.345-1.713.975-.6.612-.977 1.27-.977 1.724l.006.093c.006.013.004.038.004.038-.075 1.027-.968 2.012-2.21 3.378l-.54.594-.207.213c-.746.76-1.216 1.33-1.363 1.644l-.042.09.1-.027c.53-.158 2.047-.89 4.762-4.31 0 0 .04-.048.058-.08l.102.015c.125.018.282-.05.447-.113.277-.11.593-.234.892-.035 0 0 .114.073.163.108-.052.064-.532.68-.532.68-.758.947-1.537 1.924-1.537 3.09 0 .227.03.458.094.698.143.685.846 1.01 1.403 1.082 1.128.194 2.543-.43 3.793-.977l.633-.275c.352-.097.454.12.527.275.087.185.21.45.756.686 1.823.826 4.5.418 7.958-1.212 0 0 .104-.048.168-.08.026.06.072.18.072.18.248.67.716 1.085 1.482 1.308 2.977.396 5.43-1.307 7.805-2.954.003 0 1.083-.823 1.26-.96.045.044.238.255.265.29-.037.057-1.043 1.468-1.043 1.468-.353.514-.68.996-.884 1.54 0-.006-.06.225-.06.225l.026.122c.05.09.178.155.364.18 1.808-.248 3.55-1.722 4.698-2.695l.345-.29c.49-.432.965-.835 1.152-.876l.108-.03.083.095c.007.007.007.017.007.027 0 .09-.133.298-.23.442l-.182.294c-.153.322-.46.956-.46 1.517 0 .2.04.4.153.57.542.838 1.015.863 1.524.893l.18.008c2.134-.136 4.226-1.986 6.254-3.778l1.51-1.305s1.22-1.067 1.466-1.29c.034.078.084.223.084.223.153.39.186.745.186.974l-.037.423c-.024.188-.36 1.503-.822 1.876l-.095.05-.296.075c-1.115.285-2.377.605-2.848 1.72-.002.003-.043.253-.043.253 0 .15.057.364.31.532.786.202 1.603.01 2.322-.166l.924-.196c.754.004 1.488.093 2.197.178.988.116 1.916.23 2.904.13 1.276-.334 2.295-1.784 2.61-2.983l.03-.1-.096.047c-1.585.785-3.413.82-4.897.09 0 0-.104-.05-.152-.075.022-.048.067-.164.067-.164.012-.02.916-2.23.916-5.09 0-.13-.002-.263-.005-.394h.005c-.02-.07-.027-.134-.027-.2 0-.26.134-.478.255-.674.125-.196.23-.365.23-.57 0-.03-.003-.058-.004-.092-.006 0-.006-.01-.006-.017 0-.024.007-.056.007-.056.003-.005.003-.008.003-.012 0-.07-.11-.107-.164-.122-1.242-.314-1.945.606-2.756 1.674zm-32.662 4.936c.08-.675 1.092-1.985 1.632-2.533.49-.495 1.13-.897 1.748-1.1.326-.078.588-.014.724.175.053.08.082.172.082.27 0 .122-.044.252-.123.38-.675 1.06-2.418 2.554-3.84 3.003 0 0-.166.054-.26.087.014-.09.037-.282.037-.282zm9.555-.256c.143-1.01 1.618-2.514 1.63-2.53.492-.493 1.13-.894 1.75-1.1.256-.11.5-.088.652.057.056.06.134.173.134.357 0 .105-.025.23-.088.387-.16.392-1.346 1.543-1.684 1.836-.377.357-1.404 1.073-2.194 1.2 0 0-.15.025-.24.038.014-.077.04-.243.04-.243zM41.29 2.295h-.003c-1.603.148-3.113 1.043-4.896 2.895-.728.69-4.094 4.877-4.65 8.06l-.013.088c-.024.01-.077.04-.077.04-.487.26-1.957.893-2.89.657-.277-.07-.485-.212-.61-.426-.144-.28-.21-.562-.21-.86 0-.693.383-1.314.716-1.87 0-.002.176-.294.19-.315.005.006.062-.01.062-.01.862-.248 2.21-1.89 2.554-2.895l.01-.027-.025-.017c-1.006-.616-2.354-.6-3.305-.483-1.568.18-3.353.874-4.778 1.845-1.713 1.17-3.195 3.553-3.505 5.046-.168.852-.278 1.717.31 2.118 1.226.71 3.636-.582 5.28-2.157l.344-.326c-.012.172-.053.64-.053.64-.02.205-.04.437-.04.668 0 .436.074.872.36 1.143 1.357 1.078 4.15-.103 5.692-1.157 0 0 .09-.062.136-.09.037.043.104.13.104.13.49.606 1.07 1.26 1.73 1.37 1.72.24 3.067-.754 4.265-1.86l.234-.218.117.554c.088.442.168.862.512 1.14.87.67 2.816-.243 3.912-1.023 0 0 .253-.178.398-.283-.036.154-.123.472-.123.472-.185.723-.532 1.417-.867 2.09l-.302.613-.05.08-.087.145c-.467.747-1.332 2.147-2.176 2.27l-.06.007c-.216-.078-.354-.2-.428-.362l-.06-.313c0-.378.198-.808.372-1.187l.036-.076-.08.005c-.392.062-.743.225-1.126.423-.78.46-1.584 1.504-1.584 2.44 0 .197.032.382.1.55.16.358.584.37.762.36 5.342-.5 8.34-6.56 10.53-10.987l.43-.873c.13-.176.153-.282.153-.343l-.005-.05c-.01-.01-.082-.102-.082-.102.007.006-.053-.318-.053-.318.09-.428 1.125-1.326 1.136-1.338 0 .003.132-.1.132-.1.106-.067.173-.138.174-.194 0-.064-.07-.143-.174-.21-.21-.136-.44-.232-1.31-.474-1.603-.45-4.364-.11-6.868 2.314-.263.252-.747.864-1.142 1.35l-.507.632c-1.22 1.424-2.477 2.9-4.557 2.488-.273-.112-.56-.342-.673-.62-.058-.163-.055-.325.014-.47l.025-.053c1.15-.808 2.336-1.858 3.553-3.133 2.045-2.184 4.548-5.857 4.22-6.77-.245-.636-.973-.658-1.193-.647zM24.396 9.47c1.132-.552 2.55-.513 3.605.103l.183.106-.777 1.083c-1.2 1.46-3.512 2.9-4.5 2.81v-.002c-.46-.04-.784-.264-.862-.61l-.017-.29c0-.984 1.31-2.507 1.998-2.973-.008.007.37-.226.37-.226zM37.8 5.948c.55-.674 1.452-1.27 1.722-1.396.208-.096.317.02.347.057.045.057.06.132.06.207 0 .09-.026.18-.058.217l.01.003c-.482 1.676-3.52 5.234-5.268 6.48l-.334.236c.016-.132.053-.402.053-.402.15-1.193 2.41-4.1 3.468-5.4zm3.417 7.61l-.028-.018c-.474-.343-.622-.825-.427-1.39.178-.657 2.005-2.677 3.45-2.958 1.31-.254 1.835.19 2.088.4 0 .006.138.114.204.17l-.71.76c-.963 1.36-3.376 3.592-4.577 3.036z"/></g></svg>