<svg xmlns="http://www.w3.org/2000/svg" viewBox="0 0 100 30" enable-background="new 0 0 100 30"><g fill="#fff"><path d="M9.183.01C6.118.14 3.623 1.062 2.26 2.57c-.786.863-1.224 1.853-1.39 3.127-.045.356-.043 1.37.003 1.75.128 1.057.416 1.893.905 2.63.997 1.494 2.69 2.46 5.602 3.19.664.17 1.163.278 2.554.56 2.103.43 2.81.602 3.66.892 2.224.754 3.21 1.86 3.28 3.677.035.88-.19 1.664-.665 2.337-.138.19-.48.553-.682.716-.493.398-1.182.755-1.927.995-1.36.442-3.343.624-4.78.442-1.442-.184-2.657-.674-3.668-1.478-.25-.2-.717-.67-.917-.918-.173-.22-.437-.608-.574-.852-.385-.682-.66-1.513-.788-2.38-.037-.254-.05-.408-.09-.98l-.01-.145H0v.233c0 .313.03.863.064 1.19.182 1.788.795 3.36 1.8 4.622 2.044 2.56 5.64 3.73 10.014 3.25 2.132-.23 3.938-.838 5.237-1.753.543-.382 1.06-.88 1.42-1.373.615-.837.98-1.81 1.106-2.96.033-.286.033-1.392 0-1.68-.133-1.222-.435-2.116-.994-2.934-.177-.26-.332-.45-.582-.706-.69-.71-1.55-1.248-2.744-1.718-1.045-.414-2.14-.71-4.122-1.112-1.59-.323-1.802-.367-2.228-.463-2.094-.462-3.294-.93-4.137-1.61-.375-.3-.665-.655-.865-1.054-.198-.396-.29-.752-.33-1.25-.048-.604.055-1.198.297-1.71.66-1.397 2.345-2.26 4.86-2.493.33-.032 1.367-.043 1.74-.02 1.63.1 2.885.506 3.84 1.234.206.157.556.497.718.7.71.88 1.098 2.116 1.098 3.505 0 .156.006.334.012.394l.012.108 1.39-.003 1.39-.005.004-.247c.01-.356-.027-1.084-.07-1.45-.048-.433-.107-.77-.202-1.156-.493-2.008-1.662-3.522-3.465-4.498C13.818.394 11.904-.016 9.77 0c-.255.002-.517.006-.586.01zM31.127.007c-.677.046-1.034.087-1.52.175-2.966.543-5.344 2.31-6.908 5.137-.83 1.5-1.406 3.295-1.682 5.238-.117.82-.16 1.414-.173 2.353-.01.814.005 1.29.067 1.96.41 4.49 2.476 7.89 5.8 9.556 1.64.822 3.568 1.194 5.67 1.094 1.61-.077 2.98-.372 4.233-.913 2.904-1.255 4.815-3.774 5.584-7.36.057-.274.153-.815.18-1.02l.01-.092-1.402.003-1.403.006-.023.132c-.24 1.423-.78 2.722-1.557 3.76-1.455 1.94-3.764 2.978-6.498 2.916-1.153-.026-2.123-.24-3.09-.675-2.786-1.26-4.567-4.378-4.767-8.352l-.018-.368c0-.015 1.897-.02 9.421-.02h9.422l.007-.04c.005-.023.017-.295.03-.606.023-.59.014-1.45-.02-1.926-.214-3.077-1.143-5.606-2.77-7.538-.242-.285-.818-.86-1.1-1.1-.937-.786-1.99-1.377-3.156-1.76-.823-.272-1.643-.435-2.66-.525-.29-.025-1.446-.048-1.68-.032zM32.4 2.604c1.804.16 3.337.86 4.588 2.103.907.902 1.573 1.96 2.065 3.285.325.876.518 1.764.62 2.844l.012.12H23.703v-.04c0-.068.07-.485.126-.773.225-1.14.61-2.227 1.133-3.21 1.05-1.96 2.595-3.353 4.414-3.98.523-.18 1.13-.308 1.697-.356.286-.025 1.014-.02 1.325.007zM53.743.01C51.175.12 49.1.83 47.627 2.1c-.242.21-.673.656-.863.89-.967 1.21-1.543 2.72-1.734 4.552-.03.274-.063.766-.063.905v.084h2.79l.01-.12c.006-.065.015-.19.02-.277.072-1.066.378-2.098.863-2.904.262-.44.707-.95 1.107-1.27.993-.804 2.29-1.253 3.942-1.368.33-.023 1.102-.023 1.43 0 1.724.12 3.08.654 4.036 1.59.592.577 1.035 1.355 1.177 2.06.05.258.06.51.04 1.21-.024.802-.063 1.122-.183 1.486-.253.78-.935 1.2-2.4 1.484-.945.182-2.124.31-4.676.514-.953.076-1.35.115-1.838.188-3.66.537-5.982 1.97-6.982 4.313-.393.918-.582 2.005-.552 3.187.036 1.314.278 2.358.77 3.314.178.344.296.535.522.836.745.988 1.79 1.718 3.13 2.177 1.5.517 3.5.706 5.348.504 2.688-.292 5.06-1.538 6.607-3.473l.206-.258.005 1.63.005 1.635h2.81l-.005-9.426c-.004-7.304-.01-9.47-.027-9.628-.058-.543-.13-.915-.253-1.352-.194-.68-.548-1.365-.988-1.918-.19-.24-.61-.657-.857-.855C59.657.723 57.767.136 55.255.016 54.91 0 54.06-.005 53.742.01zm6.584 15.79c-.044.48-.177 1.143-.336 1.67-.4 1.334-1.05 2.454-1.927 3.333-.767.77-1.73 1.35-2.825 1.706-.293.094-.795.22-1.124.28-.992.18-2.183.217-3.11.095-2.377-.31-3.99-1.63-4.365-3.562-.072-.37-.088-.602-.077-1.1.014-.634.08-1.06.246-1.54.518-1.522 1.888-2.454 4.326-2.942.9-.177 1.65-.267 3.667-.433 1.69-.14 2.35-.21 3.076-.327.976-.16 1.76-.38 2.323-.66l.133-.065.005 1.66c.005 1.15 0 1.732-.013 1.884zM87.044.015c-2.208.13-4.014.61-5.39 1.433-.63.375-1.217.875-1.61 1.368-.7.875-1.094 1.907-1.195 3.13-.027.33-.01 1.23.028 1.545.307 2.515 1.705 4.12 4.5 5.168 1.09.41 2.15.68 4.638 1.188 1.624.33 2.275.48 2.97.68 2.5.722 3.637 1.747 3.865 3.482.033.25.028.867-.01 1.123-.185 1.282-.917 2.237-2.216 2.896-1.124.57-2.618.89-4.352.926-1.424.03-2.626-.194-3.733-.694-.457-.205-.992-.534-1.385-.85-.25-.198-.72-.667-.917-.916-.626-.787-1.052-1.7-1.273-2.734-.094-.442-.134-.762-.178-1.452l-.013-.17h-2.777l.01.497c.054 2.282.7 4.143 1.972 5.688.218.266.75.795 1.02 1.014 1.5 1.22 3.373 1.93 5.646 2.14 1.662.154 3.64.004 5.24-.395 2.327-.585 3.987-1.656 4.913-3.17.376-.616.655-1.372.777-2.116.12-.728.13-1.64.026-2.43-.295-2.242-1.474-3.785-3.67-4.798-1.115-.514-2.45-.908-4.512-1.326-2.472-.502-3.064-.632-3.86-.86-1.96-.552-3.073-1.273-3.603-2.334-.375-.75-.435-1.762-.154-2.607.44-1.325 1.76-2.253 3.783-2.657.777-.156 1.504-.216 2.456-.2.614.01.927.033 1.39.1C92.57 3.146 94.19 5 94.194 8.13c0 .18.005.344.01.367l.01.04 1.392-.004 1.39-.005-.004-.52c-.006-.76-.053-1.305-.166-1.892-.444-2.303-1.726-4.018-3.758-5.036-1.17-.585-2.473-.914-4.15-1.046-.314-.023-1.547-.035-1.874-.015zM76.704.423c-1.862.138-3.63.726-5.118 1.702-.9.592-1.613 1.257-2.22 2.072l-.04.05v-1.85L69.324.544H66.512V24.99H69.324l.005-7.153c.005-7.714 0-7.275.09-7.986.204-1.58.683-2.643 1.726-3.834.47-.536 1.047-1.086 1.465-1.398 1.044-.78 2.2-1.247 3.51-1.416.2-.025.366-.032.857-.032.555.002.644.005.987.05.206.026.392.047.41.047.035 0 .035-.02.035-1.42V.428l-.252-.01c-.332-.017-1.21-.012-1.455.006zM98.294.566c-.496.07-.947.405-1.15.856-.27.592-.103 1.345.39 1.75.31.26.672.378 1.075.355.232-.014.354-.046.563-.145.383-.186.666-.523.786-.94.033-.117.04-.18.04-.403 0-.32-.023-.417-.154-.682-.08-.16-.115-.21-.26-.355-.194-.195-.342-.29-.58-.37-.254-.085-.457-.104-.712-.067zm.623.27c.445.154.75.547.813 1.043.037.298-.04.64-.2.885-.154.237-.433.438-.705.512-.15.04-.446.04-.605.002-.422-.105-.744-.418-.884-.862-.033-.113-.04-.17-.04-.38 0-.28.03-.41.146-.636.092-.177.322-.403.502-.493.21-.107.354-.137.615-.128.18.005.245.016.356.055zM97.94 2.037v.876h.266V2.17h.292l.235.372.237.37h.14c.075 0 .14-.004.14-.01 0-.005-.11-.174-.24-.376-.13-.2-.238-.373-.238-.378 0-.007.016-.012.035-.012.08 0 .228-.075.297-.15.083-.09.11-.168.11-.33 0-.158-.04-.263-.133-.35-.124-.116-.2-.13-.7-.14l-.44-.006v.877zm.867-.605c.104.053.147.133.134.255-.01.114-.036.16-.124.206-.06.032-.108.04-.34.045l-.27.007v-.553h.26c.237 0 .27.004.34.04z"/></g></svg>