<svg xmlns="http://www.w3.org/2000/svg" viewBox="0 0 100 50" enable-background="new 0 0 100 50"><g><g fill="#231F20"><path d="M8.35 34.114c-.046 0-.12.005-.12.034 0 1.12-.43 3-3.298 3h-1.7c-.083 0-.1-.018-.1-.052l-.01-5.232H3.7c1.14 0 1.846.677 1.846 1.768 0 .067.224.067.224 0v-3.807c0-.03-.07-.034-.112-.034-.042 0-.112.006-.112.035 0 1.107-.69 1.768-1.846 1.768l-.567.01V26.66c0-.033.016-.052.1-.052h1.653c2.314 0 2.564 1.88 2.564 2.69 0 .043.106.044.127.044.02 0 .127-.002.127-.045v-2.902c0-.02-.02-.057-.057-.057H.034c-.028 0-.034.073-.034.134 0 .062.006.135.034.135H1.33c.068 0 .082.02.082.052v10.437c0 .032-.014.052-.083.052H.033c-.028 0-.034.073-.034.134 0 .062.006.135.034.135H8.41c.038 0 .058-.02.058-.058V34.15c0-.03-.074-.036-.12-.036zM12.92 37.15h-.857c-.083 0-.1-.02-.1-.053V25.99c0-.022-.018-.058-.056-.058H9.66c-.043 0-.046.104-.046.135 0 .03.003.135.046.135h.858c.083 0 .1.02.1.052v10.843c0 .034-.017.052-.1.052H9.66c-.043 0-.046.103-.046.134 0 .032.003.135.046.135h3.26c.028 0 .034-.074.034-.136 0-.06-.005-.135-.033-.135zM17.336 37.15h-.874c-.07 0-.083-.02-.083-.053V30.81c0-.037-.02-.057-.058-.057H14.06c-.028 0-.034.074-.034.135 0 .062.006.135.034.135h.858c.095 0 .1.016.1.052v6.022c0 .036-.005.052-.1.052h-.858c-.028 0-.034.073-.034.134 0 .062.006.135.034.135h3.276c.028 0 .034-.074.034-.136 0-.06-.007-.135-.034-.135zM15.698 27.87c.488 0 .884-.41.884-.914 0-.513-.396-.93-.884-.93-.48 0-.87.416-.87.93s.383.915.87.915zM23.997 35.175c-.045 0-.12.004-.12.034 0 1.377-.616 1.938-2.127 1.938h-1.607c-.055 0-.07-.008-.07-.03l3.95-6.244c.013-.056.013-.092 0-.11H24l-.004-.002h-.704l-4.226-.01c-.037 0-.057.02-.057.056v1.95c0 .056.254.056.254 0 0-1.282.496-1.737 1.893-1.737h1.248c.073 0 .08.015.07.032l-3.917 6.24c-.025.033-.032.066-.02.092.01.02.033.033.06.033h5.46c.052 0 .056-.02.056-.057v-2.153c.003-.028-.072-.032-.117-.032zM31.627 36.8c-.007-.002-.012-.004-.014 0-.004 0-.01-.004-.012-.003-.064.162-.25.337-.504.337-.222 0-.35-.19-.35-.52v-3.167c0-1.88-.842-2.834-2.505-2.834-1.238 0-1.897.713-1.897 1.227 0 .355.196.712.634.712.514 0 .697-.308.697-.57 0-.117-.033-.194-.068-.275-.036-.083-.072-.17-.072-.304 0-.355.224-.52.707-.52.575 0 1.16.166 1.16 1.394v1.186c0 .298-.826.372-1.626.443l-.158.014c-.76.078-2.038.44-2.038 1.992 0 1.032.79 1.648 2.117 1.648.768 0 1.33-.395 1.617-.857.06-.094.115-.192.154-.293.127.698.606 1.15 1.224 1.15.585 0 .988-.318 1.07-.614.005-.01.002-.022-.008-.04-.023-.035-.08-.09-.125-.105zM29.4 33.87v1.838c0 .718-.584 1.52-1.424 1.52-.707 0-1.066-.443-1.066-1.316 0-1.413.476-1.628 1.005-1.737.125-.02.268-.037.417-.053.378-.042.806-.09 1.07-.25zm.073 2.525c.02.114.054.224.095.33-.04-.1-.076-.205-.1-.32 0-.003.004-.006.005-.01zM36.29 30.612c-.497 0-.917.155-1.267.474-.06.052-.118.106-.173.165V25.99c0-.014 0-.057-.057-.057h-2.247c-.028 0-.034.075-.034.136 0 .062.006.135.034.135h.874c.065 0 .1.02.1.053v10.843c0 .012 0 .052-.1.052h-.874c-.028 0-.034.074-.034.135 0 .062.006.135.034.135h2.247c.053 0 .057-.02.057-.057l-.01-.312v-.218c.407.436 1.057.73 1.623.73 1.854 0 3.1-1.772 3.1-3.427 0-1.662-1.4-3.52-3.272-3.52zm0 .27c.29 0 .828.043 1.164.325.484.41.73 1.393.73 2.925 0 1.512-.232 2.412-.73 2.83-.28.238-.55.327-.992.327-.582 0-1.334-.312-1.612-.99v-4.597c.238-.538.905-.82 1.44-.82zm-1.442.372l-.008.008v-2.245l.008 2.237zm-.008 5.562c.064.07.137.134.214.197-.076-.06-.148-.12-.214-.188v-.01zM43.84 30.612c-1.8 0-3.21 1.526-3.21 3.474 0 1.948 1.41 3.474 3.21 3.474 1.045 0 2.01-.548 2.646-1.504l-.006-.034c-.025-.04-.11-.106-.152-.1-.594.88-1.478 1.367-2.488 1.367-.485 0-.845-.11-1.132-.342-.488-.41-.636-1.08-.636-2.862 0-.118 0-.238-.024-.334v-.014h4.523c.038 0 .058-.02.058-.058 0-.96-.703-3.068-2.788-3.068zm-1.794 2.866c0-.02.002-.04.004-.062l-.004.062zm.01 0c.063-1.323.228-1.892.65-2.254.288-.232.648-.34 1.133-.34.388 0 .68.11.897.34.37.354.508.917.552 2.205v.037l-3.118.01h-.116zm3.235 0h-.15.15zm-3.244.25h.557-.557zM51.07 36.064c-.178.66-.53 1.053-.943 1.053-.27 0-.426-.16-.426-.442v-5.6c0-.033.015-.053.084-.053h1.295c.027 0 .033-.073.033-.135 0-.062-.006-.135-.034-.135h-1.296c-.07 0-.083-.02-.083-.052v-2.62c0-.027-.128-.03-.153-.03-.088 0-.1.015-.1.026-.196.57-.567.898-1.108.987V30.7c0 .037-.005.053-.1.053h-1.076c-.028 0-.034.074-.034.135 0 .062.006.135.034.135h1.077c.095 0 .1.016.1.052v4.946c0 1.023.45 1.54 1.336 1.54.808 0 1.337-.465 1.57-1.384 0-.037-.12-.122-.177-.112zM59.535 37.15h-.858c-.076 0-.083-.015-.083-.053v-3.87c0-1.637-.972-2.615-2.6-2.615-.512 0-1.114.195-1.494.698-.11.143-.205.31-.274.505V25.99c0-.015 0-.058-.057-.058h-2.247c-.028 0-.034.074-.034.135 0 .062.005.135.033.135h.873c.066 0 .1.018.1.052v10.843c0 .012 0 .052-.1.052h-.873c-.028 0-.034.073-.034.134 0 .062.005.135.033.135h3.26c.028 0 .034-.074.034-.136 0-.06-.006-.135-.034-.135h-.858c-.098 0-.098-.04-.098-.053v-4.74c.343-1.034.872-1.475 1.768-1.475.472 0 1.222.43 1.222 1.58v4.635c0 .036-.02.052-.068.052h-.86c-.042 0-.046.103-.046.134 0 .032.003.135.046.135h3.245c.028 0 .033-.074.033-.136 0-.06-.005-.135-.033-.135zm-5.31-5.333c-.004.008-.008.014-.01.022v-2.83l.01 2.807zM71.344 37.15H70.05c-.06 0-.098-.03-.1-.04l-3.947-10.984c-.013-.04-.134-.042-.17-.042-.038 0-.16.003-.172.042L62.09 36.5c-.187.61-.218.65-.35.65h-1.065c-.01 0-.022 0-.022.134 0 .135.014.135.023.135h2.917c.028 0 .034-.074.034-.136 0-.06-.006-.135-.034-.135h-1.295c-.017 0-.023-.006-.026-.01-.03-.04.025-.228.16-.632l.942-2.74 3.563-.006 1.158 3.363c-.004.01-.026.024-.055.024h-1.342c-.028 0-.034.073-.034.134 0 .062.006.135.034.135h4.65c.027 0 .033-.074.033-.136-.003-.06-.008-.135-.036-.135zm-4.462-3.64h-.777l.776-.004.002.003zm-3.432 0l.434-1.265-.43 1.264h-.004zm.01 0l1.72-5.008 1.295 3.802.403 1.195-2.506.01h-.91zm4.64 3.613c0 .005-.002.01-.006.014.003-.004.006-.008.007-.014zM75.635 30.612c-.695 0-1.13.24-1.41.802-.062.118-.12.248-.17.4V30.81c0-.036-.005-.057-.06-.057H71.75c-.028 0-.034.074-.034.135 0 .062.006.135.034.135h.858c.083 0 .1.02.1.052v6.022c0 .034-.017.052-.1.052h-.858c-.028 0-.034.073-.034.134 0 .062.006.135.034.135h3.26c.03 0 .035-.074.035-.136 0-.06-.006-.135-.034-.135h-.873c-.07 0-.083-.02-.083-.053V32.48c.25-1.007.602-1.458 1.144-1.458.244 0 .395.152.395.395 0 .12-.04.192-.082.27-.05.088-.105.19-.105.386 0 .323.3.557.712.557.347 0 .697-.27.697-.87 0-.57-.364-1.148-1.18-1.148zm-1.582 1.203c-.003.01-.006.015-.01.024v-.5l.01.475zM84.683 37.15h-.858c-.083 0-.1-.02-.1-.053V25.99c0-.02-.017-.058-.04-.058h-2.247c-.028 0-.034.074-.034.135 0 .062.006.135.034.135h.858c.07 0 .083.02.083.052l.01 2.79v2.203c-.383-.427-.857-.635-1.452-.635-1.872 0-3.27 1.86-3.27 3.52 0 1.656 1.25 3.428 3.114 3.428.778 0 1.298-.386 1.504-.697.042-.06.075-.116.093-.166v.664c0 .038.02.058.056.058h2.247c.043 0 .045-.112.045-.135 0-.022 0-.134-.045-.134zm-5.62-3.017c0-1.558.243-2.515.744-2.925.32-.27.792-.325 1.132-.325.56 0 1.234.282 1.44.816v4.29c0 .646-.494 1.3-1.597 1.3-.435 0-.69-.087-.976-.327-.51-.415-.745-1.315-.745-2.83zm3.327-2.88v.01c-.06-.07-.124-.13-.19-.187.065.054.13.112.19.176zm0 5.422v.328l-.01-.308.01-.02zM88.565 30.612c-1.8 0-3.21 1.526-3.21 3.474 0 1.948 1.41 3.474 3.21 3.474 1.044 0 2.008-.548 2.646-1.504l-.005-.034c-.025-.04-.112-.105-.152-.1-.594.88-1.477 1.367-2.488 1.367-.485 0-.845-.11-1.132-.342-.487-.41-.636-1.08-.636-2.862 0-.118 0-.238-.024-.334v-.014h4.523c.037 0 .057-.02.057-.058 0-.96-.702-3.068-2.788-3.068zm-1.794 2.866l.004-.063c0 .02 0 .04-.003.063zm.012 0c.064-1.323.228-1.892.65-2.254.288-.232.648-.34 1.133-.34.388 0 .682.11.897.34.37.355.508.917.552 2.206v.037l-3.117.01h-.115zm3.234 0h-.152.152zm-3.245.25h.557-.556zM99.954 37.15h-.858c-.076 0-.083-.015-.083-.053v-3.87c0-1.637-.966-2.615-2.585-2.615-.63 0-1.155.243-1.488.668-.043.055-.08.113-.117.173-.07.11-.13.228-.178.362V30.81c0-.036-.004-.057-.057-.057h-2.246c-.028 0-.034.074-.034.135 0 .062.006.135.034.135h.873c.1 0 .1.04.1.052v6.022c0 .012 0 .052-.1.052h-.873c-.028 0-.034.073-.034.134 0 .062.006.135.034.135h3.26c.028 0 .034-.074.034-.136 0-.06-.006-.135-.034-.135h-.858c-.1 0-.1-.04-.1-.053v-4.74c.345-1.034.878-1.475 1.784-1.475.473 0 1.223.43 1.223 1.58v4.635c0 .032-.013.052-.082.052h-.858c-.017 0-.024.025-.028.047-.004.024-.006.055-.006.087 0 .062.006.135.034.135h3.245c.043 0 .046-.113.046-.136 0-.023-.002-.135-.046-.135zm-5.31-5.332l-.01.02v-.498l.01.478z"/></g><path d="M44.884 0v20.044h10.198V0H44.884z" fill-rule="evenodd" clip-rule="evenodd" fill="#D31245"/><path d="M53.88 11.226h-3.487V8.7h3.487v2.526zm-3.048-.438h2.608V9.14h-2.608v1.648zM49.563 11.226h-3.488V8.7h3.488v2.526zm-3.05-.438h2.61V9.14h-2.61v1.648zM53.88 7.95h-3.487V1.198h3.487V7.95zm-3.048-.438h2.608V1.638h-2.608v5.874zM49.563 7.95h-3.488V1.198h3.488V7.95zm-3.05-.438h2.61V1.638h-2.61v5.874zM53.88 18.737h-3.487v-6.752h3.487v6.752zm-3.048-.44h2.608v-5.873h-2.608v5.874zM49.563 18.737h-3.488v-6.752h3.488v6.752zm-3.05-.44h2.61v-5.873h-2.61v5.874z" fill="#fff"/><path d="M32.668 44.055c-.122-.132-.29-.345-.29-.345s.03.255.03.445v1.703h-.444v-3.12h.064l1.704 1.83c.118.127.286.346.286.346s-.03-.273-.03-.445v-1.7h.444v3.12h-.06l-1.704-1.835zM37.354 42.77h1.962v.42h-1.48v1.2h1.31v.414h-1.31v.63h1.543v.424h-2.027V42.77zM41.912 42.77h.504l.545 1.644c.06.172.12.44.12.44s.077-.262.15-.44l.708-1.676h.06l.712 1.676c.073.172.146.44.146.44s.063-.268.122-.44l.545-1.644h.467l-1.067 3.12h-.06l-.766-1.84c-.064-.15-.127-.377-.127-.377s-.073.227-.136.377l-.786 1.84h-.06l-1.076-3.12zM51.212 44.882L50.04 42.77h.53l.7 1.272c.096.172.187.444.187.444s.096-.272.186-.444l.677-1.272h.495l-1.122 2.085v1.004h-.48v-.978zM55.08 44.314c0-.922.708-1.585 1.594-1.585.88 0 1.59.662 1.59 1.584s-.708 1.585-1.59 1.585c-.886 0-1.595-.663-1.595-1.586zm2.693 0c0-.66-.454-1.154-1.1-1.154-.644 0-1.103.495-1.103 1.154 0 .66.46 1.154 1.104 1.154.645 0 1.1-.495 1.1-1.154zM63.186 45.86h-.554l-.555-.814c-.086.01-.172.02-.258.02h-.292v.794h-.482v-3.09h.773c.853 0 1.33.445 1.33 1.153 0 .477-.215.804-.62.982l.656.954zM61.8 44.65c.614 0 .86-.267.86-.726 0-.463-.255-.732-.86-.732h-.272v1.46h.273zM66.655 44.08l1-1.31h.544l-1.095 1.445 1.217 1.644h-.58l-.955-1.29-.33.404v.885h-.483v-3.09h.482v1.272c0 .14-.02.327-.036.453.067-.14.157-.312.235-.416z" fill="#231F20"/></g></svg>