<svg xmlns="http://www.w3.org/2000/svg" viewBox="0 0 100 20" enable-background="new 0 0 100 20"><path d="M47.146 13.48c-.574-.298-1.116-.723-1.614-1.282.824-.682 1.46-1.292 1.923-1.825.225-.262.368-.512.438-.737.05-.176.08-.53.08-1.067V4.283l1.09-.896.107 10.686c-.773-.1-1.447-.294-2.024-.593m5.302.202c-.74.315-1.564.465-2.468.465l-.358-.003-.116-10.738c1.31.638 2.48 1.022 3.524 1.127l1.562-1.44-.166-.353h-.21c-.723 0-1.355-.064-1.89-.173-.537-.118-1.267-.375-2.198-.766l-4.06 3.337v4.235c0 .948-.043 1.532-.116 1.737-.077.21-.298.475-.674.778-.868-1.125-1.304-2.346-1.304-3.673 0-1.09.292-2.105.888-3.032.46-.724 1.158-1.402 2.105-2.037l-.242-.256c-1.434.856-2.464 1.744-3.102 2.657-.817 1.16-1.225 2.42-1.225 3.784 0 1.11.288 2.184.87 3.225.58 1.043 1.377 1.842 2.4 2.402 1.022.557 2.106.84 3.27.84.776 0 1.56-.137 2.354-.405.79-.263 1.47-.618 2.032-1.07.56-.446 1.138-1.07 1.724-1.876l-.29-.277c-.79.693-1.56 1.2-2.31 1.512m18.48.538c-.123 0-.24-.076-.342-.247-.163-.247-.243-.655-.243-1.227V7.79l.755-.69-1.704-1.366-1.67 1.366.716.69v5.16l-1.713 1.28c-.366-.258-.596-.476-.693-.648-.098-.172-.145-.446-.145-.814V7.79l.714-.69-1.74-1.366-2.228 1.836.244.293c.265-.22.467-.336.597-.336.175 0 .317.092.42.263.062.1.09.317.09.648v4.664c0 .593.092 1.07.28 1.434.184.365.587.78 1.198 1.264 1.01-.89 2.005-1.66 2.976-2.32.006.618.094 1.07.248 1.352.146.288.47.604.968.968l2.038-1.535-.245-.303c-.254.177-.432.258-.523.258M74.9 3.528h-.272l-2.605 3.247v.415h.9v5.446c0 .447-.06.787-.17 1.023-.082.18-.248.36-.508.528v.186c.913.252 1.726.722 2.45 1.426l2.004-1.652-.22-.293-.606.486-1.05-.826V7.19h1.913V6.145h-1.912l.074-2.618zm20.838 3.345l.13-.035 2.378 2.572-2.51 1.754v-4.29h.002zm4.26 1.94l-2.652-3.078c-1.062.543-1.733.88-2.02 1.01-.404.18-.902.382-1.498.597v5.43c0 .62-.037 1.024-.11 1.205-.07.192-.208.347-.414.474v.186c.732.15 1.31.3 1.704.44.407.148.913.386 1.534.725l3.09-2.172-.23-.3-1.477 1.048-2.188-.818v-1.762L100 8.812zm-9.595-1.58l1.173 1.46 1.438-1.26-1.438-1.7L89.46 7.57c0-.337-.06-.59-.188-.78-.194-.3-.566-.655-1.1-1.056l-1.965 1.713.25.304c.246-.303.44-.448.58-.448.13 0 .25.08.352.243.114.167.168.49.168.982v3.912c0 .56-.05.95-.128 1.145-.09.202-.268.405-.547.603v.186c.413.112.796.26 1.15.458.35.194.784.518 1.302.968l2.452-1.945-.23-.3-.972.786-1.124-.784V8.048l.943-.815zM85.43 14.22c-.124 0-.235-.076-.338-.247-.164-.247-.243-.655-.243-1.227V7.79l.746-.69-1.698-1.366L82.225 7.1l.717.69v5.16l-1.716 1.28c-.364-.26-.59-.477-.686-.65-.093-.17-.142-.445-.142-.813V7.79l.706-.69-1.74-1.366-2.228 1.836.244.293c.268-.22.462-.336.602-.336.177 0 .316.092.42.263.052.1.084.317.084.648v4.664c0 .593.09 1.07.28 1.434.19.365.584.78 1.194 1.264 1.022-.89 2.013-1.66 2.98-2.32.014.618.09 1.07.243 1.352.154.288.478.604.97.968l2.04-1.535-.243-.303c-.257.177-.437.258-.52.258m-25.175.044L57.78 13.25V7.34c.325.06.6.132.827.21.316.12.87.362 1.648.727v5.987zm-4.38-6.923v5.205c0 .517-.044.877-.135 1.09-.06.17-.208.35-.445.552l.093.186c.566 0 1.08.087 1.534.252.595.22 1.348.607 2.262 1.174.298-.267.603-.495.927-.68.42-.244 1.1-.556 2.05-.932V7.156c-1.317-.34-2.427-.815-3.31-1.42-.828.69-1.82 1.225-2.974 1.605M19.77 14.22c-.128 0-.243-.076-.34-.247-.168-.247-.244-.655-.244-1.227V7.79l.75-.69-1.704-1.366-1.67 1.366.716.69v5.16l-1.715 1.28c-.365-.26-.59-.477-.687-.65-.098-.17-.146-.445-.146-.813V7.79l.71-.69-1.736-1.366-2.23 1.835.243.292c.265-.22.467-.336.602-.336.17 0 .316.092.413.263.06.098.092.316.092.647V13.1c0 .594.092 1.07.278 1.435.19.365.585.78 1.2 1.264 1.012-.892 2.01-1.662 2.976-2.32.008.617.09 1.068.244 1.35.153.29.47.605.97.97l2.034-1.536-.243-.303c-.255.18-.43.26-.515.26M9.057 5.016c-.427.986-.64 2.12-.64 3.408l.034 4.29c0 .822-.117 1.498-.36 2.03-.24.532-.566.963-.986 1.302-.31.24-.797.508-1.485.792.582-.474.966-.916 1.15-1.33.246-.578.375-1.38.375-2.408L7.11 8.912c0-1.243.14-2.23.414-2.95.283-.728.702-1.36 1.252-1.908.42-.405 1.064-.82 1.954-1.255-.82.8-1.38 1.533-1.673 2.216M5.672 10.31c.146 1.352.464 3.536.464 4.233 0 .508-.154.92-.46 1.233-.302.316-.702.466-1.196.466-.243 0-.633-.083-1.152-.262-.365-.124-.698-.18-.99-.18-.707 0-1.268.23-1.702.7-.26.292-.473.75-.637 1.373l.352.17c.11-.27.225-.442.34-.528.18-.124.403-.18.684-.18.33 0 .754.1 1.278.32.388.146.664.244.836.29.176.04.38.06.6.06.828 0 1.776-.353 2.848-1.066 1.274-.858 2.192-1.852 2.753-2.987.42-.855.633-2.168.633-3.91 0-.568 0-1.11-.01-1.64-.015-1-.028-1.7-.028-2.095 0-.778.154-1.495.45-2.167.304-.658.865-1.437 1.68-2.32l-.35-.31c-.455.32-.89.552-1.303.686-.406.14-.902.205-1.486.205-.615 0-1.468-.113-2.557-.357-1.36-.284-2.32-.43-2.892-.43-.908 0-1.666.283-2.296.86-.625.57-.936 1.203-.936 1.884 0 .467.13.85.378 1.137.254.28.543.42.875.42.254 0 .464-.077.634-.245.163-.17.243-.388.243-.633 0-.226-.074-.414-.22-.572-.153-.156-.338-.23-.55-.23-.102 0-.21.03-.345.097-.128.057-.224.09-.286.09-.067 0-.13-.024-.174-.075-.046-.052-.07-.12-.07-.208 0-.27.155-.53.462-.784.305-.264.723-.39 1.256-.39.414 0 .994.125 1.753.39.754.265 1.445.392 2.07.392.6 0 1.346-.143 2.24-.427-.974.647-1.68 1.193-2.117 1.65-.435.458-.732.905-.893 1.335-.162.427-.254.998-.278 1.724l.097 2.28zm18.23 3.94c-.06.04-.12.048-.187.048-.098 0-.195-.08-.288-.25-.085-.16-.133-.513-.133-1.056V7.83l.713-.73-1.67-1.366L20.672 7.1l.71.73v5.28c0 .793.073 1.35.224 1.67.147.316.477.656.99 1.02l2.045-1.652-.243-.293c-.25.216-.414.347-.495.395m.366-11.736h-1.2l-.485 2.02h.41l1.275-2.02zm11.79 9.318c-.37.704-1.005 1.363-1.897 2.01V8.52l1.45-1.17c.676.807 1.017 1.642 1.017 2.49 0 .63-.185 1.3-.568 1.992m-1.9-3.775v-.22c0-.483-.08-.853-.243-1.132-.163-.28-.512-.598-1.06-.97l-1.99 1.64.26.3c.062-.054.1-.09.12-.113.172-.177.31-.26.418-.26.135 0 .256.09.37.27.147.22.215.656.215 1.288v4.53c0 .37-.028.66-.08.87-.055.202-.153.424-.296.665-.05.09-.187.243-.402.457-.452.443-.678.9-.678 1.37 0 .462.197.874.59 1.22.39.346.95.52 1.682.52.7 0 1.275-.155 1.73-.45.297-.19.448-.38.448-.573 0-.11-.035-.2-.108-.262-.08-.067-.18-.1-.31-.1-.11 0-.21.03-.294.087-.078.064-.177.19-.296.384-.11.192-.227.323-.344.387-.248.124-.562.19-.948.19-.518 0-.946-.14-1.266-.41-.316-.273-.475-.574-.475-.898 0-.187.043-.355.134-.508.123-.203.32-.42.61-.637.13-.107.535-.366 1.203-.765 1.54-.915 2.652-1.647 3.35-2.207.682-.56 1.192-1.153 1.512-1.783.328-.63.485-1.264.485-1.895 0-1.187-.487-2.29-1.475-3.32l-2.86 2.322zm-4.673 6.332l-1.9-.834v-6.03l1.88 1.046.993-1.44-2.483-1.397c-.756.717-1.53 1.254-2.305 1.607v5.44c0 .536-.054.925-.155 1.17-.073.176-.22.34-.438.498v.185c.617.127 1.143.268 1.57.425.424.157.94.4 1.545.74l2.34-1.728-.07-.4-.978.717z"/></svg>