<svg xmlns="http://www.w3.org/2000/svg" viewBox="0 0 100 40" enable-background="new 0 0 100 40"><g><path d="M32.29 30.684c-.083.05-.195.118-.308.148.183-.047.26-.122.31-.148M22.68 5.422c.047-.015.104-.036.173-.06-.073.02-.134.04-.173.06m1.548-.256c-.748.008-1.14.117-1.376.197.487-.118 1.56-.154 1.376-.197m3.786 2.765l-.002-.274c-.035-.23-.114-.46-.213-.672.133.3.19.625.216.947m16.203.836c-.012.03-.013.032 0 0m37.895-.35l-.034-.047.014.038.02.007zm-1.26 3.124l-.142-.065-.01.033c-.182-.143 0-.023-.018-.045l.028.012.013-.05c.024-.11.03-.22.02-.33-.008-.218-.114-.454-.102-.693.182-.388.108-.882.486-1.167-.025-.24.314-.293.41-.482l-.04-.015c.148.004-.05-.24.13-.177l.004.012c.086.016-.067-.14-.05-.163l.005-.003c.004 0 .01 0 .02.004l-.01-.008.042-.02c.005.002.01.004.016 0 0 0 0-.004-.002-.006l.162-.075c.008.006.015.007.024.015-.014.022.09.014.095.09.023-.002.048-.055.01-.1l.09.005.032-.032.05.095c.06.022-.01-.055-.045-.1l.082-.077c.01.005.017.01.025.03.043-.012.042-.058.048-.098l.062-.057.02.03c.028-.006.01-.026-.005-.044l.023-.02c.018.01.022.028.03.025.042-.065.114-.107.144-.19l.06-.057c.04-.01.06-.07.122-.04-.003-.036.013-.05.005-.08l.12-.114c.25-.18.48-.4.754-.558.065-.234.347-.16.503-.3l.007.015c.04-.07.124-.124.205-.14l.03-.093c.407-.07 1.145-.292 1.13-.17-.014.533-.168.89-.243 1.457l-.024-.022c-.042.152-.15.25-.204.392l-.015-.01c-.075.39-.428.637-.514 1.012-.268.345-.573.728-.88 1.08l-.023-.027c-.23.306-.625.373-.902.605-.355.11-.62.513-1.03.53-.266-.1-.49.323-.75.19m.6-.005l.007-.024v.023l-.007.002zM8.26 12.948c.528-.44 1.074-.863 1.633-1.272L8.26 12.948zm3.4-2.486c1.802-1.16 3.712-2.174 5.672-3.06-1.69.81-3.735 1.883-4.965 2.63l-.706.43zM99.92 12.6c-.375-.216-.48.012-.68.075-.336.184-.663.38-.986.582-.647.4-1.285.814-1.945 1.186-1.312.764-2.72 1.327-4.207 1.63-2.91.594-6.15.847-8.747-.604-.65-.34-1.19-.848-1.653-1.398-.25-.262-.397-.6-.6-.897-.025.005-.034.004-.034.002v.004l-.006-.01.032-.018c-.016.01-.026.02-.026.024.02-.025.61-.215.794-.31 1.343-.588 2.613-1.345 3.628-2.358 1.21-1.207 2.07-3.002 1.804-4.79-.42-1.838-2.668-2.792-4.402-2.156-3.612 1.183-5.458 5.238-6.822 8.094-.913-.084-1.697-.788-2.066-1.61.06-.84.315-1.814.487-2.713.096-.46.11-.944.042-1.41-.04-.235-.056-.463-.133-.697-.015-.28-.504-.366-.573-.09-.855.197-1.848.22-2.752.078-.43-.06-.987-.358-1.307.133.005.497.595.657.84 1.052.587.567.452 1.73.713 2.564.453 1.832-.06 3.676-.617 5.4l-.023-.04c-.198.703-.443 1.386-.714 2.062-.132.34-.265.68-.38 1.026l-.154.466-.04-.013-.015-.02c-.015-.036-.055-.124-.114-.25-.275-1.305-.54-2.61-.71-3.922-.196-1.43-.493-2.846-.902-4.227-.205-.69-.444-1.37-.705-2.042-.163-.308-.194-.722-.56-.942-.376-.168-.754-.02-1.1.04-1.413.325-2.738 1.15-3.553 2.37-.826 1.217-1.208 2.644-1.58 4.03-.66 2.803-1.642 5.537-2.62 8.268-.307.68-.683 1.32-1.064 1.978-.285.567-.992 1.476-1.465 1.055-.79-1.223-.822-2.86-.67-4.344.192-1.503.62-3 1.057-4.464.235-.73.538-1.44.784-2.177.123-.365.218-.742.453-1.04.016-.015.034-.04.053-.073l.087-.097-.082-.008c.026 0 .043-.002.047 0 .058-.15.063-.326-.184-.282-.184.037-.32-.086-.403-.26-.062-.177-.245-.35-.387-.44-.095-.116-.268-.364-.49-.266l-1.154.13c-.77.07-1.547.108-2.32.102-1.496-.135-3.217.177-4.517-.045-.054-.766-.19-1.525-.363-2.27-.094-.372-.328-1.147-.328-1.147v.002l-.072-.232c-.012.023-.128.107-.205.16-.003 0-.512.28-.512.28-.34.176-.688.335-1.036.493-.145.058-.29.11-.4.17V8.4l-.002-.002c-.146.084-.228.19-.15.37h.002c.02.045.05.094.09.15.26.715.462 1.448.644 2.18.59 3.523 2.434 8.215-.323 11.908-.463.878-1.772 1.78-2.6.764-.7-.853-.693-1.974-.986-2.93-.384-1.926-.998-4.014-.046-5.597.23-.376.328-.88.14-1.297-.383-.378-.863.134-1.206.313-.723.574-1.466 1.013-2.392 1.13-.438.114-.868.252-1.293.407l-.632.25c.018.01-.33-.38-.56-.238-.745.738-.62 1.724-.575 2.616.157.896.322 1.75.42 2.642.247.793-.433 1.66-.654 2.47-.372.654-.464 2.32-1.164 1.268-.446-.726-.663-1.613-.897-2.46-.48-1.68-.627-3.578-1.78-4.997-1.004 1.376-1.567 3.165-2.56 4.634-1.824 3-4.347 5.94-7.93 6.955-3.155.653-7.118.62-9.31-2.134-2.22-2.726-1.38-6.717.61-9.287 1.97-2.664 4.267-5.08 6.863-7.1 1.296-1 2.727-1.897 4.346-2.267.707-.17 1.92-.266 2.148.716-.03.852-.388 1.596-.77 2.308-.835 1.186-1.993 2.674-3.72 2.616-.437-.372.15-.794.325-1.063.272-.3.576-.574.896-.832.314-.27.75-.382.924-.76.108-.452-.523-.548-.882-.517-3.276.716-5.688 4.046-5.916 7.45l.048-.243c-.067.558-.055 1.43.656 1.724.666.168 1.34.03 1.924-.183 1.19-.407 2.148-1.016 2.836-1.36l-.21.148c1.162-.636 2.24-2.017 2.884-2.47l.117-.18c1.088-1.118.178-.083 1.017-.95.287-.353.067-.172.67-.898.425.028 1.97-3.262 2.02-3.372-.254.832.492-1.282-.07.6.375-.484.665-3.19.482-2.948-.01-.017-.02-.038-.03-.06-.007-.697-.176-1.428-.716-1.944.15.114.295.24.425.39-.396-.546-.872-.785-1.33-.908-1.376-.465-3.268-.1-4.836.382.236-.084.47-.17.708-.253.268-.123-.748.178-.047-.077-2.36.664-4.05 1.696-6.052 2.55l.233-.155c-1.432.672-.243.226-1.716.947-.583.276.118-.123-.15.018-2.942 1.608-5.87 3.616-8.065 5.912-.657.45-2.504 2.612-3.236 3.63-.47.74-.935 1.483-1.035 1.808C.47 22.72-.31 25.77.115 28.766c.307 3.167 3.015 5.364 5.606 6.7 5.617 2.766 12.53.288 16.473-4.137 1.947-2.022 3.69-3.67 5.633-6.255.042-.058.458-.578.55-.694l.025.03v.938c.01.788-.032 1.68.24 2.48.22.812.552 1.624 1.155 2.276.587.656 1.615 1.02 2.494.562.022-.01.03-.012.03-.01 1.22-1.022 2.077-2.74 2.744-4.496-.004 0-.007 0-.01-.002l.075-.206c.004 0 .008 0 .012.002.293-.79.55-1.58.784-2.316-.01-.016.022-.107.043-.165l-.003-.004c.03-.068.02-.044.002.003.075.09.585.856.832 1.135.466.56 1.04 1.06 1.68 1.446h.004c.1.08.244.168.475.256.005 0 .01.002.015.004.955.46 2.027.665 3.105.442 2.086-.385 3.37-2.248 4.223-3.967.855-1.79 1.4-3.71 1.713-5.664.067-.424.115-.85.14-1.284l.002-.006c.134.058.275.07.41.1.267.015.528 0 .762-.01.274-.005.418-.01.37.104-.005.182-.07.467-.1.697-.082.484-.163.967-.266 1.443-.484 1.872-.9 3.922-.52 5.902.125 2.236 2.375 3.342 3.92 4.267.877.834 2.178.24 2.923-.33.805-.674 1.306-1.546 1.852-2.372 1.075-1.673 1.91-3.498 2.568-5.365.76-2.11 1.326-4.27 1.908-6.345.16-.504.355-.986.585-1.447l.08-.017.073.282c.285 1.044.59 2.068.896 3.09.58 2.033 1.22 4.108 2.142 5.997.434.96.814 1.928 1.315 2.877l.748 1.386c.103.37.938 1.38 1.622.446.182-4.318 2.19-7.974 3.222-12.096l.232-.747c-.04-.122.15-.314.182-.444-.083-.045.02-.085 0 0 .415.23.854.387 1.3.493.533.12 1.073.197 1.617.227l.32.01-.02-.04.043.042-.023-.002c.035.07.08.155.07.167l.3.763c.908 2.01 2.726 3.53 4.767 4.347-.027.007.1.07-.325-.1 2.352 1.03 4.8 1.4 7.182 1.494 2.37.095 4.79-.015 7.06-.84l-.006.02c.703-.247 1.39-.55 2.06-.89.358-.21.604-.297 1.02-.405.19-.062.384-.197.516-.373.045-.14.113-.117.13-.392l-.054-.246c-.024-1.424.115-2.962.932-4.287.004-.212.086-.417-.05-.648"/><path d="M32.293 30.718c-.084.05-.196.12-.308.148.182-.046.257-.122.308-.148M22.68 5.373l.172-.06c-.073.018-.133.038-.173.06m1.548-.257c-.748.008-1.14.118-1.376.198.486-.12 1.56-.155 1.376-.198m3.25 1.16c-.77-1.074-1.85-.967-2.516-1.116.124.027.063.035.187.063.822.047 1.712.338 2.33 1.053m.534 1.615l-.002-.275c-.035-.233-.115-.463-.212-.675.13.302.186.627.214.95m28.724 4.09l-.01.026.018-.004.017-.004c.015.008 0-.002-.025-.018M46.565 7.396l.028.087.023-.016.063-.03.015-.006c.192.052.04.01-.13-.034m-.164-.044l.165.044-.045-.144c-.016.03-.067.066-.12.1m-.085.06c.025-.02.056-.04.087-.06l-.105-.028v.015l.003.03.015.044m-1.95.95V8.36c.004-.008.003-.006 0 0m-.147.37c.033-.08.13-.328.148-.37-.146.085-.228.192-.148.37m0 0c-.012.03-.013.033 0 0m-18.652 4.262c.114-.16.218-.29.31-.426-.027.03-.213.29-.31.426m-5.19-.62c.072-.066.142-.138.204-.224-.138.127-.178.182-.203.225m25.7 8.6c-.006.01-.01.02-.016.033-.012.038-.02.08-.036.117l.052-.15zM44.234 8.687c-.01.024-.013.03-.017.043.02.047.05.096.092.152.258.718.46 1.453.643 2.19.59 3.533 2.434 8.24-.323 11.945-.463.88-1.77 1.786-2.6.766-.7-.856-.692-1.982-.987-2.94-.384-1.932-1-4.028-.048-5.616.23-.378.328-.883.138-1.3-.382-.38-.862.133-1.205.313-.723.576-1.465 1.016-2.392 1.134-.438.113-.868.253-1.293.407l-.63.252c.015.01-.333-.38-.562-.238-.744.74-.62 1.73-.574 2.626.157.9.323 1.755.42 2.65.25.796-.43 1.665-.652 2.48-.373.654-.464 2.326-1.165 1.27-.447-.73-.665-1.618-.898-2.468-.48-1.684-.628-3.59-1.778-5.015-1.006 1.38-1.567 3.176-2.56 4.65-1.825 3.01-4.348 5.96-7.93 6.976-3.157.655-7.118.622-9.312-2.142-2.22-2.734-1.38-6.738.608-9.315 1.972-2.673 4.267-5.094 6.863-7.12C19.37 9.38 20.8 8.48 22.42 8.108c.708-.17 1.92-.267 2.148.718-.03.856-.387 1.602-.77 2.316-.835 1.19-1.993 2.68-3.72 2.624-.44-.375.15-.798.324-1.067.273-.303.576-.577.896-.835.315-.27.75-.383.926-.76.107-.455-.524-.55-.882-.52-3.276.717-5.687 4.056-5.914 7.474l.048-.246c-.068.56-.056 1.433.656 1.73.666.167 1.34.03 1.925-.185 1.19-.41 2.148-1.02 2.836-1.365l-.21.15c1.162-.638 2.24-2.025 2.883-2.478l.117-.18c1.086-1.124.177-.084 1.015-.955.287-.354.067-.17.67-.9.424.027 1.97-3.273 2.02-3.383-.254.833.492-1.288-.07.6.374-.484.665-3.2.482-2.957-.145-.25-.26-1.21-.274.344l.054.322c-.107.524-.09.394-.162.578-.442 2.007-.8 2.19-1.544 3.427.01-.01.017-.02.01-.002-.46.9-1.418 1.942-1.994 2.49l-.26.2c-.38.295-1.643 1.688-1.257 1.17-1.545 1.343-3.536 2.786-5.74 2.88-1.143.082-.935-1.584-.675-2.576.295-1.114.773-2.225 1.448-3.136.228-.546 1.95-1.923 1.917-1.956-.065.04-.127.076-.178.105.122-.084.172-.112.178-.106.53-.32 1.468-.91 2.396-.775.564.083.177.3-.286.602-.527.354-.816.675-1.068.925l.01-.017c-.386.357-.84.52-.654 1.5.795.487 1.12.094 1.512-.003.72-.368 1.292-.84 2.192-1.68.095-.143.867-1.1 1.206-2.296.24-.46.37-1.616-.467-1.942-.673-.282-1.22-.124-1.557-.04-.314.026-.414.042-.314-.014-4.357 1.34-7.616 5.117-10.037 7.795-.95 1.228-2.165 2.76-2.79 4.566-.664 1.775-.58 3.766.017 5.03.38 1.078 1.265 2.425 2.692 3.256 1.412.902 3.233 1.017 4.76 1.006l-.304.012c1.774.095 3.84-.304 5.48-1.23 1.652-.904 2.875-2.154 3.64-3.082.815-.674 1.713-1.924 2.54-3.204.517-.997 1.573-2.645 2.02-4.3.08-.38.56 1.337.82 2.005.247.928.454 1.872.694 2.732.04.556.803 2.838 1.308 3.033.176.142.61.16.815-.08.19-.207.23-.385.286-.547.103-.336.156-.61.274-.883.248-.608.464-1.212.683-1.838.296-1.49-.285-2.714-.41-4.05-.09-.63.072-1.31.218-1.905.04-.104.06-.09.205-.128-.03-.032-.008-.03.03-.008l-.03.008c.014.015.036.036.08.07.17.066-.033.116.444.158.303-.136.626-.263.95-.375.662-.25 1.28-.362 2.025-.592.693-.333 1.2-.842 1.78-1.173.346-.166.477-.254.496.01.038.29.02.613-.142.88-.39.578-.565 1.432-.53 2.128.006 1.463.365 2.85.65 4.22.18.665.208 1.376.577 2.08.278.68 1.23 1.323 2.056.895 1.4-.817 1.905-2.162 2.466-3.38.468-1.355.378-3 .1-4.326-.008-.112.003-.123.027.032-.26-1.876-.513-3.643-.983-5.482.02.01.02.01.11.313-.24-.882-.46-1.798-.782-2.744l-.077-.204-.13.055-.086.038h-.003.005zm2.152-1.065l-.072-.21-.006.003-.506.277c-.34.177-.69.336-1.036.496-.145.056-.29.107-.4.17v.005l.005.01.01.023.016.045.057.152.043-.02.7-.31c.394-.194.785-.377 1.187-.642m24.977.13c-.025-.105-.043-.16-.057-.18.013.06.03.12.057.18M56.738 11.98c.058-.15.063-.328-.184-.283-.183.036-.32-.087-.403-.263-.06-.176-.244-.35-.386-.44-.095-.117-.268-.366-.49-.267l-1.155.13c-.772.07-1.546.107-2.32.1-1.495-.135-3.217.178-4.517-.045-.053-.77-.188-1.53-.363-2.278-.093-.373-.193-.744-.315-1.107l-.014-.043c-.068.05-.137.095-.205.14.118.338.23.68.324 1.026-.047-.024-.095-.066-.284-.755.292.975.492 1.99.565 3l.007.095.002.044v.022c.633.586.182.162.327.292h.012l.194-.01.39-.02.78-.035c.522-.02 1.044-.04 1.562-.044 1.016.01 2.11.063 3.164-.01.53-.03 1.063-.08 1.59-.143l.352-.042c-.043-.06.012.008.04-.005l-.04.005.08.11c.388.32.258.193.48.567.062.118.215.237.382.29.064-.092.117-.134.127-.04l-.033-.194c-.27-.173.21.122.33.202m30.554-6.3c-.417-1.844-2.667-2.8-4.4-2.164-3.612 1.187-5.458 5.255-6.82 8.12-.914-.084-1.698-.79-2.068-1.617.06-.844.315-1.82.487-2.722.095-.462.11-.947.04-1.415-.04-.235-.056-.464-.133-.7-.015-.28-.504-.367-.572-.09-.854.198-1.847.222-2.75.078-.43-.06-.99-.36-1.31.133.005.498.595.66.842 1.055.587.57.45 1.738.712 2.574.453 1.838-.06 3.688-.617 5.42l-.022-.043c-.197.705-.442 1.39-.713 2.07-.13.34-.263.682-.38 1.028l-.168.52-.047.15c.01.042.01.08-.035.11l.035-.11c-.012-.048-.038-.1-.035-.143-.302-1.422-.597-2.846-.784-4.278-.194-1.436-.492-2.855-.9-4.24-.206-.694-.445-1.376-.706-2.05-.16-.308-.192-.724-.558-.945-.377-.17-.755-.02-1.1.042-1.414.324-2.74 1.152-3.553 2.377-.825 1.22-1.208 2.652-1.578 4.044-.66 2.81-1.644 5.554-2.62 8.294-.308.682-.684 1.324-1.066 1.984-.284.57-.99 1.48-1.464 1.058-.79-1.226-.822-2.87-.67-4.358.19-1.507.62-3.01 1.056-4.478.235-.734.538-1.444.783-2.184.123-.366.217-.745.452-1.044.028-.024.065-.083.094-.15l-.016.003-.07.01-.138.022c-.063.002-.126-.01-.188-.03-.094.135-.21.38-.25.483-.198.538-.335.995-.538 1.498-.39.98-.716 2.03-.97 3.054-.553 2.035-.977 4.27-.3 6.416.227.372.257 1.385 1.256 1.184.62-.227.93-.776 1.203-1.23.52-.916 1.083-1.873 1.42-2.902.65-2.044 1.422-4.03 1.942-6.126.555-2.045.897-4.246 2.232-5.87.656-.805 1.578-1.352 2.562-1.69.463-.11 1.083-.353 1.42-.19.27.172.435.888.63 1.316l-.256-.57c.43 1.006.787 2.047 1.08 3.106-.02-.01-.07-.162-.115-.312.564 2.016.716 4.177 1.176 6.273l.338 1.57.044.194c.7.067.227-.09.397-.124l.115-.377.258-.743c.378-.97.76-1.978 1.03-2.965.01.024-.136.63.046.086 1.032-2.907.727-5 .25-6.398-.01-.092-.004-.165.022-.124-.106-.46.06-.92-.512-1.382-.13-.228-1.162-.943-.756-.867.237-.11.767.05 1.346.128.547.07 1.097.06 1.64.01.28-.03.532-.056.828-.126.198-.123.226-.177.227-.194 0 .003.003.006.01.01.033-.023.068.025.1.142.114.48.19 1.02.14 1.52-.14 1.064-.457 2.005-.562 3.248.475.975 1.397 2.018 2.755 1.69.36-1.18.744-2.02 1.254-3.013.983-1.878 2.368-3.566 4.247-4.546 1.402-1.032 3.617-.833 4.713.638 1.018 1.55.15 3.68-.93 5.08-1.234 1.412-2.95 2.37-4.7 3.018-.024.08-.034.157-.038.235.02-.024.61-.215.793-.31 1.343-.59 2.613-1.35 3.627-2.365 1.21-1.21 2.07-3.01 1.8-4.806m-5.904 6.083l-.003.008.003-.007zm.074-3.618l.02-.006c-.01-.008-.014.003-.02.005m-1.08 3.283l.01.068v.017c.098.094-.215-.197.218.212h.007l.03-.002c.046-.002.074.004.134.005.263.01.397-.007.606.034.03-.067.05-.192.074-.27v.026c.056-.035.143.055.197.014v.036c.042-.064.14.037.184-.062l.013.025.03-.05c.01.032.025.08-.002.08.557-.13.978-.588 1.438-.89l.004.04.047-.117.012.033c.143-.046.19-.212.302-.288.01.012.018.05.045.05.01-.132.197-.028.098-.2.01.003.042.03.046.05.15-.244.343-.447.534-.65.012-.282.28-.4.302-.673l.028.02c.08-.313.347-.522.5-.802.073-.11.076-.21.134-.33l.04.017c-.036-.254.337-.38.217-.67l.052.03c-.08-.056.07-.133-.088-.15L85.65 7c-.15-.174.105-.28-.02-.478l.038.01c-.03-.05-.055-.105-.02-.147l.025.012c.206-.19-.18-.427-.32-.334l.026-.066c-.094.07-.25.012-.353.075v-.035l-.044.057-.016-.062c-.145.023-.253.127-.38.174l-.015-.058c-.08.148-.257.094-.36.196V6.32c-.327.118-.56.362-.823.57l-.007-.034c-.003.026 0 .068-.017.074l-.008-.034c-.11-.045-.14.164-.218.124-.01.02.004.058.03.08-.203.163-.417.344-.567.57-.018-.003-.037-.022-.056-.05-.066.265-.27.37-.434.52.027.034.048.013.067.057.08-.02.008-.164.108-.158l.023.033c.05-.015-.065-.077.006-.075.037.01.033.04.04.035.056-.084.156-.126.163-.26.074.05.083-.07.164-.03-.003-.044.024-.053-.005-.104.302-.19.558-.463.88-.65.066-.235.348-.16.504-.3l.007.015c.04-.07.124-.125.205-.14l.035-.095c.406-.07 1.144-.294 1.13-.17-.015.534-.168.892-.244 1.46l-.024-.023c-.042.153-.15.25-.205.394l-.014-.008c-.075.39-.428.638-.514 1.014-.27.346-.575.73-.882 1.08l-.022-.024c-.23.308-.624.375-.9.608-.357.11-.62.514-1.03.533-.268-.1-.493.32-.753.187l-.143-.064-.01.033c-.183-.145 0-.025-.018-.047l.028.013.013-.05c.024-.112.03-.22.02-.33-.008-.22-.113-.458-.102-.696.183-.39.108-.885.487-1.17-.025-.24.314-.295.41-.484l-.04-.016c.15.004-.05-.24.132-.178l.002.012c.1.02-.132-.205-.025-.162l-.035-.032c.017-.05.047.025.084.004.003-.015-.067-.053-.028-.063.16.106.034-.126.21-.003-.014.022.092.014.096.09.027 0 .064-.075-.014-.124-.074-.062-.122-.14-.213-.142l.05.05c-.065-.026-.035-.01-.08-.035-.046.05-.134-.002-.196.015l.007.004c.05.077-.016.086-.04.1l-.04-.013c-.076-.032.09.156-.014.06-.048.135-.137.266-.22.396.033.046-.07.096.037.12-.126-.03-.207.06-.22.1-.01-.006-.02-.014-.014-.018-.172.003.08.157-.12.14.112.073-.103.113.016.222l-.075-.026c-.066.127-.18.252-.24.36.07.138-.123.23 0 .368-.052.06-.15.163-.115.28l-.016-.014c-.022.117-.057.262.026.356-.153.01-.126.067-.177.112.066.09.036.25.094.373-.073.014.024.1-.08.102.047.087.076.175.09.266m1.695-3.295c.038.044-.046.03.02.075.046.003-.004-.053-.02-.075m-.005.08l-.033-.018.08.15c.09.032-.108-.15-.047-.13m.023.164l.02.006-.033-.047.013.04zM47.96 15.69l.034-.074c-.214.105-.08.073-.033.075m-19.557 8.675c.07-.102.14-.2.203-.31l.08-.134.04-.066c-.638-.156-.177 0-.32-.015l-.003.303v.222zm-9.343 9.482l.04-.026c.103-.08.052-.04-.04.027m9.343-9.482c-.61.18-1.937 2.522-3.016 3.42-1.745 1.91-3.565 3.786-5.592 5.51.123-.113.156-.163.282-.28-.377.35-.797.742-1.287 1.052-.132.07.122-.11.27-.22-1.828 1.34-6.018 2.767-7.474 2.602-.63.038-.91.076-.556.1-4.142.08-8.665-2.243-10.455-6.315-1.324-4.29.294-8.894 2.83-12.264.254-.325.32-.368.28-.256 4.373-5.927 11.342-9.81 18.336-12.222.27-.124-.747.177-.047-.078-2.36.667-4.05 1.7-6.05 2.558l.232-.156c-1.43.674-.242.226-1.715.95-.583.277.118-.123-.15.018-2.94 1.613-5.868 3.628-8.064 5.93-.657.45-2.503 2.62-3.235 3.64-.468.743-.932 1.49-1.033 1.815C.47 22.72-.31 25.78.117 28.787c.307 3.178 3.014 5.38 5.606 6.722 5.617 2.777 12.53.292 16.472-4.147 1.946-2.027 4.13-4.2 6.073-6.794.048-.065.09-.137.135-.205M47.96 15.69c-.18.494-.065.917-.195 1.384-.33 2.08-.873 4.143-1.857 6.043l.048-.225c-.777 1.743-2.284 3.71-4.52 3.758-2.15.144-4.197-1.306-5.177-3.125l.17.226c-.082-.146-.182-.283-.293-.413l-.16-.2c-.315-.014-.127.134-.216.192l-.284.95c-.193.634-.42 1.252-.654 1.865-.487 1.214-1.034 2.408-1.796 3.448-.618 1.242-2.298 1.384-3.114.287-.788-.985-1.217-2.274-1.27-3.534.203-1.584.078-2.075-.24-1.98v.998c.008.792-.033 1.686.24 2.49.22.812.55 1.628 1.155 2.28.587.66 1.615 1.025 2.494.564.024-.01.033-.012.034-.01 1.812-1.524 2.827-4.595 3.604-7.04-.02-.027.01-.096.04-.168-.047-.053-.094-.106-.138-.16.286-.156.204.01.138.16.07.078.137.157.198.243.204.29.388.616.637.9 1.245 1.498 3.253 2.574 5.28 2.153 2.085-.386 3.37-2.254 4.223-3.98.854-1.795 1.398-3.718 1.71-5.68.067-.427.116-.857.14-1.295l-.194-.11c.022-.014.016-.02 0-.02m14.664-3.33c-.03-.117-.058-.237-.084-.36-.042.057-.09.15-.14.277.03-.062.058-.128.092-.188-.053.12-.122.236-.16.365.023-.068.045-.124.067-.178-.716 1.396-.99 3.166-1.367 4.24.044-.18.013-.1.103-.47-.747 2.4-1.51 4.958-2.673 7.377-.59 1.205-1.28 2.374-2.062 3.472-.62.95-1.833 1.898-2.966 1.603-.123-.02-.245-.068-.36-.136.118.062.24.103.36.135.062.01.123.015.185.01-.98-.567-2.885-1.296-4-2.82-.945-1.654-.77-3.84-.518-5.448l-.01.206c.105-.556.2-1.115.328-1.673l.073-.028c.13-.536.232-1.075.32-1.61l.13-.8c.11-.19.023-.768-.368-.7-.554-.018-1.106.12-1.512-.172-.028.05-.048.1-.068.15.044-.022.103-.05.18-.085l-.004.094c0 .067-.01.13-.013.198.134.06.275.07.41.1.267.017.528 0 .762-.01.273-.004.417-.01.37.105-.006.183-.07.47-.1.7-.082.486-.163.97-.266 1.448-.484 1.878-.9 3.935-.518 5.92.125 2.244 2.374 3.354 3.92 4.28.876.84 2.176.243 2.92-.327.806-.678 1.307-1.552 1.852-2.38 1.077-1.678 1.91-3.51 2.568-5.382.76-2.117 1.326-4.284 1.908-6.365.16-.51.36-1.004.595-1.473l.046-.078zm.168-.282l.087-.147.026-.04.007-.01c.378.076-.508-.12-.416-.093l.005.027.02.107.02.08c.104-.137.183-.076.252.078m37.126.508c-.375-.216-.48.014-.68.077-.338.184-.664.38-.988.584-.648.402-1.285.816-1.945 1.19-1.31.765-2.72 1.33-4.205 1.633-2.91.596-6.15.85-8.748-.608-.65-.34-1.19-.85-1.653-1.4-.248-.265-.396-.604-.6-.9-.024.003-.033.003-.033 0-.035.767.895 1.482 1.462 1.985.754.574 1.625.985 2.53 1.19l-.045.022c4.733 1.048 9.884-.39 13.882-3.324.277-.12.53-.37.826-.385.196.06.107.54-.004.763-.32.528-.546 1.133-.69 1.737-.144.62-.122 1.244-.212 1.864-.062.296.09.685.043.9-.077.297-.4.413-.68.497-2.257 1.068-4.623 1.927-7.113 2.008-4.06.065-7.017.008-10.7-1.892l-.07-.086c-1.52-.818-2.805-2.192-3.48-3.868-.052-1.203-1.374-.766-2.166-1.065-.772-.032-2.014-1.227-2.102.237-1.018 3.554-2.562 6.976-3.178 10.59l.015-.51c-.143.575.13 1.7-.21 2.533-.616.75-1.114-.556-1.01-.153-.208-.375-.385-.764-.577-1.146-1.206-2.154-2.097-4.225-2.892-6.474-.337-1.143-.68-2.32-1.048-3.575-.184-.628-.375-1.273-.57-1.944-.102-.303-.18-.753-.284-.988l-.013.022-.154.26.096.363c.286 1.046.59 2.076.896 3.102.582 2.038 1.224 4.12 2.144 6.016.435.963.814 1.936 1.316 2.887l.748 1.39c.104.37.94 1.384 1.623.45.18-4.332 2.188-8 3.22-12.135l.232-.75c-.04-.12.15-.313.182-.444-.083-.046-.166-.09-.248-.143.223-.003.27.057.248.143.416.23.854.388 1.3.494.533.12 1.072.2 1.617.23l.32.01c-.05-.1-.08-.176.095.004l-.095-.003c.035.072.08.155.07.168l.3.766c.908 2.015 2.727 3.543 4.768 4.362-.027.007.1.07-.325-.1 2.352 1.032 4.8 1.405 7.182 1.5 2.372.096 4.79-.014 7.06-.84l-.007.02c.704-.25 1.392-.55 2.06-.894.358-.21.604-.298 1.02-.407.19-.062.384-.197.515-.374.045-.14.114-.117.13-.393l-.054-.247c-.025-1.428.114-2.972.93-4.3.006-.21.088-.415-.05-.647" fill="#F7D90C"/></g></svg>