<?xml version="1.0" encoding="iso-8859-1"?>
<!-- Generator: Adobe Illustrator 19.2.1, SVG Export Plug-In . SVG Version: 6.00 Build 0)  -->
<svg version="1.1" xmlns="http://www.w3.org/2000/svg" xmlns:xlink="http://www.w3.org/1999/xlink" x="0px" y="0px"
	 viewBox="0 0 100 40" style="enable-background:new 0 0 100 40;" xml:space="preserve">
<g id="logo_x5F_ea_x5F_ts">
	<g>
		<defs>
			<path id="SVGID_1_" d="M20.684,37.21c-1.002-0.191-1.168-2.532-1.058-3.659c0.472-4.816,4.197-9.113,5.889-10.432
				c0.176-0.142,0.281-0.053,0.281,0.033c0,3.943-0.214,6.197-1.568,10.207c-0.888,2.64-2.331,3.87-3.33,3.87
				C20.823,37.229,20.751,37.224,20.684,37.21 M15.453,18.926c0-0.253,0.529-2.049,1.649-2.16c0.458-0.04,0.983,0.288,0.983,0.537
				c0,0.255-0.593,0.646-0.738,0.94c-0.142,0.283-0.315,1.504-1.015,1.504C15.631,19.747,15.453,19.172,15.453,18.926 M17.73,15.908
				c-3.188,0.186-4.162,2.041-4.199,3.411c-0.043,1.359,1.538,1.394,2.03,1.394c0.497,0,1.644-0.145,2.383-0.534
				c0.313,0.32,1.65,0.61,2.559,0.679c0.916,0.072,2.141-0.217,2.141-0.217s0.026,0.252,0.661,0.18
				c1.466-0.167,1.511-0.998,1.858-1.216c0.353-0.216,0.529-0.147,0.529,0.219c0,0.355-0.035,2.003-0.035,2.003
				c-6.73,5.127-7.655,10.958-7.607,12.295c0.076,2.13,1.008,3.655,2.836,3.803c0.086,0.006,0.17,0.011,0.252,0.013h0.097
				c5.395-0.074,6.246-12.254,6.246-12.921c0-0.68-0.281-2.115,0.138-3.189c0.217-0.557,0.632-0.897,1.009-1.094
				c0.343-0.178,0.658-0.234,0.737-0.234c0.181,0,0.566,0,0.603-0.389c0.032-0.4-0.352-0.435-0.603-0.4
				c-0.238,0.038-1.154,0.47-1.437,0.576c-0.17-0.106-0.349-0.327-0.379-1.255c-0.035-0.941-1.996-0.727-2.209-0.54
				c-0.213,0.182-0.809,0.643-1.049,0.469c-0.882-0.646-1.404-0.754-1.966-0.797c-0.563-0.031-0.872,0.511-0.872,0.511
				s-0.175,0.253,0.414,0.321c0.6,0.079,0.563,0.83,0.563,0.83s-0.803,0.169-1.683,0.028c-1.271-0.204-1.016-1.721-1.016-2.723
				c0-0.924-0.796-1.229-1.742-1.229C17.902,15.9,17.816,15.903,17.73,15.908 M10.767,11.964
				c-0.041,0.613,0.062,11.154,0.135,11.365c0.068,0.214,0.105,1.081,0.765,1.045c0.665-0.038,1.266-1.111,1.509-1.683
				c0.248-0.576-0.384-0.688-0.559-0.832c-0.175-0.136-0.285-0.645-0.285-0.965c0-0.325,0.212-9.791,0.248-10.04
				c0.038-0.254-0.248-0.715-0.768-0.715C11.247,10.139,10.793,11.352,10.767,11.964 M76.854,7.801c0,0.65,0.142,1.007,1.3,1.007
				c1.156,0,1.608-0.536,1.397-0.821c-0.209-0.292-0.417-0.429-0.455-0.898c-0.04-0.43,0.072-1.234-0.6-1.284
				c-0.019,0-0.035-0.002-0.05-0.002C77.724,5.803,76.854,7.177,76.854,7.801 M82.141,27.095c-0.377-0.607-0.911-1.652-1.011-1.794
				c-0.105-0.143-0.182-0.434,0.1-0.467c0.284-0.032,1.477-0.246,1.683-0.246c0.21,0,0.248,0.039,0.279,0.246
				c0.036,0.219,0.456,4.233,0.456,4.233S82.532,27.709,82.141,27.095 M84.669,14.94h1.332c0,0-0.593,1.684-1.442,2.363
				L84.669,14.94z M84.947,11.607c0.468-3.265,2.765-5.595,3.222-5.305c0.454,0.284,0.06,1.21-0.248,2.506
				c-0.309,1.29-1.396,5.132-1.396,5.132h-1.785C84.742,13.94,84.684,13.458,84.947,11.607 M88.769,4.938
				c-1.326,0.193-2.388,0.986-3.232,2.025c-1.983,2.449-2.726,5.139-2.726,6.977c0,0-2.89-0.121-4.872-0.371
				c-0.745-0.09-1.401-0.847-2.341-0.452c-0.706,0.3-0.649,1.031-0.106,1.249c0.358,0.153,2.345,0.393,3.082,0.499
				c0.737,0.115,4.237,0.115,4.237,0.115c0,0.283,0.081,2.689,0.103,3.045c0.022,0.355-0.15,1.429-1.225,1.684
				c-0.275,0.062-0.275,0.062-1.578,0.115c-3.257,0.122-3.88-2.2-3.818-2.695c0.034-0.284,0.387-1.51,0.631-1.688
				c0.072-0.105-0.493-0.29-0.84-0.179c-0.349,0.108-0.705,0.645-1.264,0.575c-0.214,0.175-0.662,1.363-0.662,1.758
				c0,0-0.501,0-1.369-0.108c-0.735-0.092-1.051,1.684-1.55,1.684c-0.271,0-0.623-0.361-1.043-0.929
				c-0.422-0.581-0.808-0.718-1.477-0.718c-0.98,0-1.121,1.933-2.555,1.864c-0.044-0.002-0.088,0.001-0.131,0.002
				c-0.24,0.014-0.479,0.03-0.744-0.757c-0.313-0.935-0.839-1.287-1.3-1.287c-0.3,0-0.475,0.565-0.489,0.708
				c-0.065,1.017,1.438,2.444,2.838,2.624c0.721,0.093,1.432-0.266,2.035-0.623c0.57-0.339,1.04-0.677,1.33-0.636
				c0.525,0.086,0.698,1.439,2.035,1.439c0.944,0,1.685-1.184,1.959-1.618c0.283-0.429,0.706-0.638,0.706-0.638
				c0.348,1.507,4.307,2.005,4.833,2.039c0.527,0.038,3.223-0.178,3.365-0.178c0.142,0,0.246,0,0.21,0.178
				c-0.038,0.18,0.246,2.793,0.246,2.793s-0.705,0-2.143,0.548c-1.431,0.531-1.254,1.431-0.802,2.216
				c0.459,0.785,3.082,4.339,3.716,5.022c0.634,0.678,1.541,0.209,1.508-0.504c-0.031-0.719-0.456-6.452-0.456-6.452
				c1.402-0.571,6.057-0.611,6.657-0.899c0.597-0.281-0.034-0.853-0.034-0.853s-1.687,0.068-2.07,0.068
				c-0.383,0-2.376,0.217-2.943,0.25c-0.556,0.037-1.542,0.175-1.82,0.289l-0.248-4.125c0.458-0.287,2.558-3.412,2.841-4.091
				l1.331,0.038c0,0-0.422,2.599,0,4.259c0.181,0.717,0.602,2.5,3.329,2.45c3.393-0.059,3.393-1.691,3.393-1.868
				c0-0.176-0.035-0.541-0.238-0.247c-0.206,0.277-0.905,1.194-2.632,1.255c-2.207,0.069-2.45-2.372-2.411-3.058
				c0.029-0.677,0.137-2.436,0.419-2.866c0,0,0.146-0.145,1.899-0.07c1.479,0.06,6.22,0.458,7.648,0.579v-0.556
				c-0.249-0.158-0.647-0.32-1.276-0.453c-3.839-0.82-7.925-0.503-7.925-0.503s-0.166-0.006-0.069-0.319
				c0.095-0.313,0.911-2.978,1.088-3.513c0.169-0.54,0-1.08-0.457-1.184c-0.457-0.107-0.705,0.214-0.874,0.782
				c-0.177,0.575-1.087,3.124-1.369,3.699c-0.094,0.177-0.21,0.519-0.35,0.615c-0.145,0.105-1.089,0.029-1.089,0.029
				c0.321-0.467,1.683-5.058,1.789-5.772c0.314-2.151,0.261-3.272-0.552-3.273C88.872,4.926,88.821,4.931,88.769,4.938
				 M20.749,5.159c-1.815,0.203-3.752,0.528-5.641,0.853C12.168,6.52,8.966,7.179,6.679,7.77C4.264,8.393,2.834,8.931,2.486,8.985
				C1.825,9.097,1.194,8.922,1.051,8.913C0.423,8.88-0.004,9.26,0,9.708c0,0.247,0.215,1.536,0.986,1.462
				c0.765-0.068,1.116-0.316,1.327-0.426c0.211-0.107,7.605-2.473,13.843-3.48c6.235-1.004,8.833-1.147,9.216-1.147
				c0.388,0,1.16-0.067,1.438-0.067c0.278,0,0.738,0.289,1.016,0.358c0.279,0.069,1.331,0,1.434-0.788
				c0.104-0.79-0.8-0.972-1.05-0.972C28.049,4.649,24.741,4.73,20.749,5.159 M59.856,1.885c-5.364,0.118-10.272,4.376-10.168,8.254
				c0.105,3.872,2.982,5.91,5.647,7.024c2.663,1.116,6.484,3.516,6.35,4.952c-0.146,1.429-2.177,1.321-2.604,1.321
				c-0.411,0-0.356-0.011-1.328-0.211c-1.053-0.219-0.769-0.612,0.246-0.323c1.107,0.309,1.193-0.035,1.371-0.534
				c0.173-0.508-0.315-0.97-0.635-1.077c-0.312-0.108-0.841-0.288-1.89-0.611c-1.051-0.326-1.369,0.718-1.647,1.148
				c-0.192,0.287-0.353,0.8-0.353,1.039c0,1.723,3.681,2.224,4.063,2.224c1.86,0,3.795-1.365,3.924-2.976
				c0.247-3.042-2.522-4.486-6.442-6.351c-3.931-1.859-5.087-3.553-5.156-5.346c-0.194-4.955,5.229-6.67,8.063-6.739
				c4.137-0.091,7.136,2.832,7.354,5.563c0.077,0.857,0.178,1.396-0.101,1.612c-0.281,0.216-0.528,0.216-0.528,0.611
				c0,0.39,0.491,0.499,0.629,0.499c0.213,0,1.452-0.32,1.484-3.258c0.033-3.17-3.637-6.823-8.118-6.823
				C59.964,1.884,59.91,1.884,59.856,1.885 M37.568,20.678c-0.538-0.145-0.616-1.576-0.071-1.684
				c0.287-0.05,0.389,0.247,0.665,0.396c0.274,0.135,0.735,0.216,0.95,0.435c0.306,0.315,0,0.954-0.887,0.954
				C38.034,20.778,37.815,20.748,37.568,20.678 M29.686,15.09c0.009-0.451,0.101-11.341,4.483-14.269
				c0.472-0.326,1.391,2.043,0.108,6.048c-1.412,4.414-3.19,7.747-4.277,8.502c0,0-0.058,0.03-0.125,0.03
				C29.783,15.401,29.678,15.347,29.686,15.09 M33.648,0.103c-1.947,0.57-6.328,7.248-5.543,14.732
				c0.805,7.636,6.41,6.525,7.324,6.207c1.367,1.719,4.909-0.112,5.296-0.689c2.136-0.103,4.165-0.79,4.629-0.895
				c0.451-0.102,0.556,0,0.418,0.604c-0.211,0.915,0.058,1.842,0.105,1.906c0.292,0.383,0.395,0.649,1.233,0.695
				c0.499,0.019,0.974-0.151,1.183-0.661c0.161-0.387,0.522-0.713-0.353-0.68c-0.872,0.038-0.908-0.715-0.872-1.003
				c0.035-0.285,0.07-1.186,0.101-2.017c0.036-0.815-1.188-0.641-1.397-0.528c-0.211,0.103-0.742,0.503-0.772-0.076
				c-0.041-0.57-0.109-1.431-0.597-1.431c-0.495,0-1.087,1.61-1.054,2.112c0.043,0.507,0.32,0.901,0.32,0.901
				c-0.668,0.038-2.244,0.324-2.836-0.355c-0.452-0.521-0.495-0.977-2.104-0.941c-2.267,0.059-3.195,1.421-3.471,2.265
				c-3.896,0.82-4.911-2.588-5.079-3.339c1.678-1.329,4.201-6.199,5.469-9.787c0.328-0.942,1.98-6.139-0.493-6.991
				C34.891,0.042,34.626,0,34.362,0C34.121,0,33.883,0.035,33.648,0.103"/>
		</defs>
		<clipPath id="SVGID_2_">
			<use xlink:href="#SVGID_1_"  style="overflow:visible;"/>
		</clipPath>
		
			<linearGradient id="SVGID_3_" gradientUnits="userSpaceOnUse" x1="-555.5018" y1="421.7371" x2="-554.3038" y2="421.7371" gradientTransform="matrix(83.8382 0 0 -83.8382 46571.832 35376.6523)">
			<stop  offset="0" style="stop-color:#0067AB"/>
			<stop  offset="0.4534" style="stop-color:#0268AC"/>
			<stop  offset="0.6168" style="stop-color:#096DB0"/>
			<stop  offset="0.7332" style="stop-color:#1476B7"/>
			<stop  offset="0.8273" style="stop-color:#2583C0"/>
			<stop  offset="0.9079" style="stop-color:#3B94CC"/>
			<stop  offset="0.978" style="stop-color:#56A7DB"/>
			<stop  offset="1" style="stop-color:#60AFE1"/>
		</linearGradient>
		
			<rect x="-0.004" style="clip-path:url(#SVGID_2_);fill:url(#SVGID_3_);stroke:#0067AC;stroke-width:0.243;stroke-miterlimit:10;" width="100.004" height="37.937"/>
	</g>
	<g>
		<path style="fill:#005A8C;" d="M30.799,27.555v2.85h-0.681v-2.85h-0.316v-0.587h0.316v-0.703c0.017-0.268,0.123-0.501,0.316-0.699
			c0.218-0.201,0.47-0.301,0.756-0.301c0.22,0,0.424,0.045,0.609,0.135L31.6,25.964c-0.153-0.088-0.281-0.132-0.384-0.132
			c-0.09,0-0.182,0.041-0.275,0.124c-0.088,0.09-0.135,0.202-0.143,0.335v0.677h0.639v0.587H30.799z"/>
		<path style="fill:#005A8C;" d="M35.013,27.48c-0.311,0.048-0.552,0.171-0.722,0.37c-0.171,0.2-0.256,0.45-0.256,0.75v1.805h-0.681
			v-3.437h0.681v0.489c0.1-0.268,0.316-0.455,0.647-0.56L35.013,27.48z"/>
		<path style="fill:#005A8C;" d="M40.881,30.406h-0.681v-0.602c-0.268,0.461-0.677,0.692-1.226,0.692
			c-0.544,0-1.005-0.189-1.382-0.566c-0.377-0.377-0.566-0.823-0.566-1.337c0-0.519,0.188-0.966,0.566-1.342
			c0.377-0.376,0.838-0.564,1.382-0.564c0.549,0,0.958,0.228,1.226,0.684v-0.402h0.681V30.406z M40.201,28.864v-0.549
			c-0.048-0.248-0.162-0.462-0.342-0.643c-0.253-0.256-0.548-0.384-0.884-0.384c-0.338,0-0.632,0.125-0.88,0.376
			c-0.248,0.25-0.372,0.56-0.372,0.929c0,0.366,0.124,0.673,0.372,0.922c0.248,0.248,0.542,0.372,0.88,0.372
			c0.336,0,0.631-0.127,0.884-0.38C40.039,29.326,40.153,29.112,40.201,28.864z"/>
		<path style="fill:#005A8C;" d="M46.077,29.823c-0.236,0.449-0.628,0.673-1.177,0.673c-0.544,0-1.005-0.189-1.382-0.566
			c-0.377-0.377-0.566-0.823-0.566-1.337c0-0.519,0.188-0.966,0.566-1.341c0.377-0.375,0.838-0.562,1.382-0.562
			c0.546,0,0.955,0.227,1.226,0.681v-0.402h0.681v2.587c0,0.504-0.182,0.936-0.545,1.297c-0.381,0.384-0.845,0.575-1.391,0.575
			c-0.547,0-1.007-0.187-1.38-0.56c-0.085-0.088-0.193-0.218-0.323-0.391l0.65-0.237c0.088,0.11,0.149,0.181,0.184,0.211
			c0.243,0.246,0.533,0.368,0.869,0.368C45.579,30.819,45.981,30.487,46.077,29.823z M46.122,28.303
			c-0.05-0.243-0.168-0.459-0.354-0.647c-0.243-0.246-0.533-0.368-0.869-0.368c-0.338,0-0.632,0.125-0.88,0.376
			c-0.248,0.25-0.372,0.56-0.372,0.929c0,0.366,0.124,0.674,0.372,0.923c0.248,0.25,0.542,0.374,0.88,0.374
			c0.336,0,0.631-0.127,0.883-0.38c0.176-0.175,0.289-0.384,0.339-0.624V28.303z"/>
		<path style="fill:#005A8C;" d="M50.566,27.48c-0.311,0.048-0.552,0.171-0.722,0.37c-0.171,0.2-0.255,0.45-0.255,0.75v1.805h-0.68
			v-3.437h0.68v0.489c0.1-0.268,0.316-0.455,0.647-0.56L50.566,27.48z"/>
		<path style="fill:#005A8C;" d="M56.435,30.406h-0.681v-0.602c-0.268,0.461-0.676,0.692-1.226,0.692
			c-0.544,0-1.004-0.189-1.381-0.566c-0.378-0.377-0.566-0.823-0.566-1.337c0-0.519,0.188-0.966,0.566-1.342
			c0.377-0.376,0.838-0.564,1.381-0.564c0.55,0,0.958,0.228,1.226,0.684v-0.402h0.681V30.406z M55.754,28.864v-0.549
			c-0.047-0.248-0.161-0.462-0.342-0.643c-0.253-0.256-0.548-0.384-0.884-0.384c-0.338,0-0.631,0.125-0.88,0.376
			c-0.248,0.25-0.372,0.56-0.372,0.929c0,0.366,0.124,0.673,0.372,0.922c0.248,0.248,0.542,0.372,0.88,0.372
			c0.336,0,0.63-0.127,0.884-0.38C55.592,29.326,55.707,29.112,55.754,28.864z"/>
		<path style="fill:#005A8C;" d="M59.362,27.841v2.565h-0.68v-3.437h0.68c0.116-0.125,0.354-0.188,0.715-0.188
			c0.433,0,0.784,0.133,1.049,0.398c0.266,0.266,0.401,0.59,0.406,0.974v2.253h-0.676v-2.223c0-0.233-0.08-0.427-0.237-0.581
			c-0.158-0.154-0.338-0.231-0.541-0.231c-0.201,0-0.378,0.073-0.53,0.218C59.459,27.677,59.398,27.761,59.362,27.841z"/>
		<path style="fill:#005A8C;" d="M66.641,29.308l0.647,0.237c-0.128,0.173-0.229,0.299-0.305,0.376
			c-0.381,0.383-0.846,0.575-1.396,0.575c-0.543,0-1.004-0.189-1.381-0.566c-0.378-0.377-0.566-0.824-0.566-1.34
			s0.188-0.963,0.566-1.339c0.377-0.376,0.838-0.564,1.381-0.564c0.55,0,1.009,0.185,1.38,0.556c0.086,0.085,0.192,0.214,0.32,0.387
			l-0.647,0.241c-0.09-0.113-0.152-0.187-0.184-0.222c-0.243-0.241-0.533-0.361-0.869-0.361c-0.336,0-0.627,0.125-0.875,0.374
			c-0.248,0.25-0.373,0.559-0.373,0.927c0,0.366,0.125,0.674,0.373,0.923c0.248,0.25,0.539,0.374,0.875,0.374
			c0.336,0,0.63-0.127,0.884-0.38C66.494,29.484,66.551,29.418,66.641,29.308z"/>
		<path style="fill:#005A8C;" d="M69.916,28.582v0.011c0,0.366,0.124,0.673,0.372,0.922c0.248,0.248,0.542,0.372,0.88,0.372
			c0.336,0,0.63-0.127,0.884-0.38c0.036-0.035,0.103-0.114,0.203-0.237l0.64,0.226c-0.095,0.16-0.205,0.302-0.331,0.425
			c-0.381,0.383-0.846,0.575-1.396,0.575c-0.543,0-1.004-0.189-1.381-0.566c-0.378-0.377-0.566-0.823-0.566-1.337
			c0-0.519,0.188-0.966,0.566-1.342c0.377-0.376,0.838-0.564,1.381-0.564c0.55,0,1.015,0.191,1.396,0.571
			c0.328,0.331,0.492,0.772,0.492,1.324H69.916z M70.035,27.987h2.253c-0.16-0.466-0.533-0.699-1.121-0.699
			C70.579,27.288,70.201,27.521,70.035,27.987z"/>
		<path style="fill:#005A8C;" d="M75.987,28.691c-0.256-0.14-0.431-0.258-0.527-0.354c-0.185-0.185-0.278-0.399-0.278-0.639
			c0-0.238,0.09-0.449,0.271-0.632c0.181-0.183,0.407-0.275,0.677-0.275c0.271,0,0.488,0.084,0.654,0.252
			c0.171,0.171,0.255,0.357,0.255,0.56v0.105l-0.609,0.248c-0.038-0.283-0.081-0.45-0.13-0.5c-0.049-0.05-0.106-0.075-0.171-0.075
			c-0.065,0-0.127,0.029-0.185,0.087c-0.057,0.058-0.086,0.134-0.086,0.229c0,0.095,0.032,0.175,0.097,0.241
			c0.043,0.045,0.142,0.117,0.297,0.215c0.283,0.155,0.49,0.297,0.62,0.425c0.206,0.211,0.309,0.459,0.309,0.745
			c0,0.293-0.106,0.548-0.32,0.763c-0.213,0.216-0.48,0.323-0.801,0.323s-0.588-0.108-0.803-0.323
			c-0.214-0.216-0.321-0.485-0.321-0.809l0.676-0.169c0,0.291,0.047,0.483,0.139,0.576c0.093,0.093,0.196,0.139,0.308,0.139
			c0.113,0,0.217-0.047,0.311-0.139c0.094-0.093,0.141-0.213,0.141-0.361c0-0.143-0.05-0.263-0.15-0.361
			C76.303,28.904,76.177,28.813,75.987,28.691z"/>
	</g>
</g>
<g id="Layer_1">
</g>
</svg>
