<svg xmlns="http://www.w3.org/2000/svg" viewBox="0 0 100 10" enable-background="new 0 0 100 10"><g><linearGradient id="a" gradientUnits="userSpaceOnUse" x1="81.946" y1="-1.108" x2="84.163" y2="7.167"><stop offset="0" stop-color="#D1D3D4"/><stop offset="1" stop-color="#58595B"/></linearGradient><path d="M86.225 1.595c0-1.242-.95-2.277-2.095-2.277h-3.77v7.24h.96V3.875h2.577l1.45 2.684h1.087l-1.53-2.824c.824-.467 1.32-1.093 1.32-2.14zM81.32 2.96V.232h2.72c.716 0 1.298.574 1.298 1.362 0 .788-.582 1.365-1.297 1.365h-2.72z" fill="url(#a)"/><linearGradient id="b" gradientUnits="userSpaceOnUse" x1="84.611" y1=".108" x2="84.611" y2="1.865"><stop offset="0" stop-color="#58595B"/><stop offset="1" stop-color="#A7A9AC"/></linearGradient><path d="M83.38.115l.066.118h.594c.715 0 1.297.574 1.297 1.362 0 .093-.008.183-.024.27.004-.005.01-.01.013-.016.368-.555.516-.644.516-.644C85.794-.048 83.38.116 83.38.116z" fill="url(#b)"/><linearGradient id="c" gradientUnits="userSpaceOnUse" x1="84.907" y1="6.564" x2="84.907" y2="3.728"><stop offset="0" stop-color="#A7A9AC"/><stop offset="1" stop-color="#58595B"/></linearGradient><path fill="url(#c)" d="M83.824 3.728l.628.002 1.538 2.834h-.655z"/><linearGradient id="d" gradientUnits="userSpaceOnUse" x1="84.46" y1="5.912" x2="84.46" y2="3.874"><stop offset="0" stop-color="#808285"/><stop offset="1" stop-color="#58595B"/></linearGradient><path d="M83.896 3.874h.392l.736 1.224s-.13.44-.033.814l-1.094-2.038z" fill="url(#d)"/><linearGradient id="e" gradientUnits="userSpaceOnUse" x1="96.307" y1="-.683" x2="96.307" y2="6.559"><stop offset="0" stop-color="#D1D3D4"/><stop offset="1" stop-color="#58595B"/></linearGradient><path d="M96.795-.683h-.977l-3.076 7.24h.925l.85-1.92h3.576l.85 1.92h.927l-3.075-7.24zm-1.91 4.41l1.42-3.394 1.425 3.393h-2.845z" fill="url(#e)"/><linearGradient id="f" gradientUnits="userSpaceOnUse" x1="97.436" y1="3.738" x2="97.436" y2=".019"><stop offset="0" stop-color="#A7A9AC"/><stop offset="1" stop-color="#58595B"/></linearGradient><path fill="url(#f)" d="M96.49.79l.333-.77 1.558 3.718h-.654z"/><linearGradient id="g" gradientUnits="userSpaceOnUse" x1="98.828" y1="6.564" x2="98.828" y2="4.566"><stop offset="0" stop-color="#A7A9AC"/><stop offset="1" stop-color="#58595B"/></linearGradient><path fill="url(#g)" d="M98.064 4.566l.628.003.9 1.994h-.655z"/><linearGradient id="h" gradientUnits="userSpaceOnUse" x1="30.685" y1="-.796" x2="30.685" y2="6.643"><stop offset="0" stop-color="#D1D3D4"/><stop offset="1" stop-color="#58595B"/></linearGradient><path d="M30.54 3.303h3.1v1.184c-.57.794-1.566 1.304-2.66 1.304-1.756 0-3.185-1.323-3.185-2.867 0-1.54 1.43-2.864 3.186-2.864 1.018 0 1.957.57 2.48 1.28l.16-.006.81-.477c-.74-.985-2.02-1.654-3.45-1.654-2.298 0-4.158 1.708-4.158 3.72 0 2.008 1.86 3.72 4.16 3.72 1.43 0 2.738-.636 3.566-1.83V2.39h-4.01v.913z" fill="url(#h)"/><linearGradient id="i" gradientUnits="userSpaceOnUse" x1="98.387" y1="5.408" x2="98.387" y2="4.634"><stop offset="0" stop-color="#636466"/><stop offset="1" stop-color="#4D4D4F"/></linearGradient><path d="M98.082 4.634h.583l.027.057s-.24.267-.25.718l-.36-.774z" fill="url(#i)"/><linearGradient id="j" gradientUnits="userSpaceOnUse" x1="29.404" y1="2.981" x2="29.404" y2=".057"><stop offset="0" stop-color="#939598"/><stop offset="1" stop-color="#77787B"/></linearGradient><path d="M30.8.063c-1-.057-2.466.245-3.26 2.226 0 0 .163.243.245.683 0 .003.002.005.003.008l-.002-.057c0-1.49 1.338-2.777 3.015-2.86zm-.27 2.328v.113l.738-.112h-.737z" fill="url(#j)"/><linearGradient id="k" gradientUnits="userSpaceOnUse" x1="21.585" y1="-.699" x2="21.585" y2="2.851"><stop offset="0" stop-color="#D1D3D4"/><stop offset="1" stop-color="#58595B"/></linearGradient><path d="M24.803 1.243c0-1.056-.92-1.942-2.128-1.942h-4.308v3.55h5.395c.638-.262 1.04-.82 1.04-1.607zm-5.39 1.142V.22h3.102c.755 0 1.394.39 1.394 1.053 0 .667-.64 1.112-1.395 1.112h-3.1z" fill="url(#k)"/><linearGradient id="l" gradientUnits="userSpaceOnUse" x1="21.632" y1="2.851" x2="21.632" y2="6.545"><stop offset="0" stop-color="#939598"/><stop offset="1" stop-color="#58595B"/></linearGradient><path d="M23.75 2.856l.013-.005h-5.395v3.695h4.34c1.24 0 2.19-.927 2.19-2.006 0-.89-.48-1.43-1.147-1.684zM22.528 5.63h-3.113V3.302h3.1c.81 0 1.477.478 1.477 1.197 0 .704-.65 1.13-1.463 1.13z" fill="url(#l)"/><linearGradient id="m" gradientUnits="userSpaceOnUse" x1="23.819" y1="1.013" x2="23.819" y2="2.851"><stop offset="0" stop-color="#808285"/><stop offset=".989" stop-color="#58595B"/></linearGradient><path d="M24.792 1.243c0-.078-.007-.155-.016-.23-.12.41-.632.485-.632.485s-.185 1.194-1.298 1.352h.907c.636-.262 1.04-.82 1.04-1.607z" fill="url(#m)"/><linearGradient id="n" gradientUnits="userSpaceOnUse" x1="19.123" y1=".225" x2="19.123" y2="2.385"><stop offset="0" stop-color="#8D9092"/><stop offset="1" stop-color="#58595B"/></linearGradient><path d="M18.838.225s.363.438.57 2.16V.226h-.57z" fill="url(#n)"/><linearGradient id="o" gradientUnits="userSpaceOnUse" x1="19.123" y1="3.308" x2="19.123" y2="5.61"><stop offset="0" stop-color="#848689"/><stop offset="1" stop-color="#58595B"/></linearGradient><path d="M18.838 3.308s.363.467.57 2.302V3.308h-.57z" fill="url(#o)"/><linearGradient id="p" gradientUnits="userSpaceOnUse" x1="12.544" y1="-.796" x2="12.544" y2="6.643"><stop offset="0" stop-color="#D1D3D4"/><stop offset="1" stop-color="#58595B"/></linearGradient><path d="M12.9.06c.995 0 1.773.63 2.36 1.28l.28-.006.81-.477c-.743-.985-2.016-1.654-3.45-1.654-2.302 0-4.162 1.708-4.162 3.72 0 2.008 1.86 3.72 4.16 3.72 1.436 0 2.71-.666 3.452-1.65l-.81-.477-.28.006c-.48.652-1.38 1.27-2.36 1.27-1.762 0-3.193-1.325-3.193-2.87 0-1.54 1.43-2.863 3.192-2.863z" fill="url(#p)"/><linearGradient id="q" gradientUnits="userSpaceOnUse" x1="74.896" y1="-.618" x2="74.896" y2="6.536"><stop offset="0" stop-color="#D1D3D4"/><stop offset="1" stop-color="#58595B"/></linearGradient><path fill="url(#q)" d="M77.776-.618h-5.57v.824h3.943l-4.333 6.33h6.158v-.823h-4.503z"/><linearGradient id="r" gradientUnits="userSpaceOnUse" x1="89.957" y1="-.685" x2="89.957" y2="6.559"><stop offset="0" stop-color="#D1D3D4"/><stop offset="1" stop-color="#58595B"/></linearGradient><path fill="url(#r)" d="M89.476-.685h.96V6.56h-.96z"/><linearGradient id="s" gradientUnits="userSpaceOnUse" x1="41.067" y1="-18.374" x2="41.067" y2="31.592"><stop offset="0" stop-color="#D1D3D4"/><stop offset="1" stop-color="#58595B"/></linearGradient><path fill="url(#s)" d="M41.064 4.706L38.24-.69h-1.058v7.243h.973V1.15l2.805 5.424.108-.006 2.905-5.417v5.403h.978V-.69h-1.02z"/><linearGradient id="t" gradientUnits="userSpaceOnUse" x1="3.768" y1="-.699" x2="3.768" y2="2.851"><stop offset="0" stop-color="#D1D3D4"/><stop offset="1" stop-color="#58595B"/></linearGradient><path d="M6.985 1.243C6.985.187 6.065-.7 4.857-.7H.55v3.55h5.396c.637-.262 1.04-.82 1.04-1.607zM1.597 2.385V.22h3.1c.756 0 1.395.39 1.395 1.053 0 .667-.64 1.112-1.394 1.112h-3.1z" fill="url(#t)"/><linearGradient id="u" gradientUnits="userSpaceOnUse" x1="3.814" y1="2.851" x2="3.814" y2="6.545"><stop offset="0" stop-color="#939598"/><stop offset="1" stop-color="#58595B"/></linearGradient><path d="M5.933 2.856l.012-.005H.55v3.695h4.34c1.24 0 2.19-.927 2.19-2.006 0-.89-.48-1.43-1.147-1.684zM4.71 5.63H1.597V3.302h3.1c.81 0 1.477.478 1.477 1.197 0 .704-.653 1.13-1.464 1.13z" fill="url(#u)"/><linearGradient id="v" gradientUnits="userSpaceOnUse" x1="6.001" y1="1.013" x2="6.001" y2="2.851"><stop offset="0" stop-color="#808285"/><stop offset=".989" stop-color="#58595B"/></linearGradient><path d="M6.974 1.243c0-.078-.006-.155-.016-.23-.12.41-.632.485-.632.485S6.14 2.693 5.028 2.85h.907c.637-.262 1.04-.82 1.04-1.607z" fill="url(#v)"/><linearGradient id="w" gradientUnits="userSpaceOnUse" x1="1.305" y1=".225" x2="1.305" y2="2.385"><stop offset="0" stop-color="#8D9092"/><stop offset="1" stop-color="#58595B"/></linearGradient><path d="M1.02.225s.363.438.57 2.16V.226h-.57z" fill="url(#w)"/><linearGradient id="x" gradientUnits="userSpaceOnUse" x1="1.305" y1="3.308" x2="1.305" y2="5.61"><stop offset="0" stop-color="#848689"/><stop offset="1" stop-color="#58595B"/></linearGradient><path d="M1.02 3.308s.363.467.57 2.302V3.308h-.57z" fill="url(#x)"/><linearGradient id="y" gradientUnits="userSpaceOnUse" x1="14.675" y1="2.221" x2="21.983" y2="-5.087"><stop offset="0" stop-color="#A7A9AC"/><stop offset="1" stop-color="#636466"/></linearGradient><path fill="url(#y)" d="M15.926.85h.424l-.81.484h-.28z"/><linearGradient id="z" gradientUnits="userSpaceOnUse" x1="15.259" y1="4.756" x2="16.366" y2="4.756"><stop offset="0" stop-color="#fff"/><stop offset="1" stop-color="#A7A9AC"/></linearGradient><path fill="url(#z)" d="M15.943 4.995h.423l-.826-.478-.28.01z"/><linearGradient id="A" gradientUnits="userSpaceOnUse" x1="33.945" y1=".864" x2="33.945" y2="1.334"><stop offset="0" stop-color="#939598"/><stop offset="1" stop-color="#58595B"/></linearGradient><path fill="url(#A)" d="M34.234.864h.195l-.81.47h-.16z"/><linearGradient id="B" gradientUnits="userSpaceOnUse" x1="93.747" y1="7.323" x2="99.408" y2="1.662"><stop offset="0" stop-color="#666"/><stop offset=".108" stop-color="#737373"/><stop offset=".307" stop-color="#959595"/><stop offset=".573" stop-color="#CBCBCB"/><stop offset=".692" stop-color="#E6E6E6"/><stop offset="1" stop-color="#808080"/></linearGradient><path d="M97.07-.677h-.984l-3.097 7.24h.93l.857-1.92h3.6l.855 1.92h.934L97.07-.676zm-1.924 4.41l1.43-3.394 1.436 3.392h-2.866z" fill="url(#B)"/><linearGradient id="C" gradientUnits="userSpaceOnUse" x1="63.989" y1="7.323" x2="69.65" y2="1.662"><stop offset="0" stop-color="#666"/><stop offset=".108" stop-color="#737373"/><stop offset=".307" stop-color="#959595"/><stop offset=".573" stop-color="#CBCBCB"/><stop offset=".692" stop-color="#E6E6E6"/><stop offset="1" stop-color="#808080"/></linearGradient><path d="M66.33-.677l-3.1 7.24h.934l.857-1.92h3.598l.856 1.92h.933L67.31-.676h-.98zm-.942 4.41l1.43-3.394 1.436 3.392h-2.866z" fill="url(#C)"/><linearGradient id="D" gradientUnits="userSpaceOnUse" x1="71.781" y1="6.401" x2="78.357" y2="-.175"><stop offset="0" stop-color="#666"/><stop offset=".108" stop-color="#737373"/><stop offset=".307" stop-color="#959595"/><stop offset=".573" stop-color="#CBCBCB"/><stop offset=".692" stop-color="#E6E6E6"/><stop offset="1" stop-color="#808080"/></linearGradient><path fill="url(#D)" d="M77.92-.612h-5.606v.824h3.968l-4.36 6.33h6.2v-.823h-4.535z"/><linearGradient id="E" gradientUnits="userSpaceOnUse" x1="88.131" y1="4.995" x2="92.237" y2=".89"><stop offset="0" stop-color="#666"/><stop offset=".108" stop-color="#737373"/><stop offset=".307" stop-color="#959595"/><stop offset=".573" stop-color="#CBCBCB"/><stop offset=".692" stop-color="#E6E6E6"/><stop offset="1" stop-color="#808080"/></linearGradient><path fill="url(#E)" d="M89.7-.68h.968v7.245H89.7z"/><linearGradient id="F" gradientUnits="userSpaceOnUse" x1="-.303" y1="6.082" x2="5.977" y2="-.198"><stop offset="0" stop-color="#666"/><stop offset=".108" stop-color="#737373"/><stop offset=".307" stop-color="#959595"/><stop offset=".573" stop-color="#CBCBCB"/><stop offset=".692" stop-color="#E6E6E6"/><stop offset="1" stop-color="#808080"/></linearGradient><path d="M5.587 2.862c.648-.26 1.103-.82 1.103-1.613 0-1.057-.97-1.943-2.186-1.943H.167V6.55h4.37c1.248 0 2.248-.926 2.248-2.005 0-.89-.526-1.43-1.198-1.683zM1.22.225h3.123c.76 0 1.403.39 1.403 1.054 0 .667-.643 1.11-1.403 1.11H1.22V.226zm3.135 5.41H1.22V3.308h3.123c.816 0 1.486.477 1.486 1.196 0 .704-.658 1.128-1.475 1.128z" fill="url(#F)"/><linearGradient id="G" gradientUnits="userSpaceOnUse" x1="55.266" y1="6.319" x2="62.016" y2="-.432"><stop offset="0" stop-color="#666"/><stop offset=".108" stop-color="#737373"/><stop offset=".307" stop-color="#959595"/><stop offset=".573" stop-color="#CBCBCB"/><stop offset=".692" stop-color="#E6E6E6"/><stop offset="1" stop-color="#808080"/></linearGradient><path fill="url(#G)" d="M60.677-.677l-2.034 2.835-2.036-2.835H55.51l2.63 3.622-2.63 3.62h1.097l2.036-2.833 2.034 2.832h1.094l-2.624-3.62 2.625-3.62z"/><linearGradient id="H" gradientUnits="userSpaceOnUse" x1="80.24" y1="6.283" x2="86.167" y2=".356"><stop offset="0" stop-color="#666"/><stop offset=".108" stop-color="#737373"/><stop offset=".307" stop-color="#959595"/><stop offset=".573" stop-color="#CBCBCB"/><stop offset=".692" stop-color="#E6E6E6"/><stop offset="1" stop-color="#808080"/></linearGradient><path d="M86.427 1.6c0-1.242-.96-2.277-2.11-2.277H80.52v7.24h.968V3.88h2.593l1.46 2.684h1.095l-1.54-2.824c.832-.467 1.332-1.093 1.332-2.14zM81.49 2.965V.24h2.74c.72 0 1.305.573 1.305 1.36 0 .79-.586 1.366-1.306 1.366h-2.74z" fill="url(#H)"/><linearGradient id="I" gradientUnits="userSpaceOnUse" x1="47.739" y1="7.322" x2="53.4" y2="1.66"><stop offset="0" stop-color="#666"/><stop offset=".108" stop-color="#737373"/><stop offset=".307" stop-color="#959595"/><stop offset=".573" stop-color="#CBCBCB"/><stop offset=".692" stop-color="#E6E6E6"/><stop offset="1" stop-color="#808080"/></linearGradient><path d="M50.078-.677l-3.097 7.24h.933l.855-1.92h3.597l.86 1.92h.932l-3.094-7.24h-.985zm-.94 4.41l1.43-3.394 1.435 3.392h-2.865z" fill="url(#I)"/><linearGradient id="J" gradientUnits="userSpaceOnUse" x1="17.636" y1="6.081" x2="23.914" y2="-.198"><stop offset="0" stop-color="#666"/><stop offset=".108" stop-color="#737373"/><stop offset=".307" stop-color="#959595"/><stop offset=".573" stop-color="#CBCBCB"/><stop offset=".692" stop-color="#E6E6E6"/><stop offset="1" stop-color="#808080"/></linearGradient><path d="M23.525 2.862c.646-.26 1.103-.82 1.103-1.613 0-1.057-.974-1.943-2.184-1.943h-4.338V6.55h4.36c1.26 0 2.25-.926 2.25-2.005 0-.89-.525-1.43-1.19-1.683zM19.16.225h3.123c.757 0 1.4.39 1.4 1.054 0 .667-.643 1.11-1.4 1.11H19.16V.226zm3.128 5.41h-3.13V3.308h3.125c.815 0 1.483.477 1.483 1.196 0 .704-.658 1.128-1.478 1.128z" fill="url(#J)"/><linearGradient id="K" gradientUnits="userSpaceOnUse" x1="9.809" y1="5.723" x2="15.396" y2=".136"><stop offset="0" stop-color="#666"/><stop offset=".108" stop-color="#737373"/><stop offset=".307" stop-color="#959595"/><stop offset=".573" stop-color="#CBCBCB"/><stop offset=".692" stop-color="#E6E6E6"/><stop offset="1" stop-color="#808080"/></linearGradient><path d="M12.6.064c1.105 0 2.08.508 2.66 1.276l.814-.477C15.326-.122 14.044-.79 12.6-.79c-2.316 0-4.19 1.708-4.19 3.72 0 2.008 1.873 3.72 4.19 3.72 1.445 0 2.726-.666 3.474-1.65l-.815-.478c-.58.765-1.555 1.275-2.66 1.275-1.773 0-3.213-1.324-3.213-2.868 0-1.542 1.44-2.866 3.213-2.866z" fill="url(#K)"/><linearGradient id="L" gradientUnits="userSpaceOnUse" x1="37.194" y1="6.695" x2="44.727" y2="-.838"><stop offset="0" stop-color="#666"/><stop offset=".108" stop-color="#737373"/><stop offset=".307" stop-color="#959595"/><stop offset=".573" stop-color="#CBCBCB"/><stop offset=".692" stop-color="#E6E6E6"/><stop offset="1" stop-color="#808080"/></linearGradient><path fill="url(#L)" d="M40.957 4.704L38.114-.693H37.05V6.55h.98v-5.4l2.932 5.416 2.925-5.417v5.4h.984V-.692h-1.027z"/><linearGradient id="M" gradientUnits="userSpaceOnUse" x1="28.012" y1="5.719" x2="33.598" y2=".133"><stop offset="0" stop-color="#666"/><stop offset=".108" stop-color="#737373"/><stop offset=".307" stop-color="#959595"/><stop offset=".573" stop-color="#CBCBCB"/><stop offset=".692" stop-color="#E6E6E6"/><stop offset="1" stop-color="#808080"/></linearGradient><path d="M30.36 3.31h3.123v1.183c-.574.793-1.577 1.303-2.677 1.303-1.77 0-3.208-1.324-3.208-2.868 0-1.54 1.44-2.864 3.208-2.864 1.1 0 2.08.508 2.656 1.276l.816-.477c-.744-.985-2.03-1.654-3.472-1.654-2.315 0-4.187 1.707-4.187 3.718 0 2.01 1.87 3.72 4.186 3.72 1.44 0 2.757-.635 3.59-1.83V2.392h-4.035v.92z" fill="url(#M)"/><linearGradient id="N" gradientUnits="userSpaceOnUse" x1="88.244" y1="1.003" x2="92.124" y2="4.883"><stop offset="0" stop-color="#fff"/><stop offset=".129" stop-color="#F1F2F2"/><stop offset=".365" stop-color="#D6D8D9"/><stop offset=".632" stop-color="#B1B3B6"/><stop offset=".678" stop-color="#AAACAE"/><stop offset=".756" stop-color="#96989B"/><stop offset=".797" stop-color="#8A8C8E"/><stop offset=".834" stop-color="#8E9093"/><stop offset=".883" stop-color="#9B9DA0"/><stop offset=".938" stop-color="#B1B3B5"/><stop offset=".999" stop-color="#D0D2D4"/><stop offset="1" stop-color="#D1D3D4"/></linearGradient><path fill="url(#N)" d="M89.813-.566h.742v7.018h-.742z"/><linearGradient id="O" gradientUnits="userSpaceOnUse" x1="28.104" y1=".218" x2="33.518" y2="5.633"><stop offset="0" stop-color="#fff"/><stop offset=".129" stop-color="#F1F2F2"/><stop offset=".365" stop-color="#D6D8D9"/><stop offset=".632" stop-color="#B1B3B6"/><stop offset=".678" stop-color="#AAACAE"/><stop offset=".756" stop-color="#96989B"/><stop offset=".797" stop-color="#8A8C8E"/><stop offset=".834" stop-color="#8E9093"/><stop offset=".883" stop-color="#9B9DA0"/><stop offset=".938" stop-color="#B1B3B5"/><stop offset=".999" stop-color="#D0D2D4"/><stop offset="1" stop-color="#D1D3D4"/></linearGradient><path d="M30.473 3.197H33.596V4.53l-.02.03c-.613.845-1.648 1.35-2.77 1.35-1.8 0-3.32-1.365-3.32-2.98 0-1.614 1.52-2.978 3.32-2.978 1.062 0 2.058.462 2.684 1.24l.62-.36c-.768-.948-1.992-1.51-3.304-1.51-2.21 0-4.074 1.652-4.074 3.606 0 1.955 1.866 3.607 4.074 3.607 1.42 0 2.687-.638 3.48-1.752v-2.28h-3.812v.694z" fill="url(#O)"/><linearGradient id="P" gradientUnits="userSpaceOnUse" x1="37.306" y1="-.725" x2="44.614" y2="6.583"><stop offset="0" stop-color="#fff"/><stop offset=".157" stop-color="#FAFAFA"/><stop offset=".285" stop-color="#F1F1F2"/><stop offset=".402" stop-color="#E2E3E4"/><stop offset=".513" stop-color="#CED0D2"/><stop offset=".619" stop-color="#B5B7B9"/><stop offset=".632" stop-color="#B1B3B6"/><stop offset=".672" stop-color="#AAACAE"/><stop offset=".739" stop-color="#96989B"/><stop offset=".747" stop-color="#939598"/><stop offset=".859" stop-color="#B4B6B8"/><stop offset=".947" stop-color="#C9CBCD"/><stop offset="1" stop-color="#D1D3D4"/></linearGradient><path fill="url(#P)" d="M41.057 4.757l-.1.187-.1-.188-2.81-5.337h-.885v7.018h.754v-5.29l-.01-.483.22.43 2.836 5.234 2.826-5.235.21-.408.002.46v5.29h.76V-.58h-.85z"/><linearGradient id="Q" gradientUnits="userSpaceOnUse" x1="93.865" y1="1.732" x2="99.29" y2="7.157"><stop offset="0" stop-color="#fff"/><stop offset=".129" stop-color="#F1F2F2"/><stop offset=".365" stop-color="#D6D8D9"/><stop offset=".632" stop-color="#B1B3B6"/><stop offset=".678" stop-color="#AAACAE"/><stop offset=".756" stop-color="#96989B"/><stop offset=".797" stop-color="#8A8C8E"/><stop offset=".834" stop-color="#8E9093"/><stop offset=".883" stop-color="#9B9DA0"/><stop offset=".938" stop-color="#B1B3B5"/><stop offset=".999" stop-color="#D0D2D4"/><stop offset="1" stop-color="#D1D3D4"/></linearGradient><path d="M96.995-.564h-.835l-3 7.016h.687l.827-1.854.03-.066h3.746l.03.066.825 1.854h.69l-3-7.016zm-2.02 4.408l1.6-3.794 1.606 3.794h-3.204z" fill="url(#Q)"/><linearGradient id="R" gradientUnits="userSpaceOnUse" x1="55.433" y1="-.264" x2="61.849" y2="6.152"><stop offset="0" stop-color="#fff"/><stop offset=".157" stop-color="#FAFAFA"/><stop offset=".285" stop-color="#F1F1F2"/><stop offset=".402" stop-color="#E2E3E4"/><stop offset=".513" stop-color="#CED0D2"/><stop offset=".619" stop-color="#B5B7B9"/><stop offset=".632" stop-color="#B1B3B6"/><stop offset=".672" stop-color="#AAACAE"/><stop offset=".739" stop-color="#96989B"/><stop offset=".747" stop-color="#939598"/><stop offset=".859" stop-color="#B4B6B8"/><stop offset=".947" stop-color="#C9CBCD"/><stop offset="1" stop-color="#D1D3D4"/></linearGradient><path fill="url(#R)" d="M61.55-.564h-.815l-2 2.788-.092.127-.092-.126-2-2.788h-.818l2.5 3.443.047.065-.05.066-2.498 3.442h.817l2-2.786.093-.127.09.126 2.002 2.786h.815l-2.496-3.44-.048-.067.048-.066z"/><linearGradient id="S" gradientUnits="userSpaceOnUse" x1="71.942" y1="-.015" x2="78.196" y2="6.24"><stop offset="0" stop-color="#fff"/><stop offset=".129" stop-color="#F1F2F2"/><stop offset=".365" stop-color="#D6D8D9"/><stop offset=".632" stop-color="#B1B3B6"/><stop offset=".678" stop-color="#AAACAE"/><stop offset=".756" stop-color="#96989B"/><stop offset=".797" stop-color="#8A8C8E"/><stop offset=".834" stop-color="#8E9093"/><stop offset=".883" stop-color="#9B9DA0"/><stop offset=".938" stop-color="#B1B3B5"/><stop offset=".999" stop-color="#D0D2D4"/><stop offset="1" stop-color="#D1D3D4"/></linearGradient><path fill="url(#S)" d="M73.373 5.832l.12-.177L77.708-.5h-5.28v.6h4.069l-.122.176-4.24 6.153h5.874V5.83h-4.42z"/><linearGradient id="T" gradientUnits="userSpaceOnUse" x1="47.857" y1="1.731" x2="53.282" y2="7.156"><stop offset="0" stop-color="#fff"/><stop offset=".129" stop-color="#F1F2F2"/><stop offset=".365" stop-color="#D6D8D9"/><stop offset=".632" stop-color="#B1B3B6"/><stop offset=".678" stop-color="#AAACAE"/><stop offset=".756" stop-color="#96989B"/><stop offset=".797" stop-color="#8A8C8E"/><stop offset=".834" stop-color="#8E9093"/><stop offset=".883" stop-color="#9B9DA0"/><stop offset=".938" stop-color="#B1B3B5"/><stop offset=".999" stop-color="#D0D2D4"/><stop offset="1" stop-color="#D1D3D4"/></linearGradient><path d="M50.152-.564l-3 7.016h.687l.824-1.854.03-.066h3.743l.03.066.83 1.854h.688L50.987-.564h-.835zm2.02 4.408H48.97l.065-.156 1.43-3.393.104-.246.103.244 1.434 3.393.066.157z" fill="url(#T)"/><linearGradient id="U" gradientUnits="userSpaceOnUse" x1="9.897" y1=".217" x2="15.322" y2="5.643"><stop offset="0" stop-color="#fff"/><stop offset=".129" stop-color="#F1F2F2"/><stop offset=".365" stop-color="#D6D8D9"/><stop offset=".632" stop-color="#B1B3B6"/><stop offset=".678" stop-color="#AAACAE"/><stop offset=".756" stop-color="#96989B"/><stop offset=".797" stop-color="#8A8C8E"/><stop offset=".834" stop-color="#8E9093"/><stop offset=".883" stop-color="#9B9DA0"/><stop offset=".938" stop-color="#B1B3B5"/><stop offset=".999" stop-color="#D0D2D4"/><stop offset="1" stop-color="#D1D3D4"/></linearGradient><path d="M12.6-.048c1.062 0 2.058.462 2.687 1.24l.62-.36C15.133-.117 13.908-.68 12.6-.68c-2.21 0-4.077 1.652-4.077 3.606 0 1.955 1.867 3.607 4.077 3.607 1.31 0 2.536-.56 3.306-1.505l-.62-.362c-.63.78-1.626 1.242-2.686 1.242-1.803 0-3.326-1.365-3.326-2.98S10.797-.05 12.6-.05z" fill="url(#U)"/><linearGradient id="V" gradientUnits="userSpaceOnUse" x1="1.24" y1="-1.029" x2="4.78" y2="6.563"><stop offset="0" stop-color="#fff"/><stop offset=".129" stop-color="#F1F2F2"/><stop offset=".365" stop-color="#D6D8D9"/><stop offset=".632" stop-color="#B1B3B6"/><stop offset=".678" stop-color="#AAACAE"/><stop offset=".756" stop-color="#96989B"/><stop offset=".797" stop-color="#8A8C8E"/><stop offset=".834" stop-color="#8E9093"/><stop offset=".883" stop-color="#9B9DA0"/><stop offset=".938" stop-color="#B1B3B5"/><stop offset=".999" stop-color="#D0D2D4"/><stop offset="1" stop-color="#D1D3D4"/></linearGradient><path d="M5.547 2.967l-.27-.102.268-.108c.656-.263 1.032-.813 1.032-1.508 0-1.01-.93-1.83-2.073-1.83H.28v7.018h4.256c1.158 0 2.135-.867 2.135-1.893.002-1.003-.703-1.42-1.123-1.578zm-4.44-.576V.113h3.237c.892 0 1.516.48 1.516 1.167 0 .697-.653 1.224-1.517 1.224H1.11V2.39zm3.248 3.357H1.11V3.196h3.236c.91 0 1.6.563 1.6 1.31-.002.73-.654 1.24-1.588 1.24z" fill="url(#V)"/><linearGradient id="W" gradientUnits="userSpaceOnUse" x1="64.107" y1="1.732" x2="69.532" y2="7.157"><stop offset="0" stop-color="#fff"/><stop offset=".129" stop-color="#F1F2F2"/><stop offset=".365" stop-color="#D6D8D9"/><stop offset=".632" stop-color="#B1B3B6"/><stop offset=".678" stop-color="#AAACAE"/><stop offset=".756" stop-color="#96989B"/><stop offset=".797" stop-color="#8A8C8E"/><stop offset=".834" stop-color="#8E9093"/><stop offset=".883" stop-color="#9B9DA0"/><stop offset=".938" stop-color="#B1B3B5"/><stop offset=".999" stop-color="#D0D2D4"/><stop offset="1" stop-color="#D1D3D4"/></linearGradient><path d="M66.404-.564L63.4 6.452h.69l.83-1.854.028-.066H68.692l.03.066.827 1.854h.69l-3-7.016h-.833zm2.02 4.408h-3.206l.066-.156 1.43-3.393.105-.246.103.244 1.435 3.393.066.157z" fill="url(#W)"/><linearGradient id="X" gradientUnits="userSpaceOnUse" x1="79.992" y1=".078" x2="86.406" y2="6.492"><stop offset="0" stop-color="#fff"/><stop offset=".129" stop-color="#F1F2F2"/><stop offset=".365" stop-color="#D6D8D9"/><stop offset=".632" stop-color="#B1B3B6"/><stop offset=".678" stop-color="#AAACAE"/><stop offset=".756" stop-color="#96989B"/><stop offset=".797" stop-color="#8A8C8E"/><stop offset=".834" stop-color="#8E9093"/><stop offset=".883" stop-color="#9B9DA0"/><stop offset=".938" stop-color="#B1B3B5"/><stop offset=".999" stop-color="#D0D2D4"/><stop offset="1" stop-color="#D1D3D4"/></linearGradient><path d="M84.943 3.697l.097-.055c.882-.495 1.275-1.125 1.275-2.042 0-1.173-.914-2.164-1.997-2.164h-3.683v7.016h.742V3.767h2.773l.032.06L85.61 6.45h.838l-1.45-2.657-.055-.098zm-3.454-.62h-.114V.126h2.853c.795 0 1.418.648 1.418 1.474 0 .83-.624 1.478-1.42 1.478h-2.74z" fill="url(#X)"/><linearGradient id="Y" gradientUnits="userSpaceOnUse" x1="17.753" y1="-.116" x2="23.867" y2="5.998"><stop offset="0" stop-color="#fff"/><stop offset=".157" stop-color="#FAFAFA"/><stop offset=".285" stop-color="#F1F1F2"/><stop offset=".402" stop-color="#E2E3E4"/><stop offset=".513" stop-color="#CED0D2"/><stop offset=".619" stop-color="#B5B7B9"/><stop offset=".632" stop-color="#B1B3B6"/><stop offset=".672" stop-color="#AAACAE"/><stop offset=".739" stop-color="#96989B"/><stop offset=".747" stop-color="#939598"/><stop offset=".859" stop-color="#B4B6B8"/><stop offset=".947" stop-color="#C9CBCD"/><stop offset="1" stop-color="#D1D3D4"/></linearGradient><path d="M23.485 2.967l-.268-.102.267-.108c.656-.265 1.032-.814 1.032-1.51 0-1.008-.93-1.83-2.07-1.83h-4.227v7.02h4.247c1.18 0 2.138-.85 2.138-1.893 0-1-.702-1.418-1.12-1.577zm-4.44-.576V.113h3.237c.89 0 1.512.48 1.512 1.167 0 .697-.65 1.224-1.512 1.224h-3.238V2.39zm3.243 3.357h-3.242V3.196h3.236c.91 0 1.596.563 1.596 1.31-.002.73-.656 1.24-1.592 1.24z" fill="url(#Y)"/><linearGradient id="Z" gradientUnits="userSpaceOnUse" x1="49.82" y1="-.678" x2="49.82" y2="6.467"><stop offset="0" stop-color="#fff"/><stop offset=".309" stop-color="#E8E8E9"/><stop offset=".96" stop-color="#B4B6B9"/><stop offset=".995" stop-color="#B1B3B6"/></linearGradient><path d="M33.596 4.53l-.02.03c-.613.845-1.648 1.35-2.77 1.35-.94 0-1.8-.372-2.412-.957.615.64 1.52 1.054 2.51 1.054 1.122 0 2.157-.505 2.77-1.35l.02-.03v-1.51l-.098.078V4.53zm-10.03-.817c.197.218.312.49.312.793 0 .73-.654 1.24-1.59 1.24h-3.23l-.083.1h3.41c.936 0 1.59-.51 1.59-1.242 0-.35-.152-.66-.408-.89zm-1.284-1.21h-3.236l-.114.1h3.447c.86 0 1.51-.528 1.51-1.226 0-.314-.13-.583-.355-.785.165.188.26.42.26.687 0 .697-.65 1.224-1.513 1.224zM12.6 5.91c-.94 0-1.806-.373-2.417-.958.616.64 1.523 1.056 2.515 1.056 1.06 0 2.082-.48 2.712-1.26l-.122-.08c-.63.78-1.628 1.242-2.688 1.242zM5.63 3.714c.197.217.312.49.312.792 0 .73-.653 1.24-1.687 1.24h-3.15l-.093.1h3.44c.935 0 1.588-.51 1.588-1.242 0-.35-.154-.66-.41-.89zm90.934-3.85v.18l1.618 3.8-3.194.01.086.06h3.205l-1.716-4.05zm-66.09 3.333h.097v-.595h3.714v-.098h-3.81v.693zM73.307 5.93h4.7V5.83h-4.633l-.067.097zm12.34-4.33c0 .83-.624 1.478-1.42 1.478h-2.852l.098.098h2.852c.796 0 1.42-.65 1.42-1.478 0-.45-.186-.845-.482-1.113.24.263.384.618.384 1.015zm-81.305.904H1.115l-.103.098h3.43c.863 0 1.515-.527 1.515-1.225 0-.313-.13-.583-.356-.784.166.188.26.42.26.686 0 .697-.653 1.224-1.517 1.224zm68.18-2.906h5.117l.067-.098h-5.28v.6h.097v-.502zm-5.707.274V.06l1.608 3.784h-3.196l.09.065h3.204L66.816-.13zm-16.254.05V.06l1.61 3.784h-3.206l.1.065h3.205L50.563-.08zm-9.604 5.02v.178l3.018-5.603h.783V-.58h-.85L40.96 4.942zM58.64 2.358v.125l2.15-2.948h.69l.07-.098h-.814l-2.095 2.92zm25.51 1.41l1.458 2.685.09-.007-1.5-2.743-.05.066zm-15.43.7l-.03.055.858 1.93h.054l-.88-1.984zm7.966-4.43L76.49.1l-4.354 6.33h.164L76.686.035zM67.28-.467l-.043-.098h-.833L63.4 6.452h.14l2.962-6.918h.777zM58.64 3.46l.008.102 2.087 2.89.043.015L58.64 3.46zM89.813 6.45h.098v-6.92h.646v-.098h-.743v7.018zm7.224-6.918l-.042-.098h-.834l-3 7.016h.14l2.96-6.918h.777zm1.44 4.918l-.026.08.856 1.92h.054l-.882-2zM55.896-.466h.724l-.07-.098h-.818l2.546 3.51L55.73 6.45h.104l2.528-3.493-2.467-3.426zm29.833.55c-.365-.397-.866-.648-1.41-.648h-3.684v7.016h.098V-.466h3.683c.498 0 .96.21 1.313.55zM30.903-.58c1.136 0 2.207.422 2.972 1.15-.77-.787-1.884-1.247-3.07-1.247-2.208 0-4.073 1.652-4.073 3.606 0 .925.418 1.782 1.093 2.43-.617-.635-.995-1.453-.995-2.333 0-1.955 1.865-3.607 4.073-3.607zm-6.848.682c-.38-.416-.96-.682-1.61-.682h-4.227v7.02h.098V-.483h4.225c.6 0 1.137.225 1.515.584zM37.162-.58v7.018h.098v-6.92h.84l-.052-.1h-.886zM6.117.1c-.38-.416-.96-.683-1.613-.683H.28v7.018h.097v-6.92h4.225c.598 0 1.136.225 1.515.584zm6.58-.682c1.137 0 2.21.424 2.977 1.154-.774-.79-1.89-1.252-3.074-1.252-2.21 0-4.077 1.652-4.077 3.606 0 .925.418 1.782 1.093 2.43C9 4.722 8.62 3.905 8.62 3.025 8.62 1.072 10.488-.58 12.7-.58zm25.49 1.783L40.96 6.33l.022-.042-2.76-5.095-.038.01zM51.03-.467l-.042-.097h-.837l-3 7.016h.14l2.958-6.918h.782zm1.448 4.952l-.04.047.86 1.92h.054l-.874-1.967zM44 6.438h.098l-.034-5.84-.076.118L44 6.438z" fill="url(#Z)"/></g></svg>