<svg xmlns="http://www.w3.org/2000/svg" viewBox="0 0 100 120" enable-background="new 0 0 100 120"><style type="text/css">.st0{fill:#FF0000;} .st1{fill-rule:evenodd;clip-rule:evenodd;fill:#FFFFFF;} .st2{fill-rule:evenodd;clip-rule:evenodd;}</style><title>Artboard 1</title><circle cx="50" cy="50" r="47.5"/><path class="st0" d="M50 5c24.9 0 45 20.1 45 45S74.9 95 50 95 5 74.9 5 50C5 25.2 25.2 5 50 5m0-5C22.4 0 0 22.4 0 50s22.4 50 50 50 50-22.4 50-50S77.6 0 50 0z"/><path class="st1" d="M58.6 67.1c0-4.4 2-18.6 13.5-18.5 5.8 0 7.9 4.2 7.9 6.5v.7c-1.9-2.2-5.3-2.4-7.5-.5s-2.4 5.3-.5 7.5 5.3 2.4 7.5.5h.1c.4.1.8.1 1.2.1 4.4 0 8-3.5 8.1-7.9v-.7c3-3.2 2.9-8.3-.3-11.3-.2-.2-.4-.4-.7-.6.4-2.8-.6-5.7-2.6-7.7-7.8-8.6-26.5-5.8-26.7 5.3"/><path d="M58.6 67.4c-.2 0-.4-.2-.4-.4 0-3.5 1.2-11.2 5.6-15.6 2.2-2.2 5-3.3 8.2-3.3h.1c6.2.1 8.3 4.6 8.3 6.8v.7c0 .2-.1.3-.3.3-.1 0-.3 0-.4-.1-.9-1-2.1-1.6-3.4-1.7-1.3-.1-2.6.4-3.6 1.2-2 1.8-2.2 4.9-.4 7 .9 1 2.1 1.6 3.4 1.7 1.3.1 2.6-.4 3.6-1.2.1-.1.2-.2.4-.1.4.1.7.1 1.1.1h.1c4.2 0 7.6-3.4 7.6-7.5v-.7c0-.1 0-.2.1-.3 2.9-3.1 2.7-7.9-.3-10.8-.2-.2-.4-.4-.6-.5-.1-.1-.2-.2-.1-.3.4-2.7-.5-5.4-2.5-7.4-4.8-5.3-13.4-5.9-19-3.8-4.4 1.7-7 4.9-7 8.8 0 .2-.2.4-.4.4s-.4-.2-.4-.4c0-4.3 2.8-7.7 7.5-9.5 5.8-2.2 14.8-1.6 19.8 3.9 2 2.1 3 4.9 2.7 7.8.2.1.3.3.5.4 3.3 3.1 3.5 8.4.5 11.7v.5c-.1 4.6-3.8 8.3-8.4 8.3h-.1c-.4 0-.7 0-1-.1-2.3 2-5.9 1.8-8-.6-2.1-2.4-1.9-6 .5-8 1.1-1 2.6-1.5 4.1-1.4 1.2.1 2.3.5 3.3 1.3-.1-2-2-5.8-7.5-5.9-3.1-.1-5.7 1-7.8 3.1C60.1 56.2 59 63.7 59 67c0 .3-.2.4-.4.4zM58.6 67.4c-.2 0-.4-.2-.4-.4 0-3.5 1.2-11.2 5.6-15.6 2.2-2.2 5-3.3 8.2-3.3h.1c6.2.1 8.3 4.6 8.3 6.8v.7c0 .2-.2.4-.4.3-.2 0-.4-.2-.3-.4v-.7c0-2-1.8-6.1-7.5-6.1-3.1-.1-5.7 1-7.8 3.1C60.1 56.2 59 63.7 59 67c0 .3-.2.4-.4.4zm0-10.6c-.2 0-.4-.2-.4-.4 0-3.7 1.9-7.4 5.1-10.1 3.4-2.8 7.6-4 12-3.3.7.1 1.4.4 2.1.7 3 1.1 5.1 3.8 5.5 7v.7c0 .2-.2.4-.4.4s-.4-.2-.4-.4v-.7c-.3-2.9-2.2-5.3-5-6.3-.6-.3-1.3-.5-1.9-.6-4.1-.7-8.2.4-11.4 3.1-3 2.5-4.8 6.1-4.8 9.5 0 .2-.2.4-.4.4zm0-8.3c-.2 0-.4-.2-.4-.4 0-3.5 2.2-7 5.7-9.4 4.3-2.9 9.6-3.6 14.2-1.9 4.1 1.5 7 5.2 7.4 9.5v.7c0 .2-.2.4-.4.4s-.4-.2-.4-.4v-.7c-.4-4-3.1-7.4-6.9-8.9-4.4-1.7-9.5-1-13.5 1.8-3.3 2.4-5.3 5.7-5.3 9 0 .2-.2.3-.4.3zm29.2-5.3c-.3 0-.4-.2-.4-.4.4-2.7-.5-5.4-2.5-7.4-4.8-5.3-13.4-5.9-19-3.8-4.4 1.7-7 4.9-7 8.8 0 .2-.2.4-.4.4s-.4-.2-.4-.4c0-4.3 2.8-7.7 7.5-9.5 5.8-2.2 14.8-1.6 19.8 3.9 2.1 2.1 3.1 5.1 2.7 8 .1.3-.1.4-.3.4z"/><path class="st1" d="M65.2 56.7c-2.2-3.8-7.6-17.1 2.4-22.8 5.1-2.9 9-.3 10.1 1.6l.3.6c-2.8-.9-5.8.6-6.7 3.3s.6 5.8 3.3 6.7c2.8.9 5.8-.6 6.7-3.3v-.1c.4-.1.7-.3 1.1-.5 3.8-2.2 5.2-7 3-10.9l-.3-.6c1-4.3-1.6-8.6-5.9-9.7-.3-.1-.6-.1-.8-.2-1.1-2.6-3.3-4.6-6.1-5.4-11-3.6-25.8 8.3-20.4 17.9"/><path d="M65.2 57c-.1 0-.3-.1-.3-.2-1.9-3.3-4.6-10.4-3-16.3.8-3 2.7-5.3 5.5-7 2.9-1.6 5.3-1.5 6.8-1.1 2 .6 3.3 1.8 3.8 2.8l.3.6c.1.1 0 .3-.1.4-.1.1-.3.2-.4.1-2.6-.9-5.4.5-6.3 3.1-.9 2.6.5 5.4 3.1 6.3 2.6.9 5.4-.5 6.3-3.1 0-.1.1-.3.2-.3.3-.1.7-.3 1-.5 3.6-2.1 4.9-6.7 2.9-10.4-.1-.2-.2-.4-.3-.5-.1-.1-.1-.2-.1-.3 1-4.1-1.5-8.2-5.6-9.2-.3-.1-.5-.1-.8-.1-.1 0-.2-.1-.3-.2-1.1-2.5-3.2-4.4-5.8-5.2-6.8-2.2-14.5 1.6-18.3 6.2-3 3.7-3.6 7.7-1.7 11.2.1.2 0 .4-.1.5-.2.1-.4 0-.5-.1-2.1-3.7-1.4-8.1 1.8-12 3.9-4.8 12-8.7 19.1-6.4 2.8.8 5.1 2.8 6.2 5.4.2 0 .4.1.7.1 4.4 1.1 7.2 5.5 6.2 9.9.1.1.2.3.3.4 2.3 4 .9 9.1-3.1 11.4-.3.2-.6.3-.9.5-1.1 2.9-4.3 4.5-7.2 3.5-3-1-4.6-4.2-3.6-7.2.9-2.7 3.7-4.3 6.4-3.8-.5-.8-1.6-1.9-3.3-2.4-1.3-.4-3.5-.5-6.2 1s-4.4 3.7-5.2 6.5c-1.6 5.6 1.1 12.6 2.9 15.8.1.2 0 .4-.1.5-.2.1-.3.1-.3.1zM65.2 57c-.1 0-.3-.1-.3-.2-1.9-3.3-4.6-10.4-3-16.3.8-3 2.7-5.3 5.5-7 2.9-1.6 5.3-1.5 6.8-1.1 2 .6 3.3 1.8 3.8 2.8l.3.6c.1.2 0 .4-.2.5-.2.1-.4 0-.5-.2l-.3-.6c-.5-.8-1.6-2-3.4-2.5-1.3-.4-3.5-.5-6.2 1s-4.4 3.7-5.2 6.5c-1.6 5.6 1.1 12.6 2.9 15.8.1.2 0 .4-.1.5 0 .2-.1.2-.1.2zm-5.3-9.2c-.1 0-.3-.1-.3-.2-1.8-3.2-2-7.4-.6-11.3 1.5-4.1 4.6-7.3 8.8-8.8.7-.2 1.4-.4 2.2-.5 3.2-.5 6.3.7 8.2 3.3.1.2.3.4.4.6.1.2 0 .4-.1.5-.2.1-.4 0-.5-.1l-.3-.6c-1.7-2.3-4.6-3.5-7.5-3-.7.1-1.4.2-2 .5-3.9 1.5-6.9 4.4-8.3 8.4-1.3 3.7-1.1 7.7.6 10.7.1.2 0 .4-.1.5h-.5zm-4.1-7.1c-.1 0-.3-.1-.3-.2-1.7-3-1.7-7.1.2-10.9 2.2-4.7 6.5-8 11.4-8.8 4.3-.7 8.6 1 11.2 4.5.1.2.3.4.4.6.1.2 0 .4-.1.5-.2.1-.4 0-.5-.1-.1-.2-.2-.4-.4-.6-2.4-3.3-6.4-4.9-10.5-4.2-4.7.8-8.7 3.9-10.9 8.3-1.7 3.6-1.8 7.4-.2 10.2.1.2 0 .4-.1.5l-.2.2zM51.9 34c-.1 0-.3-.1-.3-.2-2.1-3.7-1.4-8.1 1.8-12 4-4.8 12-8.8 19.1-6.5 2.9.8 5.2 2.9 6.3 5.6.1.2 0 .4-.2.5-.2.1-.4 0-.5-.2-1.1-2.5-3.2-4.4-5.8-5.2-6.8-2.2-14.5 1.6-18.3 6.2-3 3.7-3.6 7.7-1.7 11.2.1.2 0 .4-.1.5-.2.1-.2.1-.3.1z"/><path class="st1" d="M60.6 47.3c-3.8-2.2-15.1-11-9.2-20.9 3-5 7.6-4.8 9.6-3.6.2.1.4.2.6.4-2.9.6-4.8 3.4-4.2 6.3s3.4 4.8 6.3 4.2 4.8-3.4 4.2-6.3v-.1c.2-.3.5-.7.7-1 2.2-3.8 1-8.7-2.8-10.9l-.8-.3c-1.2-4.2-5.7-6.7-9.9-5.4-.3.1-.5.2-.8.3-2.3-1.7-5.2-2.4-8-1.6-11.4 2.3-18.3 20-8.8 25.6"/><path d="M60.6 47.7c-.1 0-.1 0-.2-.1-5.6-3.3-14.9-12.1-9.4-21.5 3.2-5.4 8.2-4.9 10.1-3.7.2.1.4.3.6.4.1.1.2.2.1.4s-.1.3-.3.3c-2.7.5-4.4 3.1-3.9 5.8.5 2.7 3.1 4.4 5.8 3.9 2.7-.5 4.4-3.1 3.9-5.8 0-.1 0-.3.1-.4.2-.3.5-.6.6-1 2.1-3.6.9-8.3-2.7-10.4l-.6-.3c-.1 0-.2-.1-.2-.2-.6-2-1.9-3.6-3.7-4.5C59 9.6 57 9.4 55 10c-.3.1-.5.2-.8.3-.1.1-.3 0-.4 0-2.2-1.7-5-2.3-7.7-1.6-7 1.5-11.8 8.6-12.8 14.5-.8 4.7.7 8.5 4.1 10.5.2.1.2.3.1.5s-.3.2-.5.1c-3.7-2.2-5.3-6.3-4.5-11.3 1-6.2 6-13.6 13.3-15.2 3.2-.6 6.2 0 8.5 1.7.2-.1.4-.2.6-.2 2.1-.6 4.4-.4 6.4.7 1.9 1 3.3 2.8 4 4.8l.5.2c3.9 2.4 5.3 7.5 2.9 11.4l-.6.9c.6 3-1.4 6-4.5 6.6-3.1.6-6.1-1.4-6.7-4.5-.6-2.8 1-5.5 3.6-6.5-1.8-.9-6-1.3-8.9 3.5-6.5 11 8.9 20.3 9.1 20.4.2.1.2.3.1.5 0 .3-.1.4-.2.4zM60.6 47.7c-.1 0-.1 0-.2-.1-5.6-3.3-14.9-12.1-9.4-21.5 3.2-5.4 8.2-4.9 10.1-3.7.2.1.4.3.6.4.2.1.2.4.1.5-.1.2-.4.2-.5.1-.2-.1-.4-.3-.6-.4-1.7-1-6.1-1.4-9 3.5-6.5 11 8.9 20.3 9.1 20.4.2.1.2.3.1.5s-.2.3-.3.3zm-9.2-5.3c-.1 0-.1 0-.2-.1-3.2-1.9-5.5-5.4-6.2-9.5-.8-4.3.4-8.6 3.2-12 .5-.6 1-1.1 1.6-1.5 2.5-2 5.8-2.5 8.8-1.2.2.1.5.2.7.4.2.1.2.3.1.5s-.3.2-.5.1l-.6-.3c-2.7-1.2-5.7-.7-8 1.1-.6.4-1.1.9-1.5 1.4-2.7 3.2-3.8 7.3-3 11.4.7 3.9 2.8 7.2 5.8 9 .2.1.2.3.1.5-.1.1-.2.2-.3.2zm-7.2-4.2c-.1 0-.1 0-.2-.1-3-1.8-5-5.4-5.3-9.6-.4-5.2 1.7-10.1 5.5-13.2 3.4-2.8 8-3.4 12-1.7.2.1.4.2.7.3.2.1.2.3.1.5s-.3.2-.5.1l-.6-.3c-3.7-1.7-8-1.1-11.2 1.6-3.6 3-5.6 7.7-5.2 12.6.3 4 2.1 7.4 4.9 9 .2.1.2.3.1.5 0 .3-.2.3-.3.3zm-6.7-3.8c-.1 0-.1 0-.2-.1C33.6 32.1 32 28 32.8 23c1-6.2 6-13.6 13.3-15.2 2.9-.7 5.9-.1 8.3 1.7.2.1.2.4.1.5-.1.2-.4.2-.5.1-2.2-1.7-5-2.3-7.7-1.6-7 1.5-11.8 8.6-12.8 14.5-.8 4.7.7 8.5 4.1 10.5.2.1.2.3.1.5.1.3 0 .4-.2.4z"/><circle cx="58.2" cy="53.8" r="16.2"/><path class="st1" d="M65.8 77.7c-4.8 0-9.5-1.1-13.8-3.2-11-5.6-18.5-18-19.2-31.5-.3-6.9 4.5-14.6 10.3-16.3.8-.2 1.7-.4 2.5-.4 3-.1 5.8 1.4 7.6 3.8 1.4 1.9 1.6 4.5.5 6.6-.8 1.5-2.3 2.5-4 2.5-.4 0-.8-.1-1.3-.2-3-.7-3.7-4-3.7-4.1V34l-.5.7C41.8 38.2 41.4 51.3 54 62c7.4 6 16 10.5 25.2 13.1-4.3 1.7-8.8 2.6-13.4 2.6z"/><path d="M45.7 26.6c2.9-.1 5.6 1.3 7.3 3.6 1.3 1.8 1.5 4.2.5 6.2-.7 1.4-2.1 2.3-3.7 2.3-.4 0-.8 0-1.2-.1-2.7-.7-3.4-3.7-3.4-3.8l-.3-1.8-1 1.5C41.5 38 41 51.4 53.8 62.2c7.1 5.9 15.4 10.3 24.2 13-3.9 1.4-8 2.1-12.2 2.2-4.7 0-9.4-1.1-13.6-3.2-10.8-5.5-18.3-17.8-19-31.2-.3-6.8 4.3-14.2 10-16 .8-.3 1.6-.4 2.5-.4m-.1-.8c-.9 0-1.8.1-2.6.4-6.3 1.9-10.9 9.9-10.6 16.7.8 15.1 9.4 26.8 19.4 31.9 4.3 2.2 9.1 3.3 14 3.3 5 0 9.9-1.1 14.5-3.1-9.6-2.5-18.5-7-26.1-13.4C41.7 51 42.3 38 44.5 34.9c0 0 .7 3.5 4 4.3.4.1.9.2 1.3.2 4.3 0 6.6-5.5 3.8-9.7-1.8-2.5-4.8-3.9-8-3.9z"/><path class="st1" d="M71.4 76.4C66 76.5 60.6 75 56.1 72c-10.2-6.8-16.3-18.3-16.2-30.6.3-7 4.4-12.9 10.2-14.7.8-.2 1.7-.4 2.5-.4 3-.1 5.8 1.3 7.6 3.7 1.4 1.9 1.6 4.5.5 6.6-.7 1.5-2.3 2.5-4 2.5-.4 0-.8-.1-1.2-.2-3-.7-3.7-4-3.7-4.1l-.2-.9-.5.7c-2.4 3.5-4.6 19.9 8 30.5 9 7.6 19.4 8.7 24.7 8.7h.8c-4.2 1.8-8.7 2.6-13.2 2.6z"/><path d="M52.6 26.8c2.9-.1 5.6 1.3 7.3 3.6 1.3 1.8 1.5 4.2.5 6.2-.7 1.4-2.1 2.3-3.7 2.3-.4 0-.8 0-1.2-.1-2.7-.7-3.4-3.7-3.4-3.8l-.3-1.8-1 1.5c-2.4 3.6-4.7 20.3 8.1 31 6.6 5.4 14.9 8.5 23.5 8.8-3.5 1.1-7.2 1.7-10.9 1.7-5.4.1-10.6-1.4-15.1-4.4-10.1-6.8-16.1-18.1-16-30.2.3-6.9 4.3-12.6 9.9-14.4.7-.3 1.5-.4 2.3-.4m.1-.8c-.9 0-1.8.1-2.7.4-6.3 1.9-10.2 8.2-10.5 15-.1 12.4 6 24 16.3 30.9 4.6 3 10 4.6 15.5 4.5 5.3 0 10.5-1.2 15.4-3.3-1 .1-2 .2-3 .2-5 0-15.5-1-24.5-8.6-12.6-10.6-10-26.8-7.9-30 0 0 .7 3.5 4 4.3.4.1.9.2 1.3.2 4.3 0 6.6-5.5 3.8-9.7-1.7-2.5-4.7-4-7.7-3.9z"/><path class="st1" d="M74.7 75.7c-3.5.1-6.9-.8-10-2.5C52.9 66.5 46.6 57.1 46 45.4c-.4-7.5 2.7-13 8.3-14.7.8-.2 1.7-.4 2.5-.4 3-.1 5.8 1.3 7.6 3.7 1.4 1.9 1.6 4.5.5 6.6-.7 1.5-2.3 2.5-4 2.5-.4 0-.8-.1-1.2-.2-2.9-.7-3.6-4-3.6-4l-.2-.9-.5.7c-2.3 3.4-2.8 16.6 9.9 27.2C73.7 73 80.6 74 84 74c-3.1 1.2-6.2 1.7-9.3 1.7z"/><path d="M56.8 30.8c2.9-.1 5.6 1.3 7.3 3.6 1.3 1.8 1.5 4.2.5 6.2-.7 1.4-2.1 2.3-3.7 2.3-.4 0-.8-.1-1.2-.1-2.7-.8-3.3-3.8-3.3-3.9l-.4-1.7-1 1.5c-2.4 3.5-2.9 16.9 10 27.7 7 5.9 13 7.6 16.8 8.1-2.3.6-4.6.9-7 .9-3.4.1-6.8-.8-9.8-2.4-11.8-6.8-18-16-18.6-27.6-.4-7.3 2.6-12.7 8-14.3.8-.2 1.6-.3 2.4-.3m0-.8c-.9 0-1.8.1-2.7.4-6.3 1.9-8.9 8.2-8.5 15.1.7 13.3 8.6 22.2 18.9 28.1 3.1 1.7 6.6 2.6 10.2 2.5 4.2-.1 8.3-.9 12.1-2.6-1 .2-1.9.3-2.9.3-3.6 0-10.3-1.2-18.5-8-12.6-10.6-11.9-23.6-9.8-26.7 0 0 .7 3.5 4 4.3.4.1.9.2 1.3.2 4.3 0 6.6-5.5 3.8-9.7-1.8-2.5-4.7-4-7.9-3.9z"/><path class="st1" d="M39 54.4c6.3-8.5 19.7-12.7 26-12.1 8.4.8 9.7 9.5 9.3 11.3-1.3-.8-2.8-1.1-4.3-.7-2.8.8-4.5 3.7-3.7 6.5s3.7 4.5 6.5 3.7c1.3-.3 2.4-1.2 3.1-2.3.4 0 .8-.1 1.2-.2 4.3-1.2 6.8-5.5 5.6-9.8-.1-.2-.1-.4-.2-.6 1-1.8 1.2-3.9.7-5.8-.7-2.4-2.5-4.4-4.8-5.4-.7-3.4-3.1-6.3-6.4-7.4-11.5-4.7-23.5 4.2-28.8 14.2"/><path d="M71.4 63.7c-1 0-1.9-.3-2.8-.8-1.3-.8-2.3-2-2.7-3.4-.4-1.5-.2-3 .5-4.3.8-1.3 2-2.3 3.4-2.7 1.4-.4 2.8-.2 4.1.4 0-1.3-.4-4-2-6.3s-4-3.7-7-4c-6.4-.6-19.6 3.8-25.7 12-.1.2-.4.2-.5.1-.2-.1-.2-.4-.1-.5 6.2-8.4 19.8-12.9 26.3-12.3 3.2.3 5.8 1.8 7.5 4.3 2 2.8 2.4 6.3 2.1 7.5 0 .1-.1.2-.2.3H74c-1.2-.8-2.6-1-4-.6-1.3.3-2.3 1.2-3 2.3-.7 1.1-.8 2.5-.5 3.8.7 2.6 3.4 4.2 6.1 3.5 1.2-.3 2.2-1.1 2.9-2.1.1-.1.2-.2.3-.2.4 0 .7-.1 1.1-.2 4-1.1 6.5-5.3 5.4-9.3-.1-.2-.1-.4-.2-.6v-.3c.9-1.7 1.1-3.7.6-5.6-.6-2.3-2.3-4.2-4.5-5.1-.1 0-.2-.2-.2-.3-.6-3.3-3-6-6.1-7.1-8.4-3.4-21.1.3-28.3 14-.1.2-.3.3-.5.2-.2-.1-.3-.3-.2-.5 2.8-5.3 7.2-10 12.2-12.8 4-2.3 10.2-4.4 17.1-1.6 3.3 1.2 5.8 4.1 6.6 7.5 2.3 1 4.1 3.1 4.8 5.6.5 2 .3 4.1-.6 6 .1.2.1.3.2.5 1.2 4.4-1.5 9-5.9 10.2-.3.1-.7.2-1 .2-.8 1.1-1.9 1.9-3.2 2.3-.7-.2-1.2-.1-1.7-.1zM39 54.8c-.1 0-.2 0-.2-.1-.2-.1-.2-.4-.1-.5 6.2-8.4 19.8-12.9 26.3-12.3 3.2.3 5.8 1.8 7.5 4.3 2 2.8 2.4 6.3 2.1 7.5-.1.2-.3.3-.5.3-.2-.1-.3-.3-.3-.5.2-.8 0-4.1-2-6.9-1.6-2.3-4-3.7-7-4-6.4-.6-19.6 3.8-25.7 12 .1.1 0 .2-.1.2zm1.4-2.9c-.1 0-.1 0-.2-.1-.2-.1-.2-.3-.1-.5.5-.8 1.1-1.5 1.7-2.3-.1 0-.1 0-.2-.1-.2-.1-.2-.3-.1-.5.5-.8 1-1.6 1.6-2.4-.2-.1-.2-.3-.2-.5 2.8-5.3 7.2-10 12.2-12.8 4-2.3 10.2-4.4 17.1-1.6 3.4 1.2 5.9 4.2 6.6 7.7 0 .2-.1.4-.3.4-.2 0-.4-.1-.4-.3-.6-3.3-3-6-6.1-7.1-8-3.3-20.1.1-27.5 12.5 6.2-7.1 16.3-12.2 25.3-9.6 4.2 1.2 7.2 4.7 7.6 9 0 .2-.1.4-.3.4-.2 0-.4-.1-.4-.3-.4-4-3.2-7.3-7.1-8.4-10.1-2.9-21.7 4.2-27.1 12.7 6.8-7.6 18-11.3 24.9-9.9 4.9 1 8.6 5.3 8.6 10.4 0 .2-.2.4-.4.4s-.4-.2-.4-.4c0-4.7-3.4-8.7-8-9.6-7.6-1.5-20.4 3.3-26.5 12.7-.1.1-.2.2-.3.2z"/><path class="st1" d="M42 53.1c1.2-10.5 10.7-20.9 16.4-23.5 7.7-3.5 13.2 3.4 13.7 5.1-1.5-.1-3 .5-4 1.5-2.1 2.1-2.1 5.4 0 7.5s5.4 2.1 7.5 0c.9-.9 1.5-2.2 1.5-3.5 3.5-2.6 4.3-7.7 1.6-11.2-.2-.3-.5-.6-.7-.9l-.5-.5c-.1-2-.9-3.9-2.3-5.4-1.8-1.8-4.3-2.6-6.8-2.3-2.3-2.6-5.8-3.9-9.2-3.2C46.8 18.4 40.9 32 41.4 43.4"/><path d="M42 53.5c-.2 0-.4-.2-.4-.4C42.8 42.7 52.3 32 58.3 29.3c2.9-1.3 5.9-1.4 8.7-.1 3.2 1.5 5.2 4.3 5.5 5.4 0 .1 0 .2-.1.3s-.2.1-.3.1c-1.4-.1-2.7.5-3.7 1.4-.9.9-1.4 2.2-1.4 3.5 0 1.3.5 2.6 1.5 3.5.9.9 2.2 1.4 3.5 1.4 1.3 0 2.6-.5 3.5-1.5.9-.9 1.4-2 1.4-3.3 0-.1.1-.2.2-.3 3.4-2.5 4.1-7.3 1.6-10.7-.2-.3-.5-.6-.7-.8-.1-.2-.3-.3-.5-.4-.1-.1-.1-.2-.1-.3-.1-1.9-.9-3.8-2.2-5.1-1.7-1.7-4.1-2.5-6.5-2.2-.1 0-.3 0-.3-.1-2.2-2.5-5.6-3.7-8.9-3.1-9 1.2-18.1 10.8-17.5 26.3 0 .2-.2.4-.4.4s-.4-.2-.4-.4c-.2-6 1.3-12.3 4.2-17.2 2.3-4 6.7-8.9 14-9.9 3.5-.6 7.1.6 9.4 3.2 2.5-.3 5.1.6 7 2.4 1.5 1.5 2.3 3.4 2.4 5.5.1.1.3.2.4.4.3.3.5.6.8.9 1.3 1.8 1.9 4 1.6 6.2-.3 2.2-1.4 4.1-3.1 5.4-.1 1.4-.7 2.6-1.6 3.6-1.1 1.1-2.5 1.7-4 1.7s-2.9-.6-4-1.7-1.7-2.5-1.7-4 .6-3 1.7-4c1-1 2.3-1.6 3.7-1.7-.6-1.1-2.3-3.3-4.9-4.5-2.6-1.2-5.3-1.2-8 .1-5.8 2.7-15 13.1-16.2 23.2-.5.5-.7.6-.9.6zM42 53.5c-.2 0-.4-.2-.4-.4C42.8 42.7 52.3 32 58.3 29.3c2.9-1.3 5.9-1.4 8.7-.1 3.2 1.5 5.2 4.3 5.5 5.4.1.2-.1.4-.3.5-.2.1-.4-.1-.5-.3-.2-.8-2.1-3.5-5.1-5-2.6-1.2-5.3-1.2-8 .1-5.8 2.7-15 13.1-16.2 23.2 0 .3-.2.4-.4.4zm-.2-3.1s-.1 0 0 0c-.2 0-.4-.2-.4-.4.1-1 .2-1.9.4-2.9-.1 0-.1.1-.2.1-.2 0-.4-.2-.4-.4 0-.9.1-1.9.2-2.8-.2 0-.4-.2-.4-.4-.2-6 1.3-12.3 4.2-17.2 2.3-4 6.7-8.9 14-9.9 3.5-.7 7.2.6 9.6 3.3.1.2.1.4 0 .5s-.4.1-.5 0c-2.2-2.5-5.6-3.7-8.9-3.1-8.6 1.2-17.5 10.2-17.6 24.7 1.7-9.3 8-18.9 17.2-21.2 4.2-1.1 8.6.5 11.1 4 .1.2.1.4-.1.5-.2.1-.4.1-.5-.1-2.4-3.3-6.4-4.7-10.3-3.7C48.8 24 42.3 36.1 41.9 46.2c2.1-10 9.9-18.9 16.6-21.2 4.7-1.6 10.1.3 12.6 4.7.1.2 0 .4-.1.5s-.4 0-.5-.1c-2.4-4-7.3-5.8-11.7-4.3-7.3 2.5-16 13.1-16.7 24.3 0 .1-.1.3-.3.3z"/><path class="st1" d="M37.3 52.8c-4.2-9.7-1.2-23.4 2.5-28.6 4.9-6.9 13.1-3.6 14.4-2.4-1.3.7-2.3 1.9-2.7 3.4-.8 2.8.9 5.8 3.8 6.5 2.8.8 5.8-.9 6.5-3.8.3-1.3.2-2.7-.4-3.8.2-.4.3-.7.4-1.1 1.1-4.3-1.4-8.6-5.6-9.8-.2-.1-.4-.1-.7-.1-1.1-1.7-2.8-3-4.7-3.5-2.5-.7-5.1-.1-7.1 1.4-3.3-1.1-7-.4-9.6 1.8-9.9 7.7-8.1 22.5-2.1 32"/><path d="M37.3 53.2c-.1 0-.3-.1-.3-.2-4.2-9.6-1.3-23.6 2.5-28.9 1.8-2.6 4.4-4.1 7.4-4.4 3.4-.3 6.7 1.1 7.6 1.9.1.1.1.2.1.3 0 .1-.1.2-.2.3-1.2.6-2.1 1.8-2.5 3.1-.3 1.3-.2 2.6.5 3.8.7 1.1 1.7 2 3 2.3 2.6.7 5.3-.9 6.1-3.5.3-1.2.2-2.5-.4-3.6-.1-.1-.1-.3-.1-.4.1-.3.3-.7.4-1 1.1-4-1.3-8.2-5.4-9.3-.2-.1-.4-.1-.6-.1-.1 0-.2-.1-.3-.2-1-1.6-2.6-2.8-4.5-3.3-2.3-.6-4.9-.1-6.8 1.4-.1.1-.2.1-.4.1-3.2-1.1-6.7-.4-9.3 1.8-9.5 7.4-8.2 21.8-2 31.6.1.2.1.4-.1.5-.2.1-.4.1-.5-.1-6.3-10-7.7-24.9 2.2-32.5 2.7-2.3 6.4-3 9.8-2 2.1-1.5 4.8-2 7.2-1.4 2 .5 3.7 1.8 4.8 3.5.2 0 .3.1.5.1 4.4 1.2 7.1 5.8 5.9 10.2-.1.3-.2.7-.3 1 .6 1.2.7 2.6.4 4-.8 3-3.9 4.8-7 4-1.5-.4-2.7-1.3-3.5-2.7-.8-1.3-1-2.9-.6-4.3s1.2-2.5 2.4-3.3c-1.1-.7-3.7-1.7-6.5-1.4-2.8.3-5.1 1.6-6.9 4.1-3.7 5.2-6.5 18.8-2.4 28.2.1.2 0 .4-.2.5.1-.1 0-.1 0-.1zM37.3 53.2c-.1 0-.3-.1-.3-.2-4.2-9.6-1.3-23.6 2.5-28.9 1.8-2.6 4.4-4.1 7.4-4.4 3.4-.3 6.7 1.1 7.6 1.9.1.1.1.4 0 .5-.1.1-.4.2-.5 0-.6-.6-3.6-2-7-1.7-2.8.3-5.1 1.6-6.9 4.1-3.7 5.2-6.5 18.8-2.4 28.2.1.2 0 .4-.2.5h-.2zm-1.8-2.7c-.1 0-.3-.1-.3-.2-.4-.9-.8-1.7-1.1-2.6 0 .1-.1.1-.1.1-.2.1-.4 0-.5-.1-.5-.8-.9-1.6-1.2-2.5h-.1c-.2.1-.4.1-.5-.1-6.3-10-7.7-24.9 2.2-32.5 2.7-2.3 6.6-3.1 10-1.9.2.1.3.3.2.5-.1.2-.3.3-.5.2-3.2-1.1-6.7-.4-9.3 1.8-9.2 7.1-8.3 20.7-2.8 30.4-3.2-8.9-2.7-20.6 4.2-27.2 3.1-3 7.7-3.8 11.6-2.1.2.1.3.3.2.5-.1.2-.3.2-.5.2-3.7-1.6-7.9-.9-10.8 1.9-7.6 7.2-7.2 20.9-2.5 29.8-3.1-9.7-.8-21.2 3.9-26.5 3.3-3.8 8.9-4.7 13.3-2.3.2.1.2.3.1.5s-.3.2-.5.1c-4.1-2.3-9.3-1.4-12.3 2.1-5.1 5.9-7.3 19.4-2.4 29.4.1.2 0 .4-.2.5h-.1z"/><path class="st1" d="M38.6 60.2c-8.5-6.3-12.7-19.7-12.1-26 .8-8.4 9.5-9.7 11.3-9.2-.8 1.3-1.1 2.8-.7 4.2.8 2.8 3.7 4.5 6.5 3.7 2.8-.8 4.5-3.7 3.7-6.5-.3-1.3-1.2-2.4-2.3-3.1 0-.4-.1-.8-.2-1.1-1.1-4.3-5.5-6.8-9.8-5.6l-.6.2c-1.8-1-3.9-1.2-5.8-.7-2.5.7-4.5 2.4-5.4 4.8-3.4.7-6.2 3.1-7.4 6.4C11.1 38.8 20 50.8 30 56.1"/><path d="M38.6 60.6c-.1 0-.2 0-.2-.1-8.4-6.2-12.9-19.7-12.3-26.3.3-3.2 1.8-5.8 4.3-7.5 2.9-2 6.4-2.3 7.4-2 .1 0 .2.1.3.2v.3c-.8 1.2-1 2.6-.6 3.9.3 1.3 1.2 2.3 2.3 3 1.1.7 2.5.8 3.8.5s2.3-1.2 3-2.3c.7-1.1.8-2.5.5-3.8-.3-1.2-1.1-2.2-2.1-2.9-.1-.1-.2-.2-.2-.3 0-.4-.1-.7-.2-1.1-1.1-4-5.3-6.5-9.3-5.4l-.6.2h-.3c-1.7-.9-3.7-1.1-5.6-.6-2.3.6-4.2 2.3-5.1 4.6 0 .1-.2.2-.3.2-3.3.7-6 3-7.1 6.2-3.4 8.3.3 21.1 14 28.3.2.1.3.3.2.5-.1.2-.3.3-.5.2-5.3-2.8-10-7.3-12.8-12.2-2.3-4-4.4-10.2-1.6-17 1.2-3.3 4-5.8 7.5-6.6 1-2.4 3.1-4.2 5.6-4.8 2-.5 4.1-.3 6 .6l.5-.2c4.5-1.2 9.1 1.5 10.3 5.9.1.3.2.7.2 1 1.1.8 1.9 1.9 2.3 3.2.4 1.5.2 3-.6 4.3-.8 1.3-2 2.3-3.4 2.7-1.5.4-3 .2-4.3-.6s-2.3-2-2.7-3.4c-.4-1.4-.2-2.8.4-4-1.3-.1-4 .3-6.3 2-2.4 1.6-3.7 4-4 7-.6 6.4 3.8 19.6 12 25.7.2.1.2.4.1.5-.4 0-.5.1-.6.1zM38.6 60.6c-.1 0-.2 0-.2-.1-8.4-6.2-12.9-19.7-12.3-26.3.3-3.2 1.8-5.8 4.3-7.5 2.9-2 6.4-2.3 7.4-2 .2.1.3.3.3.5-.1.2-.3.3-.5.3-.8-.2-4.1 0-6.8 1.9-2.4 1.6-3.7 4-4 7-.6 6.4 3.8 19.6 12 25.7.2.1.2.4.1.5-.1-.1-.2 0-.3 0zm-2.9-1.4c-.1 0-.1 0-.2-.1-.8-.5-1.5-1.1-2.3-1.7 0 .1 0 .1-.1.2-.1.2-.3.2-.5.1-.8-.5-1.6-1-2.3-1.6-.1.2-.3.3-.5.2C19.3 50.8 10.7 38.6 15.4 27c1.2-3.4 4.1-5.9 7.7-6.6.2 0 .4.1.4.3 0 .2-.1.4-.3.4-3.3.7-6 3-7.1 6.2-3.3 8.1.1 20.2 12.6 27.6-7.2-6.1-12.4-16.4-9.8-25.5 1.2-4.2 4.7-7.2 9-7.6.2 0 .4.1.4.3 0 .2-.1.4-.3.4-4 .4-7.3 3.2-8.4 7.1-2.8 10.1 4.4 21.8 12.8 27.1-7.5-6.8-11.3-18-9.9-24.9 1-4.9 5.3-8.6 10.4-8.6.2 0 .4.2.4.4s-.2.4-.4.4c-4.7 0-8.7 3.4-9.6 8-1.5 7.6 3.3 20.4 12.7 26.5.2.1.2.3.1.5-.1.1-.2.2-.4.2z"/><path class="st1" d="M42.5 85.2c-5.9 0-14.5-1.4-21.8-7.9-9.1-8.2-13.2-22.1-10.4-35.4 1.4-6.8 8.1-12.9 14.2-13.1h.2c3.2 0 7.3 2.1 8.7 5.9.7 2 .4 4.2-.7 5.9-.8 1.3-2.3 2.1-3.8 2.1-.8 0-1.6-.2-2.3-.6-2.7-1.5-2.5-4.8-2.5-4.9l.1-.9-.7.6c-3.1 2.7-7 15.3 2.5 28.9 5.5 7.8 12.6 14.3 20.9 19.2-1.6.1-3 .2-4.4.2z"/><path d="M24.7 29.1c3.1 0 7 2 8.3 5.6.7 1.9.4 4-.7 5.6-.8 1.2-2.1 1.9-3.5 1.9-.8 0-1.5-.2-2.1-.6-2.5-1.3-2.3-4.4-2.3-4.5l.1-1.8-1.4 1.2c-3.2 2.8-7.2 15.6 2.4 29.4 5.4 7.5 12.2 13.9 20 18.8-1.2.1-2.3.1-3.1.1-5.9 0-14.4-1.4-21.5-7.8-9-8.1-13.1-21.9-10.2-35.1 1.4-6.7 7.9-12.6 13.8-12.8h.2m0-.7h-.2c-6.6.2-13.1 6.7-14.5 13.4C6.8 56.5 12 70 20.4 77.6c7.5 6.8 16.4 8 22 8 1.8 0 3.6-.1 5.4-.4-8.6-4.9-16-11.6-21.7-19.7-9.4-13.5-5.4-25.9-2.5-28.4 0 0-.2 3.6 2.7 5.2.8.4 1.6.7 2.5.7 3.6 0 6.4-4.2 4.9-8.5-1.3-3.9-5.5-6.1-9-6.1z"/><path class="st1" d="M48.6 85.4c-6.9 0-16.5-1.7-23.4-9.5-8.1-9.2-11-21.9-7.7-33.7 2.1-6.7 7.6-11.4 13.6-11.5h.2c3.2 0 7.3 2.1 8.7 5.9.7 2 .5 4.2-.7 6-.8 1.3-2.3 2.1-3.8 2.1-.8 0-1.6-.2-2.3-.6-2.7-1.5-2.5-4.8-2.5-4.9v-.9l-.7.5c-3.2 2.8-9.6 18.1-.2 31.5 7.1 10.2 17.8 13.9 22.4 15-.9.1-2.2.2-3.6.1z"/><path d="M31.4 31c3.1 0 7 2 8.3 5.6.7 1.9.4 4-.7 5.6-.8 1.2-2.1 1.9-3.5 1.9-.8 0-1.5-.2-2.2-.6-2.5-1.3-2.3-4.4-2.3-4.5l.1-1.8-1.4 1.2c-3.3 2.8-9.8 18.4-.2 32 5 7 12.2 12.1 20.4 14.6h-1.3c-6.8 0-16.3-1.6-23.1-9.4-8-9.1-10.8-21.7-7.7-33.4 2-6.6 7.4-11.1 13.3-11.3l.3.1m0-.7h-.2c-6.6.2-12 5.3-14 11.8-3.3 12-.4 24.8 7.8 34.1 7.2 8.2 17.3 9.6 23.7 9.6 2 0 3.9-.1 5.9-.4 0 0-15.1-2-24.4-15.3-9.4-13.5-2.8-28.5.1-31 0 0-.2 3.6 2.7 5.2.8.4 1.6.7 2.5.7 3.6 0 6.4-4.2 4.9-8.5-1.4-3.9-5.5-6.2-9-6.2z"/><path class="st1" d="M49.9 85.3c-4.8 0-11.6-1-16.6-5.9-9.7-9.6-13.3-20.3-10.9-31.7 1.6-7.4 6-11.9 11.8-12h.2c3.2 0 7.3 2.1 8.6 5.9.7 2 .5 4.2-.7 5.9-.8 1.3-2.3 2.1-3.8 2.1-.8 0-1.6-.2-2.3-.6-2.7-1.5-2.5-4.8-2.5-4.9l.1-.9-.7.6c-3.1 2.7-7 15.3 2.5 28.9 6.2 8.9 12.4 11.8 16 12.7-.6-.1-1.1-.1-1.7-.1z"/><path d="M34.4 36c3.1 0 7 2 8.3 5.6.7 1.9.4 4-.7 5.6-.8 1.2-2.1 1.9-3.5 1.9-.8 0-1.5-.2-2.2-.6-2.5-1.3-2.3-4.4-2.3-4.5l.1-1.8-1.3 1.2c-3.2 2.8-7.2 15.6 2.4 29.4 5.2 7.4 10.4 10.7 14.1 12.2-4.7-.1-11.1-1.2-15.8-5.8-9.5-9.6-13.1-20.1-10.7-31.4 1.5-7.2 5.8-11.6 11.4-11.8h.2m0-.8h-.2c-6.6.2-10.7 5.7-12.1 12.3-2.8 13 2.5 23.7 11 32.1 5.1 5.1 12.2 6 16.8 6 1.6 0 3.1-.1 4.6-.3-.7 0-9.7-.3-18.6-13-9.5-13.4-5.5-25.8-2.6-28.3 0 0-.2 3.6 2.7 5.2.8.4 1.6.7 2.5.7 3.6 0 6.4-4.2 4.9-8.5-1.3-3.9-5.5-6.2-9-6.2z"/><path class="st1" d="M52.5 91.6c-13.5 0-26.9-7.7-34.9-20.1-4.3-6.6-3.9-16.8.9-21.9 2.1-2.1 4.9-3.3 7.9-3.3 1.4 0 2.8.3 4 .9 2.7 1.2 4.4 4 4.3 6.9-.3 2.7-2.5 4.8-5.3 4.8-1.7-.1-3.3-.9-4.5-2.1l-.6-.7-.2.9c-.3 4.7 6.6 17.8 25 21 4.3.8 8.6 1.1 12.9 1.2 6.5 0 13.1-.8 19.4-2.4-3.2 4-12.4 14-27.1 14.8h-1.8z"/><path d="M26.3 46.7c1.3 0 2.6.3 3.9.9 2.6 1.1 4.2 3.7 4.1 6.5-.1 2-1.6 3.8-3.6 4.2-.4.1-.9.2-1.3.2-1.6-.1-3.1-.8-4.2-2L24 55.2l-.2 1.8c-.4 4.8 6.7 18.1 25.3 21.4 4.3.7 8.6 1.1 12.9 1.1 6.2 0 12.4-.7 18.4-2.2-3.7 4.5-12.5 13.1-26.1 13.8h-1.7c-13.4 0-26.6-7.7-34.6-20-4.2-6.5-3.8-16.5.8-21.4 2-2 4.7-3.2 7.6-3.2m0-.7c-3.1 0-6 1.3-8.1 3.4-5.1 5.4-5.1 15.9-.9 22.4C26.1 85.4 40.2 92 52.5 92h1.8c17.7-1 27.6-15.3 28-15.9-6.6 1.9-13.4 2.8-20.3 2.7-4.3 0-8.5-.4-12.7-1.1C30.9 74.4 24.2 61.3 24.5 57c1.2 1.3 3 2.1 4.8 2.2.5 0 1-.1 1.5-.2 5.8-1.7 5.3-9.5-.4-12.2-1.2-.6-2.7-.9-4-1z"/><path class="st1" d="M58.8 86.9c-.6 0-1.3 0-1.9-.1C43 85.8 30.6 78 23.7 66c-3.7-7.1-3.1-15.2 1.7-20.2 2.1-2.1 4.9-3.3 7.9-3.3 1.4 0 2.8.3 4 .9 2.7 1.2 4.4 4 4.3 6.9-.1 2.2-1.7 4-3.8 4.6-.5.1-1 .2-1.4.2-1.7-.1-3.3-.9-4.5-2.1l-.9-.7v.9c-.4 4.8 6.8 22.1 25 25.3 2.3.4 4.7.6 7 .6 8.2-.1 16.2-2.4 23.1-6.6-3.5 4.2-13.4 14.4-27.3 14.4z"/><path d="M33.2 42.9c1.3 0 2.6.3 3.8.8 2.6 1.1 4.2 3.7 4 6.6-.1 2-1.6 3.8-3.6 4.2-.4.1-.9.2-1.3.2-1.6-.1-3.1-.8-4.2-2l-1.2-1.3-.1 1.8c-.4 4.9 6.8 22.4 25.3 25.7 2.3.4 4.7.6 7.1.6 7.4-.1 14.8-2 21.3-5.5-4.3 4.7-13.4 12.6-25.5 12.6-.6 0-1.3 0-1.9-.1-13.7-1-26-8.7-32.9-20.6-3.7-6.9-3-14.9 1.6-19.8 2-2 4.7-3.2 7.6-3.2m0-.7c-3.1 0-6 1.2-8.2 3.4-5.1 5.4-5.3 13.8-1.7 20.6 4.3 8.1 15.8 19.8 33.5 21 .7 0 1.3.1 1.9.1 17.9 0 29-16.4 29-16.4-7.3 5-15.9 7.8-24.8 7.9-2.3 0-4.7-.2-7-.6-18.3-3.3-25-20.6-24.7-24.9 1.2 1.3 3 2.1 4.8 2.2.5 0 1-.1 1.5-.2 5.8-1.7 5.3-9.5-.4-12.2-1.1-.6-2.6-1-3.9-.9z"/><path class="st1" d="M65.8 83.2c-15.3 0-26.8-5.6-33.9-16.7-4.6-7.2-4.7-14.3-.2-19.1 2.1-2.1 4.9-3.3 7.9-3.3 1.4 0 2.8.3 4 .9 2.7 1.2 4.4 4 4.2 6.9-.3 2.7-2.5 4.8-5.3 4.8-1.7-.1-3.3-.9-4.5-2.1l-.6-.7-.1.9c-.3 4.7 6.6 17.8 25 21 2.8.5 5.6.8 8.4.8 7.4 0 12.1-2 14.7-3.5-3.1 3.5-10.2 10-19.4 10l-.2.1z"/><path d="M39.6 44.5c1.3 0 2.6.3 3.8.9 2.5 1.2 4.1 3.8 4 6.5-.3 2.5-2.4 4.4-4.9 4.5-1.6-.1-3.1-.8-4.2-2L37.2 53l-.2 1.8c-.3 4.8 6.7 18.1 25.3 21.4 2.8.5 5.6.8 8.5.8 4.4.1 8.8-.8 12.9-2.5-3.6 3.6-9.9 8.3-17.7 8.3h-.2c-15.2 0-26.5-5.6-33.6-16.5-4.5-7-4.6-14-.2-18.7 2-2 4.7-3.1 7.6-3.1m0-.8c-3.1 0-6 1.3-8.1 3.4-5.1 5.4-4 13.1.2 19.6 8.1 12.5 20.8 16.8 34.2 16.8h.2c13.1 0 21.7-12.6 21.7-12.6s-5 5.3-17 5.3c-2.8 0-5.6-.3-8.4-.8-18.3-3.3-25-16.4-24.7-20.7 1.3 1.3 3 2.2 4.8 2.2.5 0 1-.1 1.5-.2 5.8-1.7 5.3-9.5-.4-12.2-1.2-.5-2.6-.8-4-.8z"/><ellipse transform="matrix(.992 -.13 .13 .992 -13.71 7.011)" class="st0" cx="47" cy="108.8" rx="2.9" ry="1.7"/><ellipse transform="matrix(.992 -.13 .13 .992 -13.464 10.806)" class="st0" cx="76.3" cy="108.8" rx="2.9" ry="1.7"/><path d="M22.3 110.2c.6-2.7.9-4.1 1-4.8h5.4c0 .4-.1.8-.1 1.2 1-.9 2.3-1.4 3.6-1.4 2 0 2.5.8 2.8 1.5 1.1-1 2.6-1.5 4.1-1.5 2.8 0 3.4 1.9 2.9 4.4L39.5 120h-5.6l2.3-10c.1-.5.1-1-.4-1s-.8.4-1 1.2l-2.3 9.8H27l2.3-10c.2-.7-.1-.9-.4-.9s-.8.4-1 1.2l-2.2 9.7H20l2.3-9.8zm29.2 0c.6-2.7.9-4.1 1-4.8H58c0 .4-.1.8-.1 1.2 1-.9 2.3-1.4 3.6-1.4 2 0 2.6.8 2.8 1.5 1.1-1 2.6-1.5 4.1-1.5 2.8 0 3.4 1.9 2.9 4.4L68.8 120h-5.6l2.3-10c.1-.5.1-1-.4-1s-.8.4-1 1.2l-2.3 9.8h-5.6l2.3-10c.2-.7-.1-.9-.4-.9s-.8.4-1 1.2l-2.2 9.7h-5.6l2.2-9.8zm-5.2 1.5c-1 0-1.9-.2-2.7-.8l-2.1 9.1h5.7l2.1-9.1c-.9.6-1.9.8-3 .8zm1.4-5.8c1 0 1.9.2 2.7.8l.4-1.7H45l-.4 1.7c.9-.5 2-.8 3.1-.8zm29.2 0c1 0 1.9.2 2.7.8l.4-1.7h-5.7l-.4 1.7c.9-.5 2-.8 3-.8zm-1.3 5.8c-1 0-1.9-.2-2.7-.8l-2.1 9.1h5.7l2.1-9.1c-.9.6-1.9.8-3 .8z"/><path class="st2" d="M38.4 78.5c-.2 0-.4 0-.6-.1-.3-.1-.5-.3-.6-.6l-.9-2.2c-.2-.3-.3-.6-.3-1s.1-.7.4-.9l.1-.1c.1-.1.2-.1.3-.1l2.1-.4.6-.2c1.3-.3 2.6-.8 3.8-1.3h-4.2c-.5 0-1.1-.1-1.5-.3-.3-.2-.4-.5-.4-.8v-2.8c0-.4.3-.8.7-.9h-.4c-1.1-.3-1-1.6-1-2.7v-.5c-.1-.5.1-1.1.5-1.5.2-.1.4-.2.6-.2h1.8c-.1-.1-.2-.3-.3-.4-.1-1.1-.1-2.3.2-3.5l.1-.1c-.3 0-.7 0-1-.1-.2-.1-.4-.2-.6-.4-.4-1.2-.5-2.6-.1-3.8.2-.3.5-.5.9-.5h4c-.2-.3-.3-.7-.3-1 0-.3.1-.6.3-.8.3-.3.7-.4 1.1-.4h.1c.8-.2 1.6-.4 2.4-.4h.5c.3.1.5.2.6.4.2.4.4.9.6 1.3.1.2.2.6.3.9h3.6c.1-.2.1-.5.2-.7.1-.5.3-1.1.5-1.6.1-.2.2-.3.4-.4.2-.1.4-.1.5-.1h.2l1 .2h.6c.6 0 1.2.1 1.8.3.2.1.4.3.4.6v.1c.1.2.1.4 0 .7 0 .1-.2.4-.3.7v.1h3.5c.4 0 .7.1 1 .2.7.5.7 1.4.6 2.2v.6c0 .4 0 .9-.2 1.3s-.5.6-.9.6h-.8c.3.3.4.7.4 2.3 0 .9-.1 1.4-.5 1.8h1.7c.2 0 .5.1.6.2.8.6.6 3.7.3 4.2-.2.3-.5.5-.8.5h-.3c.2.1.3.2.4.3.4 1.3.5 2.7.1 4-.2.3-.5.5-.8.5H56c1.4.6 2.9 1.1 4.4 1.5h.1l2.5.4c.4.1.7.3.8.7l.1.2c.1.3.1.6-.1.8l-1.1 1.9c0 .1-.1.1-.1.2-.2.5-.5.8-.9 1.1h-.1c-.1 0-.3.1-.4.1-.4 0-.9-.1-1.3-.2-.3-.1-.7-.2-1-.3l-1.2-.3c-2.3-.7-4.5-1.7-6.4-3.1-.5-.4-1-.8-1.4-1.3-1.5 1.8-3.4 3.1-5.6 3.9-.4.2-.8.3-1.2.4s-.5.1-.8.2c-1.3.2-2.5.5-3.9.6z"/><path class="st0" d="M53.4 51.3l1 .2c.7 0 1.4.1 2.1.3v.1c-.1.3-.8 2-.8 2.1h4c.2 0 .6-.1.9-.1.1 0 .3 0 .4.1.3.2.2 1.2.2 1.7 0 .4 0 .7-.1 1.1h-8.8c-.3 0-.7 0-1 .1v1.5c.2.1.4.2.6.1h7.6c.2.9.2 1.8 0 2.6h-8.2v.1c-.1.5-.1 1.1 0 1.6H62c.2.9.2 1.9 0 2.9H37.9c-.4-.1-.2-1.5-.2-2.1 0-.2-.1-.7.1-.8h9.9s.6 0 .7-.1c.1-.5.1-1.1-.1-1.6H41c-.3 0-.5 0-.8-.1-.1-.9-.1-1.8 0-2.7h6.1c.5 0 1 .1 1.4.1.2 0 .4 0 .6-.1.1-.3.2-1.5-.1-1.7h-8.5c-.3 0-.7 0-1-.1-.2-.9-.2-1.9-.1-2.8h5.5l.1-.1c-.1-.7-1-1.5-1-2 .2-.2.5-.1.7-.1.7-.2 1.5-.3 2.2-.4h.3c.3.9.7 1.8 1.2 2.6.6.1 1.2.1 1.8.1.9 0 1.9 0 2.2-.1H52.5c.6-.4.4-1.6.9-2.4m-4.7 14.8c.5 0 2.8.2 3 .4 0 .4-.1.7-.2 1.1.1.2.8.2 1.4.2h8.5c.2 1 .2 1.9.1 2.9h-8.6c.2.5 1.4 1.1 1.9 1.4 1.8.9 3.6 1.6 5.6 2l2.5.4.1.2-1.1 1.9c-.2.3-.2.7-.5.8h-.1c-.3 0-.6-.1-.9-.2-.8-.3-1.6-.4-2.3-.6-2.2-.6-4.3-1.7-6.1-3-.6-.5-1.1-1-1.5-1.5l-.4-.6H50c-1.4 2.1-3.5 3.7-5.8 4.5-.7.2-1.3.4-2 .6-1.2.4-2.3.7-3.5.9h-.3c-.3-.8-.6-1.5-.9-2.2-.1-.2-.2-.4-.3-.7h.1l2.1-.4c2.5-.7 5.1-1.3 6.7-2.9.2-.2.4-.3.5-.5v-.1h-7.1c-.3 0-.7 0-1-.2v-2.8h9.8c.4-.3.2-1.2.5-1.6h-.1m4.7-16.7c-.3 0-.6.1-.9.2l.9 1.8-.9-1.8c-.3.2-.6.4-.8.8-.3.6-.5 1.2-.6 1.8h-2.2c0-.1-.1-.2-.1-.2-.2-.5-.4-1-.7-1.5-.3-.4-.7-.8-1.3-.9-.2 0-.4-.1-.7-.1-.9 0-1.7.2-2.6.4-.7 0-1.3.2-1.8.7-.4.4-.6 1-.6 1.5h-2.6c-.7 0-1.4.4-1.8 1-.5.9-.5 4 .2 4.9.3.4.6.6 1.1.8-.1.7-.1 1.5 0 2.2h-.4c-.4 0-.8.1-1.1.4-.7.6-1.1 1.5-.9 2.4v.4c0 .9-.1 2.3.8 3.1 0 .2-.1.3-.1.5v2.8c0 .7.3 1.3.9 1.7.1.1.3.2.4.2l-.9.2c-.3.1-.5.2-.7.3h-.1c-.6.4-1 1.1-.9 1.8 0 .5.2 1 .5 1.4l.4.9.5 1.2c.2.5.6.9 1.2 1.1.3.1.6.2.9.2 1.4-.2 2.8-.5 4.2-1 .3-.1.5-.2.8-.2.4-.1.9-.2 1.3-.4 2-.7 3.8-1.8 5.2-3.3.2.2.5.5.8.7 2 1.5 4.3 2.6 6.7 3.3.4.1.9.3 1.3.4.3.1.7.2 1 .3.5.2 1 .3 1.5.3.3 0 .5 0 .8-.1.1 0 .1-.1.2-.1.6-.3 1.1-.9 1.4-1.6v-.1l.5-.9.6-.9c.3-.5.4-1.1.2-1.6l-.1-.2c-.2-.7-.8-1.2-1.6-1.3l-.8-.1c.3-.2.6-.4.8-.7.5-1.4.5-2.9.2-4.3.2-.1.3-.3.4-.5.2-.4.4-.8.4-2.6 0-1.5-.2-2.3-.9-2.9-.4-.3-.8-.4-1.2-.4h-.3V59.3c.6-.2 1-.6 1.3-1.1.2-.6.3-1.1.2-1.7V56c0-.8.1-2.3-1.1-3.1-.4-.3-1-.5-1.5-.5h-2.1c0-.3 0-.5-.1-.8v-.1c-.2-.5-.5-.8-.9-1.1-.7-.3-1.5-.5-2.2-.5H55l-.5-.1-.5-.1c-.3-.4-.4-.4-.6-.3z"/><path class="st2" d="M53.2 49.6c-.4 0-.8 0-1.2-.1-.2-.1-.4-.2-.6-.4-.3-.5-.5-1-.7-1.6-.1-.2-.1-.4-.2-.6-.2-.4-.3-.8-.2-1.3h-5c-.6.1-1.2-.1-1.7-.3-.3-.2-.4-.4-.4-.8v-.7c-.2.5-.4.9-.6 1.4s-.4.9-.6 1.4l-.8 1.9c0 .1-.1.2-.1.2-.2.3-.6.5-1 .5s-.7-.1-1-.3c-.1-.1-.3-.1-.5-.2-1.2-.5-2-.9-2.3-1.5-.1-.3-.1-.6.1-.8l.9-1.3 1.9-4.1 1.2-3.2c.1-.4.5-.6.9-.6.2 0 .4.1.6.1v-.7c-.1.1-.2.1-.4.1-.6 0-1.2-.4-1.5-1l-.1-.1-2.4-2.2-.1-.1c-.6-.3-1-.8-1.2-1.4 0-.3.1-.6.3-.9l2.1-2c.2-.2.4-.3.7-.3h.2c.5.1.9.3 1.2.7l.1.1c.5.4 1 .8 1.5 1.3.3.3.7.6 1 .9.2.2.5.4.7.6-.4-.4-.7-.8-1-1.2l-.2-.3c-.3-.3-.5-.6-.7-1h-.3l.1-1-.2 1c-.1 0-.2-.1-.3-.1-.4-.2-.8-.6-1.1-1-.1-.1-.2-.3-.3-.4-.3-.2-.6-.5-.9-.7-.6-.6-1.3-1.1-2-1.5-.2-.1-.3-.3-.4-.5-.1-.3-.1-.7 0-1 .1-.1.1-.2.2-.3l1.9-1.9c.2-.2.5-.3.8-.3.6.1 1.2.3 1.6.8.1.1.1.1.2.1.5.4 1 .8 1.4 1.2s.7.6 1 .9l.1.1c.3.2.5.4.7.7.3-.4.5-.8.8-1.2l.9-1.9v-.1c.1-.3.2-.5.4-.8.2-.2.5-.3.7-.3h.2l2.3.5h.1c.7 0 1.2.5 1.3 1.2 0 .2 0 .3-.1.5h9.1c1.3 0 1.9 0 2.3.6s.5 3.5-.4 4.1c-.2.1-.3.2-.5.1h-.2c.2.5.3 1.1.2 1.7V34.4h.3c.3 0 .7 0 1 .1.2.1.4.2.6.4.5 1.3.5 2.7.1 4-.2.3-.5.5-.8.5h-1.2v.5c0 .3-.1.9-.1 1.3h.8c.4 0 .7.2.9.5.4.7.3 3.1.2 3.3 0 .2-.1.4-.3.5-.2.2-.5.4-.8.4h-1.3c-.3 2.1-1.9 3.7-4 3.8-.4.1-.7.1-1.1.1h-1.5c-.4-.3-.8-.2-1.3-.2zM48.8 41h1.4l-.9-.7c-.2-.1-.3-.3-.3-.4l-.2 1.1zm6.8-1.8c.4.3.7.7.8 1.2 0 .2 0 .4-.1.6h.3v-1.7l-1-.1zm-10.9-4.9v-.5c0-.3.1-.7.1-1-.2 0-.3-.1-.4-.1-.2-.1-.3-.2-.4-.3.4.4.6.9.5 1.5-.1.2-.1.3-.3.4h.5zm4.9 0h.4l-.3-.3c0 .1 0 .2-.1.3zm7.2 0c0-.5.1-1.1.1-1.6h-1c.6.5.7.7.7.8 0 .1.1.1.1.2v.6h.1z"/><path class="st0" d="M47.5 22.5l2.3.5c.3.1.6 0 .7.3-.2.4-.4.8-.5 1.2.4.1.8.1 1.2.1h9.3c.5-.1 1-.1 1.5.1.1.9.1 1.8-.1 2.7H48.4l-.9 1.2c0 .1 0 .1.1.1h12.9c.1 0 .3 0 .4.1.2.4 0 1.1 0 1.5 0 1.1-.1 2.2-.1 3.3v1.3l.1.1H62c.2 0 .5 0 .7.1.2.9.2 1.9 0 2.8h-1.4c-.3 0-.5 0-.8.1-.1 1.2-.2 2.4-.1 3.7h1.9c.1.8.2 1.7.1 2.5l-.1.1H61c-.3 0-.5 0-.8.1-.4 2.3-1.1 3.4-3.3 3.8-.3 0-.6.1-.9.1h-1.6c-.4.1-.8.1-1.2.1-.3 0-.6 0-.9-.1-.3-.6-.6-1.3-.8-2-.1-.2-.3-.6-.1-.7.2 0 .3-.1.5-.1.4 0 .7 0 1.1.1.4.1.8.1 1.1.1.8 0 1.6-.1 2.3-.4.2-.1.8-.7.7-.9 0 0-.1-.1-.2-.1H45.4c-.4 0-.8 0-1.2-.2 0-.5.1-.9.3-1.3.2-1.1.3-2.2.5-3.3.2-.5.2-1.1.2-1.6h-.1c-.1 0-.3-.1-.4-.1-.4 0-.9.1-1.3.1-.2 0-.4 0-.5-.1-.1-.9-.1-1.9 0-2.8h1.5c.4 0 .8 0 1.1-.1.2-.2.1-.8.1-1.2.1-.7 0-1.4.2-2.1v-1c-.4.2-.5.9-1 1-.5-.5-1-1.1-1.4-1.7-.2-.2-.5-.3-.5-.7 1.3-1.3 2.4-2.8 3.3-4.4l1-2c.1.1.2-.1.3-.3m6.9 12.8h3.2c.1-1.2.2-2.3.2-3.5l-.1-.1h-1.4c-1.2 0-2.5 0-3.5-.1 0 .2.5.5.7.6.8.5 1.5 1 2.1 1.7v.1c-.3.4-.9.7-1.2 1.3m-3.7-3.6c-.5 0-1-.1-1.5-.1h-.4l-.1.1-.1 2c-.1.4-.1 1-.2 1.4l.1.1c.2 0 .3.1.5.1h3.8c-.6-.6-1.3-1.1-2-1.6-.2-.2-.7-.3-.7-.6l1.4-1.3v-.1h-.1c-.1 0-.4.1-.7 0M48.6 42c.5 0 1.2-.1 1.6-.1h2.4c.1 0 .2 0 .3-.1-.1-.2-.3-.3-.5-.4-.4-.4-.8-.8-1.3-1.2l-1-.8v-.2l1.1-1v-.1h-.3c-.2.1-.4.1-.6.1-.5 0-1-.1-1.4-.1-.1 0-.3 0-.4.1-.3.2-.2.7-.2 1l-.5 2.6c.2.1.5.2.8.2m7.3 0c.5 0 1 0 1.6-.1.2-.8.1-1.8.2-2.7 0-.3.1-.9-.1-1H52.9v.1l.8.6 1 1c.2.2.6.3.6.7L54 41.8v.1l1.9.1M39.6 23c.5 0 .9.5 1.2.7.8.6 1.6 1.4 2.4 2 .3.2.6.5.8.8-.6.8-1.3 1.5-2 2.2h-.2c-.4-.2-.8-.9-1.1-1.2-.9-.8-1.9-1.6-2.9-2.3v-.3l1.8-1.9m-.3 6.8c.4 0 .6.4.9.6.9.6 1.6 1.4 2.5 2.1.2.2 1 .8.9 1.1l-.6.5-1.5 1.5c-.5 0-.6-.6-.9-.8l-2.5-2.2c-.3-.2-.9-.4-1-.9l2.2-1.9m1.9 8.2c.9.2 1.8.5 2.6.9.1.1.1.2.1.3-.4.8-.7 1.7-1 2.6-.5 1.5-1.3 2.9-1.9 4.3l-.8 1.9c0 .1-.1.1-.2.1-.2 0-.4-.1-.5-.2-.5-.2-2.1-.8-2.2-1.2l.8-1.4c.7-1.4 1.3-2.8 1.9-4.2l1.2-3.1m6.3-17.5c-.6 0-1.1.2-1.5.7-.3.3-.5.7-.6 1.1v.1l-.4.8-.5.9s0 .1-.1.1c-.3-.3-.6-.5-.9-.8s-.9-.8-1.5-1.2l-.1-.1c-.6-.6-1.4-1-2.2-1-.5 0-1 .2-1.4.6l-1 1-1 1c-.2.2-.3.4-.4.6-.2.5-.2 1.1 0 1.7.1.5.4.8.8 1.1.5.3 1 .7 1.5 1.1l-.2.2-1 1-1 1c-.5.4-.7 1.1-.6 1.7.2.9.8 1.7 1.7 2.1h.1l1.1 1 1.2 1c.1.2.3.4.5.6-.1.2-.2.3-.3.5l-1.3 2.9-.1.3-1.3 2.9-.5 1.2-.7 1.3c-.3.5-.3 1.1-.1 1.7.4 1.1 1.6 1.6 2.8 2.1l.4.2c.4.3.9.4 1.4.4.7 0 1.3-.3 1.7-.8.1-.1.2-.3.3-.4l.4-1 .4-1c.1-.3.2-.5.3-.8.7.3 1.4.4 2.1.4h4c.1.2.1.4.2.6.1.2.1.4.2.6.2.7.4 1.3.8 1.9.3.4.7.7 1.2.8.5.1.9.1 1.4.1.5 0 1 0 1.5-.1H56.1c.4 0 .8 0 1.2-.1 2.2-.2 4-1.7 4.6-3.8h.5c.5 0 1.1-.2 1.5-.6l.1-.1c.3-.3.5-.6.5-1 0 0 .3-2.9-.4-4-.2-.3-.5-.6-.8-.7.5-.1 1-.4 1.3-.9.6-1.6.6-3.5-.1-5.1-.3-.4-.7-.7-1.2-.8l-.4-.1v-.8c0-.6.1-1.3 0-1.9v-.2c.1-.4.1-.7.1-1.1 1-.6 1-1.7 1.1-2.9.1-1.6-.1-2.1-.3-2.5 0 0 0-.1-.1-.1-.7-1.1-1.9-1.1-3.1-1.1h-8c-.3-.9-1.1-1.6-2.1-1.6h-.1l-1.2-.3-1.2-.3c-.1-.1-.3-.1-.5-.1z"/></svg>