<svg xmlns="http://www.w3.org/2000/svg" viewBox="0 0 100 25" enable-background="new 0 0 100 25"><g><path d="M85.36 13.936v5.043h3.24c2.792 0 3.926-.648 3.926-2.376 0-1.618-1.405-2.668-3.91-2.668H85.36zm0-9.1v4.277h3.203c1.89 0 2.995-.692 2.995-2.234 0-1.435-1.135-2.044-3.028-2.044h-3.17zm8.1 6.25v.156c4.704.445 6.54 2.608 6.54 5.86 0 5.05-4.24 6.7-10.478 6.7H78.058V.012h9.897c7.04 0 10.83 1.335 10.83 5.894 0 3.12-2.05 4.958-5.326 5.18zM60.32 9.67h6.023c-.49-3.12-1.495-4.34-3.003-4.34-1.47 0-2.603 1.19-3.02 4.34zm15.584 4.514H60.333c.375 3.34 1.31 4.812 3.153 4.812 1.4 0 2.243-.995 2.818-2.386l9.613.27c-.637 1.652-1.873 3.43-3.978 4.988-2.082 1.493-4.832 2.458-8.55 2.458-3.337 0-6.66-.704-9.027-2.843-2.234-1.94-3.578-4.91-3.578-9.378 0-3.648 1.124-7.032 3.68-9.264C56.495 1.113 59.392 0 63.372 0c3.4 0 6.38.808 8.674 2.985 2.9 2.83 3.86 6.536 3.86 11.2zM33.19 9.67h6.024c-.49-3.12-1.495-4.34-3.003-4.34-1.47 0-2.603 1.19-3.02 4.34zm15.584 4.514H33.2c.377 3.34 1.31 4.812 3.154 4.812 1.4 0 2.243-.995 2.818-2.386l9.613.27c-.637 1.652-1.873 3.43-3.978 4.988-2.08 1.493-4.83 2.458-8.55 2.458-3.337 0-6.66-.704-9.026-2.843-2.233-1.94-3.578-4.91-3.578-9.378 0-3.648 1.124-7.032 3.68-9.264C29.362 1.113 32.262 0 36.24 0c3.4 0 6.38.808 8.674 2.985 2.902 2.83 3.86 6.536 3.86 11.2zM21.877.014V23.8h-7.302v-9.75H7.3v9.75H0V.012h7.3v9.2h7.275v-9.2h7.302M85.36 13.936v5.043h3.24c2.792 0 3.926-.648 3.926-2.376 0-1.618-1.405-2.668-3.91-2.668H85.36zm0-9.1v4.277h3.203c1.89 0 2.995-.692 2.995-2.234 0-1.435-1.135-2.044-3.028-2.044h-3.17zm8.1 6.25v.156c4.704.445 6.54 2.608 6.54 5.86 0 5.05-4.24 6.7-10.478 6.7H78.058V.012h9.897c7.04 0 10.83 1.335 10.83 5.894 0 3.12-2.05 4.958-5.326 5.18zM60.32 9.67h6.023c-.49-3.12-1.495-4.34-3.003-4.34-1.47 0-2.603 1.19-3.02 4.34zm15.584 4.514H60.333c.375 3.34 1.31 4.812 3.153 4.812 1.4 0 2.243-.994 2.818-2.386l9.613.27c-.637 1.652-1.873 3.43-3.978 4.988-2.082 1.493-4.832 2.458-8.55 2.458-3.337 0-6.66-.704-9.027-2.843-2.234-1.94-3.578-4.91-3.578-9.378 0-3.648 1.124-7.032 3.68-9.264C56.495 1.113 59.392 0 63.372 0c3.4 0 6.38.808 8.674 2.985 2.9 2.83 3.86 6.536 3.86 11.2zM33.19 9.67h6.024c-.49-3.12-1.495-4.34-3.003-4.34-1.47 0-2.603 1.19-3.02 4.34zm15.584 4.514H33.2c.377 3.34 1.31 4.812 3.154 4.812 1.4 0 2.243-.994 2.818-2.386l9.613.27c-.637 1.652-1.873 3.43-3.978 4.988-2.08 1.493-4.83 2.458-8.55 2.458-3.337 0-6.66-.704-9.026-2.843-2.233-1.94-3.578-4.91-3.578-9.378 0-3.648 1.124-7.032 3.68-9.264C29.362 1.113 32.262 0 36.24 0c3.4 0 6.38.808 8.674 2.985 2.902 2.83 3.86 6.536 3.86 11.2zM21.877.014V23.8h-7.302v-9.75H7.3v9.75H0V.012h7.3v9.2h7.275v-9.2h7.302"/></g></svg>