<svg xmlns="http://www.w3.org/2000/svg" viewBox="0 0 100 30" enable-background="new 0 0 100 30"><g><path d="M17.37 9.756c-.544-.74-1.244-1.206-2.198-1.206-.915 0-1.79.7-1.79 1.654 0 2.472 5.82 1.44 5.82 6.364 0 2.94-1.83 5.02-4.827 5.02-2.024 0-3.503-1.167-4.515-2.86l1.85-1.81c.388 1.13 1.42 2.14 2.646 2.14 1.168 0 1.888-.992 1.888-2.12 0-1.518-1.4-1.946-2.55-2.394-1.887-.778-3.268-1.732-3.268-4.01 0-2.43 1.81-4.397 4.28-4.397 1.305 0 3.115.642 4.01 1.635L17.37 9.756zM28.19 21.2h-2.86V9.015h-2.958v-2.49h8.777v2.49h-2.96zM34.846 6.525h2.86v8.213c0 1.81.157 4.36 2.59 4.36 2.432 0 2.587-2.55 2.587-4.36V6.525h2.86v8.777c0 3.58-1.517 6.286-5.448 6.286-3.93 0-5.45-2.705-5.45-6.286V6.525zM53.353 9.016h.467c3.25 0 4.885 1.654 4.885 4.846 0 2.9-1.362 4.846-4.885 4.846h-.467V9.016M50.493 21.2h4.067c4.184 0 7.103-3.193 7.103-7.318 0-4.184-2.84-7.356-7.084-7.356H50.49V21.2zM65.79 6.525h2.86V21.2h-2.86zM86.398 14.718c1.187 0 1.868 1.168 1.868 2.258 0 1.07-.68 2.238-1.868 2.238-1.187 0-1.868-1.168-1.868-2.238 0-1.09.68-2.258 1.868-2.258m-2.374-1.237c-1.596.604-2.374 2.044-2.374 3.738 0 2.647 2.277 4.3 4.75 4.3 2.47 0 4.747-1.653 4.747-4.3 0-1.693-.78-3.134-2.374-3.737 1.206-.602 1.927-1.887 1.927-3.23 0-2.51-1.888-4.184-4.3-4.184-2.414 0-4.302 1.674-4.302 4.184 0 1.343.72 2.628 1.926 3.23m2.374-5.203c1.07 0 1.693 1.09 1.693 2.043 0 .973-.622 2.063-1.692 2.063-1.07 0-1.693-1.09-1.693-2.063 0-.954.623-2.043 1.693-2.043z" fill="#231F20"/><path d="M86.36 0c-7.52 0-13.64 6.12-13.64 13.64 0 7.52 6.12 13.64 13.64 13.64 7.52 0 13.64-6.12 13.64-13.64C100 6.12 93.88 0 86.36 0zm0 2.79c5.983 0 10.85 4.866 10.85 10.85 0 5.982-4.867 10.85-10.85 10.85S75.51 19.62 75.51 13.64c0-5.983 4.868-10.85 10.85-10.85zM5.556 6.084v1.808c.015 1.654-.846 2.682-2.776 2.682-1.93 0-2.79-1.028-2.774-2.682V6.084h5.55zM.93 7.224v.587c-.017 1.353.967 1.552 1.85 1.552.885 0 1.87-.2 1.854-1.55v-.59H.93zM5.556 11.57v1.808c.015 1.654-.846 2.683-2.776 2.683-1.93 0-2.79-1.028-2.774-2.682V11.57h5.55zM.93 12.71v.587c-.016 1.352.967 1.55 1.85 1.55.885 0 1.87-.198 1.854-1.55v-.588H.93z" fill="#FFE800"/><path d="M.006 17.078h5.55v1.992c.06.95-.354 1.918-1.438 1.918-.607 0-1.03-.404-1.215-.934H2.89c-.147.67-.63 1.17-1.446 1.17-1.1 0-1.5-1.324-1.437-2.14v-2.006zm.923 2.028c0 .537.1.904.737.904.638 0 .738-.368.738-.904v-.89H.93v.89zm2.397 0c0 .478.207.742.653.742.446 0 .654-.264.654-.742v-.89H3.327v.89z" fill="#DADAD9"/></g></svg>