<svg xmlns="http://www.w3.org/2000/svg" viewBox="0 0 100 100" enable-background="new 0 0 100 100"><g><path fill="#12122E" d="M0 0h100v100H0z"/><linearGradient id="a" gradientUnits="userSpaceOnUse" x1="37.86" y1="55.597" x2="51.03" y2="71.292"><stop offset="0" stop-color="#fff" stop-opacity=".9"/><stop offset="1" stop-color="#fff" stop-opacity="0"/></linearGradient><path d="M64.42 60.057c-.348.266-.71.508-1.08.738-.06.038-.12.077-.18.113-.356.213-.722.408-1.096.588-.073.035-.146.068-.22.102-.388.177-.784.34-1.192.483l-.05.018c-.452.154-.914.288-1.388.4-.29.067-.58.124-.874.17-.005.002-.01.003-.016.003-.29.047-.582.083-.877.108-.008 0-.015 0-.023.002-.297.025-.596.04-.898.044h-.008c-.304.004-.61-.002-.92-.02h-.01c-.31-.017-.62-.045-.935-.083h-.016c-.315-.04-.633-.088-.953-.148h-.005c-.322-.06-.646-.13-.972-.212-.005 0-.01-.003-.016-.004-.327-.08-.657-.173-.99-.275l-14.92-4.585-12.31 9.337 14.948 4.613c.026.008.05.016.077.023l.077.023c.026.01.05.016.076.024l.076.022.19.054c.062.018.124.035.187.05.063.018.125.034.187.05l.122.03.014.005c.017.004.034.01.05.013l.184.044.183.042.182.04.18.036.18.035c.006 0 .01.002.015.003h.003l.004.002.16.03.178.03.178.027c.06.01.12.018.18.026l.177.024.08.01.02.002c.025.002.05.006.077.01.06.006.118.012.177.02.06.005.12.01.18.017l.18.015c.06.005.118.01.178.013l.14.01h.01c.01 0 .018 0 .027.002l.184.01c.06 0 .122.004.183.005l.183.004h.375c.063 0 .126-.002.19-.004l.19-.007.19-.01.203-.014.106-.008h.01l.01-.002.077-.006.204-.02.202-.023c.075-.008.15-.018.224-.03.058-.007.115-.016.173-.025.006 0 .012-.002.017-.003l.033-.005.222-.038.22-.043.1-.02.1-.02.1-.023.1-.023c.067-.015.135-.03.203-.048l.202-.052.2-.054.2-.057.386-.12c.066-.02.13-.045.197-.067l.027-.008.023-.01.133-.044c.126-.044.25-.09.374-.14.124-.047.247-.097.37-.15.107-.045.21-.098.317-.146.04-.018.083-.03.123-.05.033-.016.064-.036.097-.052.074-.035.15-.067.224-.104.25-.125.496-.258.738-.4.046-.026.09-.057.137-.084.023-.014.048-.024.07-.038.038-.023.072-.052.11-.075.132-.08.265-.16.394-.246.232-.156.46-.32.685-.49l6.988-5.34c1.854-1.42 3.682-2.818 5.277-4.037z" fill="url(#a)"/><linearGradient id="b" gradientUnits="userSpaceOnUse" x1="41.076" y1="57.245" x2="20.16" y2="21.018"><stop offset="0" stop-color="#fff" stop-opacity=".9"/><stop offset="1" stop-color="#fff" stop-opacity="0"/></linearGradient><path fill="url(#b)" d="M24.47 66.833l-.068-46.162 12.365-9.24.013 46.067z"/><linearGradient id="c" gradientUnits="userSpaceOnUse" x1="33.931" y1="12.982" x2="77.069" y2="49.179"><stop offset="0" stop-color="#fff"/><stop offset=".863" stop-color="#fff" stop-opacity=".138"/><stop offset="1" stop-color="#fff" stop-opacity="0"/></linearGradient><path d="M79.4 38.217v-.142c0-.047 0-.095-.002-.142l-.007-.29-.008-.286v-.004l-.012-.288-.015-.29-.018-.287-.02-.282V36.2c-.01-.095-.017-.19-.025-.286l-.027-.287-.03-.287c-.01-.096-.02-.192-.033-.288-.01-.096-.023-.192-.036-.288-.012-.096-.025-.192-.04-.288l-.04-.292-.046-.292-.048-.292-.05-.292-.057-.3-.052-.264-.003-.013-.005-.022c-.02-.1-.04-.2-.062-.3-.02-.1-.043-.2-.065-.3l-.07-.312-.05-.2c0-.007-.002-.013-.003-.02 0-.005-.003-.01-.004-.016-.005-.025-.01-.05-.017-.076-.025-.104-.05-.208-.078-.312l-.08-.313-.09-.33-.027-.096-.012-.044-.054-.192-.097-.33-.1-.332-.023-.072-.023-.072c-.01-.024-.016-.048-.024-.072l-.023-.072-.1-.312-.105-.31-.106-.308c-.036-.102-.072-.205-.11-.307l-.147-.402c-.05-.134-.1-.268-.152-.4l-.09-.23-.007-.017-.007-.015c-.02-.045-.036-.09-.054-.136l-.16-.396c-.06-.144-.12-.287-.182-.43-.06-.143-.123-.285-.187-.426-.063-.142-.127-.282-.192-.423l-.17-.362-.004-.01c0-.002 0-.005-.003-.007l-.02-.04c-.078-.166-.16-.33-.24-.496-.083-.165-.166-.328-.25-.49-.084-.164-.17-.326-.257-.488s-.175-.322-.264-.482c-.016-.03-.033-.058-.05-.087l-.01-.02-.016-.025c-.077-.137-.155-.274-.234-.41-.105-.178-.21-.357-.32-.534-.107-.177-.216-.354-.327-.53-.112-.174-.225-.35-.34-.522l-.152-.23c-.05-.076-.103-.152-.155-.228l-.156-.226-.158-.225c-.173-.243-.348-.484-.526-.72-.057-.077-.115-.15-.173-.226l-.043-.062-.055-.067c-.09-.116-.177-.234-.268-.35-.183-.23-.368-.46-.556-.684-.188-.225-.38-.448-.572-.667l-.016-.017-.005-.007-.012-.013c-.18-.203-.36-.405-.546-.603-.195-.21-.393-.418-.594-.622-.123-.126-.25-.25-.375-.373-.02-.02-.036-.04-.055-.058-.014-.014-.03-.026-.043-.04l-.136-.134c-.206-.2-.414-.395-.625-.588l-.22-.2-.22-.196-.224-.195-.225-.192-.128-.108-.13-.107-.128-.106-.13-.105-.255-.202-.094-.07-.037-.03-.127-.097c-.086-.065-.17-.13-.258-.193-.086-.064-.172-.126-.26-.188l-.223-.16c-.003 0-.006-.003-.01-.005 0-.002 0-.002-.002-.002-.07-.05-.142-.098-.213-.147l-.226-.152c-.075-.05-.15-.1-.226-.148-.068-.044-.137-.088-.206-.13-.01-.008-.022-.015-.033-.02l-.014-.01c-.052-.033-.105-.067-.16-.1-.068-.04-.137-.083-.206-.125-.07-.04-.14-.082-.208-.123l-.194-.112-.143-.08c-.004 0-.006-.003-.01-.005l-.005-.003-.038-.02-.195-.108-.196-.104-.188-.098-.19-.096-.12-.06-.02-.01-.048-.023-.19-.09c-.06-.03-.123-.058-.184-.086l-.185-.084c-.06-.028-.123-.055-.184-.082-.05-.022-.1-.044-.152-.065l-.005-.002h-.005c-.008-.005-.017-.008-.025-.012l-.183-.077-.184-.074c-.06-.025-.123-.05-.185-.073-.062-.024-.123-.048-.185-.07l-.185-.07-.02-.007c-.003 0-.006-.002-.008-.003-.052-.02-.105-.038-.157-.057l-.186-.065c-.062-.02-.124-.04-.187-.062l-.113-.037c-.038-.01-.076-.023-.114-.035l-.114-.036-.115-.036L45.24 5l-12.364 9.24 15.014 4.566c.332.1.66.21.987.33.003 0 .006.002.008.003.326.118.65.246.97.383l.007.004c.32.136.635.282.948.436.006.003.01.006.017.008.313.155.623.318.93.49l.014.007c.31.172.614.353.916.543l.014.008c.304.19.606.39.905.6.002 0 .004.002.006.004.296.206.588.422.878.645l.037.03c.29.224.58.458.866.7.57.484 1.12.99 1.655 1.512.032.03.064.063.096.095.524.516 1.03 1.05 1.52 1.603l.018.02c.49.555.96 1.13 1.415 1.723l.1.132c.457.6.9 1.22 1.323 1.86.43.653.837 1.32 1.222 2l.027.048c.384.682.746 1.378 1.084 2.088l.007.018c.34.71.654 1.437.948 2.177.004.01.01.022.013.034.294.744.565 1.5.814 2.274.123.383.237.764.345 1.145l.012.042c.105.377.203.754.294 1.13l.01.036c.09.38.174.758.25 1.136l.003.017c.077.383.146.766.208 1.148v.004c.125.77.218 1.54.28 2.31.03.384.053.768.068 1.15v.005c.015.383.022.766.02 1.148 0 .373-.008.743-.024 1.108l-.002.026c-.016.36-.04.718-.07 1.07 0 .01 0 .022-.002.032-.03.35-.07.7-.114 1.043 0 .012-.003.023-.004.035-.046.344-.1.684-.16 1.02 0 .01-.002.017-.004.026-.06.336-.13.668-.204.995l-.005.023c-.076.328-.16.652-.25.972-.002.012-.006.024-.01.037-.088.314-.185.624-.288.93l-.014.043c-.106.313-.22.62-.34.926-.246.618-.516 1.207-.807 1.77l-.018.033c-.288.55-.598 1.074-.93 1.57l-.034.05c-.324.48-.67.932-1.035 1.362-.024.027-.047.056-.07.084-.382.442-.786.86-1.213 1.246l-.22.196c-.075.064-.15.128-.225.19-.075.063-.15.124-.227.185l-.23.18 12.268-9.376.23-.18c.076-.06.152-.12.227-.184l.224-.19c.074-.064.148-.13.22-.196.204-.184.403-.374.596-.57.193-.198.38-.4.564-.61.02-.02.036-.043.054-.065.008-.01.017-.016.025-.026.016-.018.028-.04.044-.058.14-.163.277-.326.41-.496.173-.22.34-.45.503-.682.04-.06.082-.12.122-.182l.018-.024.015-.025.105-.156c.085-.13.17-.263.25-.397.083-.134.164-.27.243-.408.08-.14.157-.278.233-.42l.1-.19.01-.018.008-.018.066-.126c.06-.118.12-.238.178-.36.058-.12.116-.242.172-.365.056-.123.112-.248.166-.374l.057-.135c.02-.045.038-.09.056-.135l.055-.136.055-.137.078-.198.076-.2.074-.2.072-.2.042-.125.015-.045c.014-.042.03-.085.043-.127l.096-.3.092-.3.057-.198.007-.022.004-.017.02-.067.076-.286.074-.287.07-.29.01-.04c0-.01.003-.018.005-.027.018-.074.035-.148.05-.222l.06-.278c.02-.093.038-.187.056-.28l.04-.208c0-.005 0-.01.002-.016 0-.004 0-.008.002-.01l.01-.048.048-.284.044-.277c.014-.093.028-.185.04-.278l.018-.13.005-.04.015-.112.034-.282.03-.28c.01-.092.02-.186.028-.28l.007-.084v-.015c.002-.006.002-.012.002-.018l.014-.166c.008-.094.015-.19.02-.284.008-.094.014-.19.02-.284l.014-.286c0-.016 0-.032.002-.048v-.027l.01-.213.01-.29c0-.05 0-.1.002-.15l.002-.15c0-.05 0-.1.002-.15v-.294c.004-.046.004-.094.003-.14z" fill="url(#c)"/><path d="M65.638 38.58c.25.78.466 1.557.653 2.332.187.776.343 1.55.467 2.323.124.773.217 1.544.278 2.314.06.77.09 1.536.09 2.302 0 .757-.033 1.497-.096 2.22-.064.725-.157 1.432-.282 2.123-.124.69-.28 1.364-.465 2.02-.186.658-.403 1.297-.65 1.92-.25.624-.52 1.22-.815 1.786-.295.568-.614 1.106-.956 1.615-.342.51-.708.99-1.097 1.443-.39.452-.802.876-1.238 1.272-.438.396-.893.76-1.367 1.09-.473.332-.965.63-1.474.896-.51.266-1.036.5-1.582.7-.545.2-1.11.367-1.69.503-.583.136-1.176.23-1.78.28-.604.052-1.22.06-1.846.024-.626-.035-1.264-.113-1.913-.235-.65-.122-1.308-.286-1.98-.493l-14.952-4.615-.068-46.162 15.02 4.567c.664.202 1.32.44 1.964.717.644.276 1.28.588 1.903.937.625.35 1.24.736 1.844 1.158.604.422 1.2.88 1.783 1.376.584.497 1.15 1.014 1.697 1.55.547.54 1.076 1.096 1.587 1.675.51.578 1.003 1.177 1.476 1.797.474.62.93 1.26 1.365 1.922.436.66.85 1.337 1.24 2.027.39.69.757 1.396 1.1 2.116.345.72.665 1.455.962 2.204.297.75.57 1.515.82 2.294zm-9.905 10.967c.126-.354.236-.724.33-1.107.094-.384.173-.782.236-1.195.062-.413.11-.84.14-1.282.033-.442.05-.898.05-1.368 0-.46-.016-.917-.048-1.37-.032-.455-.08-.907-.144-1.355-.064-.45-.145-.895-.24-1.34-.098-.443-.21-.885-.34-1.324-.13-.438-.273-.866-.43-1.285-.156-.418-.326-.827-.51-1.226-.183-.4-.38-.79-.59-1.168-.21-.38-.435-.75-.672-1.108-.238-.36-.49-.707-.753-1.044-.265-.337-.543-.663-.834-.977-.293-.314-.598-.618-.916-.91-.318-.292-.65-.572-.996-.842-.345-.27-.702-.52-1.07-.756-.366-.236-.744-.453-1.133-.654-.39-.2-.788-.384-1.198-.55-.41-.166-.83-.315-1.262-.446l-2.33-.71.013 25.85 2.324.715c.44.135.866.246 1.28.333.417.087.82.15 1.213.19.392.038.772.053 1.14.045.37-.01.726-.042 1.07-.1.346-.056.677-.132.995-.228.318-.096.622-.21.914-.345.29-.135.57-.29.833-.463.264-.174.515-.368.753-.582.237-.212.46-.442.67-.69.21-.248.404-.513.586-.796.18-.284.348-.585.502-.904.15-.318.29-.655.415-1.01" fill="#fff"/><g fill="#fff"><path d="M25 80h2.93c.52 0 1.005.105 1.46.314.455.21.853.487 1.193.833.34.347.608.752.803 1.213.195.462.293.945.293 1.45 0 .5-.097.98-.29 1.44-.19.462-.457.867-.797 1.218-.34.35-.737.63-1.192.84-.453.208-.944.312-1.47.312H25V80zm1.98 5.942h.455c.344 0 .65-.054.92-.162.27-.107.497-.255.682-.445.185-.19.327-.412.424-.672.1-.26.147-.544.147-.854 0-.304-.05-.587-.15-.85-.102-.263-.246-.488-.43-.677-.186-.19-.414-.337-.683-.445-.27-.108-.572-.162-.91-.162h-.454v4.266zM38.3 86.295h-2.83l-.455 1.324h-2.112l2.9-7.62h2.162l2.9 7.62h-2.112l-.454-1.325zm-.527-1.505l-.89-2.536-.888 2.536h1.778zM49.08 87.62h-2.465l-1.89-2.93v2.93h-1.98V80h3.08c.425 0 .796.062 1.112.187.317.125.578.295.783.51.206.215.36.465.465.748.104.283.156.586.156.91 0 .58-.14 1.05-.418 1.41-.28.36-.692.605-1.238.733l2.396 3.12zm-4.355-4.214h.374c.39 0 .69-.08.898-.243.21-.16.314-.394.314-.697s-.105-.536-.314-.697c-.21-.163-.51-.243-.9-.243h-.373v1.88zM51.79 80l1.313 4.922L54.72 80h1.576l1.617 4.922L59.227 80h2.07l-2.273 7.62h-2.02l-1.496-4.417-1.496 4.416h-2.02L49.716 80h2.072zM64.986 80v7.62h-1.98V80h1.98zM67.39 87.62V80h1.982l3.658 4.658V80H75v7.62h-1.97l-3.658-4.66v4.66h-1.98zM25.267 96.18v-4.02h.844c.406 0 .725.04.96.12.25.078.48.21.684.4.415.378.622.875.622 1.49 0 .62-.216 1.12-.648 1.5-.217.192-.445.325-.683.4-.222.075-.537.112-.945.112h-.833zm.607-.57h.273c.272 0 .5-.028.68-.085.18-.06.344-.157.49-.29.3-.27.448-.627.448-1.064 0-.44-.147-.798-.443-1.072-.265-.245-.657-.367-1.174-.367h-.273v2.88zM34.743 92.16v4.02h-.607v-4.02h.607zM42.56 94.087h1.663v.133c0 .302-.036.57-.107.802-.07.215-.186.417-.35.604-.374.42-.85.63-1.426.63-.562 0-1.044-.203-1.445-.61-.4-.408-.6-.897-.6-1.47 0-.582.203-1.077.61-1.483.41-.408.906-.612 1.49-.612.315 0 .61.065.88.193.26.128.517.337.77.625l-.434.414c-.328-.44-.73-.66-1.205-.66-.425 0-.782.148-1.07.44-.288.29-.433.65-.433 1.084 0 .448.16.817.482 1.107.3.27.626.404.976.404.3 0 .567-.1.805-.302.238-.203.37-.446.4-.73H42.56v-.568zM50.59 92.16v4.02h-.607v-4.02h.607zM57.662 92.73v3.45h-.606v-3.45h-.925v-.57h2.454v.57h-.922zM66.427 95.204h-1.72l-.45.976h-.653l1.99-4.274 1.92 4.274h-.665l-.423-.976zm-.248-.57l-.597-1.367-.625 1.367h1.22zM73.62 92.16v3.45h1.18v.57h-1.788v-4.02h.607z"/></g></g></svg>