<?xml version="1.0" encoding="iso-8859-1"?>
<!-- Generator: Adobe Illustrator 19.2.1, SVG Export Plug-In . SVG Version: 6.00 Build 0)  -->
<svg version="1.1" xmlns="http://www.w3.org/2000/svg" xmlns:xlink="http://www.w3.org/1999/xlink" x="0px" y="0px"
	 viewBox="0 0 100 15" style="enable-background:new 0 0 100 15;" xml:space="preserve">
<g id="logo_x5F_lb2">
	<g>
		<polygon style="fill:#1C3F94;" points="67.348,0.473 67.998,0.473 71.731,12.872 76.074,0.128 76.156,0.128 80.498,12.872 
			84.231,0.473 84.861,0.473 80.559,14.617 80.478,14.617 76.115,1.852 71.731,14.617 71.651,14.617 		"/>
		<path style="fill:#1C3F94;" d="M85.877,7.372c0-4.079,3.164-7.061,7.061-7.061c3.896,0,7.062,2.983,7.062,7.061
			c0,4.078-3.166,7.063-7.062,7.063C89.041,14.435,85.877,11.451,85.877,7.372 M99.33,7.372c0-3.713-2.739-6.473-6.392-6.473
			c-3.653,0-6.392,2.759-6.392,6.473c0,3.714,2.74,6.474,6.392,6.474C96.591,13.846,99.33,11.087,99.33,7.372"/>
		<polygon style="fill:#1C3F94;" points="0,0.344 0.649,0.344 0.649,13.576 7.325,13.576 7.325,14.144 0,14.144 		"/>
		<rect x="10.107" y="0.344" style="fill:#1C3F94;" width="0.649" height="13.799"/>
		<polygon style="fill:#1C3F94;" points="15.443,1.663 15.443,14.144 14.855,14.144 14.855,0 14.935,0 24.595,12.825 24.595,0.344 
			25.183,0.344 25.183,14.489 25.103,14.489 		"/>
		<path style="fill:#1C3F94;" d="M55.782,0.473v0.569h4.424v7.637c-0.495-0.235-3.433-1.669-6.634-1.066
			c-0.213,0.04-0.467,0.065-0.765,0.128c-0.429,0.092-0.829,0.212-1.293,0.373c-0.139,0.042-0.319,0.125-0.376,0.125
			c-0.055-0.042,0.057-0.195,0.126-0.305c0.139-0.182,0.403-0.598,0.431-0.64c0.11-0.182,0.138-0.319,0.014-0.292
			c0,0-1.89,0.431-3.157,0.709c-0.208,0.041-0.528,0.153-0.555,0.069c-0.029-0.069,0.25-0.584,0.278-0.653
			c0,0,0.014-0.055-0.057-0.084c-0.056-0.027-0.097,0.014-0.18,0.028l-2.364,0.531V7.6c0,0-0.778,0.097-0.945,0.111
			c-0.18,0.027-0.291,0.027-0.417-0.014c-0.014,0-0.263-0.056-0.375-0.222c0.111-0.251,0.125-0.293,0.153-0.418
			c0.013-0.083,0.028-0.347-0.125-0.417h-0.014c-0.111,0-0.237,0.223-0.264,0.376c-0.042,0.124-0.056,0.264-0.056,0.403
			C43.507,7.6,43.34,7.725,43.034,7.807c-0.25,0.083-0.5,0.029-0.694-0.111c-0.362-0.278-0.362-0.57-0.362-0.945
			c1.598-1.182,3.6-3.796,3.545-5.13c-0.015-0.237-0.084-0.348-0.168-0.404c-0.139-0.068-0.305-0.013-0.472,0.084
			c-1.627,0.931-3.337,3.808-3.448,5.506c-0.283,0.152-0.632,0.297-0.948,0.437c-4.288,1.881-8.424,0.88-10.176,0.328l-0.055-0.048
			l7.265-7.181l-0.899-0.013l-6.756,6.622L29.85,0.344h-0.648v13.799h0.648V7.992l7.06,6.152h1.099L30.51,7.743
			c1.908,0.53,6.006,1.572,10.026-0.252c0.208-0.094,0.443-0.184,0.788-0.351l0.166-0.056c0.181,0.516,0.404,0.821,0.863,0.974
			c0.528,0.181,1.029-0.041,1.403-0.361c0.612,0.486,1.308,0.237,1.919,0.111v-0.01l1.711-0.365h0.055
			c0.029,0.014,0.014,0.07,0.014,0.07c-0.139,0.318-0.195,0.444-0.097,0.555c0.125,0.124,0.876-0.069,0.972-0.097l2.559-0.556
			c0,0,0.041-0.015,0.055,0c0.027,0.013,0.015,0.055,0.015,0.055l-0.112,0.236c-0.111,0.223-0.444,0.681-0.666,0.959
			c-0.113,0.07-0.571,0.376-0.571,0.376c-1.682,1.127-3.767,2.892-4.018,4.42c-0.04,0.279-0.068,0.598,0.097,0.793
			c0.084,0.096,0.182,0.126,0.349,0.126c0.82-0.071,1.71-1.196,2.322-2.032l2.058-3.071c0.195-0.292,0.276-0.416,0.401-0.584
			c0.14-0.084,0.152-0.125,0.293-0.181c0.236-0.097,0.833-0.321,1.375-0.459c0.13-0.034,0.287-0.062,0.439-0.099
			c3.748-0.905,6.783,0.657,7.28,0.934v5.393h0.649V1.042h4.425V0.473H55.782z M45.204,1.524c0.597,0.334-1.475,3.449-2.712,4.491
			c-0.334,0.264-0.458,0.32-0.458,0.32C42.103,5.236,44.479,1.233,45.204,1.524 M49.762,9.448l-1.765,2.795
			c-0.347,0.459-1.391,1.876-1.892,1.834c-0.096-0.013-0.179-0.069-0.235-0.208c-0.153-0.459,0.445-1.516,1-2.209
			c0.835-1.016,2.031-1.962,3.046-2.531C49.887,9.239,49.819,9.338,49.762,9.448"/>
	</g>
</g>
<g id="Layer_1">
</g>
</svg>
