<svg xmlns="http://www.w3.org/2000/svg" viewBox="0 0 100 100" enable-background="new 0 0 100 100"><g><linearGradient id="a" gradientUnits="userSpaceOnUse" x1="36.583" y1="55.197" x2="50.95" y2="72.319"><stop offset="0" stop-color="#000064" stop-opacity=".9"/><stop offset=".7" stop-color="#000064" stop-opacity="0"/></linearGradient><path d="M65.558 60.062c-.38.29-.775.555-1.177.805-.065.04-.13.084-.197.124-.388.234-.787.446-1.196.642-.08.038-.16.074-.24.11-.423.195-.855.373-1.3.528l-.057.02c-.492.167-.995.313-1.514.434-.315.074-.632.137-.953.188-.006 0-.01.002-.017.003-.316.05-.635.09-.956.117-.008 0-.017 0-.025.002-.324.027-.65.043-.98.048h-.01c-.33.004-.666-.003-1.004-.02-.003 0-.006 0-.01-.002-.337-.02-.676-.05-1.02-.09-.005 0-.01 0-.016-.002-.344-.042-.69-.095-1.04-.16h-.006c-.35-.066-.703-.143-1.06-.23l-.018-.005c-.357-.09-.716-.188-1.08-.3L35.405 57.27 21.976 67.454l16.306 5.032c.028.01.056.017.084.026l.084.025.083.025.083.024.206.06.205.055c.068.02.136.037.204.055.045.01.09.022.134.033.005 0 .01.003.016.004l.055.014.2.048.2.045.197.042.198.04.196.04c.005 0 .01 0 .016.002h.003s.003 0 .004.002c.057.01.115.02.172.032l.195.033c.065.012.13.022.194.032l.196.03.194.025.088.01c.007.002.013.003.02.003l.085.01c.064.01.13.016.193.022l.196.02.196.016.195.014.154.01h.011c.01 0 .02 0 .03.002l.2.01.2.006.2.004H43.575c.07 0 .14-.003.208-.004.07-.002.138-.004.207-.008l.208-.01.223-.016.117-.01h.012l.01-.002.083-.007.22-.022.22-.025c.083-.01.164-.02.246-.033l.188-.03c.006 0 .013 0 .02-.002l.035-.005.243-.042.24-.046.11-.022.11-.023.107-.024.108-.025.224-.053.22-.056.22-.06c.073-.02.145-.04.218-.062.14-.042.282-.085.42-.13.073-.023.144-.05.215-.073l.03-.008.024-.01c.05-.017.098-.032.146-.05.137-.05.273-.1.408-.153.135-.053.27-.107.402-.164.118-.05.23-.108.347-.16.044-.02.09-.034.134-.054.036-.017.07-.04.106-.057.08-.04.164-.074.245-.114.273-.137.54-.28.804-.435.05-.028.1-.062.15-.092.024-.015.05-.026.076-.04.04-.026.08-.058.12-.083.144-.09.29-.175.43-.27.254-.17.503-.348.748-.535l7.623-5.826 5.758-4.402z" fill="url(#a)"/><linearGradient id="b" gradientUnits="userSpaceOnUse" x1="40.092" y1="56.995" x2="17.275" y2="17.474"><stop offset="0" stop-color="#000064" stop-opacity=".9"/><stop offset=".8" stop-color="#000064" stop-opacity="0"/></linearGradient><path fill="url(#b)" d="M21.976 67.454l-.074-50.36 13.49-10.08.013 50.255z"/><linearGradient id="c" gradientUnits="userSpaceOnUse" x1="32.297" y1="8.708" x2="79.356" y2="48.196"><stop offset=".2" stop-color="#000064"/><stop offset="1" stop-color="#000064" stop-opacity="0"/></linearGradient><path d="M81.9 36.237v-.155l-.003-.155-.007-.316-.01-.312v-.004l-.014-.315c-.005-.106-.01-.212-.017-.317l-.02-.313-.024-.308v-.006l-.026-.313-.03-.313c-.01-.104-.02-.21-.032-.314-.01-.105-.023-.21-.036-.314-.012-.105-.025-.21-.04-.314l-.04-.314c-.016-.106-.03-.212-.047-.318-.016-.106-.032-.212-.05-.318-.016-.106-.034-.212-.052-.318l-.056-.32-.06-.326-.057-.288c0-.005-.002-.01-.003-.014l-.005-.025c-.022-.11-.044-.218-.068-.327l-.07-.327-.078-.34-.052-.218c0-.008-.002-.015-.004-.023 0-.006-.003-.012-.005-.018l-.02-.083-.085-.34c-.03-.114-.058-.227-.09-.34-.03-.12-.063-.24-.097-.36l-.03-.104-.013-.048-.06-.21-.105-.36-.11-.36-.024-.08-.024-.077-.025-.077-.024-.078-.11-.34-.113-.338-.116-.336-.12-.334c-.052-.147-.106-.294-.16-.44l-.166-.437c-.03-.084-.064-.167-.097-.25-.003-.005-.005-.012-.007-.02l-.008-.017-.058-.148c-.058-.144-.116-.288-.175-.43-.065-.158-.13-.314-.198-.47-.067-.156-.135-.31-.203-.465-.07-.154-.138-.308-.21-.46-.06-.133-.122-.265-.185-.396l-.006-.01c0-.004-.003-.006-.004-.01l-.02-.043-.265-.54c-.09-.18-.18-.358-.272-.536-.092-.178-.185-.355-.28-.53-.095-.177-.19-.352-.288-.527l-.054-.095-.01-.02-.017-.03-.255-.445c-.114-.196-.23-.39-.348-.584-.118-.194-.237-.386-.358-.577-.12-.19-.244-.382-.37-.57-.054-.085-.11-.168-.166-.252l-.17-.25c-.056-.082-.112-.164-.17-.246l-.17-.245c-.19-.266-.38-.528-.573-.787-.062-.083-.126-.163-.188-.245-.017-.02-.032-.045-.048-.067l-.06-.073c-.097-.127-.193-.255-.292-.38-.2-.252-.4-.502-.606-.747-.206-.246-.414-.488-.625-.728l-.017-.02c-.002 0-.004-.004-.006-.006-.004-.006-.01-.01-.013-.015-.197-.222-.395-.442-.596-.658-.213-.23-.43-.456-.648-.68-.135-.136-.272-.27-.41-.405-.02-.02-.038-.043-.06-.063-.014-.016-.03-.03-.046-.044-.05-.05-.098-.1-.15-.147-.223-.218-.45-.432-.68-.642l-.24-.217-.24-.214c-.082-.07-.163-.142-.244-.213-.08-.07-.163-.14-.245-.21-.046-.04-.092-.08-.14-.118-.046-.04-.093-.078-.14-.117-.047-.04-.094-.077-.14-.115l-.142-.114c-.092-.075-.185-.15-.278-.22l-.1-.08-.042-.03-.138-.106-.28-.21-.283-.205c-.08-.06-.163-.117-.245-.174l-.01-.007v-.002c-.002 0-.003 0-.003-.002l-.233-.16-.247-.166c-.082-.055-.165-.11-.248-.162l-.224-.143-.036-.022-.015-.01-.174-.108-.226-.137c-.076-.045-.15-.09-.227-.134l-.21-.122-.157-.088-.008-.005-.007-.005-.04-.023-.214-.117-.214-.114-.205-.106-.206-.104-.134-.066-.02-.01c-.018-.01-.035-.018-.053-.026l-.207-.1c-.067-.03-.134-.062-.2-.093l-.203-.092-.202-.09c-.054-.024-.11-.048-.165-.07l-.006-.004-.005-.003-.027-.012-.2-.084-.2-.08-.202-.08-.202-.077-.202-.075-.022-.008-.01-.003c-.056-.02-.113-.04-.17-.062-.07-.022-.137-.045-.205-.068l-.204-.07-.123-.04-.124-.04-.124-.038-.125-.04L44.635 0l-13.49 10.08 16.38 4.98c.362.11.72.23 1.077.36l.01.004c.354.13.707.27 1.056.42l.01.003c.347.15.69.307 1.034.475l.018.01c.34.167.68.345 1.015.532l.014.008c.335.188.667.385.997.592l.015.01c.332.207.66.426.987.654l.005.004c.322.225.64.46.957.704l.04.03c.318.247.633.5.945.766.62.528 1.222 1.08 1.804 1.65l.106.104c.57.563 1.124 1.145 1.657 1.75l.02.02c.533.606 1.046 1.234 1.543 1.88l.11.142c.498.656.98 1.33 1.442 2.03.47.71.914 1.44 1.334 2.182l.03.05c.418.745.813 1.504 1.182 2.28l.01.018c.368.776.713 1.568 1.033 2.375l.014.037c.322.81.618 1.638.89 2.48.133.418.258.834.375 1.25.004.014.01.03.013.045.115.41.223.822.322 1.233l.01.04c.1.412.19.825.273 1.238 0 .006.003.013.004.02.084.417.16.835.227 1.252v.005c.136.842.238 1.683.305 2.52.032.42.057.84.074 1.257v.005c.016.418.024.836.023 1.253 0 .407-.01.81-.027 1.21v.027c-.018.394-.044.783-.077 1.168l-.003.034c-.033.383-.075.763-.124 1.137l-.005.037c-.05.376-.107.747-.172 1.114l-.005.028c-.066.366-.14.727-.222 1.085 0 .008-.003.017-.005.025-.083.358-.173.712-.272 1.06l-.01.04c-.098.343-.204.682-.316 1.016l-.016.046c-.115.34-.24.678-.37 1.01-.27.674-.562 1.317-.88 1.93-.008.012-.014.024-.02.036-.315.6-.654 1.173-1.016 1.715l-.036.053c-.353.523-.73 1.017-1.13 1.485l-.074.09c-.417.483-.857.938-1.324 1.36l-.24.214c-.082.07-.163.14-.245.208l-.247.202-.25.196L74.8 53.046c.084-.064.168-.13.25-.196.083-.066.165-.133.247-.202.082-.068.163-.137.244-.208.082-.07.162-.14.242-.214.222-.2.438-.41.65-.623.21-.214.415-.436.614-.663l.06-.072.026-.028c.017-.02.03-.043.048-.063.15-.178.303-.356.447-.54.188-.242.37-.49.55-.745l.132-.198c.005-.01.012-.017.02-.026l.015-.028c.038-.057.077-.112.114-.17.092-.142.183-.287.273-.433.09-.146.178-.295.264-.445.086-.15.17-.303.254-.457l.11-.208c.003-.007.008-.012.01-.02.004-.005.007-.012.01-.018l.072-.138c.066-.13.13-.26.194-.392s.126-.265.188-.4.122-.27.18-.408c.022-.048.043-.097.063-.146.02-.05.04-.098.062-.147l.06-.15.06-.148c.03-.072.057-.144.085-.216l.083-.217.08-.22.078-.22.046-.135c.006-.016.01-.033.017-.05l.046-.138c.036-.108.07-.217.105-.326.035-.108.07-.218.1-.328l.063-.216.007-.024.005-.02.02-.072c.03-.103.058-.207.085-.31l.08-.313.076-.315.01-.045.007-.03c.02-.08.037-.16.055-.242l.065-.304.06-.305c.016-.076.03-.152.043-.227 0-.006.002-.01.003-.017v-.012l.01-.05.053-.31c.017-.1.033-.202.048-.303.016-.1.03-.202.045-.304l.02-.14c0-.014.003-.028.005-.042l.016-.122c.013-.102.026-.205.037-.308.012-.1.023-.203.033-.304l.03-.306.008-.09c0-.007 0-.012.002-.018v-.02l.017-.18.023-.31.02-.31.016-.312c0-.017 0-.035.002-.052v-.03c.004-.076.008-.154.01-.23.005-.106.008-.21.01-.316l.005-.164c0-.055 0-.11.002-.164 0-.055 0-.11.002-.165v-.32s.008-.1.007-.15z" fill="url(#c)"/><path d="M66.887 36.634c.27.85.51 1.697.712 2.543.202.846.372 1.69.507 2.534.135.844.236 1.685.303 2.525.067.84.1 1.677.098 2.513-.002.826-.036 1.634-.105 2.423-.068.79-.17 1.562-.306 2.316-.136.753-.305 1.488-.508 2.205-.204.717-.44 1.415-.71 2.094-.27.68-.567 1.33-.89 1.948-.32.618-.668 1.205-1.042 1.76-.373.557-.772 1.082-1.197 1.575-.424.494-.874.956-1.35 1.387-.478.432-.974.83-1.49 1.19-.517.36-1.053.686-1.61.976-.554.29-1.13.544-1.725.763-.595.22-1.21.402-1.845.55-.635.15-1.282.252-1.94.307-.66.055-1.33.064-2.015.026-.683-.038-1.38-.124-2.087-.256-.708-.132-1.427-.31-2.16-.537L31.22 60.44l-.073-50.36 16.385 4.983c.726.22 1.44.48 2.144.782.704.3 1.396.642 2.078 1.023.682.38 1.352.802 2.01 1.262.66.46 1.31.96 1.946 1.5.637.543 1.254 1.107 1.85 1.693.598.586 1.175 1.195 1.732 1.826.557.63 1.094 1.284 1.61 1.96.518.676 1.014 1.375 1.49 2.097s.927 1.46 1.352 2.213c.426.753.826 1.523 1.2 2.308.376.785.725 1.587 1.05 2.405.323.818.622 1.65.895 2.5zM56.08 48.596c.138-.387.258-.79.36-1.208.104-.42.19-.853.258-1.304.07-.45.12-.917.155-1.398.035-.482.052-.98.053-1.493 0-.502-.017-1-.05-1.496-.036-.495-.088-.988-.158-1.478s-.158-.978-.263-1.462c-.106-.484-.23-.966-.37-1.445-.14-.478-.297-.945-.468-1.402-.17-.456-.356-.902-.556-1.338-.2-.436-.414-.86-.644-1.274-.23-.414-.474-.817-.733-1.208-.26-.392-.533-.77-.822-1.14-.288-.366-.59-.722-.91-1.065-.317-.343-.65-.674-.997-.992-.347-.318-.71-.624-1.086-.918-.377-.294-.766-.568-1.166-.825-.4-.256-.812-.494-1.236-.712-.424-.22-.86-.42-1.307-.6-.447-.18-.906-.343-1.376-.487l-2.54-.774.013 28.2 2.535.78c.48.148.945.27 1.398.364.453.095.894.164 1.322.207.428.043.843.06 1.245.05.402-.01.79-.045 1.167-.108.376-.063.737-.146 1.084-.25.347-.104.68-.23.997-.377.32-.147.62-.315.91-.505.288-.19.562-.4.82-.635.26-.232.504-.483.732-.753.228-.27.44-.56.64-.87.197-.308.38-.636.546-.984.164-.346.316-.713.453-1.1" fill="#000064"/><g fill="#000064"><path d="M20 80h3.516c.622 0 1.207.126 1.753.376.544.25 1.02.584 1.43 1 .408.416.73.902.964 1.455.234.555.352 1.135.352 1.74 0 .6-.115 1.175-.346 1.73-.23.553-.55 1.04-.958 1.46-.408.42-.885.756-1.43 1.007-.546.25-1.135.376-1.765.376H20V80zm2.377 7.13h.545c.412 0 .78-.064 1.104-.194.323-.13.596-.307.818-.534.222-.226.392-.495.51-.806.116-.31.175-.653.175-1.025 0-.363-.062-.702-.183-1.017-.122-.315-.293-.586-.516-.812-.22-.225-.494-.403-.817-.533-.323-.13-.687-.194-1.09-.194h-.546v5.117zM35.958 87.555h-3.395l-.546 1.59h-2.534L32.963 80h2.595l3.48 9.143h-2.534l-.546-1.588zm-.63-1.807l-1.068-3.043-1.067 3.043h2.134zM48.896 89.143h-2.96l-2.267-3.516v3.516H41.29V80h3.7c.508 0 .953.075 1.333.224.38.15.693.354.94.612.247.26.432.558.558.897.125.34.187.703.187 1.09 0 .696-.168 1.26-.503 1.692-.336.433-.83.726-1.486.88l2.876 3.748zm-5.226-5.056h.45c.467 0 .827-.097 1.078-.29.25-.194.376-.473.376-.837s-.126-.643-.376-.837-.61-.29-1.08-.29h-.448v2.254zM52.147 80l1.576 5.906L55.663 80h1.89l1.94 5.906L61.074 80h2.485l-2.728 9.143h-2.426l-1.794-5.3-1.795 5.3H52.39L49.66 80h2.487zM67.983 80v9.143h-2.377V80h2.377zM70.87 89.143V80h2.376l4.39 5.59V80H80v9.143h-2.364l-4.39-5.59v5.59H70.87zM20.32 99.417v-4.825h1.012c.486 0 .868.048 1.15.143.302.094.576.253.822.478.498.455.747 1.05.747 1.79 0 .742-.258 1.342-.777 1.8-.26.23-.534.39-.82.48-.265.088-.644.133-1.133.133h-1zm.73-.684h.327c.327 0 .6-.034.816-.103.216-.073.412-.19.587-.347.36-.327.537-.753.537-1.278 0-.53-.177-.96-.532-1.287-.318-.293-.788-.44-1.41-.44h-.327v3.455zM31.692 94.592v4.825h-.728v-4.825h.728zM41.073 96.904h1.994v.16c0 .36-.043.683-.128.96-.085.26-.225.5-.423.726-.448.505-1.018.757-1.71.757-.675 0-1.253-.244-1.734-.732-.48-.49-.722-1.077-.722-1.762 0-.7.246-1.293.735-1.78.49-.49 1.086-.735 1.787-.735.377 0 .73.077 1.057.23.31.155.62.405.92.75l-.518.498c-.395-.527-.878-.79-1.447-.79-.51 0-.938.175-1.284.527-.345.346-.518.78-.518 1.3 0 .537.193.98.578 1.328.36.324.75.485 1.172.485.36 0 .68-.12.966-.362.286-.243.445-.536.478-.875h-1.203v-.684zM50.708 94.592v4.825h-.728v-4.825h.728zM59.194 95.276v4.14h-.728v-4.14h-1.11v-.684H60.3v.684h-1.106zM69.712 98.245h-2.066l-.537 1.172h-.785l2.387-5.128 2.303 5.127h-.797l-.506-1.172zm-.297-.685l-.716-1.64-.75 1.64h1.465zM78.343 94.592v4.14h1.418v.685h-2.146v-4.825h.73z"/></g></g></svg>