<svg xmlns="http://www.w3.org/2000/svg" xmlns:xlink="http://www.w3.org/1999/xlink" viewBox="0 0 100 75" enable-background="new 0 0 100 75"><g><g fill="#F07821"><path d="M23.483 60.913H12.797c-.562 0-1.128-.005-1.7-.016-.573-.01-1.102-.022-1.586-.033-.484-.01-.836-.017-1.057-.017.243.066.606.17 1.09.314.485.145 1.02.304 1.602.48.584.177 1.173.353 1.767.53.595.176 1.1.33 1.52.46l9.676 2.974-9.677 2.972c-.418.132-.925.287-1.52.463l-1.766.527c-.583.177-1.117.336-1.602.48-.484.143-.847.247-1.09.313.22 0 .573-.006 1.057-.017l1.585-.034c.573-.01 1.14-.017 1.7-.017h10.685v3.04H.363V69.93l9.61-2.972c.353-.11.772-.237 1.256-.38.484-.143.973-.28 1.47-.413.494-.132.957-.26 1.386-.38.43-.12.743-.204.94-.248-.22-.067-.544-.154-.973-.265-.43-.11-.897-.236-1.404-.38l-1.52-.43c-.506-.143-.925-.27-1.255-.38L.363 61.11v-3.402h23.12v3.205zM21.93 42.034c1.277 1.156 1.916 2.736 1.916 4.74 0 .97-.17 1.85-.512 2.642-.34.793-.82 1.47-1.437 2.03-.616.563-1.354 1.004-2.213 1.322-.86.32-1.816.48-2.873.48H.364v-3.205H16.68c.484 0 .957-.055 1.42-.165.462-.11.874-.293 1.238-.548.363-.255.66-.592.892-1.013.23-.42.347-.93.347-1.527 0-.642-.116-1.173-.347-1.593-.23-.42-.534-.758-.908-1.013-.374-.255-.793-.432-1.255-.53-.462-.1-.913-.15-1.354-.15H.363V40.3h16.25c2.268 0 4.04.578 5.317 1.734zM17.505 25.035c.925 0 1.778.138 2.56.413.782.276 1.453.677 2.015 1.206.562.53.997 1.19 1.305 1.982.308.793.462 1.696.462 2.708 0 1.453-.347 2.67-1.04 3.65-.694.98-1.602 1.8-2.725 2.46l-2.048-2.543c.99-.637 1.668-1.248 2.03-1.832.364-.583.546-1.227.546-1.932 0-.88-.253-1.563-.76-2.048-.506-.484-1.233-.727-2.18-.727-.44 0-.847.056-1.222.166-.374.11-.743.31-1.107.595-.362.288-.747.684-1.155 1.19-.407.507-.864 1.145-1.37 1.915-.42.66-.854 1.272-1.306 1.833-.452.56-.947 1.052-1.487 1.47-.54.42-1.156.75-1.85.99-.693.244-1.49.364-2.394.364-.838 0-1.608-.137-2.313-.413-.705-.276-1.315-.667-1.833-1.174C1.117 34.8.714 34.19.43 33.473.143 32.758 0 31.95 0 31.046c0-1.343.27-2.44.81-3.286.54-.847 1.315-1.623 2.328-2.328l2.114 2.378c-.374.287-.688.55-.94.793-.254.243-.463.49-.63.743-.164.253-.28.528-.346.826-.066.297-.1.622-.1.974 0 .77.227 1.365.678 1.783.452.418 1.04.627 1.767.627.442 0 .832-.055 1.174-.165.342-.11.677-.297 1.007-.562.33-.264.667-.61 1.008-1.04.342-.43.72-.963 1.14-1.602.46-.727.93-1.404 1.403-2.03.475-.628 1.003-1.173 1.586-1.636.584-.463 1.238-.826 1.965-1.09.728-.265 1.576-.397 2.545-.397zM23.483 21.6H.363v-3.203h23.12V21.6zM20.378 2.25c.727.31 1.343.705 1.85 1.19.506.484.902 1.072 1.188 1.766.286.694.43 1.514.43 2.46 0 1.256-.315 2.313-.942 3.172-.628.86-1.475 1.558-2.543 2.097-1.067.54-2.322.93-3.764 1.173-1.442.243-2.99.363-4.64.363-1.674 0-3.238-.13-4.69-.395-1.454-.264-2.72-.67-3.8-1.222-1.078-.55-1.925-1.26-2.542-2.13C.31 9.853 0 8.8 0 7.567c0-.97.138-1.8.413-2.494.276-.694.666-1.277 1.172-1.75.507-.473 1.107-.853 1.8-1.14.694-.286 1.448-.495 2.262-.628l.826 3.27c-1.057.22-1.855.523-2.395.908-.538.387-.808 1.03-.808 1.934 0 .705.26 1.283.776 1.734.518.453 1.19.805 2.014 1.058.826.253 1.75.43 2.774.528 1.024.1 2.043.15 3.055.15 1.056 0 2.108-.06 3.153-.183 1.046-.12 1.977-.325 2.79-.61.816-.287 1.476-.667 1.982-1.14.507-.473.76-1.062.76-1.767 0-.77-.275-1.37-.826-1.8-.55-.43-1.454-.798-2.71-1.106L18 1.523c.86.177 1.65.42 2.378.727z"/></g><path d="M97.17 63.296c-1.888 2.676-4.323 4.76-7.31 6.252-2.985 1.493-6.308 2.522-9.97 3.084-3.66.564-7.237.845-10.73.845H29.03V1.66h40.13c3.493 0 7.07.24 10.73.72 3.662.478 6.985 1.435 9.97 2.872 2.986 1.436 5.422 3.45 7.31 6.04 1.886 2.592 2.83 6 2.83 10.224 0 2.986-.564 5.436-1.69 7.35-1.127 1.917-2.422 3.437-3.886 4.564-1.465 1.127-2.902 1.915-4.31 2.366-1.408.452-2.394.676-2.956.676.562.283 1.548.705 2.957 1.267 1.407.563 2.844 1.435 4.31 2.618 1.463 1.183 2.758 2.788 3.885 4.816 1.126 2.028 1.69 4.62 1.69 7.773 0 4.223-.944 7.674-2.83 10.35zM71.865 25.19c-1.296-.196-2.902-.295-4.816-.295H55.473v5.238H67.05c.956 0 1.843-.013 2.66-.042.816-.027 1.534-.126 2.155-.295.62-.17 1.098-.45 1.436-.845.34-.393.508-.93.508-1.605 0-1.238-.648-1.956-1.943-2.154zm1.436 19.9c-.337-.395-.816-.677-1.435-.846-.62-.17-1.338-.267-2.155-.296-.817-.028-1.704-.042-2.66-.042H55.473v5.24H67.05c1.913 0 3.518-.1 4.815-.297 1.295-.198 1.943-.916 1.943-2.155 0-.677-.17-1.212-.507-1.606z"/><defs><path id="a" d="M97.17 63.296c-1.888 2.676-4.323 4.76-7.31 6.252-2.985 1.493-6.308 2.522-9.97 3.084-3.66.564-7.237.845-10.73.845H29.03V1.66h40.13c3.493 0 7.07.24 10.73.72 3.662.478 6.985 1.435 9.97 2.872 2.986 1.436 5.422 3.45 7.31 6.04 1.886 2.592 2.83 6 2.83 10.224 0 2.986-.564 5.436-1.69 7.35-1.127 1.917-2.422 3.437-3.886 4.564-1.465 1.127-2.902 1.915-4.31 2.366-1.408.452-2.394.676-2.956.676.562.283 1.548.705 2.957 1.267 1.407.563 2.844 1.435 4.31 2.618 1.463 1.183 2.758 2.788 3.885 4.816 1.126 2.028 1.69 4.62 1.69 7.773 0 4.223-.944 7.674-2.83 10.35zM71.865 25.19c-1.296-.196-2.902-.295-4.816-.295H55.473v5.238H67.05c.956 0 1.843-.013 2.66-.042.816-.027 1.534-.126 2.155-.295.62-.17 1.098-.45 1.436-.845.34-.393.508-.93.508-1.605 0-1.238-.648-1.956-1.943-2.154zm1.436 19.9c-.337-.395-.816-.677-1.435-.846-.62-.17-1.338-.267-2.155-.296-.817-.028-1.704-.042-2.66-.042H55.473v5.24H67.05c1.913 0 3.518-.1 4.815-.297 1.295-.198 1.943-.916 1.943-2.155 0-.677-.17-1.212-.507-1.606z"/></defs><clipPath id="b"><use xlink:href="#a" overflow="visible"/></clipPath><g clip-path="url(#b)" fill-rule="evenodd" clip-rule="evenodd" fill="#808184"><path d="M61.146.1c-.096-.316.23-.473.05-.706-.575.004-.988.78-.05.707zM42.576 0c.008-.06.09-.114 0-.152-.007.06-.09.115 0 .152zM45.848.05c.073.168.125-.196 0 0zM63.36.556c.06-1.12-.877.136 0 0zM43.03.354c-.012-.14-.16-.143-.202-.253-.02.174.015.29.2.254zM43.28.202h.1v-.1h-.1v.1zM45.344.202c.074.168.126-.197 0 0zM43.532.303c-.322-.058-.11.155 0 0zM42.576.758c.17.153.153-.187 0 0zM42.124.808c-.153.17.186.153 0 0zM45.545.91c.21.047.01-.152 0 0zM45.948.91c.157.164.085-.18 0 0zM38.55 1.768c.156-.332.7-.273.655-.808-.564-.258-1.348.57-.655.808zM43.482.96c.21.048.01-.152 0 0zM42.925 1.03L42.93 1v.01l-.005.02zM42.916 1.098c-.002.014-.002.01 0 0zM42.933.978c0 .007-.002.015-.004.024 0-.01.002-.018.003-.024zM42.925 1.03c0 .014-.004.028-.005.04l.005-.04zM42.933.978c0-.007 0-.012.002-.014l-.002.014zM43.18 1.06c.21.05.01-.15 0 0zM65.775 1.162c-.22.342-.262.536-.05.91.675.07.587-.624 1.107-.708.01-.145-.013-.257-.1-.303-.137.15-.197.045-.353 0-.06.128-.025.347-.203.354-.075-.043-.108-.127-.1-.252h-.302zM42.274 1.313c.152-.087.032-.1-.05-.202-.065.07-.03.153.05.203zM84.747 1.313c-.122.17.168-.122 0 0zM46.05 1.364c-.123.17.168-.122 0 0zM65.372 1.667c.048-.043.108-.322 0-.354-.12.022-.162.34 0 .354zM63.26 1.515c.147.038.096.272.3.252.012-.04.043-.06.1-.05.034-.298-.28-.468-.4-.202zM46.25 1.455v.01l-.004.02.005-.03zM46.237 1.553c-.002.013 0 .01 0 0zM46.255 1.432c0 .006-.002.014-.004.023.003-.008.003-.016.005-.023zM46.255 1.432l.002-.015c0 .003 0 .008-.002.015zM46.247 1.485l-.006.04c.003-.01.005-.024.007-.04zM48.515 1.97c.075-.11.086-.285.1-.455-.092-.093-.283-.027-.352.05.285-.026-.022.354.252.405zM29.945 1.87c0-.187-.023-.35-.2-.354-.005.188-.04.408.2.353zM33.62 1.566c.043.444-.015.99.2 1.263.188-.318.067-1.08-.2-1.264zM61.65 2.424c.16.044.068-.166.2-.152.07.15.35.09.555.1.47-.95-.812-.817-1.258-.454-.377-.457-.806.184-1.31-.05-.028.18.06.244.102.353.682-.018 1.146-.108 1.71.204zM47.397 1.785c0 .01-.003.02-.004.025.002-.004.003-.013.004-.025zM47.407 1.717l-.01.068c.01-.06.027-.188.01-.068zM48.213 1.717c-.122.17.168-.122 0 0zM51.483 1.667h-.252c-.115.388.37.388.253 0zM59.737 2.172c.01-.04 0-.1.05-.1-.06-.342-.573-.397-.503.1.2-.044.372.075.453 0zM46.854 1.87c-.22.215.16.166 0 0zM57.522 1.87c-.053.292.22.02 0 0zM58.83 1.97c-.33-.08-.85-.2-1.056 0 .22-.01 1.003.62 1.056 0zM54.25 2.172c-.107.104-.025.24.1.253-.02-.096.07-.305-.1-.253zM64.266 3.636c-.133.018-.18.12-.15.303.27.156.386-.106.604-.152-.016.133.07.166.2.15.234-.858-1.048-1.29-1.81-1.312.118.707.83.51 1.156 1.01zM71.512 2.727c-.183.136-.395.243-.453.505.227.12.695-.32.452-.505zM57.573 3.03c.042-.06.066-.135.05-.252-.142.01-.345-.043-.352.1.09.062.266.038.303.152zM85.3 2.93c.11.008.16-.043.15-.153-.11-.01-.16.042-.15.152zM85.2 3.03c.066-.067.067-.188-.05-.202.008.076-.018.187.05.202zM47.105 3.13c-.12.17.17-.12 0 0zM77.652 3.383c-.03-.104.08-.35-.1-.303.03.105-.082.35.1.303zM79.362 3.232c-.03.198.044.293.1.404.196-.023.307-.13.303-.353-.16-.084-.21-.087-.403-.05zM82.423 3.502c0 .01-.003.02-.004.025 0-.004 0-.013.003-.025zM82.432 3.434l-.01.068c.01-.06.028-.188.01-.068zM33.77 3.434c-.03.26-.242.478-.15.707.166-.084.362-.565.15-.706zM80.218 3.434c-.066.067-.066.188.05.202.066-.067.066-.188-.05-.202zM44.69 3.787c.125.198.073-.167 0 0zM81.526 3.737h-.2c-.06.195-.14.462-.05.656.273-.104.295-.34.25-.656zM66.63 3.94c.043.074.163.072.252.1.086-.283-.215-.303-.25-.1zM88.42 4.545c.102-.285.424-.35.403-.757-.396-.044-.485.488-.403.757zM82.08 3.99v-.153c-.11-.01-.16.042-.15.152h.15zM35.48 4.14v-.15h-.15c-.03.13.02.18.15.15zM78.91 4.393c.037-.118.036-.285-.05-.404.03.12-.065.366.05.403zM88.12 4.04c-.18-.086-.403-.02-.505.202.102.21.59.097.504-.202zM43.734 4.192c.21.048.01-.152 0 0zM44.338 4.393h-.1v.1h.1v-.1zM33.417 4.545c-.01-.057-.056-.08-.1-.1-.11.563-.834 1.158-.705 2.07.37-.556.476-1.375.805-1.97zM38.4 4.494c-.188.262-.114.89.15 1.01.07-.268.148-.946-.15-1.01zM81.275 4.95c-.037-.116.09-.395-.1-.355-.038.118-.128.378.1.354zM80.268 5.2c.188-.052.1.17.2.203.06-.136.185-.35 0-.454-.033.116-.166.134-.2.25zM45.344 5.05c.158.165.084-.18 0 0zM88.622 5.403v.152c.135.035.097-.104.15-.152h-.15zM88.823 5.454c-.02-.02.033.033 0 0zM53.9 5.96c.04-.127.065-.272.05-.456-.488-.095-.49.493-.05.455zM88.823 5.555c.074.167.126-.197 0 0zM88.12 5.605c0 .268.155.382.35.455.18-.248-.086-.654-.35-.455zM48.565 6.565c.145-.378-.087-.732-.453-.757-.022.425.005.802.453.757zM71.21 6.06c.17.153.153-.187 0 0zM42.274 6.362V6.11h-.2c-.038.19.055.246.2.252zM66.782 6.464c.12.03.23.073.403.05-.007-.125-.008-.243.05-.303-.173-.167-.547-.124-.453.254zM42.274 6.666c1.087 1.034.897-1.146 0 0zM75.437 7.373c.072-.385.412-.975-.1-1.11-.203.19-.517 1.128.1 1.11zM32.01 6.565c.093.188.277.108.35-.1-.183-.03-.27-.062-.35.1zM29.34 6.716c.04.01.06.042.05.1.095-.006.17-.032.202-.1-.04-.01-.06-.043-.05-.1-.093.006-.168.032-.2.1zM79.513 6.615c-.164-.01-.215.352-.15.404.124-.06.186-.184.15-.405zM76.494 7.474c-.035-.268-.05-.555-.252-.657-.01.313.003.604.252.657zM37.846 6.868c-.274.01-.653-.082-.604.253.223.118.62.03.604-.252zM29.34 6.97c-.168.116-.402.167-.35.504.246.015.523-.43.35-.505zM68.342 7.574c.01-.04.042-.06.1-.05V7.22c-.087.005-.156-.01-.2-.05-.105.12-.053.39.1.404zM63.31 7.625c.2 0 .206-.196.25-.353-.194-.15-.387.157-.25.353zM79.262 7.27c-.02-.02.033.035 0 0zM69.046 7.574c.036-.037.126-.247-.05-.202.01.076-.018.187.05.202zM32.965 7.574c-.197-.082-.552-.06-.604.152.218.142.498-.02.605-.152zM75.034 7.98c.042-.11.13-.174.1-.355-.195.192-.253.137-.402-.05v.302c.138.072.202-.126.302.102zM75.69 7.928c.038-.035.13-.3-.05-.253.026.074-.06.26.05.253zM47.76 8.23c-.074.08-.104.402.1.354-.036-.114.09-.394-.1-.353zM74.18 8.685c.044-.124.222-.113.2-.303-.156-.018-.358.175-.2.303zM89.83 8.483v.202c.478.25.518-.568 0-.202zM68.19 8.736c.132.106.534.357.705.1-.094-.123-.21-.228-.25-.403-.19.062-.433.072-.454.303zM63.61 9.493c.148-.012.426-.014.454-.252-1.692-.107-3.54-.583-4.982-.605 1.167.38 3.096.976 4.53.858zM95.466 9.14c.796-.27-.116-.773 0 0zM34.374 9.19c.107-.155.07-.518-.202-.454-.037.257.05.387.202.455zM92.044 9.645c-.27.06-.48-.125-.654 0 .238-.157.193-.472.1-.758-.626.16-1.343.304-1.81.1.035 1.014 1.58.965 2.364.658zM35.632 9.645c.255-.065.303-.337.352-.606-.565-.176-.316.416-.352.605zM70.757 9.847c.086.002.125-.08.302-.1.108.075.117.252.3.252.004-1.103-1.508-1.192-.603-.153zM75.034 9.24c.56 1.262 1.225-.89 0 0zM73.324 9.493c.235-.033.37-.168.403-.404-.13-.06-.445.124-.403.403zM74.18 9.392c-.105.293.163.416.502.404.12-.138.1-.305.05-.505-.31-.005-.33.118-.553.102zM80.47 9.594c.12-.02.11.092.25.05 0-.09.137-.293 0-.353-.05.134-.2.172-.25.304zM48.917 10.3c.193-.166.44-.77.15-.958-.332.423-.79.66-.15.96zM64.416 9.342v.1h.1v-.1h-.1zM93.654 9.594c-.158.057-.113.005-.302 0-.04.225.305.157.302 0zM94.157 9.594c-.034.068-.134-.025-.25.05v.152c.142.022.39-.106.25-.202zM48.465 10.2v-.354c-.75-.632-.912.625 0 .354zM92.346 9.695c-.02-.02.033.033 0 0zM93.704 9.695c.03-.202-.042.3 0 0zM70.254 9.695c-.387.117-.617.39-.755.758.335.044 1.063-.313.754-.758zM51.886 10.352c.242-.48-.153-.693-.402-.404.058.084.2.45.402.404zM95.87 10.15c-.045-.125.012-.35-.153-.353-.092.433-.043.88.402.91.048-.155.2-.204.15-.455-.196.028-.29-.045-.4-.102zM100.297 9.847c-.41-.07-.955.1-.755.606.297-.156.62-.286.755-.606zM83.892 10.352c.007-.23.04-.198 0-.404-.47.027-1.194.362-1.61.455.41.397 1.027.027 1.61-.05zM51.03 9.998c.007.13.01.26.152.252.01-.144.006-.275-.15-.252zM53.748 9.998c-.04.306.23.034 0 0zM92.245 10.3c.007-.124.01-.244-.1-.25-.033.122-.102.258.1.25zM72.367 10.503c.115-.096.244-.18.15-.353-.226-.063-.324.32-.15.353zM29.29 11.008c.18.027.26-.043.303-.152-.26-.043-.025-.58-.252-.656.04.33-.13.59-.05.808zM67.738 11.463c.32.035.485-.085.805-.05.097-.42.55-.656.402-1.162-.633.056-.66.72-1.258.81.007.144-.027.33.05.403zM37.242 10.756c-.106-.13-.37-.1-.603-.1-.005-.09.01-.158.05-.203-.692.205.377.79.552.303zM35.53 10.958c.043-.11.13-.172.1-.353-.17.014-.288.08-.502.05.003.233.143.328.403.303zM48.816 10.705c-.39.058-.504.387-.402.808.264.047.266-.17.453-.202-.108-.195.033-.48-.05-.605zM70.808 11.21c.486.15 1.088-.02 1.157-.455-.294.05-.94.164-1.157.455zM30.147 11.31c.04.61-.115 1.26.1 1.768.087-.552.06-1.745.1-2.323-.188.097-.528.042-.653.202.02.25.357.18.453.354zM94.157 10.958c.014-.115-.012-.19-.1-.202.01.09-.05.253.1.202zM78.356 10.857c-.31-.11-.795.163-.654.505.303-.074.826-.114.654-.505zM75.588 11.715c.03-.158.175-.706-.1-.707.01.253-.174.624.1.707zM63.058 11.31c.28-.19-.29-.245 0 0zM65.926 11.513c.146-.022.23-.107.252-.252-.138-.06-.21-.11-.352-.05-.094.177.037.166.1.303zM63.712 11.816c.06-.218.073-.495-.2-.505-.268.16-.12.673.2.506zM67.235 11.362c-.065-.003-.07-.065-.15-.05-.11.126-.142.345.1.352-.037-.154.086-.148.05-.302zM39.758 11.665c.108-.108.02-.275-.1-.303-.036.12-.116.32.1.303zM61.65 12.372c1.127.073-.108-1.187 0 0zM71.41 11.866c-.175-.15-.455.17-.603.05-.072.17-.072.488 0 .658.287-.025.26-.085.503-.1-.024-.262.144-.33.1-.608zM33.317 12.624c.086-.15-.023-.46-.25-.454-.148.21.023.46.25.454zM74.532 12.422c-.004.172-.017.352.1.404.116-.068.195-.475-.1-.404zM75.135 13.18c.124-.26-.024-.638-.252-.708-.083.247.053.59.252.707zM59.737 12.674c-.28-.01-.443.094-.503.303.13.04.567.015.503-.303zM59.183 12.876h-.15c-.043.06-.068.135-.052.252.185.033.2-.104.203-.252zM71.11 13.18c.04-.13.074-.233-.05-.304.028.09-.062.297.05.303zM89.075 13.533h.25c-.03-.232-.018-.43-.25-.555-.068.152-.068.403 0 .555zM66.38 13.28c.01-.11-.042-.16-.15-.15-.032.13.02.18.15.15zM56.717 14.038v-.303h-.202c-.013.182-.012.35.202.303zM75.538 13.886c-.043.06-.067.136-.05.253.165-.003.356.02.35-.153-.07-.15-.11-.043-.3-.1zM38.5 14.795c.47-.034.698-.31.655-.858-.52.074-.66.472-.655.858zM88.17 15.3c.135-.305.096-.727 0-1.06-.835-.23-1.487.326-1.008.91.334.04.63.027 1.007.15zM38.25 14.492c.005-.323-.43-.225-.454 0 .15.07.22-.03.453 0zM40.21 14.442c-.23-.103-.518-.152-.854-.15.04.347.682.33.855.15zM40.664 14.694c.357-.04.496.094.805.152.054-.476-.61-.23-.857-.404-.04.143.07.13.05.252zM37.142 14.492c-.234.167-.71-.15-.855.252.247.065.753.01.855-.252zM57.364 14.677l.007-.03c0 .008-.004.02-.006.03zM57.34 14.782c0-.01.004-.02.007-.035l-.008.035zM57.375 14.626c0 .005-.002.012-.005.02v-.003c.003-.007.005-.013.005-.017zM57.35 14.738c.004-.02.008-.042.013-.06l-.014.06zM57.334 14.805l.005-.023-.006.023zM57.334 14.805c-.002.01-.002.008 0 0zM75.236 14.593c-.01.145.013.257.1.303-.03-.104.082-.35-.1-.303zM41.922 14.846c.005-.138-.084-.102 0-.202-.144-.01-.275-.006-.252.15.117-.015.194.01.252.052zM42.375 14.896c-.067-.193-.126-.13-.302-.252.01.096-.057.112-.05.202.118.016.188.08.352.05zM78.86 15.048h.1c0-.05.04-.06.05-.1-.07 0-.11-.025-.15-.052v.152zM39.205 14.997c-.058.06-.057.178-.05.303.194.01.27-.296.05-.303zM43.532 15.452c.035-.17-.084-.185-.2-.202-.035.17.084.184.2.202zM88.32 15.502c-.597-.166-1.18.007-1.007.505.036-.155.392-.232.403 0-.127.237-.45-.03-.654.1.388.493 1.678.075 1.258-.605zM33.72 15.502c-.036.133-.298.19-.15.354.17.007.35-.294.15-.354zM48.213 16.41c1.03-.104-.223-.95 0 0zM44.49 16.108h.1v-.1h-.1v.1zM60.995 17.118c.19-.075.152-.083.403-.05.18-.298.028-.825-.453-.758.096.37.022.503.05.808zM45.092 16.462c-.023.158.044.226.202.202-.007-.13-.073-.196-.202-.202zM52.842 16.462h-.15c-.07.068-.097.353.05.353.088-.07.203-.245.1-.353zM47.206 17.522c.037.215.155.35.403.353.01-.275-.186-.457-.404-.353zM85 17.573h-.253c-.192.238.278.253.252 0zM69.952 18.532c0-.386-.165-.608-.503-.656-.057.24.257.714.502.656zM48.515 17.977c-.066.067-.067.188.05.202-.01-.077.018-.188-.05-.203zM49.672 17.977c-.088.03-.296-.06-.302.05.027.126.34.165.302-.05zM33.015 18.33c.104.08.267.102.402.152-.024-.195-.146-.29-.302-.354 0 .1-.136.064-.1.202zM67.185 18.835c.382.005.316-.5.15-.707-.13.16-.26.46-.15.707zM81.174 18.38c.133.016.166-.07.152-.2-.134-.017-.13.104-.152.2zM51.483 18.28c-.003-.03-.008-.06-.05-.05-.01.06-.056.03-.1 0v.152h.15v-.102zM54.1 18.532v-.15c-.392.104-.744.122-.956.302.447.11.593-.216.956-.152zM51.635 19.693c-.016-.12-.08-.19-.05-.354-.075-.01-.186.017-.2-.05-.01-.26.172-.665-.102-.76-.17.318-.156.82-.25 1.213.176.128.488.135.602-.05zM80.318 18.532h-.1v.1h.1v-.1zM66.53 18.835c-.183-.03-.186-.04-.352-.152-.017.37-.48.293-.453.707.344.042.855.03.805-.555zM51.584 18.784c.018.97 1.91 1.057 2.667.858-.47-.743-1.862-.104-2.666-.858zM79.715 18.986h.1v-.1h-.1v.1zM57.573 19.34c.306.038.387-.15.453-.353-.208-.118-.513.04-.453.353zM31.556 18.986c-.01.29.24.44.453.353-.028-.243-.178-.362-.454-.354zM78.76 19.087c-.055.114-.318.02-.253.252.165.027.405-.127.252-.253zM54.755 19.39c.13.16.483-.058.302-.202-.044.15-.04-.153-.2-.05.042.16-.08.156-.102.252zM95.063 19.49c.016-.118.08-.19.05-.353-.214.026-.358.337-.05.354zM29.845 19.39c-.143-.042-.13.07-.252.05-.056.174.366.15.252-.05zM68.895 19.592c-.133.224.04.516.252.555.14-.23.004-.558-.252-.555zM70.606 19.946c.09-.047.11-.158.1-.303-.058-.058-.176-.057-.3-.05-.012.195.052.316.2.353zM82.08 22.268c.002.265.31.144.403.202-.262.41-.374.968-.1 1.515.454-.183.436-.842.855-1.06.184.193.392.26.655.252.027-.195-.13-.208-.15-.353.472-.132.653-.556.855-.96-.24.062-.585.046-.755-.1.828-.668 1.918-1.34 2.415-2.172-.467.148-.662.567-1.157.555-.09.776-1.304 1.47-1.862.707-.075.06-.06.21-.2.202-.293-.095-.186-.59-.354-.808-.492.383-.354 1.212-.353 1.868-.033.1-.298-.03-.25.152zM81.526 20.148c.177.136.272.04.504.1.09-.094.036-.332.05-.504-.232.013-.632-.1-.554.404zM62.957 19.794c-.128-.168-.39.095-.15.152-.016-.117.144-.056.15-.152zM45.042 19.895c-.056.225.155.182.252.252.063-.232-.097-.393-.252-.252zM33.417 20.45c-.013-.306-.14-.498-.453-.504 0 .318.17.626.453.505zM48.615 20.653c.087-.094.065-.362-.05-.404.03.12-.064.365.05.403zM39.456 21.46c.086-.063.002-.3.15-.302.504-.066.766.532 1.11.303.047-.182-.227-.04-.203-.2.073-.08.106-.198.15-.304-.087.004-.156-.01-.2-.05-.075.117.017.217-.05.252-.336-.44-1.62-.427-.957.303zM45.495 20.804c-.097.18-.026.32.15.353.088-.102.096-.43-.15-.353zM30.5 20.855c-.042.305.23.033 0 0zM45.092 20.905c-.015.17-.176.558.15.505 0-.218-.103-.333-.15-.505zM33.87 21.36c.268.022.35.37.655.202-.082-.243-.094-.303-.05-.606-.256.018-.28.22-.554.1-.057.06-.056.18-.05.304zM51.08 21.107c.11.01.162-.04.152-.15-.11-.01-.16.04-.15.15zM63.26 21.006c-.638-.01-1.493.217-2.014.606.04.01.06.042.05.1.732-.345 1.454-.136 1.963-.706zM48.615 21.107c.03.12-.063.367.05.404.068-.073.103-.4-.05-.403zM50.78 21.46c.042-.123.05-.342-.152-.353-.146.098-.106.386.15.354zM50.275 21.36c.21.048.01-.152 0 0zM93.956 21.713c-.054-.637-.64-.065-1.007-.253-.1.594.64.457 1.006.253zM66.68 21.713c.105.673 1.833.435 1.712-.1-.078-.35-1.6.042-1.71.1zM41.37 21.562c-.043.06-.067.135-.05.253.038.01.097 0 .1.05.157.007.172-.13.2-.252-.12.02-.11-.093-.25-.05zM52.943 21.764v-.202c-.146.022-.23.107-.252.253.118.015.195-.01.253-.05zM37.645 21.612c-.158-.024-.206.063-.25.152.095.098.307.052.25-.152zM57.573 22.572c1.017-.375 2.38-.176 3.07-.858-.313-.288-.666.136-1.157.15-.167.006-.394-.118-.504-.1-.483.078-.945.61-1.46.252-.008.217-.12.432.05.556zM40.413 21.663c-.036.154.087.15.05.303.298-.013.41.16.453.404.205.038.173-.163.403-.1-.077-.43-.522-.49-.907-.607zM71.915 22.117c.33.014.67.123.654-.303-.24-.106-.77-.112-.655.303zM34.474 21.814h-.2c-.017.118-.08.19-.05.353h.25v-.353zM48.615 21.915c-.034.498-.316.843-.403 1.414.36-.293.612-1.122.403-1.415zM65.27 22.218c.01-.126.01-.245-.1-.253-.007.126-.008.246.1.253zM82.03 22.774c.077-.197-.048-.365-.05-.505-.314.124-.58-.59-1.007-.203-.17.785.634.656 1.057.707zM79.513 22.52c.076-.17.157-.425-.05-.504-.163.092-.233.483.05.505zM98.284 22.016c-.077.184.185.28.25.152-.088-.046-.062-.205-.25-.152zM98.636 22.268c.128-.006.196-.073.202-.202-.095.01-.11-.057-.202-.05v.252zM29.845 22.268c-.075.228-.465.14-.504.404.245-.022.762-.204.505-.404zM43.03 23.026c-.07-.546-.414-.754-.957-.707.01.094-.057.11-.05.2.264.25.77.38 1.006.506zM50.477 22.47v-.1c-.093-.168-.245.15 0 .1zM57.12 22.42c-.425-.204-.946.143-1.36.1v.203c.403.076 1.085.11 1.36-.303zM66.58 22.37c-.02-.022.033.033 0 0zM74.934 22.32c-.304-.02-.566.003-.755.1.046.37.726.158.754-.1zM40.267 22.39c.002-.01.002-.008 0 0zM40.264 22.408c0 .004 0 .007-.002.012l-.02.095.022-.107zM38.702 22.47h-.1v.102h.1v-.1zM47.458 22.673c.005.196.22.143.302.05-.13-.064-.152-.11-.302-.05zM62.152 22.622c-.04.306.23.034 0 0zM39.456 22.925c-.12-.116-.194-.276-.453-.252.08.794.81 1.733.2 2.424.744-.028.54-1.027.353-1.565.312-.072.82.097.755-.455-.276-.055-.535-.296-.854-.152zM54.25 22.723c-.126.222.182.288 0 0zM68.04 24.288c.254.034.38-.116.503.05.096-.228.098-.3.202-.455.415.24.686-.702.453-1.16-.402.118-.592.45-.705.857-.534-.234-.844.4-.453.708zM42.124 22.774c-.03.157-.16.69.05.757.14-.135.08-.598-.05-.756zM52.29 23.076c.092.075.238.097.402.1-.02-.12.092-.11.05-.25-.157-.154-.365-.03-.453.15zM53.396 22.875h-.1v.1h.1v-.1zM92.95 23.127c.005-.072.22-.263 0-.252.03.09-.148.21 0 .252zM93.554 23.177c-.018-.186.29-.047.2-.303h-.2c.014.09-.142.253 0 .303zM40.463 23.177c.068-.064.077-.247-.05-.252-.07.064-.078.247.05.252zM61.8 23.43c-.197-.08-.105.13-.2.15-.503-.49-1.73-.155-2.417-.655-.125.26-.272.027-.453.1-.06.178-.073.167-.1.304.793.067 1.635.244 2.415.302.24.018.86.18.755-.202zM37.142 23.33c-.444-.01-.555-.353-1.007-.355-.235.753.876.828 1.007.354zM38.55 23.38c.03-.106.125-.144.1-.303-.12-.02-.108.092-.25.05.016.118.05.218.15.253zM41.52 23.38c.107-.047.068-.367-.1-.303.03.104-.082.35.1.303zM32.965 23.38c.307.146.8.316 1.207.202.11-.685-1.13-.538-1.207-.202zM50.678 23.33c.014-.116-.012-.19-.1-.203.01.09-.05.253.1.202zM89.83 23.38v-.202h-.1v.202h.1zM49.974 23.278c-.016.264.36.117.453.05-.09-.123-.304-.118-.453-.05zM49.722 23.38c-.18-.095-.7-.098-.705.15.205.1.658.07.705-.15zM88.152 23.478c0 .003 0 .003 0 0zM88.16 23.458l-.007.016c0-.003.003-.008.006-.016zM88.16 23.457l.01-.027.026-.077-.036.104zM88.153 23.475v.003-.003zM85.552 24.086c.182.125.133.26.05.455.348.59.885.69 1.66.86.07-.065.05-.22.052-.354-.34.137-.49-.258-.654-.454.362-.64-.6-.715-.906-1.01-.008.228-.143.328-.202.504zM47.055 24.238c.437-.128.95-.146 1.208-.555-.5-.083-1.12.24-1.208.555zM42.325 23.784c-.08.16.028.22.05.404.074.028.26-.06.252.05-.13.19-.235.404-.25.708.448-.082.125-.552.452-.758.292-.184 1.218.283 1.257-.454-.695-.04-1.166.27-1.762.05zM28.637 24.592c.028-.09.026-.21.1-.253.26-.063.8.16.756-.203-.48.087-1.282-.387-1.41.353.142.077.315.123.554.102zM41.77 24.187c.11.01.162-.04.152-.15-.11-.01-.16.04-.15.15zM40.16 24.642c.496.085 1.028-.322 1.26-.505-.542.046-1.023.152-1.26.505zM46.05 24.137c.02.122-.093.11-.05.252.224.088.18-.268.05-.253zM36.135 24.794c.923-.112.125-1.03-.05-.1.04.01.058.04.05.1zM69.952 24.288c-.1.015-.1-.068-.15-.1-.004.03-.008.06-.05.05v.1c.125.007.156.097.2-.05zM32.16 24.49c-.042-.3-.528-.232-.755-.202.106.34.454.227.755.202zM36.034 24.44c.014-.115-.012-.19-.1-.202.01.09-.05.253.1.202zM46.25 24.693c.273-.096.532-.208.705-.404-.34.03-.667.07-.705.403zM42.28 24.357l-.004.023c0-.008.002-.017.003-.023zM42.274 24.39c0 .007-.002.014-.003.02.003-.01.004-.02.005-.03v.01zM42.262 24.478c-.002.013 0 .01 0 0zM42.27 24.41c0 .014-.003.027-.005.04l.006-.04zM42.28 24.357v-.014.014zM44.74 24.693c-.02-.122.092-.11.05-.253-.068-.016-.096-.072-.202-.05 0 .153-.028.332.152.303zM45.193 24.995c.866-.214-.275-.95 0 0zM64.87 24.54c.194-.025.198.292.352.153-.01-.192-.245-.34-.353-.152zM87.967 24.49c-.165.327-.22 1.21.303 1.16-.023-.46.017-.903-.303-1.16zM38.802 25.197c.195.044.218-.084.302-.15-.04-.012-.06-.043-.05-.102-.14.03-.282.053-.252.252zM97.076 26.46c.22-.113.21-.382.15-.657-.096-.054-.4.062-.452-.152-.175.01-.192.18-.352.203-.1-.272-.308-.167-.554-.1-.084-.237-.136-.504-.353-.607.002.187-.246.123-.25.303.395.89 1.208.632 1.81 1.01zM66.33 25.197c-.023.08-.16.043-.102.202h.15c-.007-.076.02-.187-.05-.203zM72.418 25.45v-.253c-.088-.004-.156.012-.202.05.018.118.033.237.202.203zM34.02 25.652v-.15h-.15c-.03.13.02.18.15.15zM78.306 25.55c-.074.302.34.345.252 0-.16.03-.156-.094-.252 0zM33.518 28.126c.22-.08.55-.056.553-.354-1.597-.277-2.143-2.57-4.075-2.07.038.575.512.15.805.202.32.057.737.655 1.108.91.64.438 1.56.597 1.61 1.312zM44.59 25.55c-.006.098-.197-.087-.202.102.105.03.163.106.25.152-.026-.074.06-.262-.05-.253zM45.797 26.056c.183-1.01-.906.025 0 0zM32.11 25.955c.124-.155.204.16.4.1.043-.058.068-.134.052-.252-.157-.028-.328-.04-.453-.1-.02.092-.08.17 0 .252zM60.09 26.106c.085-.08.124-.21.1-.404-.254-.035-.332.105-.302.353.088-.003.156.012.2.05zM33.216 26.106c.7 1.332 1.102-.918 0 0zM74.632 25.904c-.013.115.013.19.1.202-.01-.09.05-.253-.1-.202zM99.945 25.904c-.19-.003-.42.313-.202.404-.01-.212.19-.212.202-.404zM40.865 26.106c-.03.2.113.224.25.253.038-.205-.046-.29-.25-.254zM42.274 26.61c.01-.038.042-.058.1-.05.147-.196-.047-.4-.25-.404-.133.17 0 .412.15.455zM75.588 26.157v.202c.094-.008.168-.034.2-.102-.072-.027-.125-.075-.2-.1zM61.246 26.207c-.014.118-.107.218.05.252.07-.065.078-.248-.05-.253zM66.38 26.258c-.015.03-.126.195 0 .202.014-.03.124-.195 0-.202zM59.636 26.308c-.04.306.23.034 0 0zM71.01 26.41c-.11.198.04.388.15.454.32.19 1.99.056 3.02.1.72.032 1.338.108 1.81-.05-.125-.25-.463-.29-.703-.303-1.492-.073-2.697.176-4.278-.2zM42.878 26.61c-.005-.137.083-.1 0-.2-.193-.04-.193.24 0 .2zM58.73 26.51c-.08.075-.073.288.1.253-.022-.096.07-.305-.1-.253zM68.846 26.56c.077.292.293.076 0 0zM70.053 27.267c0-.1.138-.064.1-.202-.256-.163-.56-.278-.905-.353-.086.085.03.227.1.303.166-.18.605.05.705.252zM95.012 26.763c-.387.02-1.11.127-1.46.354.385.296 1.147.018 1.46-.354zM55.51 27.015c-.028-.074.058-.26-.05-.252-.07.064-.08.247.05.252zM40.563 26.864c.006.128.074.196.202.202.05-.2-.112-.293-.202-.202zM41.82 26.864v.353c.276.094.31-.222.203-.353h-.202zM41.218 27.015c-.016.2.097.273.302.252v-.252c-.148-.045-.155-.045-.302 0zM84.647 27.015c-.004.065-.065.07-.05.152.123.078.147-.172.05-.152zM43.18 27.267c.158.024.205-.062.25-.15-.03-.004-.058-.01-.05-.052-.14-.007-.124.143-.2.202zM80.218 27.217c-.005-.08.007-.175-.1-.152-.003.087.038.13.1.152zM55.862 27.116h-.1v.1h.1v-.1zM70.153 27.167c.085.178.158-.165 0 0zM71.512 27.116c-.216.02-.24.23-.25.454.182-.034.7.092.402.455.084.067.168.134.352.1 0-.304-.148-.298-.05-.605-.173-.114-.424-.148-.454-.404zM35.028 27.217c-.185-.11-.48.037-.453.303.195.12.51-.01.453-.303zM70.355 27.217c-.02-.02.033.033 0 0zM78.81 30.247c.24-.363.374-.836.653-1.16.074.025.127.074.202.1.346-.598.478-.817.302-1.565-.344-.01-.285-.42-.604-.454-.088.13-.107.33-.402.252.188.338-.387.653-.302 1.01.006-.04.167-.153.15-.05-.23.374-.782.97-.3 1.463-.013.192-.312.36-.152.555.095-.142.308-.345.453-.15zM41.42 27.874c.624.23 1.466-.5 2.012.202-.007.212-.21.225-.15.505.24.116.363-.165.502-.302.302.152.628.28 1.057.303.235-.77-1.105-.457-1.358-.554.02-1.152-1.702-.612-2.063-.152zM62.555 27.57c.088-.235-.282-.27-.302-.1.105.03.143.125.302.1zM84.093 27.368c-.152.018-.297.305-.15.455.173-.012.394-.336.15-.455zM84.495 27.47c.073.167.126-.197 0 0zM72.418 27.722c-.115-.144-.194-.03-.403-.1.01.094-.057.11-.05.2.14-.044.472.105.453-.1zM65.826 27.722c.17.196.544.325.805.152-.06-.01-.03-.056 0-.1-.202-.116-.498-.126-.804-.052zM30.65 28.126c.065-.146.04-.29-.1-.354-.13.02-.095.366.1.354zM95.717 27.874c.1.105.215.002.252-.1-.125-.01-.245-.01-.253.1zM71.11 28.076v-.253h-.202c-.04.193.107.196.202.253zM39.104 27.924c-.302-.05-.354.247-.252.454.216-.018.29-.18.252-.454zM46.602 28.126c-.046.12-.202.134-.15.353.225.04.28-.09.302-.254-.073-.01-.086-.082-.152-.1zM75.64 28.227c-.085.128-.2.226-.102.404.51.012.656.08 1.007.254.257-.586-.864-.206-.906-.657zM46.15 28.58c.04-.06.065-.135.05-.253-.143-.042-.13.07-.252.05-.023.16.044.227.2.203zM74.884 28.48c.008-.06.09-.116 0-.153-.007.06-.09.116 0 .152zM75.287 28.53c.172.038.196-.193.05-.202-.016.068-.07.097-.05.202zM45.445 28.378c-.065.067-.066.188.05.202-.008-.075.018-.186-.05-.202zM32.764 28.53c.038.248.14.17.302.1.043-.19-.226-.178-.302-.1zM53.346 28.53c-.104.127-.194.41-.05.505.41 0 .415-.466.05-.505zM81.023 28.63h-.1v.102h.1v-.1zM96.22 28.68c.158.166.085-.177 0 0zM81.275 28.732c-.02-.02.033.033 0 0zM43.23 28.782c-.35.44-.426 1.154-1.006 1.364.124.422.052.83.05 1.16.323-.56.472-1.176.755-1.766.357 0 .582-.597.2-.758zM82.08 28.782c-.205-.02-.318.052-.302.253.183.11.43-.016.302-.253zM98.787 29.035c.046-.286-.368-.327-.352-.05.065.07.218.05.352.05zM54.15 29.085c-.068.065-.05.22-.05.353.127.144.44.1.605.202.038-.213.28-.32.15-.555-.323.024-.38.024-.704 0zM67.587 29.338c-.27-.14-.577-.265-.755 0 .023-.23-.236-.138-.353-.1-.036.253.085.35.05.605.503-.067 1.112.258 1.057-.505zM41.37 29.54c.587.046.008-.536 0 0zM83.237 29.338c-.053.188.19.08.15.252-1.22.81-3.393.512-4.528.96 2.198.433 3.894-.725 5.836-.81-.273-.363-.986-.343-1.46-.402zM64.618 29.59c-.058-.042-.135-.067-.25-.05v.2c.143.012.273.008.25-.15zM45.495 29.59c-.215.007-.235.205-.05.253-.02-.122.092-.11.05-.253zM40.916 29.793v-.152h-.15c-.01.11.04.162.15.153zM56.315 29.64c-.065.068-.066.19.05.203.065-.067.03-.152-.05-.202zM34.172 29.793c-.27-.038-.776-.178-.855.303.35.133.803.02.855-.303zM58.327 30.5c.09-.265.267-.412.152-.758-.562.14-1.112.125-1.863.152-.043.406-.043.765.302.91.158.023.037-.233.15-.254.193.006.6-.12.806.1.045-.212.21-.08.45-.15zM94.61 29.69h-.15c-.008.126-.01.246.1.253-.02-.12.092-.11.05-.252zM28.99 29.742c-.002.204.15.255.352.253-.002-.2-.196-.208-.352-.253zM72.922 29.793c-.925.537-2.106.816-2.82 1.565.887-.4 2.042-1.117 2.87-1.363-.01-.076.018-.187-.05-.202zM55.51 29.843c-.096.19-.418.154-.706.152-.6.982 1.383.6.705-.152zM84.797 29.893c.126.197.074-.167 0 0zM38.953 29.893h-.25c-.082.268.33.268.25 0zM85.954 30.196c-.15-.155-.62-.25-.755-.253.103.234.514.157.754.253zM30.297 30.348c.212.068.39-.347.15-.404-.127.053-.3.226-.15.404zM52.39 30.802c.166-.22.018-.42-.05-.656h-.202c-.04.342.085.52.252.656zM94.007 30.348c.007.06-.01.143.05.152.03-.048.117-.187-.05-.152zM93.906 30.5c.033.032-.02-.022 0 0zM29.04 30.7c-1.486.286-.146 1.674 0 0zM40.01 30.752c-.4.02-.488.353-.604.657.415.373.964-.272.604-.658zM55.056 31.56c.126-.275.49-.234.755-.252v-.303c-.64-.184-1.462-.31-2.113.05-.042.212.098.24.1.405.482-.072.92-.166 1.26.1zM48.313 30.954c-.143-.14-.438-.1-.503.1-.48-.34-1.105.08-1.56-.252.016.254-.227.453-.1.656.644-.248 2.036.482 2.163-.504zM32.612 31.055c.076-.01.186.018.2-.05-.043-.11-.213-.147-.2.05zM69.398 32.014c.09-.096.037-.333.05-.505-.44-.304-.537-.315-1.106-.253-.022.174.02.283.05.404.16.026.114-.154.302-.1.108.093.256.148.2.404.187.034.356.114.504.05zM85.602 31.257c-.122.228.197.258.353.353.04-.276-.077-.394-.353-.353zM40.715 31.307c-.234.357.254.67.604.758.114-.394-.25-.677-.605-.758zM50.075 31.358v.15c.146.075.146-.224 0-.15zM55.912 31.408c-.19.146-.483.188-.553.455.266.102.647-.213.552-.455zM61.548 31.964c-.51-.01-1.205-.39-1.46-.05.234.472.843.413 1.258.605.034-.22.31-.195.202-.556zM65.12 31.762c-.05.582.63.707.655.1-.223-.047-.395-.067-.654-.1zM91.49 31.863v-.1h-.1v.1h.1zM36.588 31.964c.093-.168-.18-.213-.202-.1.138-.038.102.1.202.1zM41.922 32.014v-.15c-.12-.04-.348-.1-.453 0-.002.118.086.148.05.302.178-.006.405.036.402-.152zM73.122 31.913c.033.033-.02-.02 0 0zM43.935 32.368c.2.016.24-.13.302-.253-.168-.163-.477.07-.302.253zM39.507 32.115v.202h.2c.024-.158-.126-.142-.2-.202zM91.138 32.115c-.182.24.295.067 0 0zM44.69 32.317c-.095-.1-.243-.03-.2.152.13.013.215-.02.2-.153zM55.71 32.52c-.113-.038-.15-.153-.2-.254-.452.17-.8.444-1.258.606-.044-.14-.202-.167-.352-.202.033.37-.41.26-.604.404.95.86 1.885-.3 3.02-.202.042-.21-.1-.24-.1-.404-.29-.002-.322.023-.505.05zM77.652 32.468h.1v-.202h-.1v.202zM90.987 32.317c.21.048.01-.15 0 0zM45.445 32.77v-.403c-.07.002-.11-.024-.15-.05-.152.102-.012.38.15.454zM32.26 32.418v.1h.15c.007-.09-.05-.117-.15-.1zM45.042 32.67v-.252h-.15c.045.088-.003.27.15.253zM28.435 32.77h.202c-.023-.094.068-.303-.1-.25.037.155-.14.096-.102.25zM43.532 32.52c-.086-.004-.13.038-.15.1.078-.005.174.007.15-.1zM77.35 32.52c-.265-.014-.28.224-.605.15-.273.836 1.106.532.605-.15zM30.046 32.62c.21.048.01-.15 0 0zM29.492 32.67c-.15-.07-.35-.058-.302.203.188.02.296-.04.302-.202zM33.87 32.62c-.185-.05-.2.248-.05.252.043-.058.067-.135.05-.252zM42.124 32.974c.002-.154.03-.333-.15-.303-.095.1-.077.372.15.304zM42.727 32.873c.07.013.058.11.1.152.197-.002.544-.23.303-.353-.096.104-.403 0-.403.2zM30.297 32.873c.103.015.1.137.202.152-.005-.088.01-.157.05-.202-.074.027-.26-.06-.253.05zM88.723 32.923c.033.033-.02-.02 0 0zM30.85 32.974c-.05 0-.06-.04-.1-.05 0 .05-.04.06-.05.1.05 0 .06.04.1.05 0-.05.042-.06.05-.1zM67.335 33.58c.042-.493-.3-.682-.654-.506-.02.386.293.67.655.505zM45.042 33.176c.078-.125-.17-.15-.15-.05.03.002.06.006.05.05h.1zM33.72 33.832c.06-.243.092-.542-.1-.707.025.28-.27.66.1.707zM40.312 34.286c-.16-.48-.36-.92-.755-1.16.172.466.254 1.023.755 1.16zM53.094 33.377c.014-.115-.012-.19-.1-.202.01.09-.052.253.1.202zM97.68 33.327c.033.033-.02-.02 0 0zM76.394 33.933c-.022.693-.063 1.163.1 1.716.428-.294-.33-1.15.252-1.364-.027.18.044.26.152.303.2-.237.02-.63.1-.91-.29-.243-.345.182-.604.253zM51.987 33.933c.033.17.08.323.2.404-.135.166-.42.19-.603.05-.067.102-.22.118-.252.253.08.198.344-.048.553.152.008.125.01.245-.1.253-.42-.347-1.144.397-1.46-.152-.438.923 1.123.79 1.51.757.06-.376.234-.64.35-.96.647.026 1.353-.28 1.913-.504.036-.154-.05-.184-.05-.303.192.04.195-.108.25-.202-.713.345-1.788-.112-2.31.253zM55.41 33.73c-.284-.046-.444.117-.807.153.008.452.466.198.705.354 0-.203.1-.304.1-.506zM36.085 33.883c.208.048.01-.152 0 0zM41.067 33.883c.157.164.085-.18 0 0zM51.383 33.933c.21.048.01-.15 0 0zM85.602 33.933c-.014.115.013.19.1.202-.01-.09.05-.253-.1-.202zM84.546 34.085c-.092.146-.082.158-.05.353.206.06.202-.35.05-.353zM84.344 34.135c-.19.013-.324.08-.403.202.13.005.074.197.203.202.142-.06.22-.183.2-.405zM33.116 34.438c.126.01.158-.078.2-.15-.094-.023-.126-.11-.25-.102-.057.158-.024.133.05.252zM34.122 34.79c.08.006.175-.006.15.102.27-.2.784-.157.705-.707-.158-.025-.177.09-.352.05.028.38-.472.234-.503.556zM63.058 34.64c-.08.076-.074.288.1.253-.01-.096.057-.112.052-.202-.066-.002-.07-.064-.152-.05zM42.878 35.6c-.21-.514-.853-.593-1.308-.86-.036.155.05.185.05.304.126-.008.245-.01.252.1-.104.03-.19.08-.15.253.55-.27.76.235 1.156.202zM76.947 34.79c-.266.648.046 1.516.1 2.172.456-.508.152-1.648-.1-2.17zM30.398 35.044c.015-.133-.07-.166-.2-.152-.042.18.106.25.2.152zM61.7 35.55c.01-.215-.005-.4-.152-.456-.128.107-.243.228-.252.455.073.073.33.073.403 0zM48.816 35.145c.14.575-.05 1.213.403 1.414.146-.396-.234-1.014-.404-1.415zM60.944 35.75c.007-.123.008-.242-.05-.302-.275.152-.306-.208-.603-.05-.073.08-.066.236-.15.303.063-.198-.12-.15-.252-.15-.008.242-.162.506.05.757.277-.018.344-.052.604 0 .113-.207.1-.54.402-.556zM44.79 35.7c.008-.125.01-.245-.1-.253-.077.073-.05.264.1.253zM52.39 35.65v-.203h-.15c.02.097.017.218.15.202zM54.1 35.7c-.5.63-1.82.026-2.315.455 1.046.53 2.187-.1 3.17-.05V35.7c-.305-.038-.474.015-.855 0zM28.587 36.306c.53-.887-.813-.288 0 0zM36.236 36.71c-.097-.02-.04-.196-.2-.152-.116.12-.35.12-.404.303.733.59 1.595-.364 2.415-.252.054-.19-.125-.144-.1-.303-.555.02-1.144-.04-1.51.152.175-.08.138-.58-.1-.556-.21.17-.056.508.05.657-.116-.014-.056.148-.15.153zM42.023 36.003c.008.06-.01.143.05.15.03-.045.117-.184-.05-.15zM79.262 36.256c-.152-.035-.364-.1-.25.202.17.02.285-.016.25-.202zM33.066 36.458c.137-.03.236-.1.302-.202-.188-.02-.296.04-.302.202zM50.326 36.912c.238-.37-.34-.72-.402-.253.187.03.204.232.402.252zM35.38 36.76c.038-.188-.057-.245-.2-.25-.017.067-.073.095-.05.2.14-.042.13.07.25.05zM80.77 36.963c.174-.028.25-.338.102-.404-.063.105-.23.257-.1.403zM34.776 36.71c-.197.038-.173.298-.403.303-.132-.025-.284-.164-.15-.303-.49.045-1.06.29-1.41.05.33.934 1.717.657 2.316.455.03-.316-.244-.33-.354-.505zM52.74 36.71v.152c.148.074.148-.226 0-.152zM50.73 39.033c-.546-.497-.938-1.146-1.21-1.92-.247.92.735 1.126.605 1.92.115.08.488.08.604 0zM27.53 37.367c.3-.006.878.347.956-.05-.3.004-.898-.327-.956.05zM27.278 37.266c.21.048.01-.152 0 0zM32.21 37.417c.003-.087-.04-.13-.1-.15.008.193-.042.017-.152.05-.05.17.157.078.252.1zM31.706 37.518c.023-.285-.295-.214-.25.05.116.017.192-.007.25-.05zM34.877 37.468c-.064-.003-.07-.065-.15-.05-.104.102-.048.303.1.302-.042-.143.07-.13.05-.252zM61.196 37.82c.108-.096.11-.262.05-.403-.124-.007-.242-.008-.302.05.03.172.014.39.252.354zM27.33 37.922c.135.43.67.25 1.105.303v.202c.125.007.244.01.252-.1-.182.048-.107-.284 0-.254.226.106.583-.04.654-.253-.485-.416-1.472-.11-2.01.102zM40.815 37.922h.2c.08-.08.015-.27-.05-.353-.1.067-.195.14-.15.352zM38.4 38.124c.028-.03.117-.24 0-.253.035.138-.238-.035-.202.102.098.02.04.196.2.152zM30.55 38.074v.253c.093.007.167.033.2.1-.082.104-.163.207-.2.354.158.07.167.012.35 0-.137-.3-.074-.464.102-.655-.174-.103-.223-.068-.453-.05zM65.423 38.074c-.12.17.17-.123 0 0zM33.92 38.225c-.068.002-.11-.024-.15-.05.01.095-.057.11-.05.202.096-.02.216-.02.2-.152zM31.254 38.377c.037.215.155.35.402.353.058-.06.057-.178.05-.303-.23.062-.28-.21-.452-.05zM53.245 38.78c.036-.2.036-.203 0-.403-.274.02-.393-.1-.554.05v.303c.19.04.357.16.555.05zM30.147 38.68c.162.044.157-.078.2-.152-.093-.1-.24-.03-.2.152zM52.188 38.528v.303c.156.006.15-.152.15-.302h-.15zM42.828 38.58c-1.255.096-.017 1.337 0 0zM51.534 38.83c.04-.142-.07-.13-.05-.252-.246-.01-.448.023-.404.303.13.118.334 0 .454-.05zM49.068 38.932c-.092.104-.264.367 0 .404.005-.143.22-.334 0-.404zM62.806 38.983c-.07.065-.05.22-.05.353.11.058.205.13.402.1-.022-.246-.05-.486-.352-.453zM49.672 39.033c-.082.06-.183.32 0 .353-.01-.103.253-.323 0-.353zM47.357 39.59c.263-.09.774.07.755-.304-.288-.114-.972-.09-.755.303zM62.756 39.538c.008.06-.008.143.05.15.03-.045.118-.185-.05-.15zM44.99 40.144c-.657-.138-1.308-.293-1.96-.303.417.278 1.458.603 1.96.304zM43.986 40.548c-.248-.144-.425-.164-.654 0-.064-.356-.383-.457-.654-.606-.086.08-.125.21-.1.404.49.197.648.73 1.157.91-.063-.383.336-.303.25-.708zM81.376 40.093c.005-.08.128-.04.1-.152h-.15c.007.06-.01.145.05.153zM78.558 40.194c.16.268.498.015.704.1.022-.11.115-.273-.05-.302-.15.137-.542.03-.654.202zM34.525 40.244c-.104-.11-.172-.003-.2.1.113.016.187-.01.2-.1zM51.18 40.295c.39.52.745 1.07 1.108 1.616-.207-.667-.553-1.46-1.107-1.615zM31.355 40.7c.083-.09.073-.37-.1-.354-.07.15-.06.31.1.353zM31.757 40.346c-.068.064-.078.247.05.253.016-.12.108-.22-.05-.254zM33.266 40.346h-.15v.202c.132.015.165-.07.15-.202zM48.062 40.75c-.3-.26-1.112-.26-1.41-.353-.02.072-.06.085 0 .152.334.178 1.102.464 1.41.2zM58.78 40.498c-.154.16-.387.47-.252.757.462.028.554-.545.252-.757zM30.398 40.9c-.004-.08.007-.174-.1-.15-.003.087.038.13.1.15zM50.125 40.8c.073.167.125-.196 0 0zM38.903 41.154c.036-.037.126-.247-.05-.202.008.075-.018.186.05.202zM74.783 41.154c-.125.008-.155-.08-.25-.1 0 .068-.025.11-.052.15.13.045.243.08.303-.05zM44.44 41.608c.075-.316-.325-.305-.304-.05.12-.002.148.087.303.05zM52.74 41.406c.01.06-.007.144.05.152.032-.047.12-.186-.05-.152zM28.89 41.76c.086.198.378.19.553.302.086-.082.125-.212.1-.404-.203-.195-.445.155-.654.1zM88.018 41.81c-.148.185.072.34.302.304.02-.097.144-.092.1-.253-.266-.056-.15.153-.402-.05zM48.01 42.113v-.1c-.09-.17-.244.15 0 .1zM48.313 42.214c.125.197.074-.167 0 0zM45.848 42.568v-.253c-.19-.038-.245.058-.252.203.058.042.135.066.252.05zM52.64 42.618c.004-.154-.044-.257-.15-.304-.003.155.046.258.15.304zM48.867 42.467c-.103.118-.037.373.2.302.008-.125.01-.244-.05-.303h-.15zM34.273 43.123c-.03-.194-.27-.374-.453-.253-.096.19.243.343.453.253zM33.266 43.477c-.045-.24-.233-.34-.302-.556-.152.017-.392-.055-.403.102.337.05.298.476.706.455zM82.08 43.073c-.874.105.248.84 0 0zM83.69 43.73c.922.277.125-1.236 0 0zM95.92 43.174c-.01.143-.093.21-.102.354.16.043.317-.344.1-.354zM52.892 43.275c-.01.145.013.257.1.303-.03-.105.083-.35-.1-.303zM36.286 43.325h-.15c-.122.117-.078.163-.05.354-.16-.026-.18.09-.354.05.002.07-.023.11-.05.15.143.195.386.064.503-.05.005.08-.007.176.1.152.27-.124.084-.468 0-.657zM44.338 44.032c.187-.014.103-.302.25-.354.132.064.153.11.303.05.073-.067.073-.286 0-.352-.41-.01-.645.16-.552.656zM35.53 43.527c-.067-.07-.35-.096-.35.05.023.13.395.173.35-.05zM58.48 43.578c.026.073-.06.26.05.252-.057-.13.17-.26-.05-.252zM62.253 45.395c-.517-.93-1.573-1.584-2.818-1.616.566.88 1.692 1.464 2.818 1.615zM54.704 43.78c-.015.03-.125.193 0 .2-.048-.093.15-.167 0-.2zM76.142 44.385c.04-.214.223-.378.1-.606-.403-.108-.5.634-.1.605zM53.597 44.184c-.234-.05-.302-.27-.503-.354-.076.31.475.48.503.354zM53.698 44.335c.037-.13.332.117.403-.1-.16-.026-.21-.16-.402-.152-.03.03-.118.24 0 .252zM37.192 44.688c-.05-.04-.126-.032-.2-.15 0-.085.14-.03.15-.102-.125-.056-.177-.352-.352-.202.197.218.104.427.1.808.187-.02.368-.238.302-.354zM41.067 44.335c-.034.443-.425.778-.352 1.162.294-.148.575-.83.352-1.162zM76.645 44.487c-.052.116-.173.163-.15.353.087-.003.155.012.2.05.1-.057.197-.43-.05-.403zM44.237 44.89c.196.212 1.084.137 1.108-.202-.398.217-.868-.352-1.108.202zM41.42 44.638c-.05.187-.11.132-.05.353.094.012.11-.057.2-.05.002-.153.03-.332-.15-.302zM42.526 44.638c-.02.086-.065-.01-.15 0-.142.106-.074.258 0 .404.147-.005.284-.283.15-.404zM43.684 44.94c.01-.144-.013-.256-.1-.302-.11.093-.357.046-.303.303.04.012.06.043.05.102.185.033.27-.034.354-.1zM26.98 44.91l.003-.016-.002.015zM26.964 45.03c-.002.013-.002.01 0 0zM26.968 45c0-.01.003-.023.006-.038l-.006.04zM26.976 44.94c0 .01-.002.016-.003.023 0-.01.003-.02.004-.03v.008zM26.98 44.91c0 .005 0 .013-.002.022 0-.01.002-.017.003-.023zM97.378 45.446c.302.05.19.516.503.555.043-.277-.125-.343-.1-.605-.11-.03-.374-.127-.402.05zM32.11 46.102c1.104-.19-.29-1.172 0 0zM77.098 45.547c-.045.09-.204.065-.15.253.134.03.255-.208.15-.253zM51.333 45.598c-.03.283.056.45.252.505-.018-.235-.017-.49-.252-.505zM97.53 45.75h-.153V46c.075-.008.186.02.202-.05-.075-.01-.047-.123-.05-.203zM28.788 46.354c.033-.428-.533-.63-.755-.353-.055.225.086.252.1.405-.19-.024-.32.014-.402.102v.252c.584.614.877.096 1.51 0 .37-.26-.076-.632-.452-.406zM78.206 45.9c.073.167.124-.197 0 0zM52.188 45.95c-.103.11-.018.315.1.354-.036-.114.09-.394-.1-.353zM29.34 46c-.005 1.094 1.03.057 0 0zM95.668 46.052c.073.167.125-.197 0 0zM34.122 46.153c-.12.02-.11-.092-.25-.05-.008.124-.01.244.1.25-.016-.13.195-.038.15-.2zM36.286 46.203c.157.165.085-.18 0 0zM97.88 46.203c-.02-.02.034.034 0 0zM96.372 46.658c.26-.102.268-.06.504.05.02-.473-.554-.482-.504-.05zM74.934 46.405c.072.196.346.406.604.253.01-.264-.447-.324-.604-.253zM96.12 46.658c-.022.117-.222.135-.1.252.15.06.216-.213.1-.252zM35.632 46.81c.21.048.01-.152 0 0zM81.778 47.062c.066-.067.067-.188-.05-.202.008.075-.02.186.05.202zM81.878 47.01c.018.12.033.238.202.203.094-.096-.03-.092 0-.253-.088-.003-.157.012-.202.05zM31.052 47.415c.175.086.378.003.403-.202-.16-.07-.47-.097-.403.202zM87.263 47.466c.028-.032.205-.153.05-.202-.027.03-.204.153-.05.202zM90.937 47.415c.15.054.352.084.403-.152-.13.055-.338.033-.403.152zM30.65 47.314c-.158-.024-.206.063-.252.152.105.106.19-.067.252-.152zM45.294 48.273c0-.134.02-.288-.05-.353-.257-.034-.297.46.05.353zM88.622 48.273c.255-.03.515-.056.554-.303-.255.03-.544.028-.554.303zM50.578 48.02c-.083.1-.063.4.1.405.205-.062.063-.402-.1-.404zM91.742 48.324c-.343.057-.377-.195-.704-.152 0 .263.657.41.704.152zM41.32 48.678c.21-.007.205-.23.2-.455h-.15c-.038.175-.156.27-.05.455zM88.17 48.425v-.202c-.127.026-.305-.002-.303.15.006.113.214.023.302.052zM92.496 48.324c-.02.097-.195.04-.15.203.068.015.096.07.2.05-.026-.074.06-.262-.05-.253zM32.512 48.627c.016-.068.072-.097.05-.203h-.15c-.015.116.01.19.1.203zM55.107 48.527c-.108.093-.255.147-.2.403.153-.036.147.088.3.05 0-.183.03-.398-.1-.453zM44.186 50.293c.077-.125.313-.09.302-.303-.797.03-1.688-1.43-.453-.757.396-.657-1.175-.96-.956 0-.36.105-.708-.09-.705.353.25.102.45-.152.805-.1.046.56.746.463 1.006.807zM86.458 48.627c-.127-.107-.555-.088-.453.202.198-.02.417-.02.453-.203zM76.745 49.08c.587.05 1.304.156 1.61-.25-.17-.017-1.385-.14-1.61.25zM83.842 49.99c.5-.19.465-.912.955-1.11-.407-.224-.478.43-.805.302.06.36-.29.534-.15.808zM38.5 49.03c-.157-.022-.224.044-.2.203h.2v-.202zM80.67 49.233c.357.106.35.034.656 0 .023-.382-.588-.144-.655 0zM30.398 49.637c.088-.068.185-.417 0-.455-.164.047-.34.465 0 .455zM39.81 49.738c-.05-.154.107-.512-.102-.505-.06.227-.173.4-.15.707-.362.092-.866.04-1.058.303.564.004 2.055.08 2.315-.555-.325.072-.713.224-1.006.05zM51.534 49.283c-.042.06-.066.136-.05.252.204.03.16-.207.05-.252zM73.576 49.89c-.313-.397-1.342-.608-1.56-.152.34.288 1.077.126 1.56.152zM42.073 49.536c-.285-.035-.776.014-.906.202v.1c.142.067 1.016.022.906-.302zM66.73 49.486h-.25c-.03.2.113.224.25.253v-.254zM32.612 49.587c-.064-.002-.07-.064-.15-.05-.1.113-.045.38 0 .504.202.002.14-.262.15-.453zM72.82 50.142c-.266.085-.668.035-.654.404.26-.092.668-.037.655-.404zM45.09 50.314c-.003.013-.005.027-.006.04l.005-.04zM45.097 50.26c0-.007.002-.01.002-.013l-.003.014zM45.097 50.26l-.003.025c0-.01.002-.017.003-.024zM45.08 50.382c-.002.013 0 .01 0 0zM45.092 50.293c0 .007-.002.014-.003.02 0-.01.002-.02.004-.03 0 .004 0 .007-.002.01zM83.49 50.243h-.152c-.033.123-.1.26.1.252-.02-.122.092-.11.05-.252zM35.934 50.697c-.316.065-.867-.086-.906.353.842-.17 2.027-.212 2.767-.707-.52-.12-1.246.228-1.86.354zM87.415 50.495c-.283.005-1.057-.05-1.26.203.42-.03 1.038.253 1.26-.203zM91.742 50.546c-.04.034-.112.282 0 .303.29-.237.525.173.704-.153-.16-.225-.573.026-.704-.15zM70.153 50.9c.004.087-.01.157-.05.202.407.078.52-.107.906-.152-.03-.585-.54-.055-.857-.05zM85.602 50.95c-.25-.147-1.194.074-1.56-.203-.05.144-.4.167-.25.354.425.033 1.65.343 1.81-.15zM81.376 51.05c.348.124 1.475.344 1.66-.2-.58.066-1.41-.27-1.66.2zM34.877 51.152V50.9c-.222-.16-.612.015-.402.302.16-.06.22.032.402-.05zM32.31 51.102c-.007.125-.01.245.1.252-.01-.095.057-.112.05-.202-.063-.003-.068-.065-.15-.05zM97.982 51.202c-.21-.068-.473.01-.352.202.064-.12.326-.042.352-.202zM72.52 52.06c-.12-1.237-.954-.52-1.46-.25.034.377.25.516.2.858.293.09.198-.206.353-.253.078.596.38.964.403 1.616.282-.615-.645-2.12.503-1.97zM91.34 51.354c.008.06-.01.143.05.152.005-.08.13-.04.1-.152h-.15zM66.28 52.263c.303-.13.832-.04.855-.455-.42.018-.785.09-.856.455zM38.098 52.263c-.064-.003-.07-.065-.15-.05-.044.142-.164.207-.152.404.26.04.307-.13.302-.354zM37.242 52.465c-.034.126-.153-.074-.2-.1-.113.126.125.208.25.252v-.102c-.002-.03-.007-.06-.05-.05zM78.507 53.122c.342.18.942.038 1.41-.102 0-.746-.778-.455-1.158-.455.015.154.154.18.1.404-.11.058-.326.01-.353.152zM59.132 52.515c-.19.142-.04.365.1.455.2-.17.133-.367-.1-.455zM80.47 52.565c-.04.306.23.035 0 0zM36.588 52.868v-.252h-.15c-.01.144-.007.276.15.252zM48.213 52.667c-.4.1-.364.33-.1.455.357.17 1.254.592 1.308.15.046-.375-1.04-.647-1.207-.605zM64.115 53.172c.182-.088.443-.094.605-.203-.034-.53-.83-.21-.605.202zM35.782 53.172c.01-.057.056-.08.1-.1-.01-.21-.094-.344-.35-.304-.103.2-.017.43.25.404zM68.895 53.273c.06-.076.145-.123.15-.253-.29-.167-1.327-.4-1.408.152.443.173.792-.065 1.258.1zM59.787 52.868c-.095.123-.187.25-.15.505.292.04.357-.146.35-.404-.1 0-.063-.138-.2-.102zM75.69 53.172c.334.167.913.328.904-.253-.27.11-.776-.176-.905.252zM63.712 53.122c-.318-.016-.684.187-.603.404.238-.01.4-.107.602-.152v-.252zM33.367 53.878v-.353c-.204.04-.377-.084-.503-.253h-.1c-.128.09.05.488-.15.505-.315-.2-.73-.024-.605.505.682.372.89-.264 1.357-.404zM70.858 53.626c-.265-.043-1.302-.153-1.107.455.325.028 1.294.03 1.108-.454zM62.05 53.98c.297-.007.516-.09.555-.354-.3 0-.593.01-.554.354zM80.77 53.777c-.397-.053-1.5-.116-1.86.303.382.05 1.51.214 1.86-.303zM61.196 54.232c-.27-.018-.378.126-.352.404.27.018.378-.126.352-.404zM56.164 54.888c-.33.037-.713.644-.302.808.09-.28.348-.39.302-.808zM42.174 55.646c-.122.028-.26.043-.252.202.192.04.195-.107.252-.202zM52.943 55.696c-.276-.176-.61.136-.805.05.002.45.82.355.805-.05zM42.274 56.05c-.19.3-.147.006-.453.05-.015.117.01.194.05.253.197.043.715-.063.404-.303zM45.294 56.554c.198.03.223-.113.25-.252-.154-.16-.41.097-.25.252zM45.042 56.403c.02.17-.223.08-.15.303.167.052.372-.287.15-.303zM33.216 56.504c.033.292.474.525.655.354-.042-.294-.284-.388-.654-.354zM35.984 57.716c.22-.266.558-.416.805-.656-.125-.18-.32-.286-.404-.505-.017.476-.546.69-.402 1.16zM96.22 56.757c.16.008.305.002.354-.102-.115.037-.393-.09-.353.102zM97.026 56.757c.003.07-.024.11-.05.15.183-.032.193.11.352.102-.01-.096.057-.112.05-.202-.16.024-.178-.092-.352-.05zM53.547 56.858c.21.05.01-.15 0 0zM56.666 57.11c-.227.187.086.366.05.657.292-.073-.013-.458-.05-.657zM92.397 57.514c.032.033-.022-.02 0 0zM34.827 57.716c-.065.067-.067.188.05.202-.008-.075.018-.186-.05-.202zM40.01 58.272c-.117.016-.194-.008-.252-.05-.155.36-.367 1.116.1 1.26.138-.315.265-.798.152-1.21zM89.326 58.372c.21.05.01-.15 0 0zM88.924 58.473c.033.034-.02-.02 0 0zM88.068 58.726c.21.048.01-.15 0 0zM87.967 58.827c.034.034-.02-.02 0 0zM87.314 58.928c.266.055.06-.153 0 0zM72.97 58.978c.107.113.052.387.303.354-.012-.156-.05-.286-.1-.404-.075.01-.186-.018-.202.05zM87.163 58.978c.21.05.01-.15 0 0zM28.89 58.978c-.004.065-.065.07-.05.152.123.08.146-.17.05-.152zM75.437 65.14c-.122-.265-.706-.067-.704-.455.097-.023.217.155.2-.05.02-1.442-.36-2.72-.905-3.787-.124.007-.243.007-.302-.05-.176-.365-.047-1.032-.453-1.163-.14-.023.04.275-.1.253.056-.292-.197-.273-.152-.555-.097-.016-.098.068-.15.1.008-.193-.002-.368-.1-.455-.418.505-.17 1.354.2 1.768.085-.102-.003-.375.102-.455.045.09.122.148.15.253-.41.292-.132.795.05 1.16-.582.77.56 1.824.152 2.728-.678-.418-1.38-.472-2.113-.706-.89-.284-2.194-.877-2.818-.96-.88-.116-1.694.55-2.516.455.127.136.345-.112.352.1-.128.14-.464.073-.503.302.645.067 1.436-.286 2.063-.403 1.028-.194 2.684.643 3.874.857.923.166 2.323.583 2.366 1.414.156-.128.083-.488.352-.504.016.068.072.096.05.202.26-.26.64.263.907-.05zM34.676 59.383c0-.12.257-.24.1-.354-.072.083-.325.274-.1.353zM61.146 59.282c.048.506.365-.094.503.252.254-.334-.243-.503-.504-.252zM47.407 59.686c.3.055.92.02.956-.353-.3-.096-.848-.024-.956.353zM33.82 59.534c-.12.146-.042.417.2.354 0-.12.088-.148.05-.303-.057-.043-.133-.067-.25-.05zM62.906 60.14c.36-.04.626-.01.655-.455-.26.052-.308 0-.603 0-.048.12-.166.324-.05.455zM28.94 59.786c-.006.03-.01.053-.01.068.008-.06.026-.188.01-.068zM28.93 59.854l-.004.025c0-.005 0-.013.004-.026zM73.776 59.736c-.218-.034-.135.234-.15.404.187.003.144-.225.15-.404zM28.335 60.292c.125.197.073-.168 0 0zM62.856 60.897c-.215-.037-.342-.16-.553-.202-.287.484.57.796.553.202zM67.033 60.897c-.12.17.17-.122 0 0zM77.048 61.15c-.11.15-.104.306-.15.606.29.026.37-.573.15-.607zM77.3 61.302c-.06.053-.02.232.05.302.022-.112.115-.273-.05-.302zM52.792 62.058c.006-.275-.014-.524-.1-.707-.12.212.004.553.1.708zM57.925 61.503c.032.187-.065.503.05.606.047-.097.145-.594-.05-.607zM99.844 61.705c.125.197.074-.167 0 0zM77.4 61.958c.008-.125.01-.245-.1-.253-.08.076-.074.288.1.253zM62.706 61.907c-.083-.055-.435-.06-.554.1.074.027.515.07.554-.1zM62.05 62.008c-.29.028-.66.02-.552.202.047-.07.52.028.553-.202zM97.43 62.362c.006.06-.01.143.05.15.03-.046.115-.185-.05-.15zM39.255 63.018c.17.064.208-.256.1-.303.013.148-.113.155-.1.303zM58.176 64.18c.095-.106.168-.418 0-.505-.028.11-.12.413 0 .505zM91.69 63.775c.034.033-.02-.02 0 0zM64.165 64.028c-.16.026-.178-.09-.353-.05.01.095-.057.112-.05.202.09.065.37-.004.403-.152zM39.255 64.735c-.243.075-.104-.232-.302-.202-.023.225.036.368.1.505.162-.007.222-.115.202-.303zM98.486 65.14c.037-.11.417.175.503-.05-.054-.067-.53-.13-.504.05zM88.974 65.088h-.453c.047.183.432.2.454 0zM94.56 65.14c.074.166.125-.198 0 0zM95.668 65.088c-.126.026-.304-.002-.303.15.154-.035.15.09.303.053.015-.1-.07-.1-.1-.15.038-.012.098-.002.1-.052zM98.586 65.24c.033.033-.02-.02 0 0zM57.472 65.745c.09-.027.394-.122.252.05.132.015.165-.07.15-.202-.18.006-.345.024-.402.152zM42.224 65.846c-.232-.063-.904-.133-1.057.05.04.012.06.044.05.102.316-.158.81.028 1.007-.152zM54.25 66.048c-.186-.196-.914-.24-1.408-.202-.013.115.012.19.1.202.054-.047.016-.187.152-.152.226.29.957.1 1.157.152zM51.232 65.998c-.204-.178-.12.162 0 0zM51.685 65.998v.15c.264.11.712.032.654-.2-.074.083-.515-.094-.655.05zM34.122 67.007c1.34-.287-.312-1.32 0 0zM79.01 66.35c.048.307.504.31.605.102-.18.074-.366-.088-.604-.1zM33.67 66.907c-.107-.112-.15.064-.303.05-.08-.34-.596-.734-.805-.253.1.135.527-.058.554.152.032.2-.133.203-.1.403.142.234.508.12.704 0 0-.135.018-.29-.05-.353zM37.796 67.613c-.015-.2.116-.254.1-.455-.807-.075-1.335-.584-2.012-.505-.244.707.24 1.09 1.006 1.06.182-.036.144-.293.352-.302.196.057.223.282.554.203zM54.3 66.856c-.003.35-.15.556-.15.91.18-.12.276-.823.15-.91zM35.28 67.815c.01-.04 0-.1.05-.1-.445-1.153-1.563.228-.05.1zM30.65 68.068c.2-.033.202.134.402.1.08-.322.39-.415.453-.756-.4-.08-.726.3-.855.656zM94.56 67.613c.005.312.22.097 0 0zM39.255 67.815c.008.06-.01.144.05.152.03-.047.117-.186-.05-.152zM62.756 68.775v.253c.306-.044.412-.032.755-.05-.028-.36-.594-.447-.804-.455.074.094.202.134.2.303-.064-.004-.07-.066-.15-.05zM72.67 68.522c-.11-.01-.16.04-.152.152h.15v-.152zM61.548 69.28c.273-.063.5-.174.755-.253.055-.224-.086-.25-.1-.404-.382.03-.807.257-.655.656zM35.28 69.027c-.318.052-.436.304-.655.455.29 0 .84 0 .654-.455zM62.906 69.582c-.007-.18-.16-.477-.302-.354.165.055.047.393.302.354zM36.185 69.28c-.003.064-.064.07-.05.15.124.08.148-.17.05-.15zM34.575 69.482c.022-.084-.188.004-.2.05.13-.06.215.156.2-.05zM35.08 69.582c.007.126-.08.157-.102.253h.302c.012-.165-.06-.243-.2-.253zM53.547 70.693c.083-.305.418-.835.2-1.11-.266.12-.352.9-.2 1.11zM70.103 69.683c-.136-.035-.097.104-.15.152.11.01.16-.04.15-.152zM33.92 69.936c.01.076-.017.186.05.202.066-.067.067-.188-.05-.202zM55.66 70.138c.045.263.594.336.654.05-.258-.025-.403-.144-.654-.05zM57.22 70.542c-.03-.25-.51-.447-.503-.05.185.072.396.007.503.05zM34.927 70.39c.012.173.095.275.152.404.532-.005.224-.76-.153-.404zM38.098 70.44c-.183.24.294.068 0 0zM38.5 70.845c-.02-.02.033.033 0 0zM43.784 71.047c.033.033-.02-.022 0 0zM29.744 71.248c.17.155.153-.186 0 0zM29.543 71.35c.076-.01.186.017.202-.05-.068-.066-.188-.067-.202.05zM34.575 71.35c.015.184-.008.328-.05.454.268-.016.327-.413.05-.455zM29.19 71.45c.268.056.06-.153 0 0zM42.98 71.502c.01.19.05.354.25.354-.01-.212.083-.24 0-.404-.116-.017-.193.007-.25.05zM28.385 71.703c-.02-.02.033.033 0 0zM39.155 71.905c.002.21.196.227.352.15-.002-.21-.196-.226-.352-.15zM33.518 72.46c.147-.02.163-.172.25-.25-.18-.015-.34.145-.25.25zM45.696 72.31c.142.396.314.763.353 1.262.005-.188.072-.127.2-.1 0 .303.068.405.1.605.128.78.088.007.152-.656-.437-.168-.35-1.13-.806-1.11zM78.558 72.46c.22.14.507.066.856.153.01-.04 0-.1.05-.1-.07-.33-.766-.312-.906-.052zM68.29 72.966c-.022-.213-.227-.242-.35-.354-.016.14-.207.362-.05.505.056-.027.358.025.4-.15zM67.788 72.713c0-.077-.373-.11-.302.05.09.065.332.173.302-.05zM60.693 74.784c-.122.168.17-.123 0 0zM74.43 74.784c-.066-.065-.185-.065-.25 0 .104.265.125.067.25 0zM72.317 75.036c-.29-.11-.464-.03-.805-.1-.042.058-.066.135-.05.252.325-.048.634.202.855-.152zM73.223 74.935c-.185-.05-.2.248-.05.253-.02-.122.092-.11.05-.253zM46.15.1h.15c-.016-.117-.06-.208-.1-.302-.132.02-.33.03-.252.15.09-.115.332.006.2.153zM43.532.1c.178.016-.213.102 0 .153.106-.183.163.1.252.1-.03-.09.148-.21 0-.252-.04.33-.136-.25-.252 0zM43.13.202c-.137.154.153-.137 0 0zM42.74 1.187c.018.03.016.022 0 0zM42.677.91c-.012.07-.083.084-.1.15.063-.015.136.084.164.127l-.013-.025c-.086-.13.058-.177-.05-.253zM46.905 1.212c-.004.07.01.193.05.1.066-.14-.2-.172-.05-.1zM47.56 1.92c.117-.002.147.086.3.05v-.556c-.074-.026-.126-.075-.2-.1-.246.282-.04.177-.1.605zM47.055 2.98c-.137.153.153-.138 0 0zM49.42 7.02c.63-.058.806-.573 1.46-.607.338-.52 1.6-.378 1.258-1.414-.6.007-.725.69-1.258.605-.14.24-.508.464-.654.404-.025.318-.55.49-.855.453.032.003.06.008.05.05-.04.216-.166.33 0 .506zM79.865 5.807c-.034-.203.212-.124.202-.303-.066 0-.046-.088-.1-.1-.062.076-.2.333-.102.403zM98.535 13.078c-.17-.108-.303.18-.352.354 1.217.51-.556 1.104-.553 1.616.044-.074.04-.195.2-.152-.036.118-.136.43.102.404.344-.446.828-.75 1.158-1.212.067.072.223.134.302.05-.212-1.38.06-2.607 1.208-2.978-1.033-1.386-1.56 1.193-2.065 1.918zM68.795 26.36c.605.242 1.233.037 1.912.2-.11-.443-.92-.187-1.157-.504-.306-.034-.958-.045-1.31-.303-.415.287-.804-.286-1.257.05-.81-.682-2.31-.367-3.12.152-.068-.117-.088-.282-.302-.253.01.16.115.222.1.404-.572.18-1.43.937-.704 1.515.148-.21-.06-.225-.15-.252 1.13-1.845 3.934-1.85 5.887-.757-.006-.124.027-.208.102-.25zM56.365 27.066c0-.028-.04-.057-.05 0 .1 0 .064.138.2.1-.01-.094.058-.11.052-.2-.16-.06-.123.078-.202.1zM86.277 30.253l.127.07c-.01-.005-.026-.013-.047-.026l-.08-.044zM86.422 30.334l-.018-.01c.01.004.015.008.018.01zM86.25 30.238l.01.005-.01-.005zM86.25 30.238c-.003-.003-.003-.003 0 0zM86.258 30.242l.013.008-.012-.008zM87.112 30.5c-.056-.1-.416-.152-.453-.102.06.01.03.056 0 .1.153.07.42.055.452 0zM40.362 36.104c.282-.12.398-.408.554-.656-.725.182-1.404.41-2.063.656.09-.006.118.05.1.152-.104.114-.468-.033-.452.202.282.176.406-.185.606-.253.32.44.874-.056 1.258.05-.24.095-.344.247-.352.455 1.364.295 1.528-1.004.35-.606zM29.694 38.074c.008-.06.08-.055.15-.05.042-.144-.07-.132-.05-.254.07.002.11-.024.15-.05.115.088.17.236.404.202-.05-.703.904.218.855-.404-.042-.537-1.452-.043-1.862.1.234.045.338.345.354.456zM59.837 39.184c-.002.154-.03.332.15.303.185-.22.622-.454.555-.758-.303.083-.337.436-.705.454zM50.75 39.524c.002.004.002.004 0 0zM50.75 39.524l-.02-.036-.046-.078.066.114zM27.702 39.59c-.02.03-.028.047 0 0zM27.738 39.526l-.007.012-.025.044.033-.056zM27.746 39.512l.007-.013-.007.012zM77.45 40.194c-.188-.035-.55.017-.402.152.024-.06.432.1.402-.152zM85.935 50.643l-.025.016.025-.017zM86.005 50.597l-.07.046.07-.046zM35.884 59.433c.152.138-.138-.154 0 0zM79.715 66.502c-.186.28.342.037 0 0zM35.028 68.573c.01-.072.082-.085.1-.152-.067-.015-.096-.07-.2-.05-.016.1.067.1.1.152-.028 0-.057.04 0 .05zM58.68 70.643c-.064-.127.025-.158-.05-.202-.115.223-.495-.103-.605.153.19.138.338.022.655.05zM43.633 71.804c.03-.25.186-.558.1-.606-.02.184-.236.433-.1.606z"/></g></g></svg>