<svg xmlns="http://www.w3.org/2000/svg" viewBox="0 0 100 100" enable-background="new 0 0 100 100"><g fill="#FFCD05"><path d="M38.146 54.496c0 6.105 8.717 9.65 20.514 10.99 7.38.837 14.613.24 21.84-1.156 4.702-5.008 8.842-10.485 12.127-16.265C107.052 22.685 99.66 1.187 76.12.047c-11.83-.573-25.484 4.105-37.974 12.12v42.33zM34.483 77.207c-11.674-2.16-15.385-8.303-15.385-18.316V28.096c-4.538 4.892-8.533 10.225-11.725 15.84C-7.052 69.316.34 90.816 23.88 91.956c12.593.61 27.253-4.732 40.376-13.713-11.11.558-22.936.23-29.773-1.035z"/></g></svg>