<svg xmlns="http://www.w3.org/2000/svg" viewBox="0 0 1000 720" enable-background="new 0 0 1000 720"><g><path d="M0 0l431.183 458.396V28.116h72.822v604.807L70.522 174.887v433.507H0V0zM844.276 67.977c54.934 0 106.167 19.798 153.693 59.407v-85.47C949.927 14.57 899.975.904 848.11.904c-80.237 0-150.502 29.763-210.802 89.303-60.306 59.533-90.453 133.122-90.453 220.766S577 472.206 637.308 531.74c60.3 59.54 130.564 89.302 210.8 89.302 51.87 0 101.82-13.666 149.86-41.01v-85.47c-47.525 39.61-98.758 59.407-153.692 59.407-61.582 0-114.473-22.997-158.676-68.99-44.975-47.01-67.456-105.017-67.456-174.006s22.48-126.996 67.456-174.006c44.202-45.994 97.094-68.99 158.676-68.99zM.498 655.485l43.118 45.84v-43.028h7.282v60.48L7.55 672.974v43.35H.498v-60.838zM62.06 658.296h7.167v58.028H62.06v-58.028zM80.503 655.485l43.118 45.84v-43.028h7.283v60.48l-43.348-45.802v43.35h-7.052v-60.84zM163.72 655.803l27.44 60.52h-7.658l-6.587-14.525H150.69l-6.586 14.526h-7.827l27.442-60.52zm.02 15.918l-10.11 23.41h20.386l-10.277-23.41zM265.2 704.94v8.547c-4.805 2.735-9.8 4.1-14.987 4.1-8.024 0-15.05-2.975-21.08-8.93-6.03-5.952-9.045-13.31-9.045-22.076 0-6.412 1.955-12.123 5.864-17.13 2.913-3.73 6.547-6.714 10.904-8.95 4.356-2.235 8.86-3.354 13.51-3.354 5.493 0 10.438 1.227 14.833 3.68v8.47c-4.447-3.834-9.57-5.75-15.37-5.75-6.21 0-11.53 2.37-15.963 7.11-4.434 4.74-6.65 10.048-6.65 15.925 0 6.9 2.248 12.7 6.746 17.402 4.42 4.6 9.71 6.9 15.868 6.9 5.493 0 10.616-1.98 15.37-5.942zM272.297 658.296h7.167v23.34h27.366v-23.34h7.167v58.028h-7.167v-27.94h-27.366v27.94h-7.167v-58.028zM352.102 657.146c8.355 0 15.42 2.926 21.195 8.777 1.456 1.456 2.683 2.926 3.68 4.408 3.448 5.06 5.173 10.708 5.173 16.942 0 5.468-1.29 10.483-3.87 15.044-2.582 4.56-6.21 8.247-10.886 11.057-4.676 2.81-9.773 4.216-15.293 4.216-5.365 0-10.373-1.367-15.023-4.102-4.65-2.734-8.31-6.44-10.98-11.115-2.67-4.676-4.006-9.71-4.006-15.1 0-5.392 1.31-10.393 3.93-15.006 2.62-4.612 6.24-8.284 10.866-11.02 4.624-2.734 9.697-4.1 15.216-4.1zm0 6.592c-4.216 0-8.055 1.035-11.517 3.104-3.463 2.07-6.242 4.958-8.336 8.662-2.046 3.603-3.067 7.526-3.067 11.767 0 4.192.983 8.076 2.95 11.652 2.02 3.655 4.804 6.535 8.356 8.643 3.55 2.108 7.42 3.162 11.612 3.162 4.14 0 7.946-1.035 11.422-3.105 3.474-2.07 6.26-4.918 8.355-8.547 2.094-3.628 3.142-7.563 3.142-11.805 0-4.114-1.035-8.05-3.105-11.805-2.07-3.756-4.855-6.67-8.355-8.74-3.424-1.99-7.244-2.987-11.46-2.987zM392.737 658.296h7.167v58.028h-7.167v-58.028zM446.667 658.296h9.007c3.78 0 7.154.256 10.118.767 4.037.69 7.115 2.555 9.237 5.596 1.966 2.784 2.95 6.298 2.95 10.54 0 5.9-2.12 10.297-6.362 13.184-3.526 2.402-7.526 3.603-11.996 3.603h-5.826v24.338h-7.282l.153-58.03zm10.272 6.44h-3.144v20.887h2.338c10.118.332 15.178-3.36 15.178-11.077 0-3.474-1.61-6.068-4.83-7.78-2.555-1.354-5.736-2.03-9.543-2.03zM486.69 658.296h7.166v23.34h27.366v-23.34h7.167v58.028h-7.168v-27.94h-27.366v27.94h-7.167v-58.028zM566.494 657.146c8.355 0 15.42 2.926 21.195 8.777 1.455 1.456 2.682 2.926 3.678 4.408 3.45 5.06 5.174 10.708 5.174 16.942 0 5.468-1.29 10.483-3.87 15.044-2.582 4.56-6.21 8.247-10.886 11.057-4.676 2.81-9.773 4.216-15.293 4.216-5.366 0-10.374-1.367-15.024-4.102-4.652-2.734-8.312-6.44-10.982-11.115-2.67-4.676-4.005-9.71-4.005-15.1 0-5.392 1.31-10.393 3.93-15.006 2.618-4.612 6.24-8.284 10.865-11.02 4.624-2.734 9.697-4.1 15.216-4.1zm0 6.592c-4.216 0-8.055 1.035-11.517 3.104-3.463 2.07-6.242 4.958-8.336 8.662-2.044 3.603-3.065 7.526-3.065 11.767 0 4.192.983 8.076 2.95 11.652 2.02 3.655 4.804 6.535 8.356 8.643 3.552 2.108 7.423 3.162 11.614 3.162 4.14 0 7.946-1.035 11.422-3.105 3.474-2.07 6.26-4.918 8.355-8.547 2.096-3.628 3.144-7.563 3.144-11.805 0-4.114-1.035-8.05-3.105-11.805-2.07-3.756-4.856-6.67-8.356-8.74-3.424-1.99-7.244-2.987-11.46-2.987zM609.98 664.888h-13.72v-6.592h34.455v6.592H617.07v51.435h-7.09v-51.435zM662.02 657.146c8.356 0 15.42 2.926 21.196 8.777 1.456 1.456 2.683 2.926 3.68 4.408 3.448 5.06 5.173 10.708 5.173 16.942 0 5.468-1.292 10.483-3.872 15.044-2.58 4.56-6.21 8.247-10.885 11.057-4.676 2.81-9.773 4.216-15.293 4.216-5.366 0-10.374-1.367-15.024-4.102-4.65-2.734-8.31-6.44-10.98-11.115-2.67-4.676-4.006-9.71-4.006-15.1 0-5.392 1.31-10.393 3.93-15.006 2.618-4.612 6.24-8.284 10.865-11.02 4.625-2.734 9.697-4.1 15.216-4.1zm0 6.592c-4.215 0-8.054 1.035-11.516 3.104-3.463 2.07-6.242 4.958-8.336 8.662-2.045 3.603-3.066 7.526-3.066 11.767 0 4.192.983 8.076 2.95 11.652 2.02 3.655 4.804 6.535 8.356 8.643 3.55 2.108 7.422 3.162 11.613 3.162 4.14 0 7.947-1.035 11.423-3.105 3.474-2.07 6.26-4.918 8.355-8.547 2.095-3.628 3.143-7.563 3.143-11.805 0-4.114-1.034-8.05-3.103-11.805-2.07-3.756-4.855-6.67-8.355-8.74-3.425-1.99-7.245-2.987-11.46-2.987zM732.628 686.965h22.766v2.568c0 8.075-2.67 14.833-8.01 20.275-2.376 2.428-5.264 4.357-8.662 5.787-3.5 1.507-6.9 2.197-10.195 2.07l-2.108-.077c-2.48-.103-4.55-.422-6.21-.958-3.808-1.277-7.385-3.347-10.732-6.21-1.278-1.097-2.543-2.503-3.794-4.215-4.395-5.98-6.592-12.392-6.592-19.24 0-4.47 1.265-9.134 3.794-13.99 3.73-7.154 9.326-11.945 16.787-14.373 2.99-.97 5.812-1.456 8.47-1.456 5.417 0 9.927.824 13.53 2.472 3.603 1.648 7.206 4.53 10.808 8.643l-5.25 4.87c-2.096-2.76-4.587-4.958-7.474-6.593-3.27-1.865-6.99-2.798-11.153-2.798-3.782 0-7.385 1.01-10.808 3.027-3.296 1.916-6.005 4.51-8.125 7.78-2.326 3.603-3.488 7.615-3.488 12.035l.153.383c0 4.165 1.035 8.14 3.105 11.92 2.095 3.86 4.906 6.836 8.432 8.93 3.424 2.045 6.694 3.066 9.812 3.066 7.026 0 12.622-2.848 16.787-8.546 2.147-2.938 3.22-5.838 3.22-8.7H732.63v-6.67zM764.486 658.296h10.272c6.77 0 11.56 1.047 14.373 3.142 4.447 3.32 6.67 7.688 6.67 13.1 0 4.19-1.25 7.83-3.75 10.92-2.577 3.243-5.906 5.096-9.988 5.555l18.1 25.31h-8.54l-17.016-24.49h-2.99v24.49h-7.13v-58.027zm7.13 6.44v21.117c8.073 0 13.21-1.354 15.407-4.063 1.405-1.71 2.108-3.96 2.108-6.746 0-6.873-5.058-10.31-15.177-10.31h-2.338zM831.412 655.803l27.44 60.52h-7.657l-6.587-14.525h-26.226l-6.586 14.526h-7.827l27.442-60.52zm.02 15.918l-10.108 23.41h20.386l-10.277-23.41zM867.564 658.296h9.007c3.782 0 7.155.256 10.12.767 4.036.69 7.114 2.555 9.236 5.596 1.967 2.784 2.95 6.298 2.95 10.54 0 5.9-2.12 10.297-6.36 13.184-3.527 2.402-7.527 3.603-11.997 3.603h-5.827v24.338h-7.282l.154-58.03zm10.27 6.44h-3.142v20.887h2.338c10.118.332 15.178-3.36 15.178-11.077 0-3.474-1.61-6.068-4.83-7.78-2.555-1.354-5.736-2.03-9.543-2.03zM907.585 658.296h7.167v23.34h27.366v-23.34h7.167v58.028h-7.167v-27.94h-27.366v27.94h-7.167v-58.028zM974.13 691.028l-18.82-32.732h8.268l14.065 24.774 14.185-24.774H1000l-18.742 32.733v25.294h-7.13v-25.296z" fill="#231F20"/><path fill="none" stroke="#fff" stroke-linecap="square" stroke-miterlimit="10" d="M0 608.394V0l431.183 458.396V28.116"/><path fill="none" stroke="#fff" stroke-width="1.444" stroke-linecap="square" stroke-miterlimit="10" d="M435.23 28.117v439.975L3.917 9.716v598.678"/><path fill="none" stroke="#fff" stroke-width="1.889" stroke-linecap="square" stroke-miterlimit="10" d="M439.275 28.117v449.67L7.835 19.433v588.962"/><path fill="none" stroke="#fff" stroke-width="2.333" stroke-linecap="square" stroke-miterlimit="10" d="M443.32 28.117v459.367L11.754 29.148v579.246"/><path fill="none" stroke="#fff" stroke-width="2.778" stroke-linecap="square" stroke-miterlimit="10" d="M447.366 28.117V497.18L15.672 38.864v569.53"/><path fill="none" stroke="#fff" stroke-width="3.222" stroke-linecap="square" stroke-miterlimit="10" d="M451.41 28.117v478.76L19.59 48.58v559.814"/><path fill="none" stroke="#fff" stroke-width="3.667" stroke-linecap="square" stroke-miterlimit="10" d="M455.457 28.117V516.57L23.507 58.297v550.098"/><path fill="none" stroke="#fff" stroke-width="4.111" stroke-linecap="square" stroke-miterlimit="10" d="M459.503 28.117v498.15L27.425 68.012v540.382"/><path fill="none" stroke="#fff" stroke-width="4.556" stroke-linecap="square" stroke-miterlimit="10" d="M463.55 28.117v507.846L31.342 77.728v530.666"/><path fill="none" stroke="#fff" stroke-width="5" stroke-linecap="square" stroke-miterlimit="10" d="M467.594 28.117V545.66L35.26 87.442v520.95M467.594 28.117V545.66L35.26 87.442v520.95"/><path fill="none" stroke="#fff" stroke-width="4.556" stroke-linecap="square" stroke-miterlimit="10" d="M471.64 28.117v527.238L39.18 97.16v511.234"/><path fill="none" stroke="#fff" stroke-width="4.111" stroke-linecap="square" stroke-miterlimit="10" d="M475.686 28.117V565.05L43.096 106.876v501.52"/><path fill="none" stroke="#fff" stroke-width="3.667" stroke-linecap="square" stroke-miterlimit="10" d="M479.73 28.117v546.63L47.016 116.59v491.804"/><path fill="none" stroke="#fff" stroke-width="3.222" stroke-linecap="square" stroke-miterlimit="10" d="M483.777 28.117v556.326L50.933 126.307v482.087"/><path fill="none" stroke="#fff" stroke-width="2.778" stroke-linecap="square" stroke-miterlimit="10" d="M487.823 28.117V594.14L54.85 136.022v472.37"/><path fill="none" stroke="#fff" stroke-width="2.333" stroke-linecap="square" stroke-miterlimit="10" d="M491.868 28.117v575.718L58.768 145.74v462.654"/><path fill="none" stroke="#fff" stroke-width="1.889" stroke-linecap="square" stroke-miterlimit="10" d="M495.914 28.117V613.53L62.687 155.456v452.94"/><path fill="none" stroke="#fff" stroke-width="1.444" stroke-linecap="square" stroke-miterlimit="10" d="M499.96 28.117v595.11L66.604 165.17v443.224"/><path fill="none" stroke="#fff" stroke-linecap="square" stroke-miterlimit="10" d="M504.005 28.117v604.806L70.522 174.887v433.507M997.97 127.385c-47.527-39.61-98.76-59.407-153.694-59.407-61.582 0-114.473 22.996-158.675 68.99-44.974 47.01-67.455 105.016-67.455 174.005S640.625 437.97 685.6 484.98c44.203 45.992 97.095 68.988 158.676 68.988 54.934 0 106.167-19.798 153.693-59.407"/><path d="M997.97 123.11c-47.553-38.995-98.722-58.487-153.502-58.487-62.514 0-116.275 23.335-161.282 70.005-45.742 47.637-68.606 106.422-68.606 176.344s22.864 128.708 68.606 176.344c45.007 46.67 98.767 70.005 161.282 70.005 54.78 0 105.95-19.49 153.5-58.487" fill="none" stroke="#fff" stroke-width="1.4" stroke-linecap="square" stroke-miterlimit="10"/><path d="M997.97 118.838C950.39 80.455 899.286 61.27 844.66 61.27c-63.448 0-118.077 23.673-163.89 71.02-46.507 48.264-69.755 107.828-69.755 178.683s23.247 130.42 69.756 178.682c45.813 47.348 100.442 71.02 163.89 71.02 54.626 0 105.73-19.184 153.31-57.567" fill="none" stroke="#fff" stroke-width="1.8" stroke-linecap="square" stroke-miterlimit="10"/><path d="M997.97 114.564c-47.604-37.77-98.645-56.648-153.12-56.648-64.38 0-119.877 24.01-166.493 72.036-47.275 48.89-70.906 109.233-70.906 181.02s23.632 132.13 70.907 181.02c46.617 48.025 102.114 72.036 166.494 72.036 54.475 0 105.516-18.878 153.12-56.648" fill="none" stroke="#fff" stroke-width="2.2" stroke-linecap="square" stroke-miterlimit="10"/><path d="M997.97 110.29c-47.63-37.155-98.607-55.727-152.927-55.727-65.313 0-121.68 24.35-169.1 73.052-48.04 49.515-72.055 110.638-72.055 183.358s24.014 133.843 72.055 183.358c47.422 48.703 103.788 73.053 169.1 73.053 54.32 0 105.297-18.572 152.926-55.728" fill="none" stroke="#fff" stroke-width="2.6" stroke-linecap="square" stroke-miterlimit="10"/><path d="M997.97 106.017C950.313 69.474 899.4 51.21 845.233 51.21c-66.245 0-123.48 24.687-171.707 74.067-48.808 50.14-73.205 112.043-73.205 185.696s24.397 135.555 73.205 185.696c48.226 49.38 105.46 74.067 171.707 74.067 54.167 0 105.08-18.265 152.735-54.808" fill="none" stroke="#fff" stroke-width="3" stroke-linecap="square" stroke-miterlimit="10"/><path d="M997.97 101.744c-47.682-35.93-98.53-53.888-152.544-53.888-67.178 0-125.282 25.026-174.313 75.083-49.575 50.766-74.355 113.447-74.355 188.033s24.78 137.267 74.355 188.034c49.03 50.057 107.135 75.083 174.313 75.083 54.014 0 104.862-17.958 152.543-53.888" fill="none" stroke="#fff" stroke-width="3.4" stroke-linecap="square" stroke-miterlimit="10"/><path d="M997.97 97.47c-47.707-35.317-98.492-52.968-152.352-52.968-68.11 0-127.083 25.365-176.92 76.1-50.34 51.392-75.504 114.853-75.504 190.37s25.164 138.98 75.505 190.373c49.835 50.734 108.807 76.1 176.918 76.1 53.86 0 104.645-17.653 152.35-52.97" fill="none" stroke="#fff" stroke-width="3.8" stroke-linecap="square" stroke-miterlimit="10"/><path d="M997.97 93.197c-47.733-34.704-98.454-52.05-152.16-52.05-69.045 0-128.885 25.704-179.527 77.116-51.108 52.02-76.655 116.26-76.655 192.71s25.547 140.69 76.655 192.71c50.64 51.412 110.482 77.115 179.526 77.115 53.706 0 104.427-17.345 152.16-52.05" fill="none" stroke="#fff" stroke-width="4.2" stroke-linecap="square" stroke-miterlimit="10"/><path d="M997.97 88.923c-47.76-34.09-98.415-51.13-151.97-51.13-69.975 0-130.685 26.042-182.13 78.13-51.875 52.647-77.806 117.665-77.806 195.05s25.93 142.4 77.805 195.047c51.445 52.09 112.154 78.13 182.13 78.13 53.555 0 104.21-17.038 151.97-51.13" fill="none" stroke="#fff" stroke-width="4.6" stroke-linecap="square" stroke-miterlimit="10"/><path d="M997.97 84.65c-47.785-33.477-98.377-50.21-151.777-50.21-70.91 0-132.487 26.38-184.738 79.147-52.642 53.272-78.955 119.07-78.955 197.386s26.314 144.114 78.954 197.386c52.25 52.765 113.83 79.145 184.738 79.145 53.4 0 103.993-16.732 151.776-50.21M997.97 84.65c-47.785-33.477-98.377-50.21-151.777-50.21-70.91 0-132.487 26.38-184.738 79.147-52.642 53.272-78.955 119.07-78.955 197.386s26.314 144.114 78.954 197.386c52.25 52.765 113.83 79.145 184.738 79.145 53.4 0 103.993-16.732 151.776-50.21" fill="none" stroke="#fff" stroke-width="5" stroke-linecap="square" stroke-miterlimit="10"/><path d="M997.97 80.376c-47.81-32.864-98.34-49.29-151.586-49.29-71.842 0-134.29 26.72-187.344 80.163-53.407 53.897-80.104 120.474-80.104 199.723S605.633 456.8 659.04 510.697c53.056 53.444 115.503 80.162 187.344 80.162 53.247 0 103.775-16.426 151.585-49.29" fill="none" stroke="#fff" stroke-width="4.6" stroke-linecap="square" stroke-miterlimit="10"/><path d="M997.97 76.103c-47.836-32.25-98.3-48.37-151.394-48.37-72.775 0-136.09 27.057-189.95 81.178-54.175 54.525-81.255 121.88-81.255 202.063s27.08 147.538 81.255 202.062c53.86 54.12 117.176 81.177 189.95 81.177 53.095 0 103.56-16.12 151.394-48.37" fill="none" stroke="#fff" stroke-width="4.2" stroke-linecap="square" stroke-miterlimit="10"/><path d="M997.97 71.83c-47.862-31.638-98.262-47.45-151.203-47.45-73.707 0-137.89 27.395-192.557 82.193-54.94 55.15-82.404 123.285-82.404 204.4s27.463 149.25 82.404 204.4c54.665 54.798 118.85 82.193 192.557 82.193 52.94 0 103.34-15.812 151.202-47.45" fill="none" stroke="#fff" stroke-width="3.8" stroke-linecap="square" stroke-miterlimit="10"/><path d="M997.97 67.556c-47.888-31.024-98.224-46.53-151.01-46.53-74.64 0-139.694 27.734-195.164 83.21-55.707 55.776-83.554 124.69-83.554 206.738s27.847 150.962 83.554 206.738c55.47 55.476 120.523 83.21 195.163 83.21 52.786 0 103.122-15.506 151.01-46.53" fill="none" stroke="#fff" stroke-width="3.4" stroke-linecap="square" stroke-miterlimit="10"/><path d="M997.97 63.282c-47.914-30.41-98.185-45.61-150.82-45.61-75.572 0-141.493 28.07-197.768 84.224-56.474 56.402-84.704 126.095-84.704 209.076s28.23 152.674 84.704 209.076c56.275 56.153 122.197 84.224 197.77 84.224 52.633 0 102.905-15.2 150.817-45.61" fill="none" stroke="#fff" stroke-width="3" stroke-linecap="square" stroke-miterlimit="10"/><path d="M997.97 59.01c-47.94-29.8-98.147-44.69-150.628-44.69-76.505 0-143.296 28.41-200.376 85.24-57.24 57.027-85.853 127.5-85.853 211.413s28.613 154.385 85.853 211.414c57.08 56.83 123.87 85.24 200.376 85.24 52.48 0 102.688-14.892 150.627-44.69" fill="none" stroke="#fff" stroke-width="2.6" stroke-linecap="square" stroke-miterlimit="10"/><path d="M997.97 54.735c-47.965-29.184-98.11-43.77-150.436-43.77-77.438 0-145.097 28.748-202.982 86.256-58.007 57.656-87.003 128.907-87.003 213.753s28.996 156.097 87.002 213.752c57.885 57.508 125.544 86.256 202.982 86.256 52.327 0 102.47-14.584 150.435-43.77" fill="none" stroke="#fff" stroke-width="2.2" stroke-linecap="square" stroke-miterlimit="10"/><path d="M997.97 50.462c-47.99-28.57-98.07-42.85-150.244-42.85-78.37 0-146.898 29.086-205.588 87.27-58.773 58.282-88.153 130.312-88.153 216.09s29.38 157.81 88.153 216.09c58.69 58.186 127.217 87.272 205.588 87.272 52.174 0 102.253-14.28 150.243-42.85" fill="none" stroke="#fff" stroke-width="1.8" stroke-linecap="square" stroke-miterlimit="10"/><path d="M997.97 46.188c-48.017-27.958-98.032-41.93-150.053-41.93-79.304 0-148.7 29.425-208.194 88.287-59.54 58.907-89.303 131.716-89.303 218.428s29.763 159.52 89.303 218.428c59.495 58.863 128.89 88.288 208.194 88.288 52.02 0 102.036-13.972 150.052-41.93" fill="none" stroke="#fff" stroke-width="1.4" stroke-linecap="square" stroke-miterlimit="10"/><path d="M997.97 580.03c-48.042 27.346-97.994 41.01-149.86 41.01-80.237 0-150.502-29.762-210.802-89.302-60.306-59.533-90.453-133.122-90.453-220.766S577 149.74 637.308 90.206c60.3-59.54 130.564-89.303 210.8-89.303 51.87 0 101.82 13.666 149.86 41.01" fill="none" stroke="#fff" stroke-linecap="square" stroke-miterlimit="10"/></g></svg>