<?xml version="1.0" encoding="utf-8"?>
<!-- Generator: Adobe Illustrator 23.0.2, SVG Export Plug-In . SVG Version: 6.00 Build 0)  -->
<svg version="1.1" id="Layer_1" xmlns="http://www.w3.org/2000/svg" xmlns:xlink="http://www.w3.org/1999/xlink" x="0px" y="0px"
	 viewBox="0 0 100 40" style="enable-background:new 0 0 100 40;" xml:space="preserve">
<style type="text/css">
	.st0{fill:url(#SVGID_1_);}
	.st1{fill:url(#SVGID_2_);}
	.st2{enable-background:new    ;}
	.st3{fill:#90805D;}
	.st4{fill-rule:evenodd;clip-rule:evenodd;fill:#90805D;}
</style>
<g id="logo_x5F_conquer">
	<g>
		
			<linearGradient id="SVGID_1_" gradientUnits="userSpaceOnUse" x1="0.4545" y1="14.727" x2="0.4545" y2="42" gradientTransform="matrix(1 0 0 -1 0 42)">
			<stop  offset="0" style="stop-color:#90805D;stop-opacity:0"/>
			<stop  offset="0.5" style="stop-color:#90805D"/>
			<stop  offset="1" style="stop-color:#90805D;stop-opacity:0"/>
		</linearGradient>
		<rect class="st0" width="0.9" height="27.3"/>
	</g>
	<g>
		
			<linearGradient id="SVGID_2_" gradientUnits="userSpaceOnUse" x1="95.9095" y1="14.727" x2="95.9095" y2="42" gradientTransform="matrix(1 0 0 -1 0 42)">
			<stop  offset="0" style="stop-color:#90805D;stop-opacity:0"/>
			<stop  offset="0.5" style="stop-color:#90805D"/>
			<stop  offset="1" style="stop-color:#90805D;stop-opacity:0"/>
		</linearGradient>
		<rect x="95.5" class="st1" width="0.9" height="27.3"/>
	</g>
	<g class="st2">
		<path class="st3" d="M11.5,13.4L11.5,13.4c0-2.8,2.1-5,5-5c2,0,3.2,0.8,4.1,2l-2,1.5c-0.5-0.7-1.2-1.1-2.1-1.1
			c-1.3,0-2.3,1.1-2.3,2.5v0c0,1.4,0.9,2.6,2.3,2.6c1,0,1.6-0.5,2.2-1.2l2,1.4c-0.9,1.2-2.1,2.2-4.2,2.2
			C13.7,18.3,11.5,16.2,11.5,13.4z"/>
		<path class="st3" d="M21.2,13.4L21.2,13.4c0-2.8,2.2-5,5.2-5s5.1,2.2,5.1,4.9v0c0,2.7-2.2,5-5.2,5C23.4,18.3,21.2,16.1,21.2,13.4z
			 M28.8,13.4L28.8,13.4c0-1.4-1-2.6-2.5-2.6c-1.4,0-2.4,1.2-2.4,2.6v0c0,1.4,1,2.6,2.4,2.6C27.8,15.9,28.8,14.8,28.8,13.4z"/>
		<path class="st3" d="M32.9,8.6h2.5l3.9,5v-5h2.6v9.5h-2.3l-4.1-5.2v5.2h-2.6V8.6z"/>
		<path class="st3" d="M51.3,17.5c-0.8,0.5-1.8,0.8-2.9,0.8c-2.9,0-5.1-2.2-5.1-4.9v0c0-2.7,2.2-5,5.2-5c2.9,0,5.1,2.2,5.1,4.9v0
			c0,1-0.3,2-0.8,2.7l1,0.8l-1.3,1.5L51.3,17.5z M49.4,15.8L48,14.7l1.3-1.5l1.3,1.2c0.1-0.3,0.2-0.6,0.2-0.9v0c0-1.4-1-2.6-2.5-2.6
			c-1.4,0-2.4,1.2-2.4,2.6v0c0,1.4,1,2.6,2.4,2.6C48.7,16,49.1,15.9,49.4,15.8z"/>
		<path class="st3" d="M54.8,13.9V8.6h2.7v5.3c0,1.4,0.7,2,1.8,2c1.1,0,1.8-0.6,1.8-2V8.6h2.7v5.3c0,3.1-1.8,4.4-4.5,4.4
			S54.8,16.9,54.8,13.9z"/>
		<path class="st3" d="M65.2,8.6h7.7v2.3h-5.1v1.4h4.6v2.1h-4.6v1.5H73v2.3h-7.7V8.6z"/>
		<path class="st3" d="M74.3,8.6h4.5c1.5,0,2.5,0.4,3.1,1c0.6,0.5,0.8,1.3,0.8,2.2v0c0,1.5-0.8,2.4-2,2.9l2.3,3.3H80l-1.9-2.9h0H77
			v2.9h-2.6V8.6z M78.7,13.2c0.9,0,1.4-0.4,1.4-1.1v0c0-0.8-0.5-1.1-1.4-1.1H77v2.3H78.7z"/>
	</g>
	<g class="st2">
		<path class="st3" d="M54.2,20.6h2.1c0.6,0,1,0.2,1.3,0.4c0.2,0.2,0.3,0.5,0.3,0.8v0c0,0.6-0.4,1-0.8,1.1c0.6,0.2,1.1,0.5,1.1,1.2
			v0c0,0.8-0.7,1.3-1.8,1.3h-2.2V20.6z M56.2,22.8c0.7,0,1.1-0.3,1.1-0.9v0c0-0.5-0.4-0.8-1.1-0.8h-1.5v1.7H56.2z M56.4,25
			c0.7,0,1.2-0.3,1.2-0.9v0c0-0.5-0.4-0.8-1.3-0.8h-1.5V25H56.4z"/>
		<path class="st3" d="M59.2,20.6h3.5v0.5h-3v1.7h2.7v0.5h-2.7V25h3v0.5h-3.6V20.6z"/>
		<path class="st3" d="M65.8,20.5h0.5l2.2,4.9h-0.6l-0.6-1.3h-2.7l-0.6,1.3h-0.6L65.8,20.5z M67.1,23.7L66,21.2l-1.1,2.5H67.1z"/>
		<path class="st3" d="M69.2,23.4v-2.9h0.6v2.8c0,1.1,0.6,1.7,1.5,1.7c0.9,0,1.5-0.5,1.5-1.6v-2.9h0.6v2.8c0,1.4-0.8,2.2-2,2.2
			C70,25.6,69.2,24.8,69.2,23.4z"/>
		<path class="st3" d="M75.9,21.1h-1.6v-0.5h3.9v0.5h-1.6v4.4h-0.6V21.1z"/>
		<path class="st3" d="M80.7,23.5l-2-3h0.7L81,23l1.7-2.5h0.6l-2,3v1.9h-0.6V23.5z"/>
	</g>
	<g>
		<g>
			<g>
				<path class="st4" d="M79,35.3c0,0,0.1,0,0.1-0.1c0.1-0.1,0.3,0,0.4,0.2c0,0.1,0,0.2,0.1,0.3c0,0.1,0.1,0.2,0.2,0.3
					c0.1-0.1,0.1-0.1,0.1-0.2c0.1-0.4,0.2-0.7,0.3-1c0-0.1,0.1-0.2,0.2-0.2c0,0,0-0.1-0.1-0.1c-0.1-0.1-0.1-0.1,0-0.2
					c0-0.1,0.1-0.1,0.2-0.1c0.1,0,0.3,0,0.4,0c0.1,0,0.3,0,0.4,0c0.1,0,0.1,0,0.1-0.1c0-0.3,0-0.6,0-0.8c0-0.2,0-0.4,0-0.6
					c0-0.2,0-0.3,0-0.5c0-0.1,0.1-0.2,0.2-0.2c0.1,0,0.2,0.1,0.2,0.2c0,0.1,0,0.2,0,0.2c-0.1,0.4-0.1,0.7,0,1.1c0,0,0,0.1,0,0.1
					c0,0.2,0,0.4,0,0.6c0.1,0,0.2,0.1,0.3,0.1c0.3,0.1,0.5,0.2,0.6,0.4c0.1,0.1,0.1,0.1,0.2,0.1c0.1,0,0.3,0,0.4,0
					c0.1,0.1,0.3,0.2,0.3,0.3c0.1,0.1,0.2,0.2,0.2,0.4c0-0.1,0-0.1,0-0.2c0-0.2,0.1-0.4,0.1-0.6c0-0.1,0.1-0.2,0.2-0.2
					c0.1,0,0.2,0,0.3,0.1c0.1,0.1,0.1,0.2,0.1,0.3c0.1,0.2,0.2,0.4,0.3,0.6c0.1,0.2,0.3,0.3,0.4,0.3c0.3,0.1,0.7,0.2,1.1,0.2
					c0.3,0,0.5,0,0.8-0.1c0.1,0,0.2,0,0.4-0.1c0.1,0,0.1-0.1,0.1-0.1c0.1-0.1,0.2-0.1,0.3-0.1c0.1,0,0.2,0.1,0.2,0.2
					c0,0.1,0,0.2-0.2,0.3c-0.2,0.1-0.4,0.1-0.6,0.2c-0.6,0.1-1.1,0.1-1.7,0.1c-0.3,0-0.6-0.1-0.9-0.3c-0.3-0.2-0.5-0.4-0.6-0.7
					c0,0.1,0,0.2,0,0.2c0,0.2,0,0.3-0.1,0.5c0,0.1,0,0.3,0,0.4c0,0.1,0,0.2-0.2,0.3c-0.2,0.1-0.3,0-0.3-0.1c0,0,0,0,0-0.1
					c-0.1,0.1-0.2,0.1-0.2,0.2c-0.2,0.1-0.4,0-0.5-0.2c-0.1-0.1-0.1-0.3-0.2-0.4c0-0.1-0.1-0.3-0.1-0.4c0-0.3-0.1-0.6-0.3-0.9
					c-0.1-0.2-0.3-0.3-0.5-0.4c0,0.1,0,0.1,0,0.1c0,0.2,0,0.5,0,0.7c0,0.2,0.1,0.3,0.1,0.5c0,0.1,0,0.3,0,0.4c0,0.1-0.1,0.1-0.1,0.2
					c-0.1,0.1-0.3,0-0.3-0.1c0-0.1,0-0.2,0-0.2c0-0.2,0-0.5,0-0.7c0-0.3,0-0.6-0.1-0.9c0-0.1,0-0.1-0.1-0.1c-0.1,0-0.1,0-0.1,0.1
					c0,0,0,0.1,0,0.1c0,0.1,0,0.2-0.2,0.2c-0.1,0-0.2,0-0.2-0.1c0,0,0,0-0.1-0.1c-0.1,0-0.2,0.1-0.2,0.2c-0.2,0.2-0.2,0.5-0.3,0.8
					c0,0.2,0,0.3-0.1,0.5c0,0.1,0,0.1,0,0.2c0,0,0,0.1,0,0.1c0,0.1,0,0.2-0.1,0.3c-0.1,0.1-0.3,0.1-0.4,0c0,0,0-0.1,0-0.1
					c0-0.1-0.1-0.2-0.1-0.2c-0.1-0.1-0.2-0.2-0.4-0.3c-0.1,0-0.1,0.1-0.1,0.2c-0.1,0.2-0.3,0.3-0.5,0.5c-0.2,0.1-0.4,0.1-0.5-0.1
					c-0.1-0.2-0.2-0.3-0.3-0.4c-0.1-0.2-0.3-0.4-0.3-0.7c-0.1-0.2-0.1-0.4-0.2-0.6c0,0,0,0,0-0.1c0,0,0,0.1,0,0.1
					c0,0.3-0.1,0.6-0.1,0.8c-0.1,0.3-0.1,0.7-0.2,1c0,0.2-0.1,0.4-0.1,0.5c0,0.1-0.1,0.2-0.3,0.2c-0.1,0-0.2-0.1-0.2-0.2
					c0-0.1-0.1-0.2-0.1-0.4c0-0.2-0.1-0.4-0.1-0.6c-0.1,0-0.1,0.1-0.1,0.1c-0.2,0.2-0.6,0.2-0.9,0c-0.3-0.2-0.6-0.5-0.7-0.9
					c0-0.1-0.1-0.2-0.1-0.2c0,0,0,0,0,0c0,0.1,0,0.1-0.1,0.2c-0.1,0.3-0.2,0.7-0.3,1c-0.1,0.2-0.3,0.3-0.5,0.1
					c-0.1-0.1-0.1-0.2-0.2-0.3C73,35.9,73,35.5,72.9,35c0-0.5,0-1,0-1.6c0-0.4,0-0.8,0-1.2c0-0.1,0-0.2,0-0.4c0-0.1,0.1-0.2,0.2-0.2
					c0.1,0,0.2,0.1,0.2,0.2c0,0.2,0,0.4,0,0.7c0,0.3,0,0.6,0,0.9c0,0.4,0,0.8,0,1.1c0,0.2,0,0.4,0,0.7c0,0.2,0,0.3,0.1,0.5
					c0,0.1,0.1,0.3,0.1,0.4c0,0,0,0,0,0c0.1-0.2,0.2-0.5,0.2-0.7c0.1-0.3,0.1-0.6,0.2-0.9c0-0.1,0-0.1,0-0.2c0-0.1,0.1-0.2,0.2-0.2
					c0.1,0,0.2,0,0.3,0.2c0.1,0.2,0.1,0.4,0.1,0.5c0,0.2,0.1,0.4,0.1,0.7c0,0.1,0.1,0.3,0.2,0.4c0.1,0.2,0.3,0.3,0.5,0.4
					c0.2,0.1,0.3,0,0.4-0.2c0-0.1,0.1-0.2,0.2-0.3c0,0,0-0.1,0-0.1c0-0.3,0-0.6,0-0.9c0-0.2,0-0.4,0-0.6c0-0.2,0-0.5,0-0.8
					c0-0.2,0-0.4,0-0.6c0-0.2,0-0.4,0-0.6c0-0.5,0.1-0.9,0.1-1.4c0-0.2,0-0.3,0.1-0.5c0-0.1,0.1-0.3,0.2-0.4c0,0,0.1-0.1,0.1,0
					c0,0,0.1,0.1,0.1,0.1c0,0.1,0,0.1,0,0.2c-0.1,0.6-0.1,1.1-0.1,1.7c0,0.3,0,0.5,0,0.8c0,0.2,0,0.4,0,0.6c0,0.2,0,0.5,0,0.7
					c0,0.3,0,0.6,0,0.9c0,0.4,0.1,0.8,0.1,1.2c0,0.1,0,0.2,0,0.3c0,0,0,0,0,0c0,0,0-0.1,0-0.1c0-0.2,0.1-0.5,0.1-0.7
					c0.1-0.3,0.1-0.7,0.2-1c0-0.1,0-0.2,0-0.3c0.1-0.2,0.3-0.3,0.4-0.1c0.1,0.1,0.2,0.2,0.2,0.3c0.1,0.3,0.2,0.5,0.3,0.8
					c0,0.1,0.1,0.2,0.2,0.3c0,0,0-0.1,0-0.1c0,0,0-0.1,0-0.1c0.1-0.3,0.2-0.5,0.4-0.7c0.1-0.1,0.4-0.1,0.5,0.1c0,0.1,0,0.2,0.1,0.3
					C79,35.1,79,35.2,79,35.3C79,35.3,79,35.3,79,35.3z M83.1,35.5c0,0.1,0,0.1,0,0.2c0,0.1,0,0.2,0.1,0.3c0,0.1,0,0.2,0.1,0.3
					c0,0,0,0.1,0.1,0.1C83.5,36.1,83.4,35.7,83.1,35.5z M78.4,35.9c0.1-0.2,0.2-0.4,0.2-0.6c0,0,0-0.1,0-0.1
					C78.5,35.3,78.4,35.7,78.4,35.9z M78.9,35.7c0.1-0.1,0.1-0.2,0-0.3c0,0.1,0,0.1,0,0.2C79,35.6,79,35.6,78.9,35.7z"/>
				<path class="st4" d="M91.1,35C91.1,35,91.1,35,91.1,35c0.2-0.3,0.4-0.5,0.6-0.6c0.3-0.2,0.5-0.3,0.9-0.1
					c0.2,0.1,0.3,0.3,0.4,0.4c0.1,0.1,0.1,0.3,0.2,0.5c0,0.1,0.1,0.1,0.1,0.1c0.2,0.1,0.2,0.1,0.1,0.3c0,0,0,0.1,0,0.1
					c-0.1,0.1-0.1,0.1-0.3,0.1c-0.1,0-0.2-0.1-0.2-0.3c-0.1-0.3-0.2-0.5-0.3-0.7c-0.1-0.1-0.2-0.2-0.4-0.1c-0.2,0.1-0.4,0.2-0.5,0.4
					c-0.1,0.2-0.2,0.3-0.3,0.5c0,0.1,0,0.1,0,0.2c0.1,0.4,0.2,0.7,0.2,1.1c0,0.1,0,0.3,0.1,0.4c0,0,0,0.1,0,0.1c0,0.1,0,0.2,0,0.4
					c0,0.1,0,0.3,0,0.4c0,0.2,0,0.4,0,0.6c0,0.2,0,0.4-0.1,0.5c0,0.1,0,0.2-0.1,0.3c-0.1,0.1-0.2,0.2-0.3,0.2c-0.1,0.1-0.2,0-0.3,0
					c-0.1,0-0.1-0.1-0.2-0.1c-0.1-0.1-0.2-0.2-0.3-0.3c0,0,0,0,0-0.1c0-0.1,0-0.1-0.1-0.2c-0.1-0.2-0.1-0.5-0.2-0.8
					c0-0.3,0-0.7,0.1-1c0-0.3,0.1-0.5,0.2-0.8c0.1-0.3,0.2-0.5,0.3-0.8c0.1-0.2,0.1-0.4,0-0.6c-0.1-0.1-0.1-0.3-0.1-0.4
					c-0.1-0.2-0.2-0.4-0.2-0.7c-0.1-0.2-0.1-0.4-0.2-0.6c-0.1-0.5-0.3-1-0.4-1.5c-0.1-0.3-0.1-0.5-0.2-0.8c0-0.1,0-0.2-0.1-0.3
					c-0.1,0.1-0.1,0.2-0.1,0.2c0,0.3-0.1,0.6-0.1,0.9c0,0.2,0,0.4,0,0.6c0,0.4-0.1,0.9,0,1.3c0,0.1,0,0.3,0,0.4c0,0,0,0,0,0
					c0.1,0.2,0,0.4,0.1,0.6c0.1,0.3,0.1,0.5,0.3,0.8c0,0,0,0.1,0.1,0.2c0,0.1-0.1,0.1-0.2,0.1c-0.1-0.1-0.2-0.1-0.2-0.2
					c-0.1-0.2-0.2-0.3-0.2-0.5c0-0.1,0-0.2-0.1-0.3c0-0.1,0-0.1,0-0.2c0-0.1,0-0.2-0.1-0.4c0-0.2,0-0.4-0.1-0.6c0-0.1,0-0.3,0-0.4
					c0-0.4,0-0.7,0-1.1c0-0.4,0-0.7,0.1-1.1c0-0.1,0-0.1,0-0.2c0-0.4,0.1-0.8,0.2-1.1c0,0,0-0.1,0-0.1c0-0.2,0.2-0.2,0.3-0.1
					c0.1,0.1,0.2,0.2,0.2,0.4c0.1,0.4,0.1,0.7,0.2,1.1c0,0.1,0,0.2,0.1,0.3c0.1,0.3,0.1,0.5,0.2,0.8c0,0,0,0.1,0,0.1
					c0.1,0.2,0.1,0.4,0.2,0.7c0,0.1,0.1,0.2,0.1,0.3c0.1,0.2,0.1,0.3,0.2,0.5c0.1,0.2,0.1,0.4,0.2,0.6C91,34.9,91,34.9,91.1,35z
					 M91,36.3C91,36.3,91,36.4,91,36.3c-0.1,0.2-0.1,0.3-0.2,0.4c0,0.1-0.1,0.2-0.1,0.3c-0.1,0.3-0.1,0.6-0.1,0.9c0,0.1,0,0.3,0,0.4
					c0,0.2,0,0.3,0.1,0.5c0.1,0.2,0.2,0.4,0.3,0.5c0.1,0.1,0.1,0.1,0.2,0c0.1-0.1,0.1-0.3,0.1-0.4c0,0,0-0.1,0-0.1c0,0,0-0.1,0-0.1
					c0-0.3,0-0.6,0-1c0-0.2-0.1-0.5-0.1-0.7C91.1,36.7,91.1,36.5,91,36.3z"/>
				<path class="st4" d="M94.5,35.1c0.1,0,0.2,0,0.2,0.1c0,0.1,0,0.2-0.1,0.2c-0.1,0.1-0.1,0.1-0.2,0.2c0,0-0.1,0-0.1,0
					c-0.2,0-0.2-0.3-0.2-0.4c0-0.1,0.1-0.1,0.1-0.1C94.4,35.1,94.5,35.1,94.5,35.1z"/>
				<path class="st4" d="M78.9,35.7c0,0,0-0.1,0-0.1c0-0.1,0-0.1,0-0.2C79.1,35.5,79.1,35.6,78.9,35.7z"/>
				<g>
					<path class="st4" d="M67.6,35.9c0.1-0.1,0.2-0.1,0.2-0.3c0.1-0.2,0.2-0.2,0.4-0.1c0,0,0,0,0,0.1c0.1,0.2,0.3,0.2,0.4,0.2
						c0.1,0,0.2,0,0.3-0.1c-0.1-0.1-0.2-0.3-0.2-0.4c-0.3-0.6-0.5-1.2-0.5-1.9c0-0.5,0.1-1,0.5-1.4c0.3-0.4,0.7-0.8,1.2-0.9
						c0.3-0.1,0.6-0.1,0.9,0.1c0.1,0.1,0.2,0.2,0.3,0.3c0.1,0.2,0.2,0.4,0.2,0.6c0,0.2,0,0.4,0.1,0.6c0,0.3,0,0.6,0,0.9
						c-0.1,0.3-0.1,0.7-0.3,1c-0.2,0.4-0.4,0.7-0.7,0.9c-0.2,0.2-0.4,0.3-0.6,0.5c0,0,0.1,0.1,0.1,0.1c0.1,0.1,0.2,0.2,0.3,0.2
						c0.2,0.2,0.4,0.3,0.7,0.5c0.2,0.1,0.4,0.2,0.6,0.2c0.2,0.1,0.2,0.1,0.2,0.3c0,0.2-0.1,0.3-0.3,0.2c-0.2-0.1-0.4-0.1-0.6-0.2
						c-0.4-0.2-0.7-0.5-1-0.7c-0.1-0.1-0.2-0.2-0.3-0.3c-0.1-0.1-0.1-0.1-0.2,0c-0.2,0.1-0.3,0.1-0.5,0.1c-0.3,0-0.5,0-0.7-0.2
						c0,0-0.1,0-0.1,0.1c-0.2,0.2-0.4,0.2-0.7,0c-0.1,0.1-0.2,0.2-0.3,0.3c-0.1,0.1-0.3,0.2-0.5,0.2c-0.2,0-0.4-0.2-0.5-0.4
						c0-0.1,0-0.1-0.1-0.2c-0.1,0.1-0.2,0.1-0.2,0.2c-0.3,0.2-0.6,0.3-0.9,0.4c-0.2,0.1-0.4,0.1-0.6,0.1c-0.2,0-0.4-0.1-0.5-0.3
						c-0.1-0.2-0.1-0.5,0.1-0.7c0.1-0.2,0.3-0.4,0.5-0.5c0.2-0.1,0.4-0.3,0.6-0.3c0.4-0.1,0.8-0.2,1.1,0c0.2,0.1,0.3,0.2,0.5,0.2
						c0.1,0,0.1,0.1,0.1,0.2c0,0.1,0,0.1,0,0.2c0,0.2,0,0.2-0.2,0.3c-0.1,0-0.1,0.1-0.1,0.1c0,0,0,0,0,0.1c0,0.1,0,0.2,0.1,0.2
						c0.1,0,0.1,0,0.2,0c0.1-0.1,0.2-0.2,0.3-0.3c0.1-0.2,0.2-0.4,0.2-0.6c0,0,0-0.1,0-0.1c0.1-0.1,0.3-0.2,0.4-0.1
						c0.1,0.1,0.1,0.2,0.1,0.3c0,0.1,0,0.2-0.1,0.3C67.6,35.8,67.6,35.8,67.6,35.9z M71.1,32.9c0-0.2-0.1-0.4-0.1-0.6
						c0-0.2-0.1-0.4-0.2-0.5c-0.1-0.3-0.4-0.4-0.7-0.3c-0.1,0-0.3,0.1-0.4,0.2c-0.4,0.2-0.6,0.5-0.8,0.9c-0.2,0.5-0.3,1-0.2,1.6
						c0.1,0.5,0.3,0.9,0.6,1.3c0.1,0.1,0.1,0.1,0.2,0.1c0.3-0.2,0.6-0.4,0.9-0.7c0.2-0.2,0.4-0.5,0.5-0.8
						C71.1,33.6,71.1,33.3,71.1,32.9z M65.5,35.3C65.5,35.4,65.5,35.4,65.5,35.3c0,0-0.1,0-0.1,0c-0.5,0.1-0.9,0.3-1.3,0.7
						c-0.1,0.1-0.1,0.3,0.1,0.3c0.2,0,0.3,0,0.5,0c0.3-0.1,0.6-0.2,0.8-0.4c0.1-0.1,0.3-0.2,0.4-0.3c0.1-0.1,0.1-0.2-0.1-0.2
						C65.7,35.4,65.6,35.4,65.5,35.3z"/>
					<path class="st4" d="M61,32.4C60.9,32.4,60.9,32.4,61,32.4c-0.3,0-0.5,0.1-0.8,0.2c-0.3,0.1-0.5,0.2-0.8,0.3
						c-0.1,0-0.2,0.1-0.3,0.1c-0.2,0-0.2,0-0.3-0.1c0-0.1,0-0.3,0.1-0.3c0.1,0,0.2-0.1,0.3-0.1c0.5-0.1,1-0.3,1.5-0.4
						c0.7-0.2,1.5-0.2,2.2-0.3c0.6-0.1,1.3-0.1,1.9-0.1c0.5,0,0.9,0,1.4,0.2c0.2,0.1,0.4,0.2,0.6,0.3c0.1,0.1,0.2,0.2,0.2,0.4
						c0,0.1,0,0.1-0.1,0.2c-0.1,0.1-0.1,0.1-0.2,0.2c-0.2,0.2-0.5,0.3-0.8,0.4c-0.7,0.3-1.4,0.5-2.1,0.7c-0.3,0.1-0.6,0.2-0.8,0.2
						c-0.3,0.1-0.5,0.1-0.8,0.2c-0.2,0.1-0.5,0.1-0.7,0.2c-0.1,0-0.2,0.1-0.2,0.2c0,0.1,0,0.2,0,0.3c0,0.2,0,0.5,0,0.7
						c0,0.1,0,0.1,0,0.2c0,0,0,0,0,0c0,0.2,0,0.3,0.1,0.5c0,0.1-0.1,0.2-0.2,0.3c-0.1,0-0.2,0-0.2-0.2c0-0.1-0.1-0.3-0.1-0.4
						c0-0.4,0-0.8,0-1.2c0,0,0-0.1,0-0.1c0-0.1-0.1-0.1-0.1-0.1c-0.1,0-0.1,0-0.2,0c-0.1,0-0.2,0-0.2-0.1c0-0.1,0-0.1,0.1-0.2
						c0.1,0,0.2-0.1,0.3-0.1c0.1,0,0.1-0.1,0.1-0.2c0-0.1,0-0.2,0-0.3c0-0.1,0-0.3,0-0.4c0-0.2,0-0.5,0-0.7C61,32.6,61,32.5,61,32.4
						z M61.4,32.3c0,0.1,0,0.2,0,0.4c0,0.1,0,0.1,0,0.2c0,0.4,0,0.8,0,1.2c0,0.1,0.1,0.2,0.2,0.2c0.6-0.1,1.1-0.3,1.7-0.4
						c0.3-0.1,0.7-0.2,1-0.3c0.7-0.2,1.3-0.5,1.9-0.8c0.1-0.1,0.2-0.1,0.2-0.2c-0.1,0-0.1-0.1-0.2-0.1c-0.3-0.2-0.6-0.2-1-0.3
						c-0.1,0-0.2,0-0.4,0c-0.3,0-0.6,0-0.9,0c-0.3,0-0.6,0-1,0c-0.4,0-0.8,0.1-1.3,0.1C61.7,32.2,61.6,32.2,61.4,32.3z"/>
				</g>
			</g>
			<g>
				<path class="st3" d="M98.7,37.8c0.2-0.2,0.5-0.4,0.8-0.6c0.2-0.1,0.4-0.2,0.4-0.2c0.1,0,0.1,0,0.1,0c0,0,0,0.1,0,0.1
					c-0.3,0.1-0.5,0.3-0.8,0.5c-0.1,0.1-0.2,0.2-0.3,0.3c0.1,0.1,0.3,0.2,0.5,0.5c0.2,0.2,0.3,0.3,0.4,0.4c0.1,0.1,0.1,0.1,0,0.2
					c0,0-0.1,0.1-0.1,0.1c0,0-0.1,0-0.1,0c0,0,0,0,0,0c-0.3-0.4-0.5-0.7-0.8-0.9c-0.2,0.2-0.4,0.5-0.6,0.9c0,0.1-0.1,0.1-0.1,0.1
					c0,0-0.1,0-0.1,0c-0.1,0-0.1-0.1-0.1-0.1c0-0.1,0-0.1,0-0.2c0.1-0.1,0.3-0.4,0.8-0.8c-0.1-0.1-0.2-0.2-0.4-0.3
					c-0.2-0.1-0.3-0.2-0.5-0.3c0,0,0,0,0-0.1c0,0,0-0.1,0-0.1c0-0.1,0.1-0.2,0.2-0.2c0,0,0.1,0,0.2,0.1c0,0,0.1,0.1,0.1,0.1
					c0.1,0.1,0.1,0.1,0.1,0.1C98.4,37.5,98.6,37.6,98.7,37.8z"/>
				<path class="st3" d="M95.8,38.3c-0.2,0.2-0.5,0.4-0.8,0.6c-0.2,0.1-0.4,0.2-0.4,0.2c-0.1,0-0.1,0-0.1,0c0,0,0-0.1,0-0.1
					c0.3-0.1,0.5-0.3,0.8-0.5c0.1-0.1,0.2-0.2,0.3-0.3c-0.1-0.1-0.3-0.2-0.5-0.5c-0.2-0.2-0.3-0.3-0.4-0.4c-0.1-0.1-0.1-0.1,0-0.2
					c0,0,0.1-0.1,0.1-0.1c0,0,0.1,0,0.1,0c0,0,0,0,0,0c0.3,0.4,0.5,0.7,0.8,0.9c0.2-0.2,0.4-0.5,0.6-0.9c0-0.1,0.1-0.1,0.1-0.1
					c0,0,0.1,0,0.1,0c0.1,0,0.1,0.1,0.1,0.1c0,0.1,0,0.1,0,0.2c-0.1,0.1-0.3,0.4-0.8,0.8c0.1,0.1,0.2,0.2,0.4,0.3
					c0.2,0.1,0.3,0.2,0.5,0.3c0,0,0,0,0,0.1c0,0,0,0.1,0,0.1c0,0.1-0.1,0.2-0.2,0.2c0,0-0.1,0-0.2-0.1c0,0-0.1-0.1-0.1-0.1
					c-0.1-0.1-0.1-0.1-0.1-0.1C96.2,38.6,96,38.5,95.8,38.3z"/>
			</g>
		</g>
		<g>
			<path class="st3" d="M54.5,36.8v-2.7h0.2v1.1c0.1-0.1,0.2-0.2,0.4-0.3c0.1-0.1,0.3-0.1,0.4-0.1c0.3,0,0.5,0.1,0.7,0.3
				c0.2,0.2,0.3,0.4,0.3,0.7c0,0.3-0.1,0.5-0.3,0.7s-0.4,0.3-0.7,0.3c-0.2,0-0.3,0-0.4-0.1c-0.1-0.1-0.2-0.2-0.3-0.3v0.4H54.5z
				 M55.5,36.6c0.1,0,0.3,0,0.4-0.1c0.1-0.1,0.2-0.2,0.3-0.3c0.1-0.1,0.1-0.3,0.1-0.4s0-0.3-0.1-0.4c-0.1-0.1-0.2-0.2-0.3-0.3
				c-0.1-0.1-0.2-0.1-0.4-0.1c-0.1,0-0.3,0-0.4,0.1c-0.1,0.1-0.2,0.2-0.3,0.3c-0.1,0.1-0.1,0.3-0.1,0.4c0,0.2,0.1,0.4,0.2,0.6
				C55.1,36.5,55.3,36.6,55.5,36.6z"/>
			<path class="st3" d="M56.8,34.9h0.3l0.7,1.5l0.6-1.5h0.3l-1.2,2.7h-0.3l0.4-0.9L56.8,34.9z"/>
		</g>
	</g>
</g>
</svg>
