<svg xmlns="http://www.w3.org/2000/svg" viewBox="0 0 90 15" enable-background="new 0 0 90 15"><g><path fill="#C32033" d="M0 0h90v15H0z"/><g fill="#fff"><path d="M80.353 4.146l-.707.707 2.435 2.435-2.433 2.434.707.707 3.14-3.142zM11.147 4.907c.237-.092.73-.2 1.34-.2.762 0 1.396.172 1.883.51.155.108.298.246.37.318l.06.06 1.065-.43-.113-.132-.042-.054c-.074-.098-.212-.277-.383-.418-.1-.09-.2-.16-.304-.228-.638-.414-1.494-.624-2.543-.624-1.195 0-1.865.27-2.156.43-.355.188-.95.64-.95 1.55 0 .174 0 .705.49 1.154.497.457 1.114.526 2.353.627l.232.02c.527.043 1.41.115 1.798.287.212.092.465.282.465.668 0 .11-.028.485-.383.755-.248.187-.726.407-1.62.407-.3 0-1.105-.02-1.786-.298-.486-.198-.76-.45-.833-.522-.046-.047-.08-.086-.125-.144l-.058-.07-.923.377-.13.08.09.128c.098.144.265.386.607.646.08.06.324.243.693.403.31.133.535.188.703.23.755.19 1.632.193 1.67.193.287 0 .6-.02.932-.064.874-.1 1.57-.452 1.96-.996.158-.216.347-.588.347-1.135 0-.152 0-.614-.36-1.078-.367-.452-.895-.682-1.822-.792-.32-.037-.64-.065-.963-.092-.375-.032-.762-.065-1.143-.114l-.056-.008c-.334-.04-.714-.085-.896-.376-.057-.092-.09-.213-.09-.33 0-.152.062-.528.623-.74zM23.255 6.465h-4.62V3.873h-1.16v6.605h1.168V7.472h4.62v3.006h1.16V3.873h-1.168zM32.063 4.136c-.785-.362-1.605-.417-2.024-.417-1.39 0-2.3.514-2.817.945-.263.216-.385.358-.477.48-.436.548-.667 1.275-.667 2.102 0 .654.164 1.27.477 1.777.524.844 1.405 1.378 2.544 1.542.44.072.81.083.993.083 1.81 0 2.77-.796 3.097-1.138.75-.776.863-1.74.863-2.247 0-.422-.075-1.24-.58-1.97-.33-.473-.844-.896-1.41-1.16zm-.912 5.358c-.46.122-.866.122-1.04.122-.813 0-1.477-.177-1.97-.525-.254-.18-.384-.33-.476-.45-.378-.51-.435-1.114-.435-1.428 0-.314.048-.63.136-.887.105-.308.273-.58.5-.807.658-.657 1.666-.76 2.067-.774h.104c.673 0 2.064.156 2.634 1.378.102.214.223.57.223 1.055 0 .324-.057.586-.078.682-.196.823-.788 1.404-1.664 1.634zM40.255 3.896l-.08-.006c-.157-.01-.313-.017-.47-.017H35.69v6.606h1.17V7.93h2.926c.63 0 1.282 0 1.876-.457.623-.47.716-1.16.716-1.53 0-.424-.123-.836-.347-1.162-.542-.777-1.437-.855-1.775-.884zm-3.405.983h2.71c.5 0 1.065 0 1.388.402.13.164.197.368.197.606 0 .33-.11.53-.206.642-.296.365-.755.395-1.28.395h-2.81V4.88zM53.224 8.93l-4.762-5.057h-1.107v6.605h1.115l-.017-5.067 4.798 5.068h1.062V3.873h-1.114zM61.943 4.136c-.785-.362-1.605-.417-2.024-.417-1.39 0-2.3.514-2.817.945-.263.216-.385.358-.477.48-.436.548-.667 1.275-.667 2.102 0 .654.164 1.27.477 1.777.524.844 1.405 1.378 2.544 1.542.44.072.81.083.993.083 1.81 0 2.77-.796 3.097-1.138.75-.776.863-1.74.863-2.247 0-.422-.075-1.24-.58-1.97-.33-.473-.844-.896-1.41-1.16zm-.912 5.358c-.46.122-.866.122-1.04.122-.813 0-1.477-.177-1.97-.525-.254-.18-.384-.33-.476-.45-.378-.51-.435-1.114-.435-1.428 0-.314.048-.63.136-.887.105-.308.273-.58.5-.807.658-.657 1.666-.76 2.067-.774h.104c.673 0 2.064.156 2.634 1.378.102.214.223.57.223 1.055 0 .324-.057.586-.078.682-.197.823-.788 1.404-1.664 1.634zM72.25 8.937l-1.827-4.982-.03-.082h-.976l-1.865 5.09-1.574-5.09H64.75l2.152 6.605h1.205l1.793-4.96 1.785 4.96h1.178l2.18-6.605h-1.22z"/></g></g></svg>