<svg xmlns="http://www.w3.org/2000/svg" viewBox="0 0 100 15" enable-background="new 0 0 100 15"><g><g fill="#fff"><path d="M8.35 8.183c-.046 0-.12.005-.12.034 0 1.12-.43 3-3.298 3h-1.7c-.083 0-.1-.018-.1-.05l-.01-5.233H3.7c1.138 0 1.846.678 1.846 1.768 0 .067.224.067.224 0V3.895c0-.03-.07-.034-.11-.034-.043 0-.113.005-.113.035 0 1.107-.69 1.768-1.846 1.768l-.566.01V.728c0-.033.016-.052.1-.052h1.652c2.314 0 2.564 1.88 2.564 2.69 0 .042.106.044.127.044.02 0 .127-.002.127-.045V.463c0-.02-.02-.057-.057-.057H.034C.006.406 0 .48 0 .54s.006.136.034.136h1.294c.07 0 .083.02.083.052v10.438c0 .03-.013.05-.082.05H.034c-.028 0-.034.075-.034.136 0 .062.006.137.034.137H8.41c.038 0 .06-.022.06-.06V8.217c0-.03-.076-.034-.12-.034M12.92 11.217h-.858c-.083 0-.098-.018-.098-.05V.056c0-.02-.02-.057-.058-.057H9.66c-.042 0-.046.104-.046.135 0 .032.003.135.046.135h.858c.083 0 .1.02.1.052v10.844c0 .033-.017.05-.1.05H9.66c-.042 0-.046.105-.046.136 0 .033.003.137.046.137h3.26c.028 0 .034-.075.034-.138 0-.06-.005-.135-.034-.135M17.335 11.217h-.873c-.07 0-.083-.02-.083-.05v-6.29c0-.036-.02-.056-.058-.056H14.06c-.028 0-.034.075-.034.136 0 .062.006.135.034.135h.858c.095 0 .1.017.1.053v6.023c0 .035-.005.05-.1.05h-.858c-.028 0-.034.075-.034.136 0 .062.006.137.034.137h3.276c.028 0 .034-.075.034-.138 0-.06-.006-.135-.035-.135M15.698 1.94c.487 0 .884-.41.884-.916 0-.513-.396-.93-.884-.93-.48 0-.87.417-.87.93 0 .514.382.915.87.915M23.997 9.244c-.045 0-.12.004-.12.033 0 1.38-.616 1.94-2.126 1.94h-1.606c-.055 0-.068-.01-.07-.03l3.95-6.244c.013-.057.013-.093 0-.11H24s0-.002-.003-.002h-.704l-4.226-.01c-.037 0-.057.022-.057.058v1.95c0 .056.254.056.254 0 0-1.282.496-1.737 1.893-1.737h1.248c.073 0 .08.015.07.032l-3.916 6.24c-.025.032-.033.067-.02.093.01.02.033.033.06.033h5.46c.053 0 .057-.02.057-.06V9.28c0-.03-.075-.034-.12-.034M31.627 10.87c-.007-.003-.012-.005-.014-.003l-.012-.002c-.065.162-.25.336-.504.336-.22 0-.348-.188-.348-.52V7.516c0-1.88-.843-2.834-2.507-2.834-1.237 0-1.897.713-1.897 1.228 0 .354.196.712.634.712.514 0 .697-.308.697-.572 0-.116-.033-.192-.068-.273-.036-.083-.072-.17-.072-.304 0-.353.225-.52.707-.52.575 0 1.16.167 1.16 1.395V7.53c0 .298-.826.372-1.626.443l-.158.015c-.76.078-2.038.44-2.038 1.992 0 1.03.792 1.648 2.117 1.648.768 0 1.33-.396 1.617-.857.062-.093.115-.19.155-.292.126.697.606 1.15 1.223 1.15.585 0 .988-.318 1.07-.615.005-.008.002-.02-.008-.04-.023-.034-.08-.09-.125-.104M29.4 7.94v1.837c0 .717-.585 1.518-1.425 1.518-.707 0-1.066-.44-1.066-1.314 0-1.413.475-1.628 1.004-1.737.125-.02.268-.037.417-.053.38-.042.808-.088 1.07-.25m.073 2.523c.02.115.054.225.095.33-.04-.1-.076-.203-.1-.318 0-.004.004-.008.005-.012"/><path d="M36.292 4.68c-.498 0-.918.156-1.268.475-.06.052-.117.106-.172.166V.06c0-.015 0-.058-.058-.058h-2.247c-.028 0-.034.074-.034.135 0 .062.006.135.034.135h.874c.066 0 .1.018.1.052v10.844c0 .012 0 .05-.1.05h-.873c-.028 0-.034.075-.034.136 0 .062.006.137.034.137h2.247c.054 0 .058-.022.058-.06l-.01-.312v-.22c.406.44 1.057.73 1.622.73 1.854 0 3.1-1.772 3.1-3.427-.002-1.66-1.4-3.52-3.272-3.52m0 .27c.29 0 .828.043 1.163.326.484.408.73 1.393.73 2.925 0 1.513-.232 2.413-.73 2.833-.28.236-.55.324-.992.324-.582 0-1.334-.31-1.612-.988v-4.6c.238-.537.905-.82 1.442-.82m-1.444.373l-.008.008V3.087l.008 2.237zm-.008 5.562c.063.068.137.135.214.197-.076-.06-.148-.12-.214-.188v-.01zM43.84 4.68c-1.8 0-3.208 1.526-3.208 3.474 0 1.947 1.41 3.475 3.208 3.475 1.044 0 2.01-.55 2.646-1.505l-.006-.035c-.025-.04-.108-.105-.152-.1-.594.88-1.477 1.367-2.488 1.367-.485 0-.845-.107-1.132-.34-.488-.412-.636-1.08-.636-2.863 0-.117 0-.238-.024-.334v-.014h4.523c.038 0 .058-.02.058-.06 0-.958-.703-3.066-2.788-3.066m-1.794 2.866l.003-.062-.004.062zm.01 0c.064-1.322.23-1.892.652-2.254.288-.232.647-.34 1.132-.34.39 0 .682.11.897.34.37.354.508.917.552 2.206v.037l-3.12.01h-.113zm3.235 0h-.15.15zm-3.244.25h.557-.557M51.068 10.133c-.176.66-.528 1.053-.94 1.053-.272 0-.427-.16-.427-.44V5.142c0-.032.015-.052.084-.052h1.295c.027 0 .032-.072.032-.134 0-.062-.005-.135-.033-.135h-1.296c-.07 0-.083-.02-.083-.05V2.147c0-.027-.127-.03-.153-.03-.09 0-.1.015-.1.026-.197.57-.567.898-1.11.987v1.64c0 .035-.003.05-.098.05H47.16c-.028 0-.034.075-.034.136 0 .062.006.135.034.135h1.077c.094 0 .098.017.098.053v4.945c0 1.023.45 1.54 1.336 1.54.808 0 1.337-.464 1.57-1.384 0-.037-.117-.12-.176-.11"/><path d="M59.535 11.217h-.86c-.074 0-.08-.014-.08-.05v-3.87c0-1.64-.974-2.617-2.603-2.617-.512 0-1.112.195-1.493.698-.11.143-.205.31-.274.505V.058c0-.015 0-.058-.058-.058h-2.246c-.027 0-.034.074-.034.135 0 .062.007.135.034.135h.873c.066 0 .1.018.1.052v10.844c0 .012 0 .05-.1.05h-.873c-.027 0-.034.075-.034.136 0 .062.007.137.034.137h3.26c.028 0 .034-.075.034-.138 0-.06-.006-.135-.034-.135h-.857c-.1 0-.1-.04-.1-.05v-4.74c.344-1.035.873-1.476 1.768-1.476.473 0 1.223.43 1.223 1.582v4.634c0 .035-.02.05-.066.05h-.86c-.04 0-.044.105-.044.136 0 .033.004.137.045.137h3.247c.027 0 .033-.075.033-.138-.002-.06-.008-.135-.035-.135m-5.31-5.332l-.01.022V3.08l.01 2.805zM71.344 11.217H70.05c-.06 0-.098-.027-.1-.04L66 .195c-.012-.04-.133-.042-.17-.042s-.158.003-.172.042l-3.572 10.374c-.188.61-.22.648-.35.648h-1.065c-.01 0-.023 0-.023.135 0 .138.013.138.023.138h2.917c.028 0 .035-.074.035-.137 0-.06-.007-.134-.035-.134h-1.295c-.017 0-.023-.004-.025-.01-.03-.04.025-.227.16-.63l.94-2.74 3.564-.007 1.157 3.362c-.003.01-.024.023-.054.023h-1.342c-.028 0-.034.074-.034.135 0 .062.006.137.034.137h4.65c.026 0 .032-.074.032-.137 0-.06-.005-.133-.032-.133m-4.46-3.64h-.778l.775-.003.003.003zm-3.434 0l.435-1.264-.432 1.264h-.003zm.01 0l1.722-5.007 1.294 3.802.403 1.194-2.508.01h-.91zm4.642 3.614c0 .007-.003.01-.008.017l.008-.016"/><path d="M75.635 4.68c-.695 0-1.13.242-1.41.802-.062.118-.12.248-.17.398V4.878c0-.036-.004-.058-.06-.058H71.75c-.027 0-.034.073-.034.135 0 .062.007.135.034.135h.857c.083 0 .1.02.1.052v6.023c0 .033-.017.05-.1.05h-.857c-.027 0-.034.075-.034.136 0 .063.007.138.034.138h3.26c.03 0 .035-.074.035-.137 0-.06-.006-.134-.034-.134h-.873c-.068 0-.082-.02-.082-.05V6.547c.248-1.008.6-1.458 1.143-1.458.244 0 .395.15.395.395 0 .12-.04.192-.08.27-.05.088-.106.19-.106.386 0 .324.3.558.712.558.346 0 .695-.27.695-.87 0-.57-.365-1.147-1.18-1.147m-1.582 1.203l-.01.024v-.5l.01.476zM84.684 11.217h-.858c-.083 0-.1-.018-.1-.05V.056c0-.02-.017-.057-.04-.057h-2.248c-.027 0-.033.074-.033.135 0 .062.006.135.033.135h.86c.067 0 .082.02.082.052l.01 2.79v2.203c-.382-.427-.856-.634-1.45-.634-1.873 0-3.27 1.86-3.27 3.522 0 1.654 1.25 3.428 3.114 3.428.777 0 1.298-.387 1.504-.697.04-.06.074-.115.093-.166v.664c0 .038.022.06.058.06h2.247c.043 0 .045-.113.045-.137 0-.023-.003-.136-.046-.136M79.062 8.2c0-1.558.244-2.514.745-2.924.32-.27.792-.325 1.133-.325.56 0 1.234.283 1.44.817v4.292c0 .645-.493 1.298-1.597 1.298-.436 0-.69-.084-.977-.324-.508-.417-.744-1.317-.744-2.833m3.328-2.88v.01c-.06-.067-.124-.128-.19-.186.066.054.128.112.19.176m0 5.424v.328l-.01-.31c.003-.004.01-.012.01-.018"/><path d="M88.565 4.68c-1.8 0-3.21 1.526-3.21 3.474 0 1.947 1.41 3.475 3.21 3.475 1.044 0 2.01-.55 2.646-1.505l-.005-.035c-.025-.04-.112-.104-.152-.1-.594.88-1.476 1.367-2.487 1.367-.485 0-.845-.107-1.132-.34-.488-.412-.637-1.08-.637-2.863 0-.117 0-.238-.023-.334 0-.005 0-.01-.002-.014h4.524c.037 0 .058-.02.058-.06 0-.958-.704-3.066-2.79-3.066m-1.793 2.866l.005-.062-.004.062zm.01 0c.065-1.323.23-1.892.653-2.254.287-.232.646-.34 1.132-.34.39 0 .682.11.897.34.37.355.508.917.552 2.206v.037l-3.116.01h-.117zm3.236 0h-.15.15zm-3.245.25h.558-.557zM99.955 11.217h-.86c-.075 0-.08-.014-.08-.05v-3.87c0-1.64-.968-2.617-2.587-2.617-.63 0-1.154.243-1.488.668-.043.055-.08.113-.116.173-.07.11-.13.23-.18.363V4.878c0-.036-.002-.058-.056-.058h-2.246c-.028 0-.034.074-.034.136 0 .062.006.135.034.135h.873c.1 0 .1.04.1.053v6.023c0 .012 0 .05-.1.05h-.873c-.028 0-.034.075-.034.136 0 .062.006.137.034.137h3.26c.027 0 .034-.075.034-.138 0-.06-.007-.135-.034-.135h-.857c-.1 0-.1-.04-.1-.05v-4.74c.345-1.035.878-1.476 1.783-1.476.474 0 1.223.43 1.223 1.582v4.634c0 .03-.013.05-.082.05h-.858c-.018 0-.023.026-.027.05-.004.023-.006.055-.006.086 0 .062.006.137.033.137h3.246c.043 0 .045-.114.045-.138 0-.022-.002-.135-.045-.135m-5.31-5.33c-.004.007-.008.013-.01.02v-.5l.01.48z"/></g><path d="M99.44 13.57l.536-.55h-.183l-.72.75v-.75h-.14v1.253h.14v-.336l.268-.27.482.605H100l-.56-.702zm-2.65-.168c0 .16-.135.258-.322.258h-.385v-.508h.387c.202 0 .32.094.32.25m.188.87l-.385-.51c.197-.036.34-.16.34-.368 0-.225-.177-.373-.452-.373h-.537v1.253h.14v-.486h.36l.36.486h.175zm-3.18-.624c0 .287-.204.516-.49.516-.286 0-.493-.232-.493-.518 0-.287.203-.516.49-.516.285 0 .492.233.492.518m.147-.002c0-.348-.256-.646-.638-.646-.38 0-.64.303-.64.648 0 .348.256.646.637.646.382 0 .64-.3.64-.648m-3.558.13l.52-.755h-.164l-.424.626-.423-.625h-.172l.522.76v.493h.143v-.496zm-4.96.288l-.358-1.043h-.153l.447 1.263h.118l.346-1.016.343 1.016h.12l.447-1.262h-.148l-.358 1.044-.343-1.047h-.117l-.344 1.047zm-2.408-1.043h-.904v1.253h.914v-.13h-.773v-.437h.683v-.13h-.683v-.426h.764v-.13zm-3.096 1.005l-.788-1.004H79v1.253h.138v-1.025l.81 1.025h.11V13.02h-.137v1.005z" fill="#fff"/></g></svg>