<svg xmlns="http://www.w3.org/2000/svg" viewBox="0 0 100 40" enable-background="new 0 0 100 40"><g><path d="M0 .184h4.496v4.028h2.1V.184h4.496v11.93H6.597V7.658h-2.1v4.458H0V.185M19.384.184h8.932v3.06h-4.424v1.297h4.11v3.066h-4.11v1.41h4.572v3.1h-9.08V.183M34.95 12.135h4.53l.44-1.912h3.467l.414 1.912h4.924L44.962.185h-6.066l-3.947 11.95zm7.788-4.822h-2.12l1.1-4.712 1.02 4.713M55.253 12.115h4.497V7.792c.144-.014.296-.014.41-.014 1.08 0 1.23.51 1.41 1.796l.116.885c.068.533.198 1.077.348 1.656h4.557c-.197-.882-.345-1.592-.414-2.123l-.148-1.275c-.214-1.72-.597-2.45-2.202-2.72 1.56-.417 2.35-1.34 2.35-2.783 0-2.384-1.538-3.03-4.82-3.03h-6.102v11.93zm4.497-7.01V2.854c.192-.02.363-.02.51-.02 1.012 0 1.46.318 1.46 1.062 0 .762-.564 1.222-1.64 1.222-.102 0-.22 0-.33-.01M77.44 8.287v.096c0 .816.362 1.19 1.14 1.19.7 0 1.113-.343 1.113-.856 0-.383-.167-.678-.468-.825-.612-.3-1.69-.47-3.096-.918-1.924-.613-2.82-1.554-2.82-3.227C73.31 1.41 75.2 0 78.68 0c3.163 0 4.837 1.175 4.837 3.28v.25h-3.96c-.05-.715-.378-1.06-1.042-1.06-.612 0-.994.345-.994.795 0 .834.83.8 2.337 1.214 2.773.737 4.094 1.5 4.094 3.668 0 2.525-2.02 4.165-5.47 4.165-3.498 0-5.354-1.32-5.354-3.596 0-.13 0-.275.02-.43h4.293M100 3.364h-2.87v8.75h-4.603v-8.75h-2.89V.184H100v3.18"/><path d="M7.618 19.445c-.16 0-.18-.08-.16-.14l.12-.423c.02-.08.06-.12.24-.12h2.472c.28 0 .322.2.24.36-.3.704-3.818 10.112-4.16 11.317-.18.622-.2.924.08.924.342 0 1.306-.925 1.407-1.045.08-.06.16-.06.22.02l.202.2c.06.04.06.12 0 .2-.14.182-1.868 1.79-2.933 1.79-.322 0-.543-.1-.543-.462 0-.402.442-1.77.884-2.914l-.16-.04c-.986 1.568-2.875 3.417-4.242 3.417C.603 32.53 0 32.07 0 31.204c0-1.588 1.125-3.98 2.774-5.608.643-.623 1.81-1.628 3.156-1.628.543 0 .925.26 1.266.663l1.548-4.402c.14-.382.04-.784-.503-.784H7.62zM5.246 28.75c.563-.763 1.306-2.03 1.306-2.813 0-.945-.422-1.327-1.065-1.327-1.89 0-4.02 4.402-4.02 6.25 0 .423.3.644.583.644.844 0 2.392-1.647 3.196-2.753zM10.23 32.028c0-.462.363-1.387 1.187-3.638L12 26.822c.2-.543.362-.945.362-1.186 0-.18-.12-.26-.28-.26-.342 0-1.287 1.084-1.61 1.406-.08.08-.16.08-.22.02l-.162-.182c-.08-.06-.12-.1-.06-.18.08-.122 2.13-2.534 3.417-2.473.242 0 .483.16.483.503 0 .362-.322 1.266-.684 2.23l-1.166 3.056c-.26.744-.362 1.186-.362 1.327 0 .18.06.3.22.342.423-.08 1.508-1.226 1.61-1.407.04-.06.12-.06.22.04l.16.14c.08.1.1.14.04.242-.12.16-1.728 2.09-3.396 2.09-.2-.02-.34-.18-.34-.502zm2.614-12.523c0-.543.423-1.005 1.045-1.005.702 0 1.064.502 1.064.965 0 .3-.24 1.005-1.065 1.005-.885 0-1.046-.744-1.046-.965zM13.447 35.666c0-1.488 2.412-2.473 3.397-2.895-.583-.42-.764-.783-.764-1.165s.362-.724 1.71-1.487c-.544-.14-1.57-.864-1.57-2.31 0-1.51 1.328-3.84 3.56-3.84 1.004 0 1.527.643 1.708.945.22-.22.965-.744 1.71-.744.662 0 .843.542.843.783 0 .22-.14.623-.642.623-.382 0-.543-.16-.663-.3-.1-.1-.26-.142-.382-.142-.18 0-.502.14-.583.28.08.202.16.825.16 1.127 0 .966-.562 3.217-2.873 3.62-.362.06-.543.1-.603.14-.382.16-1.045.623-1.045.965 0 .22.2.442.34.543.342.24 1.307.844 2.613 1.708 1.166.764 1.488 1.427 1.488 2.17 0 .322-.34 2.614-4.28 2.614-2.093 0-4.123-1.187-4.123-2.634zm4.522 2.01c1.366 0 2.512-.482 2.512-1.608 0-.884-.844-1.427-1.347-1.77-.18-.12-1.488-.964-1.77-1.145-1.647.663-2.53 1.427-2.53 2.372 0 1.387 1.787 2.15 3.134 2.15zm2.673-11.86c0-.925-.36-1.347-.904-1.347-1.207 0-2.232 2.35-2.232 3.858 0 .905.34 1.367.945 1.367 1.466 0 2.19-2.43 2.19-3.88zM24.683 32.028c0-.462.362-1.387 1.186-3.638l.582-1.568c.2-.543.362-.945.362-1.186 0-.18-.12-.26-.28-.26-.342 0-1.287 1.084-1.61 1.406-.08.08-.16.08-.22.02l-.16-.18c-.08-.06-.12-.1-.06-.182.08-.12 2.13-2.533 3.416-2.472.242 0 .483.16.483.503 0 .363-.322 1.267-.684 2.232l-1.167 3.055c-.26.744-.362 1.186-.362 1.327 0 .18.062.3.223.342.422-.08 1.507-1.226 1.608-1.407.04-.062.12-.062.222.04l.16.14c.08.1.1.14.04.24-.12.162-1.728 2.092-3.396 2.092-.203-.022-.343-.183-.343-.504zm2.613-12.523c0-.543.423-1.005 1.045-1.005.704 0 1.066.502 1.066.965 0 .3-.24 1.005-1.065 1.005-.883 0-1.044-.744-1.044-.965zM32.542 25.254h-1.407c-.12 0-.16-.04-.12-.16l.16-.443c.04-.1.1-.14.222-.14h1.447l1.045-2.332c.1-.2.16-.24.32-.302.22-.06.744-.26.905-.342.12-.06.22-.12.3-.12.12 0 .16.12.02.4L34.11 24.51h2.05c.1 0 .14.06.08.22l-.18.423c-.02.06-.1.1-.18.1h-2.052l-1.95 4.523c-.242.563-.462 1.065-.462 1.286 0 .22.08.34.26.34.584 0 1.89-1.144 2.01-1.285.06-.08.12-.06.182 0l.22.24c.062.06.062.1.02.182-.26.32-2.13 1.99-3.677 1.99-.5 0-.642-.202-.642-.483 0-.3.1-.643.22-.945l2.534-5.848zM44.1 23.967c.082 0 .1.1.062.18-.382.825-1.407 3.6-1.508 3.92-.12.343-.965 2.835-.965 3.016 0 .18.1.24.22.24.242 0 1.266-1.044 1.407-1.225.06-.06.12-.1.16-.04l.18.2c.062.06.08.1.042.16-.222.403-1.97 2.112-3.117 2.112-.24 0-.422-.08-.422-.342 0-.3.202-.925.966-3.055l-.1-.04c-.844 1.286-2.874 3.436-4.302 3.436-.462 0-1.085-.383-1.085-1.287 0-2.935 3.295-7.277 5.748-7.277.844 0 1.226.362 1.427.684l.382-.543c.06-.08.12-.14.2-.14h.704zm-2.53 3.498c.28-.583.48-1.085.48-1.668 0-.543-.2-1.186-.944-1.186-1.85 0-4 4.242-4 6.152 0 .462.2.703.543.703 1.004 0 3.557-3.257 3.92-4zM49.066 20.71c.302-.763.28-1.265-.3-1.265h-.584c-.14 0-.16-.08-.12-.18l.12-.363c.04-.12.08-.14.2-.14h2.493c.18 0 .242.12.18.3l-4.18 10.634c-.18.462-.663 1.568-.242 1.568.32 0 1.246-.784 1.488-1.045.08-.08.12-.06.182 0l.22.24c.04.04.06.12-.02.2-.1.162-1.97 1.87-3.255 1.87-.26 0-.442-.12-.442-.583 0-.3.502-1.568.744-2.17l3.516-9.066zM55.096 32.33c-.1 0-.18-.04-.12-.202l1.528-3.638c.523-1.266 1.126-2.653 1.166-3.015 0-.2-.06-.322-.2-.322-.282 0-1.51 1.186-1.69 1.427-.06.08-.16.06-.24-.02l-.182-.18c-.06-.06-.08-.122-.02-.182.462-.543 2.03-2.23 3.296-2.23.28 0 .482.24.482.562 0 .482-1.226 3.136-1.427 3.678l.1.02c.924-1.427 2.995-4.26 4.703-4.26.663 0 .884.502.884.863 0 .745-.804 2.675-1.146 3.478l.1.02c1.106-1.688 2.915-4.362 4.624-4.362.623 0 .965.523.965.965 0 .684-.383 1.53-1.227 3.58-.462 1.145-.844 1.99-.844 2.35 0 .14.06.262.22.262.362 0 1.467-1.287 1.588-1.448.06-.1.16-.08.242 0l.16.16c.06.062.08.12.04.222-.06.14-2.17 2.473-3.476 2.473-.2 0-.362-.182-.362-.483 0-.502.563-1.85 1.367-3.82.582-1.426.964-2.27.964-2.853 0-.24-.16-.382-.422-.382-.683 0-2.653 2.23-3.88 4.02-.14.22-.562.724-.824 1.427l-.683 1.768c-.04.1-.12.12-.28.12H59.7c-.16 0-.24-.04-.18-.16l1.367-3.337c.563-1.386 1.166-2.813 1.166-3.376 0-.26-.16-.402-.402-.402-.682 0-2.592 2.05-3.738 3.658-.3.422-.704.985-1.005 1.71l-.723 1.788c-.08.12-.14.12-.322.12h-.766zM69.407 30.56c0-1.688 1.106-3.8 2.573-5.246.643-.643 1.73-1.347 2.693-1.347.784 0 1.146.583 1.146 1.065 0 .985-.744 2.03-1.87 2.613-1.086.543-2.17.764-2.915.824-.1.24-.26.903-.26 1.848 0 .905.662 1.266 1.044 1.266.984 0 1.868-.744 2.29-1.427.04-.06.1-.1.18-.02l.223.18c.1.062.1.12.02.182-.502.702-1.71 2.03-3.256 2.03-1.307 0-1.87-.643-1.87-1.97zm1.79-2.673c.703.06 3.337-.784 3.337-2.272 0-.402-.2-.764-.643-.764-1.286.002-2.532 2.313-2.693 3.037zM83.9 19.445c-.16 0-.18-.08-.16-.14l.12-.423c.02-.08.06-.12.24-.12h2.474c.28 0 .322.2.242.36-.3.704-3.82 10.112-4.16 11.317-.18.622-.202.924.08.924.34 0 1.306-.925 1.406-1.045.08-.06.16-.06.22.02l.202.2c.06.04.06.12 0 .2-.14.182-1.87 1.79-2.934 1.79-.322 0-.543-.1-.543-.462 0-.402.442-1.77.884-2.914l-.16-.04c-.984 1.568-2.873 3.417-4.24 3.417-.684 0-1.287-.46-1.287-1.326 0-1.588 1.126-3.98 2.774-5.608.643-.623 1.81-1.628 3.156-1.628.542 0 .924.26 1.266.663l1.547-4.4c.14-.383.04-.785-.502-.785H83.9zm-2.372 9.306c.563-.763 1.306-2.03 1.306-2.813 0-.945-.422-1.327-1.065-1.327-1.89 0-4.02 4.402-4.02 6.25 0 .423.3.644.582.644.844 0 2.392-1.647 3.196-2.753zM86.513 32.028c0-.462.362-1.387 1.186-3.638l.582-1.568c.2-.543.362-.945.362-1.186 0-.18-.12-.26-.28-.26-.343 0-1.288 1.084-1.61 1.406-.08.08-.16.08-.22.02l-.16-.18c-.08-.06-.12-.1-.062-.182.08-.12 2.13-2.533 3.417-2.472.24 0 .48.16.48.503 0 .363-.32 1.267-.682 2.232l-1.166 3.055c-.26.743-.362 1.185-.362 1.326 0 .18.06.3.22.342.424-.08 1.51-1.226 1.61-1.407.04-.06.12-.06.22.04l.16.14c.08.1.1.14.04.242-.12.16-1.728 2.09-3.396 2.09-.2-.02-.34-.18-.34-.502zm2.613-12.523c0-.543.422-1.005 1.045-1.005.704 0 1.066.502 1.066.965 0 .3-.242 1.005-1.065 1.005-.883 0-1.044-.744-1.044-.965zM99.92 23.967c.08 0 .1.1.06.18-.382.825-1.407 3.6-1.508 3.92-.12.343-.965 2.835-.965 3.016 0 .18.1.24.222.24.24 0 1.265-1.044 1.406-1.225.06-.06.12-.1.16-.04l.182.2c.06.06.08.1.04.16-.22.403-1.97 2.112-3.115 2.112-.242 0-.422-.08-.422-.342 0-.3.202-.925.966-3.055l-.1-.04C96 30.378 93.97 32.53 92.543 32.53c-.462 0-1.086-.382-1.086-1.286 0-2.935 3.297-7.277 5.75-7.277.843 0 1.225.362 1.426.684l.382-.542c.06-.08.12-.14.2-.14h.705zm-2.533 3.498c.28-.583.482-1.085.482-1.668 0-.543-.202-1.186-.946-1.186-1.85 0-4 4.242-4 6.152 0 .462.2.703.542.703 1.007 0 3.56-3.257 3.92-4z"/></g></svg>