<svg xmlns="http://www.w3.org/2000/svg" viewBox="0 0 100 25" enable-background="new 0 0 100 25"><g stroke="#000" stroke-width=".2" stroke-miterlimit="10"><path d="M22.492 5.742l3.117 11.356h-6.036l2.918-11.356zM17.837 23.22c-.195.78-.222.86-.42.86h-2.22v.152h5.03v-.153h-2.303c-.15 0-.124-.106.057-.82l1.55-6.008h6.125l1.87 6.828h-2.49v.153h8.373v-.153h-2.603L23.865 0h-.043l-5.985 23.22zM38.15 23.958c-.026.054.003.12.12.12l5.495.002c1.692 0 3.876-2.502 3.876-10.566v-.84h.154v11.558h-13.12L44.613.93c.024-.054-.005-.12-.122-.12l-5.835.002c-1.53 0-3.756 2.796-3.756 10.566v.84h-.152V.66h13.35l-9.95 23.298zM88.313.812h2.068c3.186 0 4.086 2.422 4.086 5.626 0 3-.9 5.626-4.085 5.626h-2.067V.812zm0 11.405h1.915c1.697 0 4.2.73 4.2 3.7v5.377c0 2.2 1.213 3.585 3.356 3.585 2.25 0 2.216-2.274 2.216-3.914v-1.728h-.153v1.728c0 1.865-.22 3.484-1.32 3.484-.972 0-1.18-.603-1.18-3.133v-5.4c0-2.498-2.026-3.414-5.154-3.777 3.896-.464 5.362-2.95 5.362-5.702 0-4.07-1.88-5.78-6.717-5.78h-7.67V.81h2.013c.147 0 .215.04.215.124v23.02c0 .082-.068.124-.214.124h-2.013v.153h7.053v-.152h-1.693c-.146 0-.214-.04-.214-.124V12.217zM88.527.81c-.146 0-.214.042-.214.125m.214-.124"/><path d="M62.22 2.998c0 .01.008.013.024.013h.335v.054h-1.145V3.01h.3c.015 0 .023-.003.023-.012v-1.16h-1.093V3c0 .01.008.013.024.013h.298v.054h-1.144V3.01h.335c.015 0 .023-.003.023-.012V.724c0-.008-.008-.013-.024-.013h-.336V.66h1.144V.71h-.3c-.015 0-.023.005-.023.014v1.062h1.093V.724c0-.008-.008-.013-.024-.013h-.3V.66h1.145V.71h-.336c-.016 0-.024.005-.024.014v2.274zM65.397 2.01c-.105 0-.176-.05-.176-.13 0-.075.046-.072.046-.126 0-.056-.036-.08-.093-.08-.06 0-.163.018-.242.26v1.064c0 .01.01.013.025.013h.205v.054h-.805V3.01h.205c.016 0 .024-.003.024-.012V1.684c0-.008-.008-.013-.024-.013h-.205V1.62h.566l.01.01v.225c.062-.187.192-.265.346-.265.186 0 .308.098.308.25 0 .096-.074.173-.187.173zM68.61 1.72c.08.09.105.227.11.502h-.686c.008-.275.043-.413.143-.502.067-.06.145-.078.243-.078.082 0 .137.018.19.078zm-.19 1.373c.26 0 .47-.127.612-.322l-.04-.032c-.13.186-.308.3-.573.3-.1 0-.177-.017-.244-.077-.11-.098-.144-.213-.144-.62v-.066h1.03l.01-.01c0-.274-.188-.676-.653-.676-.43 0-.754.337-.754.753s.323.753.753.753zM62.86 1.882c0-.12.15-.294.442-.294.43 0 .64.19.64.613v.69c0 .082.04.115.096.115.066 0 .12-.054.133-.088l.036.035c-.022.06-.132.14-.27.14-.16 0-.3-.09-.324-.218-.05.145-.19.22-.39.22-.33 0-.544-.117-.544-.357 0-.355.38-.437.525-.45.205-.017.39-.03.39-.103v-.197c0-.242-.106-.345-.293-.345-.093 0-.15.044-.15.143 0 .056.03.075.03.13 0 .06-.05.122-.167.122-.11 0-.154-.078-.154-.155zm.432 1.145c.184 0 .303-.132.303-.256v-.5c-.086.05-.21.05-.32.07-.123.02-.255.086-.255.398 0 .238.156.29.272.29zM67.416 2.35c0 .376-.318.744-.762.744-.135 0-.24-.085-.318-.167v1.12c0 .01.008.013.024.013h.205v.053h-.805V4.06h.205c.016 0 .024-.005.024-.013V1.684c0-.008-.01-.013-.025-.013h-.205V1.62h.566l.01.01v.13c.08-.083.182-.17.318-.17.443 0 .762.386.762.762zm-.525-.632c-.06-.06-.146-.077-.236-.077-.125 0-.24.083-.318.176v1.01c.047.12.186.214.318.214.09 0 .175-.018.237-.077.104-.097.173-.266.173-.614s-.07-.535-.172-.632zM71.81 1.63c.04 0 .06-.017.064-.032h.058v.36h-.058c0-.21-.187-.316-.363-.316-.182 0-.27.082-.27.212 0 .167.12.252.392.33.284.08.473.218.473.436 0 .275-.222.474-.577.474-.21 0-.303-.098-.413-.098-.07 0-.106.047-.115.074h-.058l.02-.477h.058c-.01.25.224.45.507.45.214 0 .335-.1.335-.28 0-.183-.143-.255-.405-.335-.255-.078-.433-.182-.433-.406 0-.267.26-.433.488-.433.148-.002.16.04.3.04zM70.75 1.126c0-.097.08-.176.183-.176.11 0 .192.08.192.197 0 .173-.157.376-.37.504l-.035-.037c.155-.09.267-.2.332-.357-.03.032-.068.046-.12.046-.1 0-.183-.078-.183-.176zM70.284 2.01c-.105 0-.176-.05-.176-.13 0-.075.045-.072.045-.126 0-.056-.036-.08-.093-.08-.06 0-.163.018-.242.26v1.064c0 .01.008.013.024.013h.205v.054h-.805V3.01h.205c.016 0 .024-.003.024-.012V1.684c0-.008-.007-.013-.023-.013h-.205V1.62h.566l.01.01v.225c.06-.187.19-.265.345-.265.186 0 .308.098.308.25 0 .096-.073.173-.186.173zM6.595 11.988c3.592 0 5.016 2.448 5.016 6.16 0 3.204-1.27 5.93-4.252 5.93H5.36c-.146 0-.214-.04-.214-.124V11.987h1.45zM0 .658V.81h2.014c.146 0 .214.042.214.125v23.02c0 .082-.068.124-.214.124H0v.152l7.51.002c4.84 0 7.42-2.015 7.42-6.084 0-2.816-1.526-5.683-6.34-6.254 4.09-.383 5.5-2.95 5.5-5.456 0-3.662-2.2-5.78-7.036-5.78L0 .66zm6.595.154c3.185 0 4.482 2.422 4.482 5.626 0 3-1.297 5.397-4.482 5.397h-1.45V.812h1.45zM56.195 5.742l3.117 11.356h-6.035l2.918-11.356zM51.54 23.22c-.195.78-.222.86-.42.86H48.9v.152h5.03v-.153h-2.303c-.15 0-.124-.106.057-.82l1.548-6.008h6.126l1.87 6.828H58.74v.153h8.372v-.153H64.51L57.567 0h-.042L51.54 23.22zM72.672 5.742l3.117 11.356h-6.036l2.918-11.356zM68.018 23.22c-.195.78-.222.86-.42.86h-2.22v.152h5.03v-.153h-2.303c-.15 0-.124-.106.057-.82l1.548-6.008h6.126l1.87 6.828h-2.49v.153h8.373v-.153h-2.604L74.046 0h-.043l-5.985 23.22z"/></g></svg>