<svg xmlns="http://www.w3.org/2000/svg" viewBox="0 0 100 20" enable-background="new 0 0 100 20"><path d="M50.454 15.62c-3.14 0-5.104-2.577-5.104-7.117 0-4.417 2.012-7.067 5.13-7.067 2.527 0 3.925 1.546 4.514 4.196l-1.67.49c-.416-1.987-1.373-3.09-2.87-3.09-2.16 0-3.313 2.01-3.313 5.47 0 3.584 1.253 5.523 3.412 5.523 1.522 0 2.478-1.006 2.994-3.24l1.644.32c-.712 3.116-2.307 4.515-4.736 4.515zm-44.76-.197H3.925V3.203H0V1.606h9.62v1.595H5.693v12.22zm74.92-8.59V5.388h1.545v-3.19h1.643v3.19h2.184v1.448h-2.184v6.356c0 .688.27.91.86.91.49 0 .98-.05 1.373-.124v1.4c-.442.097-.933.195-1.79.195-1.498 0-2.087-.613-2.087-2.16V6.835h-1.547zm-41.718 8.762c-2.184 0-3.804-1.62-3.804-3.755 0-1.423.81-2.626 2.65-3.828-.59-.908-.957-1.963-.957-2.994 0-1.546 1.178-2.65 2.896-2.65 1.62 0 2.65 1.055 2.65 2.577 0 1.52-1.226 2.454-2.55 3.362.735 1.374 1.864 2.748 2.576 3.558.32-.54.76-1.718.957-2.97l.025-.17 1.423.342v.172c-.244 1.324-.833 2.846-1.373 3.68.515.515 1.497.908 1.84.908h.172v1.595h-.59c-.638 0-1.693-.59-2.405-1.227-.86.884-2.037 1.4-3.51 1.4zm35.754-.172h-1.62V5.387h1.62V6.54c.76-.736 1.67-1.325 2.773-1.325 1.767 0 2.798.884 2.798 2.97v7.238h-1.643v-7.14c0-1.056-.393-1.596-1.374-1.596-.883 0-1.94.687-2.552 1.374v7.363zm-45.816 0h-1.62V5.387h1.62V6.54c.785-.736 1.693-1.325 2.798-1.325 1.742 0 2.773.884 2.773 2.97v7.238h-1.62v-7.14c0-1.056-.417-1.596-1.374-1.596-.882 0-1.938.687-2.576 1.374v7.363zM91.607 5.24v1.643c-1.52.074-2.33 1.006-2.945 2.6v5.94h-1.644V5.387h1.644v1.816c.64-1.326 1.375-2.062 2.945-1.964zm-29.153 9.3c-.712.712-1.595 1.08-2.65 1.08s-1.963-.368-2.626-1.08c-.908-.908-1.4-2.38-1.4-4.123 0-3.166 1.572-5.202 4.026-5.202 1.055 0 1.94.344 2.65 1.055.884.932 1.4 2.38 1.4 4.147 0 1.743-.517 3.215-1.4 4.123zm-43.632.883h-1.546l-2.65-10.037h1.644l1.816 7.313 1.767-7.314H21.4l1.79 7.337 1.742-7.337h1.644l-2.6 10.037H22.38L20.613 8.06l-1.79 7.363zm-5.276-.883c-.687.712-1.57 1.08-2.65 1.08-1.08 0-1.963-.368-2.65-1.08-.883-.908-1.374-2.38-1.374-4.123 0-3.166 1.57-5.202 4.025-5.202 1.08 0 1.963.344 2.65 1.055.883.932 1.374 2.38 1.374 4.147 0 1.743-.49 3.215-1.374 4.123zM70.16 5.387h1.62v10.037h-1.62V14.27c-.76.736-1.67 1.325-2.773 1.325-1.767 0-2.798-.908-2.798-2.994V5.388h1.643v7.14c0 1.056.393 1.596 1.374 1.596.883 0 1.94-.712 2.552-1.4V5.388zm21.84 0h1.767l2.38 7.558 2.037-7.558H100L96.76 15.62c-.686 2.233-1.668 2.945-3.287 2.945-.515 0-.883-.074-1.178-.147v-1.423c.27.05.613.074 1.006.074 1.007 0 1.572-.443 1.964-1.84L92 5.386zM40.712 4.97c0-.81-.466-1.253-1.055-1.253-.785 0-1.252.564-1.252 1.374 0 .664.27 1.35.638 2.038.957-.637 1.67-1.275 1.67-2.16zM61.276 7.25c-.368-.417-.883-.613-1.472-.613-.59 0-1.104.195-1.472.612-.59.638-.933 1.718-.933 3.166 0 1.423.342 2.503.932 3.14.393.418.883.59 1.472.59 1.497 0 2.405-1.374 2.405-3.73 0-1.45-.32-2.528-.934-3.166zm-48.908.024c-.393-.393-.883-.59-1.472-.59-.59 0-1.08.197-1.472.59-.614.638-.933 1.718-.933 3.14 0 1.4.32 2.48.934 3.093.393.416.883.612 1.472.612 1.52 0 2.405-1.4 2.405-3.706 0-1.422-.318-2.502-.932-3.14zm26.06 1.89c-1.275.884-1.668 1.57-1.668 2.675 0 1.45 1.03 2.234 2.307 2.234.908 0 1.718-.344 2.282-.883-1.227-1.472-2.16-2.797-2.92-4.024z" fill-rule="evenodd" clip-rule="evenodd"/></svg>