<svg xmlns="http://www.w3.org/2000/svg" viewBox="0 0 100 20" enable-background="new 0 0 100 20"><g fill="#E41777"><path d="M5.823 6.683c0-2.9-.37-3.98-1.155-3.98-.663 0-1.327.442-1.327 6.388 0 5.75.345 6.39 1.328 6.39 1.057 0 1.302-1.623 1.35-4.153l2.704.123c0 3.047-.442 6.732-4.177 6.732C1.13 18.182 0 14.842 0 9.092 0 2.407 2.015 0 4.546 0c3.686 0 4.128 3.39 4.128 6.585l-2.85.098zM13.194 0c2.826 0 4.668 2.187 4.668 9.09s-1.843 9.092-4.668 9.092c-2.826 0-4.668-2.187-4.668-9.09S10.37 0 13.194 0zm-1.18 10.934c0 3.784.443 4.546 1.18 4.546.737 0 1.18-.762 1.18-4.546V7.248c0-3.784-.443-4.546-1.18-4.546-.737 0-1.18.762-1.18 4.546v3.686zM20.516 12.777c0 .983 0 2.703 1.376 2.703 1.057 0 1.425-.983 1.425-1.695 0-3.12-5.8-3.833-5.8-9.017C17.52 2.138 18.945 0 21.648 0c2.874 0 3.98 2.187 4.053 5.332h-2.85c0-.983 0-2.63-1.278-2.63-.762 0-1.204.64-1.204 1.598 0 2.973 5.8 3.98 5.8 9.067 0 2.678-1.524 4.816-4.4 4.816-3.414 0-4.102-2.998-4.102-5.405h2.85zM25.627.344h4.25l1.426 8.968h.05L32.85.344h4.153v17.494h-2.85V5.012h-.05l-2.16 12.826h-1.77L28.035 5.012h-.05v12.826h-2.358V.344zM41.67 0c2.827 0 4.67 2.187 4.67 9.09s-1.844 9.092-4.67 9.092c-2.825 0-4.667-2.187-4.667-9.09S38.845 0 41.67 0zm-1.178 10.934c0 3.784.442 4.546 1.18 4.546.736 0 1.178-.762 1.178-4.546V7.248c0-3.784-.442-4.546-1.18-4.546-.736 0-1.178.762-1.178 4.546v3.686zM46.29.344h3.194c3.612 0 5.504 1.45 5.504 5.234 0 3.145-1.23 5.258-4.226 5.258h-1.278v7.003H46.29V.343zm3.22 7.936h.27c1.3 0 2.014-.516 2.014-2.63 0-2.53-.983-2.603-2.04-2.603h-.245V8.28zM59.435 0c2.826 0 4.668 2.187 4.668 9.09s-1.843 9.092-4.668 9.092c-2.826 0-4.668-2.187-4.668-9.09S56.61 0 59.435 0zm-1.18 10.934c0 3.784.443 4.546 1.18 4.546.738 0 1.18-.762 1.18-4.546V7.248c0-3.784-.442-4.546-1.18-4.546-.736 0-1.18.762-1.18 4.546v3.686zM64.177.344h3.194v14.79h4.08v2.704h-7.273V.344zM71.965.344h3.194v17.494h-3.195V.344zM78.452 3.047H75.7V.344h8.698v2.703h-2.752v14.79h-3.194V3.048zM84.742.344h4.62l2.162 17.494h-3.072l-.467-3.882h-2.58l-.442 3.882h-2.678L84.742.344zm2.04 2.703h-.05L85.724 11.4h1.99l-.933-8.353zM91.35.344h3.12l2.925 9.24h.05V.343H100v17.494h-2.48l-3.416-10.59h-.05v10.59h-2.702V.344z"/></g></svg>