<svg xmlns="http://www.w3.org/2000/svg" viewBox="0 0 100 25" enable-background="new 0 0 100 25"><g><path d="M12.484 4.865l-2.11 8.2-.368-.09c.06-1.194.122-2.235.122-3.704 0-2.478-.58-3.7-1.47-3.7-.917 0-1.62 1.04-1.62 2.875 0 1.316.366 2.662 1.315 5.294.98 2.722 1.377 4.19 1.377 5.63 0 3.18-2.326 5.323-4.376 5.323-1.53 0-2.632-.826-3.06-1.958L.366 24.632 0 24.51l2.417-9.21.367.092c-.06 1.928-.092 3.458-.092 4.957 0 2.355.857 3.365 1.99 3.365.886 0 1.65-.796 1.65-2.6 0-1.592-.427-3-1.407-5.754-.918-2.6-1.255-3.977-1.255-5.354 0-3.06 1.867-5.324 4.223-5.324 1.316 0 2.05.58 2.48 1.683l1.743-1.622.368.122zm8.752 12.577c-1.714 4.988-4.01 7.252-6.303 7.252-2.173 0-3.52-2.08-3.52-5.447 0-1.836.613-4.835 1.715-7.65 1.01-2.6 2.02-4.345 3.12-5.447.98-.98 1.96-1.438 2.94-1.438 2.233 0 3.55 1.53 3.55 5.447 0 1.376-.338 3.58-.705 4.59h-5.906l-.49 1.835c-1.102 4.07-1.316 5.17-1.316 5.814 0 .856.43 1.315 1.133 1.315 1.805 0 3.703-2.234 5.202-6.426l.58.152zm-1.408-9.058c.275-1.01.428-1.897.428-2.264 0-.49-.306-.826-.765-.826-.58 0-.917.367-1.253 1.622l-1.928 7.19h2.02l1.498-5.722zM36.015 5.57c-.612.09-1.04.305-1.438.703-.46.46-1.04 1.377-2.295 4.008l-6.7 14.17h-2.57L25.488 5.6h-1.103l.153-.643h6.06l-.154.643h-1.04l-2.02 13.188h.122l3.55-7.558c1.224-2.6 1.714-3.978 1.714-4.712 0-.55-.306-.796-1.01-.98l.153-.58h4.253l-.153.61zm6.09 11.872c-1.715 4.988-4.01 7.252-6.304 7.252-2.172 0-3.518-2.08-3.518-5.447 0-1.836.612-4.835 1.714-7.65 1.01-2.6 2.02-4.345 3.12-5.447.98-.98 1.96-1.438 2.94-1.438 2.233 0 3.55 1.53 3.55 5.447 0 1.376-.338 3.58-.705 4.59h-5.905l-.49 1.835c-1.1 4.07-1.316 5.17-1.316 5.814 0 .856.427 1.315 1.13 1.315 1.806 0 3.704-2.234 5.203-6.426l.58.152zm-1.408-9.058c.275-1.01.428-1.897.428-2.264 0-.49-.306-.826-.765-.826-.58 0-.918.367-1.255 1.622l-1.928 7.19h2.02l1.5-5.722zm9.73-1.132c1.01-1.897 2.05-2.57 3.49-2.57 1.56 0 2.386 1.04 2.386 2.448 0 .918-.183 1.683-.887 4.315l-3.306 12.33h1.132l-.153.643h-5.6l.152-.643h.734l3.335-12.3c.95-3.49 1.072-4.01 1.072-4.53 0-.46-.214-.704-.612-.704-.642 0-1.47.888-2.173 3.46l-3.825 14.074h.734l-.153.643h-5.538l.153-.643h1.07L47.307 5.6h-1.163l.153-.643h4.712l-.58 2.295zM61.323 14.596c-1.928 7.19-2.08 7.956-2.08 8.384 0 .46.182.673.55.673.98 0 2.08-1.713 3.274-6.212l.55.093c-1.56 6.06-2.998 7.344-5.08 7.344-1.682 0-2.753-1.255-2.753-3.09 0-.827.336-2.418 1.53-6.64l2.662-9.426H58.14l.06-.427c2.694-.58 5.234-2.63 6.764-5.293l.306.06-1.377 5.02h3.397l-.153.642H63.71l-2.387 8.874zm7.62 1.99c-1.103 4.07-1.317 5.17-1.317 5.813 0 .856.43 1.315 1.132 1.315 1.805 0 3.703-2.234 5.202-6.426l.58.152c-1.713 4.988-4.007 7.252-6.302 7.252-2.173 0-3.52-2.08-3.52-5.447 0-1.836.613-4.835 1.715-7.65 1.01-2.6 2.02-4.345 3.12-5.447.98-.98 1.96-1.438 2.94-1.438 2.233 0 3.55 1.53 3.55 5.447 0 1.376-.338 3.58-.705 4.59h-5.906l-.49 1.835zm4.19-8.202c.277-1.01.43-1.897.43-2.264 0-.49-.307-.826-.766-.826-.582 0-.918.367-1.255 1.622l-1.928 7.19h2.02l1.5-5.722zm12.67 9.058c-1.715 4.988-4.01 7.252-6.304 7.252-2.174 0-3.52-2.08-3.52-5.447 0-1.836.612-4.835 1.714-7.65 1.01-2.6 2.02-4.345 3.12-5.447.98-.98 1.96-1.438 2.94-1.438 2.233 0 3.55 1.53 3.55 5.447 0 1.376-.337 3.58-.705 4.59h-5.907l-.49 1.835c-1.1 4.07-1.316 5.17-1.316 5.814 0 .856.428 1.315 1.132 1.315 1.804 0 3.702-2.234 5.2-6.426l.582.152zm-1.408-9.058c.275-1.01.428-1.897.428-2.264 0-.49-.306-.826-.765-.826-.58 0-.918.367-1.254 1.622l-1.928 7.19h2.02l1.5-5.722zm9.73-1.132c1.01-1.897 2.05-2.57 3.488-2.57 1.56 0 2.387 1.04 2.387 2.448 0 .918-.183 1.683-.887 4.315l-3.305 12.33h1.132l-.153.644h-5.6l.153-.644h.735l3.335-12.3c.95-3.49 1.07-4.01 1.07-4.53 0-.46-.213-.704-.61-.704-.643 0-1.47.887-2.174 3.458L89.87 23.775h.735l-.153.643h-5.538l.153-.643h1.07L91.005 5.6H89.84l.154-.643h4.712l-.58 2.295z"/></g></svg>