<svg xmlns="http://www.w3.org/2000/svg" viewBox="0 0 320 360" enable-background="new 0 0 320 360"><g><path opacity=".18" d="M40 200h280v160H40z"/><g fill="none" stroke="#fff"><path d="M40 360V200M60 360V200M80 360V200M100 360V200M120 360V200M140 360V200M160 360V200M180 360V200M200 360V200M220 360V200M240 360V200M260 360V200M280 360V200M300 360V200M320 360V200"/><path stroke-width=".747" d="M40 200h280M40 220h280M40 240h280M40 260h280M40 280h280M40 300h280M40 320h280M40 340h280"/></g><path opacity=".3" d="M320 200H40L0 160h280z"/><g fill="none" stroke="#fff"><path d="M0 160l40 40M20 160l40 40M40 160l40 40M60 160l40 40M80 160l40 40M100 160l40 40M120 160l40 40M140 160l40 40M160 160l40 40M180 160l40 40M200 160l40 40M220 160l40 40M240 160l40 40M260 160l40 40M280 160l40 40M0 160h280M10 170h280M20 180h280M30 190h280M40 200h280"/></g><path opacity=".4" d="M0 0h280v160H0z"/><g fill="none" stroke="#fff"><path d="M0 160V0M20 160V0M40 160V0M60 160V0M80 160V0M100 160V0M120 160V0M140 160V0M160 160V0M180 160V0M200 160V0M220 160V0M240 160V0M260 160V0M280 160V0"/><path stroke-width=".747" d="M0 0h280M0 20h280M0 40h280M0 60h280M0 80h280M0 100h280M0 120h280M0 140h280M0 160h280"/></g><path opacity=".5" d="M320 200l-40-40V0l40 40z"/><g fill="none" stroke="#fff"><path d="M280 0l40 40M280 20l40 40M280 40l40 40M280 60l40 40M280 80l40 40M280 100l40 40M280 120l40 40M280 140l40 40M280 160l40 40M280 160V0M290 170V10M300 180V20M310 190V30M320 200V40"/></g><path opacity=".05" d="M320 40H40L0 0h280z"/><g fill="none" stroke="#fff"><path d="M40 40L0 0M60 40L20 0M80 40L40 0M100 40L60 0M120 40L80 0M140 40L100 0M160 40L120 0M180 40L140 0M200 40L160 0M220 40L180 0M240 40L200 0M260 40L220 0M280 40L240 0M300 40L260 0M320 40L280 0M0 0h280M10 10h280M20 20h280M30 30h280M40 40h280"/></g></g></svg>