<svg xmlns="http://www.w3.org/2000/svg" viewBox="0 0 1000 880" enable-background="new 0 0 1000 880"><g fill-rule="evenodd" clip-rule="evenodd"><path d="M983.41 470.5c9.11-.164 16.493-7.512 16.59-16.648.106-9.107-7.093-16.608-16.176-16.993 9.044-.952 15.75-8.897 15.074-17.985-.677-9.078-8.474-15.944-17.556-15.57 8.918-1.72 14.918-10.192 13.46-19.194-1.45-8.99-9.827-15.165-18.842-14.02 8.744-2.472 14-11.425 11.78-20.263-2.243-8.905-11.22-14.367-20.166-12.328 8.62-3.137 13.17-12.58 10.184-21.255-2.976-8.655-12.34-13.328-21.054-10.608 8.27-3.875 11.97-13.617 8.28-21.993-3.68-8.348-13.353-12.233-21.788-8.857 7.855-4.55 10.715-14.522 6.358-22.542-4.34-8-14.26-11.088-22.378-7.068 7.42-5.175 9.45-15.32 4.474-22.946-4.966-7.615-15.063-9.913-22.832-5.298 6.957-5.742 8.165-15.983 2.618-23.186-5.536-7.193-15.76-8.703-23.14-3.54 6.473-6.25 6.89-16.53.82-23.28-6.058-6.743-16.348-7.483-23.305-1.81 5.953-6.712 5.586-16.973-.956-23.243-6.6-6.328-17.025-6.26-23.537.067 5.594-7.136 4.522-17.454-2.513-23.282-7.044-5.838-17.44-5.01-23.47 1.76 5.073-7.51 3.276-17.723-4.164-23.05-7.43-5.32-17.73-3.77-23.276 3.403 4.53-7.837 2.02-17.896-5.77-22.695-7.786-4.79-17.96-2.53-22.975 5.01 3.98-8.136.78-18.002-7.316-22.253-8.097-4.25-18.078-1.308-22.58 6.55 3.42-8.377-.445-18.003-8.804-21.696-8.357-3.702-18.106-.106-22.078 8.01 2.83-8.577-1.652-17.906-10.242-21.04-8.58-3.135-18.078 1.096-21.49 9.472 2.27-8.75-2.83-17.782-11.603-20.35-8.764-2.567-17.943 2.262-20.813 10.83 1.68-8.867-3.99-17.532-12.9-19.532-8.918-1.99-17.77 3.414-20.068 12.146 1.1-8.953-5.11-17.243-14.136-18.666-9.025-1.423-17.508 4.54-19.247 13.397.54-9.01-6.194-16.888-15.286-17.743-9.083-.846-17.17 5.616-18.35 14.55C534.19 7.75 526.983.325 517.86.037c-9.14-.288-16.812 6.693-17.402 15.704-.59-9.01-8.252-16.002-17.383-15.732-9.12.28-16.34 7.684-16.406 16.695-1.17-8.934-9.24-15.416-18.33-14.58v.01c-9.092.837-15.837 8.703-15.315 17.705C431.305 10.98 422.83 5 413.798 6.413h.01c-9.036 1.413-15.267 9.684-14.175 18.637-2.28-8.732-11.122-14.156-20.04-12.175-8.92 1.99-14.61 10.646-12.938 19.522-2.84-8.578-12.03-13.425-20.803-10.876-8.773 2.56-13.894 11.58-11.633 20.33-3.403-8.385-12.88-12.635-21.48-9.51-8.59 3.125-13.103 12.463-10.272 21.05-3.942-8.144-13.7-11.76-22.07-8.077-8.367 3.683-12.24 13.3-8.84 21.686-4.483-7.867-14.464-10.83-22.56-6.59-8.107 4.233-11.325 14.09-7.364 22.235-5.005-7.55-15.17-9.82-22.967-5.05-7.788 4.78-10.33 14.83-5.817 22.688-5.517-7.184-15.817-8.752-23.266-3.443-7.44 5.308-9.266 15.52-4.203 23.042-6.02-6.79-16.415-7.636-23.46-1.808-7.14 5.885-8.173 16.396-2.347 23.55-6.474-6.577-17.083-6.75-23.78-.355-6.676 6.376-6.947 16.896-.656 23.61-6.957-6.03-17.518-5.416-23.702 1.442-6.174 6.846-5.67 17.35 1.082 23.58-7.392-5.47-17.856-4.05-23.49 3.25-5.613 7.27-4.337 17.657 2.813 23.37-7.788-4.82-18.06-2.57-23.093 5.115-5.015 7.664-2.957 17.877 4.57 23.042-8.136-4.136-18.156-1.078-22.533 6.962-4.377 8.01-1.526 17.993 6.33 22.56-8.436-3.394-18.118.472-21.81 8.82-3.68 8.308-.057 18 8.098 21.925-8.677-2.635-17.943 2.03-20.92 10.626-2.966 8.56 1.42 17.878 9.818 21.148-8.83-1.836-17.614 3.57-19.836 12.36-2.242 8.836 2.995 17.8 11.73 20.29-9.015-1.173-17.392 4.992-18.87 13.983-1.47 8.99 4.51 17.483 13.43 19.224-9.083-.394-16.89 6.453-17.586 15.53-.696 9.118 6.04 17.09 15.12 18.023-9.12.327-16.377 7.828-16.29 16.964.078 9.136 7.45 16.493 16.562 16.676-9.044 1.115-15.614 9.193-14.754 18.29.86 9.09 8.85 15.81 17.953 15.205-8.93 1.875-14.784 10.492-13.15 19.474 1.642 8.99 10.183 15.01 19.198 13.627-8.735 2.616-13.837 11.704-11.43 20.522 2.405 8.827 11.43 14.097 20.31 11.943-8.494 3.346-12.813 12.83-9.663 21.416 3.15 8.587 12.58 13.078 21.238 10.193-8.174 4.038-11.672 13.848-7.817 22.137 3.855 8.29 13.623 11.982 22.01 8.405-7.817 4.684-10.503 14.743-5.98 22.695v-.01c4.52 7.955 14.56 10.85 22.62 6.598-7.402 5.29-9.277 15.52-4.137 23.09 5.13 7.568 15.372 9.646 23.063 4.78-6.966 5.856-8.04 16.194-2.32 23.34 5.702 7.135 16.06 8.432 23.355 3-6.483 6.356-6.764 16.742-.532 23.426 6.232 6.693 16.648 7.203 23.508 1.25-5.99 6.82-5.488 17.185 1.218 23.388 6.706 6.212 17.12 5.963 23.518-.46-5.46 7.22-4.203 17.51 2.927 23.223 7.13 5.703 17.49 4.713 23.412-2.135-4.93 7.587-2.948 17.753 4.57 22.946 7.507 5.183 17.758 3.47 23.19-3.76-4.378 7.905-1.692 17.907 6.163 22.56 7.865 4.665 17.982 2.242 22.89-5.375-3.846 8.194-.484 18.003 7.68 22.12 8.166 4.126 18.1 1.02 22.466-6.915-3.286 8.434.733 17.993 9.16 21.56 8.415 3.57 18.116-.192 21.942-8.385-2.705 8.626 1.932 17.896 10.57 20.897v.01c8.812 3.058 18.456-1.568 21.537-10.348.03-.092.05-.183.08-.274.23.072.462.14.692.21-.14.486-.27.976-.367 1.468-.106.54-.193 1.088-.242 1.626-.058.548-.087 1.106-.087 1.654 0 .558.03 1.116.087 1.664.05.538.136 1.087.242 1.625.107.54.252 1.077.406 1.606.166.518.35 1.038.56 1.548.214.5.445 1.01.707 1.49.26.48.54.962.85 1.414.31.46.638.903.986 1.327.347.43.725.845 1.12 1.23.387.384.802.76 1.228 1.115.426.347.88.673 1.344.97.454.31.928.597 1.42.848.483.26.986.5 1.498.702.502.21 1.024.404 1.555.558.522.163 1.063.298 1.604.404.543.116 1.093.193 1.644.25.55.058 1.112.086 1.662.086.55 0 1.112-.028 1.663-.086.55-.057 1.1-.134 1.64-.25.543-.106 1.083-.24 1.605-.404.522-.154 1.053-.347 1.556-.558.513-.202 1.015-.442 1.498-.702.483-.25.966-.54 1.42-.847.464-.298.91-.625 1.333-.97.436-.357.852-.732 1.238-1.117.396-.385.763-.8 1.12-1.23.35-.425.678-.867.986-1.328.3-.453.59-.933.85-1.414.252-.48.494-.99.706-1.49.212-.51.396-1.03.56-1.55.155-.528.29-1.066.406-1.605.107-.538.184-1.087.242-1.625.06-.548.087-1.106.087-1.664 0-.548-.028-1.105-.087-1.654-.058-.538-.135-1.087-.242-1.626-.116-.538-.25-1.076-.406-1.606-.164-.52-.348-1.04-.56-1.548-.212-.5-.454-1.01-.705-1.49-.26-.482-.55-.963-.85-1.414-.31-.452-.638-.903-.986-1.327-.35-.434-.726-.847-1.122-1.232-.386-.384-.802-.76-1.227-1.115-.434-.346-.878-.673-1.343-.972-.454-.306-.937-.595-1.42-.845-.483-.26-.985-.5-1.497-.702-.503-.212-1.034-.404-1.556-.558-.522-.163-1.062-.3-1.604-.404-.54-.114-1.092-.192-1.642-.25-1.102-.105-2.223-.105-3.324 0-.55.058-1.1.135-1.643.25-.54.106-1.08.24-1.603.405-.53.154-1.053.346-1.555.558-.512.202-1.015.442-1.498.702-.493.25-.966.54-1.43.846-.454.3-.91.626-1.333.973-.086.073-.166.154-.252.228-.182-.224-.366-.446-.547-.672 7.28-5.472 8.913-15.744 3.593-23.184h-.01c-5.334-7.448-15.632-9.255-23.205-4.17-.16-.246-.314-.497-.472-.745 7.842-4.69 10.53-14.782 5.967-22.744-4.565-7.958-14.66-10.784-22.725-6.44-.134-.26-.265-.52-.398-.78 8.258-3.987 11.827-13.832 7.972-22.17-3.856-8.34-13.706-12.02-22.123-8.366-.113-.268-.223-.538-.334-.806 8.557-3.33 12.9-12.88 9.702-21.495-3.2-8.628-12.754-13.066-21.433-10.045l-.27-.823c8.79-2.71 13.81-11.933 11.24-20.763-2.582-8.83-11.784-13.938-20.673-11.53-.073-.285-.143-.57-.215-.854 8.96-2.092 14.616-10.954 12.656-19.938-1.96-8.993-10.8-14.716-19.832-12.924-.05-.286-.103-.57-.154-.857 9.085-1.476 15.334-9.927 14.006-19.022-1.338-9.102-9.746-15.415-18.875-14.252l-.097-.874c9.155-.823 15.998-8.782 15.35-17.946-.66-9.16-8.575-16.07-17.747-15.596-.01-.29-.015-.578-.024-.867 9.17-.086 16.63-7.44 16.746-16.618.113-9.152-7.147-16.674-16.297-17.006.017-.285.038-.566.056-.85.536.052 1.07.084 1.6.084 8.397 0 15.682-6.223 16.755-14.733 1.145-9.022-5.126-17.252-14.073-18.687.056-.277.112-.555.17-.83 1.373.34 2.754.515 4.108.515 7.275 0 13.99-4.703 16.194-11.993 2.59-8.612-2.095-17.666-10.506-20.66.108-.254.22-.503.33-.755 2.418 1.212 5.012 1.798 7.576 1.798 5.797 0 11.45-2.982 14.6-8.328 4.525-7.682 2.22-17.45-5.062-22.386l.51-.64c3.227 2.978 7.348 4.496 11.48 4.496 4.135 0 8.28-1.5 11.546-4.53v-.01c6.53-6.067 7.12-16.085 1.57-22.886.223-.157.447-.312.672-.468 3.15 5.16 8.712 8.074 14.445 8.074 2.678 0 5.393-.625 7.915-1.962 7.985-4.216 11.162-13.893 7.393-21.948.304-.123.605-.248.91-.37.103.294.196.59.316.873.212.508.444 1.01.706 1.49.26.48.54.96.85 1.412.3.462.638.904.985 1.327.348.432.725.845 1.112 1.23.396.394.81.76 1.236 1.116.426.347.88.673 1.334.98.463.3.937.587 1.43.847.483.25.986.49 1.488.702.512.21 1.034.394 1.565.558.522.154 1.062.288 1.604.404.54.106 1.092.183 1.643.24.55.057 1.11.086 1.662.086.55 0 1.11-.03 1.66-.086.543-.057 1.103-.134 1.644-.24.53-.115 1.073-.25 1.604-.404.522-.163 1.044-.347 1.555-.558.512-.21 1.015-.452 1.498-.702.484-.26.967-.548 1.42-.847.464-.307.91-.634 1.334-.98.435-.356.85-.72 1.237-1.116.387-.385.764-.798 1.122-1.23.347-.424.676-.866.985-1.328.098-.147.19-.3.286-.454.19.114.38.232.57.346-.047.083-.103.16-.15.243-4.512 8.145-1.547 18.377 6.637 22.868h-.01c2.59 1.424 5.402 2.097 8.156 2.097 5.962 0 11.74-3.136 14.822-8.704.05-.088.084-.18.13-.268.2.1.398.205.598.305-.043.09-.096.17-.138.26-3.942 8.425-.27 18.436 8.203 22.36 2.31 1.068 4.736 1.567 7.113 1.567 6.377 0 12.484-3.606 15.353-9.742.042-.09.07-.183.11-.273l.61.26c-.037.092-.085.178-.12.273-3.354 8.675.994 18.407 9.71 21.753 2 .76 4.048 1.125 6.067 1.125 6.793 0 13.2-4.106 15.788-10.79.037-.094.06-.19.095-.285l.628.215c-.032.095-.073.185-.103.28-2.764 8.878 2.232 18.302 11.15 21.053 1.67.51 3.353.75 5.005.75 7.217 0 13.904-4.635 16.146-11.858.03-.09.044-.18.07-.27.215.06.433.114.648.173-.024.092-.057.18-.08.272-2.165 9.04 3.44 18.118 12.532 20.272 1.314.306 2.628.46 3.933.46 7.643 0 14.58-5.203 16.435-12.935.022-.094.032-.187.052-.28.216.043.43.09.646.134-.017.09-.045.18-.06.27-1.566 9.165 4.627 17.86 13.836 19.417.956.163 1.913.24 2.85.24 8.097 0 15.257-5.81 16.658-14.012.017-.097.02-.193.034-.29l.658.09c-.012.097-.035.19-.045.288-.966 9.24 5.788 17.512 15.074 18.474.59.067 1.19.096 1.77.096 8.55 0 15.893-6.443 16.8-15.1.01-.086.007-.172.015-.26.22.017.44.03.658.045-.005.09-.02.175-.024.264-.368 9.29 6.898 17.12 16.23 17.484.224.01.455.02.678.02 9.034 0 16.522-7.107 16.88-16.166.004-.095-.005-.188-.003-.283l.678.006c0 .096-.01.19-.008.286.212 9.155 7.74 16.434 16.9 16.434.135 0 .27-.01.406-.01 9.334-.22 16.717-7.923 16.504-17.223-.002-.09-.016-.176-.02-.266.222-.012.445-.02.667-.032.007.09.003.18.01.27.774 8.76 8.155 15.368 16.833 15.368.493 0 .985-.02 1.488-.068 9.306-.808 16.185-8.973 15.374-18.233-.008-.095-.03-.185-.04-.278l.73-.09c.05.345.092.69.16 1.03.106.54.24 1.078.405 1.597.163.528.347 1.047.56 1.547.21.51.443 1.01.704 1.49.26.49.542.962.85 1.424.31.453.638.905.986 1.328.348.424.725.837 1.112 1.23.395.385.81.76 1.236 1.106.426.347.88.683 1.333.98.465.31.94.588 1.43.847.484.26.986.49 1.49.703.51.21 1.033.393 1.564.557.522.154 1.062.3 1.604.405.54.105 1.092.192 1.642.24.55.057 1.112.086 1.663.086.55 0 1.11-.028 1.662-.085.036-.003.073-.01.11-.013-6.444 3.445-10.127 10.808-8.546 18.285 1.613 7.606 8.145 12.924 15.585 13.338-7.112 2.414-11.972 9.358-11.402 17.157.58 7.895 6.542 14.117 14.05 15.377-7.48 1.605-13.14 8.154-13.315 16.098-.164 7.982 5.294 14.79 12.753 16.666-7.64.98-13.873 7.106-14.646 15.07-.783 7.98 4.173 15.193 11.517 17.608-7.72.423-14.396 6.125-15.72 14.03-1.324 7.906 3.12 15.445 10.27 18.35-7.73-.068-14.743 5.174-16.59 12.983-1.845 7.8 2.098 15.617 9.055 18.983-7.71-.586-15.073 4.193-17.44 11.858-2.358 7.665 1.053 15.724 7.778 19.542-7.652-1.106-15.325 3.144-18.204 10.626h-.01c-2.88 7.473-.048 15.733 6.367 20.013-7.536-1.655-15.48 2.01-18.92 9.24-3.42 7.204-1.264 15.61 4.745 20.36-7.333-2.212-15.498.78-19.518 7.655-4 6.857-2.6 15.36 2.918 20.61-7.063-2.838-15.41-.645-20.06 5.778-4.618 6.4-4.068 14.916.82 20.675-.476-.255-.97-.492-1.476-.69-.503-.213-1.034-.405-1.556-.56-.522-.162-1.062-.298-1.604-.403-.54-.115-1.092-.193-1.642-.25-1.102-.106-2.223-.106-3.324 0-.55.057-1.1.134-1.643.25-.54.105-1.082.24-1.604.404-.522.154-1.053.346-1.555.558-.512.202-1.014.442-1.497.702-.492.25-.965.54-1.42.846-.463.3-.917.625-1.343.972-.426.355-.84.73-1.228 1.115-.396.384-.774.797-1.12 1.23-.35.424-.678.875-.987 1.327s-.59.933-.85 1.413-.493.99-.705 1.49c-.213.51-.396 1.03-.56 1.55-.164.53-.3 1.067-.406 1.605-.107.54-.193 1.088-.252 1.626-.048.55-.077 1.107-.077 1.655 0 .558.03 1.116.077 1.664.058.537.145 1.086.252 1.624.106.54.242 1.077.406 1.606.164.52.347 1.04.56 1.55.212.5.444 1.01.705 1.49.26.48.54.96.85 1.413.31.46.638.903.986 1.327.346.432.724.846 1.12 1.23.386.385.8.76 1.227 1.116.426.347.88.673 1.343.97.455.31.928.597 1.42.848.484.26.986.5 1.498.702.502.21 1.033.404 1.555.558.522.163 1.063.298 1.604.404.542.116 1.092.193 1.643.25.55.058 1.112.086 1.662.086.55 0 1.112-.028 1.663-.086.55-.057 1.1-.134 1.642-.25.542-.106 1.082-.24 1.604-.404.523-.154 1.054-.347 1.557-.558.512-.202 1.014-.442 1.497-.702.493-.25.966-.54 1.42-.847.464-.298.918-.625 1.344-.97.425-.357.84-.732 1.227-1.117.396-.384.773-.798 1.12-1.23.35-.424.678-.866.987-1.327.31-.453.59-.933.85-1.414.26-.482.493-.99.705-1.49.212-.51.396-1.03.56-1.55.155-.53.3-1.067.406-1.606.107-.538.193-1.087.242-1.625.06-.55.087-1.107.087-1.665 0-.548-.028-1.105-.087-1.654-.048-.537-.135-1.086-.242-1.625-.053-.27-.117-.543-.186-.813 2.524 6.74 8.958 10.95 15.83 10.95 1.846 0 3.71-.3 5.556-.934h-.01c8.648-2.99 13.306-12.27 10.6-20.907 3.806 8.214 13.507 11.994 21.943 8.435 8.435-3.55 12.454-13.118 9.18-21.56 4.347 7.952 14.29 11.077 22.464 6.96 8.174-4.105 11.547-13.914 7.71-22.118 4.88 7.636 15.015 10.07 22.89 5.424 7.885-4.664 10.58-14.713 6.146-22.637 5.4 7.308 15.7 9.068 23.247 3.876 7.536-5.194 9.527-15.398 4.57-22.995 5.904 6.905 16.29 7.924 23.45 2.22 7.16-5.71 8.417-16.03 2.92-23.272 6.386 6.482 16.832 6.76 23.566.548 6.724-6.21 7.236-16.607 1.216-23.426 6.84 6 17.296 5.52 23.547-1.173 6.25-6.683 5.99-17.078-.503-23.445 7.285 5.462 17.654 4.183 23.373-2.953 5.73-7.136 4.676-17.474-2.28-23.34 7.69 4.886 17.933 2.818 23.083-4.74h-.01c5.16-7.56 3.295-17.81-4.106-23.11 8.048 4.27 18.106 1.405 22.648-6.55h-.01c4.532-7.933 1.866-17.992-5.922-22.694 8.368 3.587 18.145-.086 22.01-8.367 3.865-8.278.387-18.088-7.768-22.147 8.648 2.885 18.08-1.586 21.248-10.155 3.16-8.578-1.13-18.06-9.594-21.426 8.86 2.145 17.875-3.106 20.3-11.915 2.425-8.81-2.657-17.907-11.4-20.542 9.023 1.404 17.575-4.596 19.227-13.588h.008c1.652-8.982-4.184-17.608-13.092-19.503 9.09.616 17.073-6.087 17.953-15.175.873-9.09-5.677-17.186-14.72-18.31zM683.583 658.185c21.768-25.116 36.743-63.418 17.696-85.395-16.87-19.465-158.91-27.628-182.854 0-2.86 3.298-4.938 6.735-6.367 10.262-3.867-.51-7.895-.78-12.055-.78s-8.19.27-12.054.78c-1.428-3.527-3.508-6.964-6.366-10.262-23.945-27.628-165.982-19.465-182.853 0-19.046 21.977-4.07 60.28 17.697 85.395 21.768 25.116 124.08 19.674 141.493-.42 11.203-12.925 27.693-32.955 31.656-52.955 3.237-.46 6.72-.72 10.43-.72s7.19.26 10.428.72c3.964 20 20.453 40.03 31.656 52.956 17.414 20.093 119.725 25.535 141.493.42z"/><path d="M853.45 463.52l-.512-1.023c.657.685.42.233.51 1.023zm-41.687-231.188c8.615 7.24 17.914 15.785 26.34 24.04 9.072 8.884 17.24 23.263 6.394 32.99-1.312 1.176-8.154 1.932-10.23 2.556-1.227-3.355-4.16-.642-6.65-2.302-2.426-1.618-3.984-3.845-6.904-5.626-5.887-3.59-5.904-11.058-13.043-13.043-7.25-2.016-19.978-1.076-26.085 1.534-.132.057-3.172 1.673-3.58.513-.764.73-3.1 2.925-5.115 2.302 11.32-6.07 22.883-13.45 32.223-22.25-2.725-9.316-22.976-26.145-30.433-34.524.597.172 1.194.342 1.79.512l-.256-.767c-1.303-.843-1.637-.896-2.557-2.557 3.95.424 7.66 2.804 10.74 4.348l10.23 2.813c5.147 3.35 12.383 5.467 17.136 9.462zm-27.108 136.565l-.51-.256c-.172-.255-.342-.51-.512-.766.945.478.532.12 1.022 1.023zm-1.534.256c-.978-.67-1.245-.864-1.533-2.302.51.768 1.022 1.535 1.534 2.303zm-4.347 7.16h-1.023l-.51-1.023c.832-1.022.644-.316.51-1.28-.996-.43-.39.25-.767-.766l.256.51c.17.086.34.17.51.257l1.79 1.28c-1.06.716-.615-.246-.767 1.023zm-2.813-3.836c-.426-.597-.852-1.194-1.28-1.79 1.332.422 1.518.922 2.303 1.79h-1.023zM558.582 449.71c-3.81 6.172-4.996 11.82-8.184 16.367-2.92-.78-2.733.56-4.86 1.79-7.24-.825-15.484-2.67-18.924-6.393.173-3.11-5.093-6.3-6.65-8.95l-.51-8.952c-1.933-6.477-4.84-14.122-5.37-21.994-.292-4.304 13.786-25.124 16.878-31.967 7.122-15.762 11.094-33.233 14.32-48.845 1.502-7.262-1.298-12.935.257-18.925 6.117.625 16.26 4.846 20.714 10.23 1.394 1.684 2.23 4.737 4.092 6.65l-.51 1.533c.003 3.245 2.096 10.166 3.58 14.32 1.463 4.104.518 9.245 1.79 13.81 7.924 28.46-3.16 59.513-16.624 81.327zm46.29-10.485c-.086-.17-.17-.34-.257-.51-.51-.342-1.023-.683-1.534-1.024 1.064.315 2.092.54 1.79 1.535zm11.25 6.138v-.51l.257.255c1.024.356.444-.086.766.767l-1.023-.512zm49.87-2.046c-1.705.284-4.54 2.114-7.416 1.023l2.302-1.79c.852.256 1.705.51 2.557.767l.256-1.28 2.558.257c-.83.65-.772.103-.256 1.023zM853.45 497.79l.255 3.068c-7.22 3.477-14.395 9.235-24.04 7.16-.467-.1-2.15-.36-2.556.512-1.85-1.783-15.095-4.007-19.437-5.626-3.414-1.273-9.276-5.27-13.298-7.416-22.93-12.23-42.817-27.263-61.377-44.5-6.65-6.988-13.3-13.98-19.948-20.97-2.34-2.933-4.805-8.2-7.928-9.462l-13.043 9.974c-2.65 2.13-7.502 2.322-10.486 5.37l-2.302-.51c-3.486 1.97-4.326 3.984-8.44 6.138-3.603 1.888-7.02-1.976-12.02 0-6.14 2.427-12.08 6.042-19.18 6.65-1.936-1.54-2.51-1.67-5.625-1.024v.256c.682.256 1.364.51 2.046.767-7.025.052-25.91-5.14-30.177-8.695.067-1.78-12.016-9.64-15.09-10.997v-.256l1.024-.768c1.184 1.162.232.77 1.79.767-1.153-2.936-3.408-4.858-4.86-6.906h.257c5.74 2.986 9.552 3.566 16.367 5.626-.426-.682-.852-1.364-1.28-2.046 12.988 7.766 26.23-1.133 38.873-3.07l-.512-.255-1.79-.512c2.3-1.002 4.74-.577 6.905-1.28 5.61-1.818 12.154-9.047 18.157-8.438-.24-1.04.326-.282-.51-1.023 6.2-3.905 11.338-7.81 16.366-12.787l-1.79.256.256-.767c10.22-2.87-.156-15.62-3.837-22.506-10.05-18.8-19.81-42.31-29.666-62.4-3.188-.303-13.19 3.267-15.856 4.092-17.223 5.33-49.61 1.357-56.006-11.764 12.284-.35 23.368-8.66 30.433-9.974.738-1.288 1.08-2.018 2.046-2.557l-.256 1.024 9.718-4.092c-.365-.953-.487-.583 0-1.79-1.493.328-.928.308-2.302-.256l.256 1.28c-2.527.2-2.837 1.838-5.116 1.278.81-.536 9.496-7.202 8.44-9.207-.086.17-.17.34-.257.51l-1.28 1.28-1.022-.256.51-1.278h-1.022l-1.023 2.302c.907.166.956-.39.767.512-.426.682-.852 1.364-1.28 2.046l-1.022-.51.256-.768-2.556 1.534v-.256l.256-1.023c2.27-.887 1.433-1.23 3.325-.768l-.51-1.79c3.776-3.54 7.633-7.82 9.973-12.02l1.023 1.023c.086-.34.17-.682.257-1.023-.437-3.637 2.446-3.214 4.092-5.882h-1.28l2.557-2.557c.035-.132-5.882-30.433-5.882-30.433 8.906-.113 13.085 5.842 20.46 9.974h.51c-.203-2.223 7.733-13.01 10.23-15.344-1.192-.464-.548.322-1.023-.767 1.103-.206.59.333 1.28-.767-.512.005-.242-.06 0-.51.772-6.17 8.348-13.008 11.252-19.437 6.527-14.453 15.008-29.686 19.436-46.8v-.257c-8.038-.162-45.994 4.783-49.102 7.928-5.976 6.048-7.88 28.318-9.718 34.27-1.12 3.623 1.525 8.772 1.023 11.508-.505 2.752-5.502 7.684-4.348 11.253l-5.626 4.604c-18.337 9.107-30.362-23.083-36.06-29.666l-.767.256c-7.505 20.458-21.062 32.756-43.476 22.25-7.957-3.73-15.725-4.667-21.738-10.486-.623-.602-3.732-.585-5.372-1.534l-5.37-5.115c-.94-.788-1.982.68-2.813.255-4.03-2.057-8.51-6.405-9.718-11.764 4.67-4.78 22.502-8.328 29.154-5.88 11.217-3.024 24.696-4.16 33.76-9.463 2.39-1.4 17.07-5.222 16.622-6.905 1.23-2.03-.466-4.013-1.023-6.138-2.04-7.78-5.17-29.944-1.024-35.036h-.767v-.256c9.5.88 23.17 17.056 28.13 23.528 2.048 2.672 3.46 7.5 6.138 8.695 9.46-2.3 18.926-4.604 28.387-6.905 2.503-.445 8.22-.044 11.253-1.79l5.115-6.65-2.813 6.14c14.053-1.108 31.082-4.262 44.243-5.372 3.237-10.728 7.673-22.862 10.485-33.246 1.705-6.296 1.513-15.96.51-20.46-.1-.446-.603-2.348-.766-1.79-.82-5.017 1.98-7.225-.51-13.042l.255-.256 2.813 2.046c-.256-1.108-.51-2.216-.767-3.325.682.426 1.364.852 2.046 1.28-.17-.257-.342-.512-.512-.768v-.767c3.403 1.174 5.334 4.333 7.416 6.905.578.714 3.4 1.108 4.092 2.046 10.43 14.167 20.96 26.555 25.318 43.22 1.32 5.052-5.667 15.936-5.882 18.67.727.505.327.37 1.023.51 3.458 1.034 9.31-1.644 13.043.768 3.737 2.416 8.527 2.916 12.53 4.86 7.165 3.475 22.67 14.79 25.83 19.947 1.908 3.11 3.292 5.71 4.604 9.207l.256 4.092c-1.966 3.424-5.117 8.164-8.44 10.74-12.593 9.768-33.068-12.27-36.314-17.645-1.787-2.96-7.9-10.49-12.53-9.208-1.33.368-14.486 4.785-14.578 4.86-3.368 2.688-3.584 8.767-6.65 11.763-5.042 4.93-8.83 12.247-14.576 18.67l-1.79 5.88c-.37.628-5.753 7.175-6.65 5.37-2.47 3.325-4.944 6.65-7.415 9.975l1.023.51c-4.983.593-8.936 10.138-13.043 12.788-.992.26-.197.334-1.28-.256-1.288 5.647-2.497 5.705-8.694 10.23 1.228.815-.187.424-1.022 1.28.256.596.51 1.193.767 1.79.51-.513 1.023-1.024 1.534-1.535-.086.17-.17.34-.257.51l-2.302 3.07c1.773 3.005 4.604 5.747 7.162 7.416l7.16-4.092c1.314-1.14 1.464-3.133 3.07-4.09 11.454-6.832 21.473-9.89 36.315-10.742 14.84-.852 32.73 21.586 9.207 29.41.853 1.36.875 1.42-.256 2.557-11.37.627-23.17 13.91-31.712 19.436-3.008 1.947-13.306 4.16-14.066 5.883-2.36 5.357 3.424 13.178 3.836 18.67.594 7.923 13.026 45.45 20.46 51.403l.255-.256c5.772-15.143 15.192-31.323 21.227-46.544 2.677-6.753-1.162-17.288 1.023-20.97 7.442 1.68 12.332 7.664 15.856 10.996 8.46 8 12.96 15.625 16.112 25.574.848 2.677-1.21 7.622-1.28 10.997l-1.79 2.813c-2.503 8.034-7.356 14.87-12.53 21.226-.426 1.108-.852 2.216-1.28 3.325-5.212 6.06-12.578 14.067-15.855 21.994 16.458 18.745 36.254 34.248 56.263 48.59 4.61 3.305 12.618 7.517 16.88 10.23 2.578 1.643 5.81 1.628 7.415 3.58.342-.084.683-.17 1.024-.255l1.023-10.23-2.046-9.462c.664 1.18.614 2.087 1.79 2.813-6.046-20.825-7.51-31.956-17.39-49.358l-4.09-8.44-.257.768c-2.32-3.803-2.448-5.07-4.86-8.95h.257c1.642.435 2.813.255 2.813.255 1.14 2.6 1.362 5.064 3.07 7.162.984-.377.122-.383 1.022-.256.747-1.286-.535-.563-.767-1.534h-.767c1.226-.73.758-.607 2.047 0l-3.07-6.138 1.024-.256c4.604 6.904 9.208 13.81 13.81 20.715-.7-8.608-10.483-18.442-14.065-27.62l1.023-.256h.256c1.228 3.986 13.102 16.46 16.623 21.994 8.288 13.027 17.493 25.38 27.876 38.106.597-.256 1.194-.51 1.79-.767l.256.766-.512 1.023-.51-1.024c-.086.34-.17.682-.257 1.023.768.425 1.536.85 2.303 1.278l.51 1.79c1.52-.702 7.88 16.51 9.72 15.856.676.337 1.473 1.59 1.79 1.023 3.32 4.083 1.486 10.87 6.904 13.043l-.51-2.046h.766c.793 1.975 1.096 1.32 2.302 2.813 1.28 4.432 2.557 8.866 3.836 13.298l2.558 2.046c2.002 3.495-4.93 17.02-6.91 17.9zm-251.904-72.375c-1.472.31-4.167-1.04-5.37-2.302l5.37 2.302zm-2.813-2.813c2.12.33 3.588.694 4.86 1.79l-4.86-1.79zm7.416 2.046l.766.256c-.365-.093-.28.112-.767-.256zm45.777-7.928l.256-.51c.256.084.51.17.767.255l-1.023.255zm4.09-2.302h.768c-.72.267-.13.377-.767 0zm5.116-2.813h.767c-.686.344-.648.098-.767 0zm3.07-2.046l1.022.51h-.767l-.256-.51zm7.927-4.86c-.72.266-.13.377-.767 0h.767zm-.51-1.023c1.107-.597 2.215-1.194 3.324-1.79l.767.256c-1.255.977-2.917 1.81-3.58 2.046l-.51-.513zM601.8 292.942l.767.51c-.916-.115-.66.13-.768-.51zm3.58 0l-.256-1.023c.8.688.75.09.256 1.022zm-.256-2.3l.767-.768s.24 1.173-.767.767zm4.604-2.56v-1.278l1.023 1.023-.256.256h-.767zm163.16-12.274l-1.278.51.767-.766.51.256zm-83.37-56.774v-.256l1.79-2.302c1.012.594-.685 1.972-1.79 2.558zm-13.81 15.856c-.537.88-.207.622-1.28 1.023.257-.34.513-.682.768-1.023h.512zm-2.046 2.813l-1.28.767.257-1.023c.427-.51.853-1.023 1.28-1.534.58.4.146.935-.256 1.79zm41.174 39.128l-1.79 1.535 1.023-1.534h.768zm-7.672 5.37l.256-1.022c-.078.552.165.45-.256 1.023zm85.16 125.825l1.024.51h-.767l-.256-.51zm-8.182-34.013c.988.56.825.43 1.023 1.79l-.51-1.023-.513-.768zm-171.6-195.385c3.52-.988 10.99-6.833 11.507-9.718-2.608 2.12-9.622 3.17-13.042 6.648l1.535 3.07zm21.225 94.88c-.786 2.135-7.98 4.11-6.65 6.904-2.742.662-3.127 2.716-5.115 2.558l.256-.256c.598-.682 1.195-1.364 1.79-2.046l-.51.51c-1.59.59-2.7 2.032-3.58 3.326 1.532-.587 1.337-1.133 2.557-.256-1.414.323-4.294 2.96-5.626 4.348 7.058-1.085 14.228-5.842 18.414-8.695-.34-.086-.682-.17-1.023-.257.536-.792 1.005-1.242 1.024-1.28.33-1.254-.288-4.136-1.535-4.857zm-16.88 4.602c.664.46.312.082.256.766l.256.256 1.534-1.534-2.046.51zm8.696.51l-.767 1.28 1.79-1.023-1.024-.256zm-6.394.512l-.51.51c.262-.028 1.218-.656.51-.51zm168.532 106.644c.76.252.114.37 1.023 0-1.325-.56-1.567-1.058-2.557-1.79.41 1.265.366 1.275 1.534 1.79zm-150.63 39.383l1.79-1.024h-1.023l-.766 1.023zm32.223 12.275l-1.534 1.023 1.79.256c.35-.555-.164-.253.51-.51-.502-.866.087-.26-.766-.77zm-4.86 2.813l1.024-.256-.51-.256c-.17.17-.342.34-.512.512z" fill="#fff"/></g></svg>