<svg xmlns="http://www.w3.org/2000/svg" viewBox="0 0 400 280" enable-background="new 0 0 400 280"><g><path d="M135.83 277.5c-16.127 0-30.895-9.492-37.623-24.184l-.798-1.744-1.893.32c-2.897.49-5.853.738-8.784.738-28.848 0-52.317-23.49-52.317-52.362 0-2.02.12-4.077.357-6.118l.237-2.038-1.953-.63C14.78 185.59 2.5 168.708 2.5 149.476c0-19.473 12.477-36.418 31.047-42.165l2.31-.714-.638-2.333c-.876-3.198-1.32-6.494-1.32-9.794 0-20.406 16.586-37.006 36.973-37.006 2.43 0 4.873.242 7.264.718l2.672.533.3-2.708c2.997-26.96 25.725-47.293 52.868-47.293 17.95 0 34.572 8.973 44.462 24.003l.995 1.512 1.747-.474c3.335-.902 6.77-1.36 10.21-1.36.603 0 1.202.02 1.798.047l1.72.077.685-1.578C203.103 13.664 220.112 2.5 238.93 2.5c25.207 0 45.93 19.72 47.178 44.896l.14 2.807 2.77-.465c2.57-.43 5.19-.65 7.79-.65 12.06 0 23.512 4.583 32.242 12.903l1.26 1.2 1.562-.763c5.976-2.92 12.4-4.4 19.097-4.4 24.036 0 43.59 19.572 43.59 43.63 0 8.104-2.236 16.017-6.47 22.88l-.76 1.23.69 1.27c2.564 4.75 3.92 10.13 3.92 15.56 0 9.508-4.128 18.537-11.325 24.773l-2.273 1.97 2.353 1.875c10.68 8.512 16.807 21.22 16.807 34.865 0 24.562-19.966 44.545-44.507 44.545-6.286 0-12.365-1.287-18.067-3.825l-1.93-.86-1.17 1.762c-6.574 9.907-17.58 15.82-29.438 15.82-16.456 0-30.96-11.662-34.485-27.73l-.82-3.743-3.096 2.258c-6.288 4.59-13.73 7.014-21.52 7.014-6.186 0-12.303-1.58-17.69-4.565l-1.69-.936-1.33 1.397c-7.814 8.182-18.333 12.688-29.62 12.688-4.728 0-9.373-.805-13.806-2.393l-2.414-.864-.803 2.435c-5.61 16.996-21.398 28.417-39.287 28.417z" fill="#fff"/><path d="M238.93 5c23.873 0 43.5 18.677 44.68 42.52l.28 5.612 5.542-.93c2.434-.408 4.915-.615 7.375-.615 11.415 0 22.254 4.337 30.518 12.213l2.518 2.4 3.126-1.527c5.63-2.75 11.685-4.146 17.998-4.146 22.658 0 41.092 18.45 41.092 41.13 0 7.64-2.11 15.098-6.1 21.568l-1.516 2.46 1.374 2.54c2.37 4.385 3.62 9.355 3.62 14.373 0 8.78-3.812 17.12-10.462 22.883l-4.546 3.94 4.704 3.75C389.216 181.203 395 193.2 395 206.08c0 23.183-18.845 42.044-42.007 42.044-5.934 0-11.67-1.214-17.05-3.61l-3.863-1.72-2.338 3.523c-6.11 9.207-16.336 14.703-27.354 14.703-15.29 0-28.768-10.837-32.044-25.768l-1.642-7.484-6.19 4.516c-5.856 4.274-12.787 6.533-20.045 6.533-5.762 0-11.46-1.47-16.478-4.252l-3.376-1.87-2.665 2.79c-7.34 7.683-17.215 11.914-27.81 11.914-4.442 0-8.804-.757-12.965-2.247l-4.827-1.73-1.607 4.87C167.47 264.27 152.64 275 135.83 275c-15.153 0-29.028-8.92-35.35-22.725l-1.596-3.488-3.783.64c-2.758.467-5.573.704-8.366.704-27.47 0-49.817-22.367-49.817-49.86 0-1.924.115-3.886.34-5.83l.475-4.077-3.906-1.26C16.584 183.544 5 167.62 5 149.476c0-9.072 2.863-17.693 8.28-24.93 5.243-7.004 12.703-12.276 21.006-14.846l4.62-1.43-1.275-4.667c-.815-2.984-1.23-6.057-1.23-9.134 0-19.027 15.465-34.506 34.474-34.506 2.266 0 4.545.225 6.775.67l5.344 1.066.602-5.417c2.856-25.693 24.516-45.07 50.383-45.07 17.106 0 32.947 8.553 42.372 22.88l1.99 3.022 3.493-.945c3.12-.844 6.336-1.273 9.557-1.273.5 0 1.033.014 1.683.043l3.44.156 1.372-3.158C204.997 15.574 221.11 5 238.93 5m0-5c-20.425 0-37.97 12.323-45.63 29.945-.632-.03-1.268-.048-1.91-.048-3.76 0-7.398.51-10.862 1.446-9.96-15.136-27.088-25.13-46.55-25.13-28.658 0-52.257 21.662-55.352 49.517-2.507-.5-5.1-.766-7.753-.766-21.8 0-39.473 17.687-39.473 39.505 0 3.62.496 7.122 1.407 10.453C13.805 110.803 0 128.525 0 149.475c0 20.76 13.556 38.347 32.29 44.387-.243 2.102-.373 4.24-.373 6.407 0 30.3 24.542 54.86 54.817 54.86 3.136 0 6.21-.266 9.2-.773 6.928 15.13 22.18 25.643 39.896 25.643 19.422 0 35.885-12.635 41.66-30.136 4.578 1.64 9.51 2.54 14.65 2.54 12.362 0 23.51-5.173 31.426-13.462 5.602 3.106 12.044 4.88 18.902 4.88 8.597 0 16.54-2.786 22.993-7.495 3.728 16.983 18.84 29.696 36.93 29.696 13.16 0 24.745-6.732 31.52-16.94 5.83 2.597 12.288 4.043 19.084 4.043 25.96 0 47.006-21.063 47.006-47.045 0-14.91-6.934-28.2-17.75-36.82 7.462-6.466 12.19-16.008 12.19-26.662 0-6.062-1.53-11.766-4.223-16.75 4.338-7.033 6.843-15.32 6.843-24.192 0-25.477-20.636-46.13-46.092-46.13-7.243 0-14.095 1.674-20.194 4.654-8.84-8.423-20.8-13.593-33.967-13.593-2.795 0-5.534.237-8.203.684C287.3 20.946 265.56 0 238.93 0z"/></g></svg>