<svg xmlns="http://www.w3.org/2000/svg" viewBox="0 0 100 65" enable-background="new 0 0 100 65"><g><g fill="#fff"><path d="M86.752 7.724h.55-.55zm3.213-.25h-.15.15zm-3.203 0c.062-1.307.225-1.874.644-2.234.284-.228.647-.336 1.123-.336.386 0 .672.112.89.336.37.354.498.913.545 2.186v.037l-3.093.012h-.11zm-.01 0v-.06.06zm1.777-2.837c-1.785 0-3.18 1.513-3.18 3.443 0 1.93 1.395 3.44 3.18 3.44 1.036 0 1.99-.544 2.624-1.49l-.01-.033c-.028-.045-.108-.104-.15-.103-.588.876-1.463 1.355-2.464 1.355-.475 0-.838-.108-1.123-.34-.484-.405-.63-1.072-.63-2.83 0-.12 0-.24-.024-.333v-.01l4.48-.006c.042 0 .06-.02.06-.06 0-.95-.7-3.033-2.764-3.033M94.553 5.832c-.006.008-.006.01-.01.02V5.36l.01.474zm5.26 5.28h-.853c-.077 0-.077-.015-.077-.05V7.228c0-1.62-.96-2.59-2.56-2.59-.63 0-1.15.24-1.48.66V5.3c-.043.053-.08.11-.115.17-.07.11-.128.228-.176.36v-.998c0-.035-.006-.057-.06-.057h-2.226c-.024 0-.033.073-.033.135 0 .06.01.134.033.134h.864c.096 0 .096.04.096.052v5.968c0 .012 0 .048-.096.048h-.864c-.024 0-.033.074-.033.135 0 .064.01.134.033.134h3.236c.022 0 .03-.07.03-.133 0-.062-.008-.135-.03-.135h-.852c-.097 0-.097-.037-.097-.048v-4.7c.342-1.024.867-1.46 1.77-1.46.464 0 1.208.423 1.208 1.567v4.592c0 .03-.014.048-.083.048h-.85c-.015 0-.02.025-.027.05-.002.022-.005.054-.005.085 0 .064.005.134.032.134h3.216c.044 0 .044-.11.044-.135 0-.02 0-.134-.045-.134M9.07 8.105c-.044 0-.117.006-.117.035 0 1.11-.422 2.97-3.265 2.97h-1.69c-.08 0-.095-.014-.095-.047L3.89 5.878h.574c1.13 0 1.83.67 1.83 1.752 0 .065.22.065.22 0V3.86c0-.03-.07-.03-.114-.03-.04 0-.106.002-.106.03 0 1.097-.684 1.75-1.83 1.75l-.56.01V.72c0-.03.015-.047.094-.047H5.64c2.29 0 2.54 1.862 2.54 2.66 0 .046.105.046.12.046.027 0 .133 0 .133-.047V.463c0-.024-.023-.06-.055-.06H.828C.807.403.8.477.8.538c0 .064.008.135.03.135h1.286c.07 0 .086.017.086.048v10.343c0 .03-.017.048-.085.048H.83c-.024 0-.03.074-.03.136 0 .064.006.134.03.134h8.297c.038 0 .062-.02.062-.058V8.14c0-.03-.077-.035-.12-.035M13.598 11.11h-.85c-.083 0-.096-.014-.096-.047V.056c0-.016-.02-.056-.06-.056h-2.227c-.04 0-.042.104-.042.135 0 .03.003.134.042.134h.852c.084 0 .097.018.097.05v10.743c0 .033-.013.048-.097.048h-.852c-.04 0-.042.105-.042.136 0 .033.003.134.042.134h3.233c.03 0 .035-.07.035-.134 0-.06-.005-.135-.035-.135M17.972 11.11h-.863c-.074 0-.09-.018-.09-.047v-6.23c0-.04-.017-.058-.053-.058H14.73c-.032 0-.032.073-.032.135 0 .062 0 .134.03.134h.846c.098 0 .1.015.1.052v5.968c0 .035-.002.048-.1.048h-.845c-.032 0-.032.074-.032.135 0 .064 0 .134.03.134h3.244c.023 0 .032-.07.032-.133 0-.062-.01-.136-.032-.136M16.35 1.923c.48 0 .875-.408.875-.91 0-.505-.394-.92-.876-.92-.475 0-.864.415-.864.92 0 .512.38.91.863.91M24.57 9.16c-.044 0-.118 0-.118.032 0 1.363-.61 1.92-2.11 1.92h-1.586c-.06 0-.075-.006-.075-.03L24.594 4.9c.015-.057.015-.095 0-.112h-.719l-4.188-.013c-.032 0-.057.02-.057.057v1.933c0 .055.252.055.252 0 0-1.27.49-1.722 1.875-1.722h1.24c.07 0 .076.016.066.033l-3.877 6.18c-.022.035-.032.063-.017.09.01.02.03.034.056.034h5.412c.052 0 .053-.02.053-.056V9.19c.002-.03-.07-.03-.116-.03M29.995 10.367c.02.11.054.223.094.325-.04-.1-.077-.202-.103-.313.003-.01.008-.01.008-.013m-.073-2.5v1.82c0 .71-.58 1.502-1.414 1.502-.7 0-1.054-.437-1.054-1.302 0-1.4.47-1.614.997-1.72.127-.02.265-.037.414-.053.373-.042.798-.09 1.058-.25m2.205 2.902c-.005-.004-.008-.004-.01 0 0 0-.008-.004-.015-.004-.064.16-.247.334-.5.334-.22 0-.348-.187-.348-.516V7.445c0-1.862-.834-2.807-2.48-2.807-1.225 0-1.878.706-1.878 1.216 0 .35.193.705.63.705.507 0 .69-.31.69-.568 0-.114-.037-.187-.072-.27-.033-.08-.07-.168-.07-.3 0-.355.225-.517.7-.517.57 0 1.148.167 1.148 1.382v1.172c0 .297-.82.37-1.61.437l-.157.02c-.75.075-2.02.436-2.02 1.973 0 1.023.786 1.632 2.097 1.632.76 0 1.32-.394 1.602-.852.06-.09.115-.19.152-.288.125.694.6 1.14 1.213 1.14.578 0 .975-.314 1.06-.61.004-.008 0-.023-.008-.037-.024-.04-.08-.094-.125-.106M35.308 10.784c.067.066.138.13.216.193-.072-.058-.15-.122-.216-.185v-.008zm.012-5.51c0 .004-.007.004-.012.006V3.058l.012 2.217zm1.43-.37c.285 0 .823.045 1.148.323.483.404.724 1.378.724 2.894 0 1.503-.23 2.394-.724 2.808-.28.236-.543.323-.983.323-.57 0-1.316-.307-1.59-.98l-.005-4.552c.237-.534.896-.814 1.43-.814m0-.267c-.496 0-.91.155-1.257.468-.06.056-.118.106-.168.164V.055c0-.014 0-.056-.057-.056H33.04c-.03 0-.036.075-.036.135 0 .058.006.134.036.134h.867c.06 0 .094.018.094.05v10.743c0 .012 0 .048-.093.048h-.867c-.03 0-.036.075-.036.136 0 .064.006.134.036.134h2.228c.052 0 .057-.02.057-.058l-.017-.31V10.8c.407.426 1.05.72 1.608.72 1.84 0 3.075-1.755 3.075-3.4s-1.386-3.483-3.24-3.483M42.45 7.724h.547-.546zm3.21-.25h-.152.153zm-3.202 0c.06-1.307.226-1.874.645-2.234.288-.228.643-.336 1.12-.336.39 0 .68.112.895.336.363.354.5.913.544 2.186v.037l-3.088.012h-.116zm-.007 0c0-.02 0-.037.002-.06v.06m1.772-2.837c-1.783 0-3.18 1.513-3.18 3.443 0 1.93 1.397 3.44 3.18 3.44 1.035 0 1.99-.544 2.626-1.49l-.014-.033c-.022-.043-.107-.106-.146-.103-.586.876-1.467 1.355-2.467 1.355-.478 0-.834-.108-1.118-.34-.484-.405-.632-1.072-.632-2.83 0-.12 0-.24-.023-.333v-.01l4.478-.006c.038 0 .06-.02.06-.06 0-.95-.695-3.033-2.764-3.033M51.386 10.034c-.175.656-.526 1.05-.932 1.05-.265 0-.423-.162-.423-.443V5.097c0-.03.01-.052.08-.052h1.284c.028 0 .035-.07.035-.133 0-.06-.008-.134-.036-.134H50.11c-.07 0-.08-.02-.08-.052V2.13c0-.03-.127-.03-.15-.03-.086 0-.102.016-.102.027-.19.562-.56.886-1.094.976v1.62c0 .042-.007.053-.1.053h-1.066c-.03 0-.03.074-.03.135 0 .063 0 .134.03.134h1.065c.094 0 .1.016.1.052v4.9c0 1.01.444 1.523 1.323 1.523.798 0 1.325-.464 1.56-1.372 0-.034-.124-.12-.18-.114M54.51 5.832c-.002.005-.006.01-.007.02V3.05l.007 2.784zm5.264 5.28h-.85c-.08 0-.082-.015-.082-.05V7.228c0-1.62-.962-2.59-2.578-2.59-.508 0-1.098.192-1.48.69-.113.146-.2.308-.273.504V.057c0-.014 0-.056-.056-.056h-2.22c-.03 0-.037.075-.037.135 0 .058.006.134.037.134h.86c.07 0 .1.018.1.05v10.743c0 .012 0 .048-.1.048h-.86c-.03 0-.037.075-.037.136 0 .064.006.134.037.134h3.226c.03 0 .035-.07.035-.134 0-.062-.005-.135-.035-.135h-.85c-.098 0-.098-.036-.098-.047v-4.7c.343-1.023.864-1.46 1.752-1.46.467 0 1.21.424 1.21 1.568v4.592c0 .035-.02.048-.065.048h-.853c-.044 0-.044.104-.044.135 0 .033 0 .134.044.134h3.217c.027 0 .03-.07.03-.135 0-.06-.003-.134-.03-.134M68.258 11.088s-.003.01-.008.01c.005 0 .005-.006.008-.01M63.66 7.506l1.706-4.96 1.28 3.77.4 1.182-2.48.007h-.905zm-.01 0l.432-1.255-.43 1.256h-.003zm3.4 0h-.77l.77-.004v.004zm4.42 3.605h-1.284c-.058 0-.094-.024-.094-.036L66.18.192c-.017-.037-.135-.04-.172-.04-.035 0-.156.003-.17.04L62.3 10.47c-.185.605-.216.64-.348.64h-1.05c-.012 0-.024 0-.024.136 0 .134.012.134.024.134h2.887c.027 0 .033-.07.033-.134 0-.062-.006-.135-.034-.135h-1.284c-.016 0-.022-.003-.026-.01-.03-.035.026-.223.16-.625l.933-2.712 3.53-.004 1.147 3.328c-.007.01-.027.023-.056.023h-1.326c-.03 0-.035.075-.035.136 0 .064.004.134.035.134h4.603c.03 0 .033-.07.033-.134 0-.06-.004-.135-.032-.135M74.153 5.83c0 .007-.006.012-.006.023v-.495l.006.472zm1.57-1.193c-.69 0-1.12.24-1.4.793-.06.118-.118.248-.17.395v-.993c0-.035 0-.058-.055-.058h-2.224c-.03 0-.03.074-.03.135 0 .06 0 .133.03.133h.852c.08 0 .092.02.092.052v5.968c0 .033-.012.048-.092.048h-.852c-.03 0-.03.075-.03.136 0 .064 0 .134.03.134H75.1c.032 0 .038-.07.038-.134 0-.062-.006-.135-.04-.135h-.86c-.07 0-.085-.018-.085-.047V6.487c.245-.997.602-1.444 1.135-1.444.242 0 .39.15.39.39 0 .12-.035.193-.08.267-.047.09-.104.19-.104.387 0 .316.298.55.704.55.345 0 .695-.268.695-.86 0-.567-.364-1.14-1.17-1.14M82.41 10.64v.326l-.008-.305c.003-.005.008-.01.01-.02m0-5.37v.01c-.06-.068-.124-.126-.188-.184.064.054.126.113.187.174m-3.293 2.85c0-1.54.24-2.487.736-2.893.316-.267.787-.323 1.12-.323.557 0 1.226.28 1.43.812v4.247c0 .64-.488 1.288-1.582 1.288-.436 0-.685-.084-.967-.322-.5-.41-.736-1.3-.736-2.807m5.566 2.99h-.85c-.085 0-.095-.014-.095-.047V.056c0-.016-.02-.056-.042-.056h-2.23c-.024 0-.03.075-.03.135 0 .058.006.134.03.134h.856c.066 0 .08.018.08.05l.01 2.767v2.178c-.377-.422-.845-.627-1.437-.627-1.856 0-3.24 1.84-3.24 3.484s1.242 3.4 3.087 3.4c.77 0 1.29-.384 1.49-.693.04-.057.072-.113.09-.163v.657c0 .037.02.058.057.058h2.224c.04 0 .048-.11.048-.134 0-.025-.01-.137-.05-.137"/></g></g></svg>