<?xml version="1.0" encoding="iso-8859-1"?>
<!-- Generator: Adobe Illustrator 19.2.1, SVG Export Plug-In . SVG Version: 6.00 Build 0)  -->
<svg version="1.1" xmlns="http://www.w3.org/2000/svg" xmlns:xlink="http://www.w3.org/1999/xlink" x="0px" y="0px"
	 viewBox="0 0 100 125" style="enable-background:new 0 0 100 125;" xml:space="preserve">
<g id="CU_x5F_SEAS">
	<g>
		<rect x="11.482" y="89.342" style="fill:#6DABE4;" width="77.036" height="6.544"/>
		<path style="fill:#6DABE4;" d="M15.325,26.713c2.229-1.122,4.366-2.299,6.148-3.244c4.272-2.128,11.238-5.676,14.175-8.303
			c0.868-0.778,2.022-2.178,0.543-5.06c-0.083-0.16-0.951-1.853-1.834-3.576c-0.87-1.73-1.723-3.429-1.804-3.591
			c-1.454-2.896-3.266-2.789-4.404-2.547c-3.853,0.82-10.832,4.347-15.071,6.539C11.264,7.813,9.05,8.843,6.832,9.979L0.014,23.961
			h0.002l-0.002,0.003L15.325,26.713z"/>
		<path style="fill:#6DABE4;" d="M87.579,33.794c-10.888-0.876-20.283,4.947-30.843,6.811c-0.845,0.15-1.981-1.649-3.007-2.676
			c4.9-3.693,4.235-10.93-1.437-14.055c-0.391-0.45-0.249-4.616-0.024-4.801c0.462-0.385,4.078,0.305,4.591-0.14
			c0.513-0.448,0.412-4.788,0.083-5.203c-0.328-0.414-4.407,0.03-4.634-0.25c-0.232-0.28,0.112-4.183-0.272-4.49
			c-0.278-0.221-1.407-0.244-2.034-0.239c-0.629-0.004-1.762,0.018-2.036,0.239c-0.386,0.308-0.041,4.211-0.27,4.49
			c-0.23,0.28-4.305-0.165-4.636,0.25c-0.328,0.415-0.43,4.755,0.084,5.203c0.512,0.445,4.132-0.245,4.591,0.14
			c0.224,0.186,0.366,4.351-0.024,4.801c-5.67,3.125-6.337,10.362-1.439,14.055c-1.026,1.026-2.163,2.825-3.005,2.676
			c-10.561-1.864-19.957-7.687-30.847-6.811C6.328,34.281,1.349,38.572,0.291,44.736c-1.909,11.096,6.064,19.627,9.936,29.045
			c1.222,2.971,2.294,6.967,2.103,10.405c0,0,31.636,0,37.244,0.002c0,0,0.147,0,0.427,0c0.278,0,0.429,0,0.429,0
			c5.605-0.002,37.242-0.002,37.242-0.002c-0.194-3.438,0.881-7.433,2.105-10.405c3.869-9.418,11.84-17.949,9.933-29.045
			C98.652,38.572,93.673,34.281,87.579,33.794z M45.496,69.306c-0.979,5.568-4.072,9.108-6.647,9.124
			c-1.69,0.003-3.043-0.632-4.275-1.709c-1.695-1.485-3.079-3.926-2.635-5.37c0.375-0.484,4.943,0.213,5.269-0.242
			c0.324-0.452-0.557-4.011-1.073-4.471c-0.518-0.46-4.64,0.155-5.192-0.298c-0.553-0.45-1.064-4.86-1.63-5.132
			c0,0-4.363-0.651-4.677-0.027c-0.32,0.624,1.473,4.302,1.164,4.929c-0.304,0.629-6.081-0.547-6.183,0.101
			c-0.1,0.651,0.332,3.893,0.886,4.369c0.555,0.482,5.946,0.512,5.946,0.512c1.119,0.856,1.415,2.593,1.419,4.371
			c0.01,2.257-1.745,3.424-4.545,2.64c-5.22-1.46-11.691-12.783-15.532-20.623c-2.82-5.762-4.523-15.191,2.885-18.016
			c4.517-1.72,9.256-0.748,14.115,0.696c5.089,1.51,11.805,3.556,15.763,6.013c0.972,0.602-1.155,0.121,2.356,7.905
			C44.543,57.699,46.181,65.411,45.496,69.306z M92.208,57.481c-3.838,7.84-10.307,19.163-15.529,20.623
			c-2.801,0.784-4.555-0.383-4.547-2.64c0.008-1.778,0.301-3.515,1.421-4.371c0,0,5.389-0.03,5.945-0.512
			c0.554-0.476,0.987-3.717,0.883-4.369c-0.101-0.648-5.876,0.528-6.182-0.101c-0.306-0.627,1.486-4.305,1.167-4.929
			c-0.318-0.623-4.68,0.027-4.68,0.027c-0.564,0.272-1.077,4.682-1.627,5.132c-0.554,0.453-4.677-0.162-5.193,0.298
			c-0.518,0.46-1.398,4.019-1.076,4.471c0.326,0.455,4.895-0.242,5.273,0.242c0.441,1.444-0.942,3.885-2.637,5.37
			c-1.231,1.077-2.587,1.712-4.275,1.709c-2.574-0.016-5.67-3.556-6.647-9.124c-0.684-3.895,0.953-11.606,2.585-15.226
			c3.514-7.784,1.385-7.303,2.358-7.905c3.955-2.457,10.672-4.503,15.765-6.013c4.856-1.445,9.594-2.417,14.11-0.696
			C96.736,42.29,95.032,51.719,92.208,57.481z"/>
		<path style="fill:#6DABE4;" d="M9.944,6.291C10.555,6,11.144,5.719,11.697,5.452c1.813-0.939,4.084-2.101,6.434-3.216
			c-0.385-0.601-0.771-1.184-0.994-1.438c-0.447-0.511-1.242-1.202-2.741-0.395c-0.085,0.044-0.963,0.518-1.859,1
			c-0.902,0.474-1.784,0.937-1.868,0.981c-1.507,0.79-1.385,1.836-1.216,2.5C9.53,5.178,9.723,5.715,9.944,6.291z"/>
		<path style="fill:#6DABE4;" d="M65.106,14.012c2.995,2.978,8.199,6.479,11.892,8.437c3.646,2.054,8.056,4.054,13.435,5.402
			c0.987,0.262,2.589,0.37,3.999-2.208c0.16-0.295,3.442-6.295,3.601-6.59c1.409-2.577,0.451-3.867-0.299-4.558
			c-4.039-3.798-8.105-6.429-11.803-8.388c-3.643-2.052-9.399-4.542-13.523-5.452c-0.989-0.26-2.592-0.37-4.001,2.206
			c-0.161,0.295-3.439,6.298-3.602,6.592C63.398,12.028,64.354,13.32,65.106,14.012z"/>
		<path style="fill:#6DABE4;" d="M80.281,26.383c-1.504-0.691-2.907-1.419-4.216-2.158c-1.312-0.693-2.793-1.572-4.305-2.557
			l-8.328,15.16c4.548-1.37,8.978-3.068,13.527-4.153L80.281,26.383z"/>
		<path style="fill:#6DABE4;" d="M22.022,112.212c-0.514,0.972-0.988,2.203-1.057,2.867c-0.071,0.688-0.189,1.767,1.645,2.74
			c0.104,0.056,1.179,0.628,2.277,1.213c1.091,0.59,2.166,1.171,2.266,1.227c1.828,0.986,2.671,0.313,3.175-0.158
			c0.462-0.424,1.152-1.341,1.702-2.343l10.505-19.894H29.903L22.022,112.212z"/>
		<path style="fill:#6DABE4;" d="M90.64,6.522c0.257-0.632,0.49-1.241,0.579-1.561c0.181-0.658,0.321-1.705-1.172-2.523
			c-0.084-0.044-0.96-0.525-1.852-1.012c-0.887-0.497-1.76-0.988-1.843-1.035c-1.483-0.832-2.291-0.155-2.746,0.349
			c-0.23,0.254-0.636,0.845-1.037,1.45c1.597,0.722,3.089,1.473,4.346,2.183C88.126,5.014,89.372,5.726,90.64,6.522z"/>
		<path style="fill:#6DABE4;" d="M21.863,25.476c-0.481,0.256-0.987,0.528-1.511,0.811l3.469,6.57
			c4.545,1.155,8.986,2.872,13.559,4.204l-8.393-15.278C26.459,23.173,23.886,24.47,21.863,25.476z"/>
		<path style="fill:#6DABE4;" d="M78.664,112.212l-7.882-14.347H58.148l10.505,19.894c0.551,1.002,1.241,1.919,1.7,2.343
			c0.505,0.471,1.35,1.144,3.176,0.158c0.103-0.056,1.175-0.637,2.267-1.227c1.098-0.585,2.174-1.157,2.278-1.213
			c1.833-0.973,1.715-2.052,1.644-2.74C79.649,114.414,79.177,113.184,78.664,112.212z"/>
	</g>
</g>
<g id="Layer_1">
</g>
</svg>
