<svg xmlns="http://www.w3.org/2000/svg" viewBox="0 0 100 112" enable-background="new 0 0 100 112"><g><path d="M30.764 21.806c-.56 5.65-4.11 9.33-8.628 9.33H1.574v78.68h96.853v-78.68H77.9c-4.71 0-8.183-2.948-8.628-9.33-.778-11.105-8.816-20.24-19.258-20.24-10.443 0-18.138 8.985-19.25 20.24z" fill="#fff"/><path d="M30.764 21.806c-.56 5.65-4.11 9.33-8.628 9.33H1.574v78.68h96.853v-78.68H77.9c-4.71 0-8.183-2.948-8.628-9.33-.778-11.105-8.816-20.24-19.258-20.24-10.443 0-18.138 8.985-19.25 20.24zm40.135.136c.227 5.045 3.76 7.622 7.535 7.622H100v81.827H0V29.565h21.602c3.74 0 7.195-2.812 7.527-7.756C29.97 9.37 38.534 0 50.013 0 61.46 0 70.364 10.07 70.9 21.942z"/><path fill="#FC121B" d="M4.316 84.298h91.37v22.785H4.316z"/><path d="M6.827 101.896V89.57c2.072-.003 3.752-1.685 3.752-3.756h78.814c0 2.075 1.685 3.756 3.757 3.756l.017 12.326c-1.96.114-3.515 1.727-3.538 3.71H10.34c-.02-1.975-1.565-3.586-3.515-3.71z" fill="#ff0"/><path d="M4.316 33.8H22.09c6.21 0 11.245-5.022 11.27-11.225h33.297c.027 6.203 5.065 11.224 11.275 11.224h17.754v48.385H4.316V33.8z" fill="#FC121B"/><ellipse cx="50.014" cy="23.177" rx="16.677" ry="18.843"/><ellipse cx="50.013" cy="23.177" rx="16.176" ry="16.959" fill="#fff"/><path d="M55.285 22.76c.084.123.144.19.26.286.082.067.133.1.23.15-.032.855-.047 1.55-.124 2.537-.13 1.618-.35 2.354-1.16 3.41-.465.603-.944.877-.946 1.144 0 .092.052.332.476.335.49.002.705-.245.834-.115.068.067-.22.818-.488 1.63-.228.695-.462 1.42-.403 1.7.052.25.692.3 1.343.437.642.132 1.183.277 1.343.225.332-.11.51-.998 1.778-1.09.678-.05.836.537 1.328.957.428.366.833.458 1.13.93.066.1.118.192.16.28-2.89 2.826-6.77 4.557-11.033 4.557-4.66 0-8.862-2.068-11.814-5.373.412-.5.832-1.085 1.594-1.084.888.003 1.39 1.122 1.595 1.272.22.164 1.376-.303 2.226-.6.86-.296 2.067-.658 2.143-.918.077-.274-.133-.882-.27-1.41-.13-.497-.473-1.392-.386-1.477.084-.083.344.034.704.036.365 0 .275-.378.326-.574.04-.132.158-.13.16-.267 0-.157-.324-.328-.69-.785-.338-.428-.9-1.095-1.148-2.7-.153-.983-.328-1.566-.42-2.505.09.023.145.03.236.025.148-.005.237-.03.365-.103l10.648-.913z" stroke="#000" stroke-width=".073"/><path d="M47.23 30.332c.158-.157 1.99 1.455 3.155 1.458 1.67.006 2.285-1.048 2.414-.918.102.106.05.477.05.913 0 .176-.605.73-.703.73-.142 0-.292-.262-.436-.262-.14 0-.587.5-.77.5-.142 0-.44-.38-.61-.382-.17 0-.578.488-.733.488-.158 0-.52-.614-.65-.615-.158-.002-.5.44-.694.44-.087 0-.277-.21-.494-.457-.196-.223-.437-.41-.435-.537 0-.615-.226-1.228-.094-1.358zM45.675 30.978c-.065.065.03.535.168.537.155 0 .178-.222.326-.222.273 0 .448.705.703.707.25 0 0-1.618-.276-1.618-.195-.002-.123.435-.347.56-.197.108-.463-.074-.575.036zM53.393 30.945c.17.002.187.186.34.218.193.042.372-.247.496-.122.128.13-.082.568-.16.568-.117 0-.14-.157-.26-.17-.177-.02-.194.266-.37.266-.205 0-.19-.76-.047-.76z" fill="#fff"/><path d="M46.037 32.246c.02-.467.458-.18.665.25.09.188.503 1.364.644 1.874.095.342-.794-.173-.88-.473-.14-.51-.437-1.488-.43-1.65z" fill="#92D5D4"/><path d="M47.196 32.772c-.045-.157.068-.358.178-.358.166 0 .402.34.642.687.153.22.29 1.115.42 1.738.063.314-.326.134-.4 0-.317-.59-.695-1.56-.84-2.066z" fill="#fff"/><path d="M48.445 33.207c-.02-.204.29-.41.375-.41.124 0 .575.36.607.517.076.375.313 1.367.255 1.462-.03.05-.118.124-.23.235-.105.107-.165.285-.293.262-.244-.05-.67-1.674-.715-2.065z" fill="#92D5D4"/><path d="M50.295 32.782c.11 0 .49.315.487.433 0 .378-.136 1.33-.194 1.388-.032.032-.137.008-.242.013-.105.003-.213.032-.247 0-.08-.08-.283-1.17-.283-1.392 0-.118.38-.442.478-.442z" fill="#fff"/><path d="M51.73 32.728c.085 0 .274.19.272.327 0 .118-.352 2.048-.516 2.21-.123.124-.18-.123-.312-.287-.102-.13-.208-.198-.228-.276-.027-.114.213-1.558.326-1.668.06-.06.34-.306.46-.306z" fill="#92D5D4"/><path d="M52.068 34.993c-.085-.085.347-2.19.425-2.268.087-.085.426-.513.512-.513.073 0 .063.424.01.632-.165.657-.457 1.852-.502 1.916-.065.098-.36.318-.445.233z" fill="#fff"/><path d="M53.605 32.122c.152-.15.28-.007.292.117.02.177-.507 1.903-.565 1.96-.11.112-.31.32-.375.255-.064-.066.556-2.242.648-2.333z" fill="#92D5D4"/><path d="M50.372 35.026c.604.027.833.717.817 1.322-.016.6-.266 1.263-.866 1.27-.615.005-.88-.702-.868-1.316.01-.612.303-1.302.916-1.276z" fill="#fff"/><path d="M60.112 73.533c-.94 0-1.044.913-1.486.535-.436-.37.403-1.62 1.827-1.62.972 0 1.656.498 2.045 1.215.134-2 1.738-3.008 3.56-3.128-1.615-.776-3.276-1.27-4.9-1.27-3.34 0-6.134 2.063-6.134 4.934 0 2.06 1.385 3.6 3.444 3.6 1.54 0 3.092-.873 3.092-2.505 0-.654-.403-1.762-1.448-1.762zM42.68 74.8c0-.42-.51-.862-1.123-.862-.83 0-1.46.625-1.46 1.59 0 1.083.992 1.855 2.06 1.855 3.838 0 3.838-6.603 8.912-6.603 1.313 0 2.426.56 3.078 1.503 1.06-3.228 4.472-4.308 7.087-4.308 3.446 0 7.206 2.385 10.504 4.896 3.077 2.345 5.544 4.827 9.278 4.827 3.567 0 6.785-2.61 6.785-6.135 0-2.61-1.904-4.8-4.332-4.8-1.957 0-3.104 1.304-3.104 2.582 0 1.01.6 1.958 1.67 1.958 1.723 0 1.2-1.436 2.113-1.122.617.21-.25 2.373-2.193 2.373-2.09 0-3.054-1.642-3.054-3.158 0-1.748 1.59-3.915 4.75-3.915 3.234 0 5.61 2.845 5.61 6.107 0 4.045-3.73 7.36-8.194 7.36-4.19 0-6.84-2.524-9.736-4.903.176.56.26 1.103.26 1.537 0 1.685-1.213 3.054-2.922 3.054-.81 0-1.97-.612-1.97-1.655 0-.364.116-.745.458-.745.273 0 .34.266.34.495 0 .496.638.718 1.055.718.913 0 1.88-.874 1.88-2.18 0-1.487-.82-2.486-1.762-3.13-1.662-1.14-4.853-.72-4.853 1.775 0 .964.73 1.695 1.407 1.695.98 0 .914-.717 1.28-.495.65.395-.144 1.645-1.37 1.645-.904 0-1.78-.45-2.263-1.286-.116 2.472-2.37 3.635-4.325 3.635-2.144 0-3.72-1.033-4.383-2.717-.523.755-1.353 1.255-2.352 1.255-1.62 0-2.715-1.11-2.715-2.323 0-1.195.834-2.126 2.008-2.126.484 0 .94.182.862.574-.065.324-.39.274-.704.274-.523 0-.783.482-.783.848 0 .827.634 1.448 1.46 1.448.966 0 1.802-.88 1.802-1.88 0-1.434-1.135-2.375-2.637-2.375-3.993 0-4.148 6.708-8.874 6.708-1.85 0-3.612-1.37-3.612-3.08 0-1.827 1.162-3.04 2.895-3.04 1.45 0 2.31.86 2.31 1.904 0 .718-.76 1.46-1.187 1.03-.26-.26.04-.417.04-.808z"/><path d="M23.235 38.678l3.567 20.463h.158l1.235-11.457c.02-.437-.105-.834-.337-1.07-.576-.573-1.546-.47-1.992-.47V38.68h8.88v7.464c-.575 0-1.356.027-1.775.444-.233.234-.493.6-.625 1.382l-2.218 20.122c-.08.68-.21 1.148.097 1.617.307.467.688.55 1.343.55v7.46h-8.782v-7.46c.834 0 1.24-.006 1.612-.497.328-.43.21-1.15.12-1.722l-2.493-14.38h-.082l-2.49 14.38c-.09.574-.208 1.292.118 1.723.373.492.665.496 1.5.496v7.46h-9.08v-7.46c.887 0 1.167-.02 1.603-.55.3-.366.326-.94.248-1.618L11.623 47.97c-.13-.782-.392-1.148-.626-1.382-.416-.417-1.2-.444-1.776-.444V38.68h9.03v7.464c-.442 0-1.33-.104-1.904.47-.236.236-.363.633-.34 1.07l1.236 11.457h.16l3.564-20.462h2.27zM32.71 72.58c1.852-.175 2.894-.32 4.725-.652 2.005-.365 3.128-.625 5.087-1.175V62.01l-2.66.706c0 .574.052 2.636-.707 3.445-.52.558-1.146.68-1.356.68-.34 0-.42-.25-.42-.55v-4.044l2.404-.653v-3.29l-2.403.576v-3.316c0-.3.033-.604.342-.692.182-.052.545-.156.834-.208 1.248-.227 1.306 1.33 1.306 2.753l2.582-.678v-8.38c-1.954.598-3.07.898-5.063 1.358-1.768.41-2.775.612-4.565.913v5.078c.228-.005.378.033.562.17.313.236.326.717.326 1.148v9.317c0 .274-.048.588-.287.836-.21.215-.433.31-.707.31v5.09zM43.776 65.3v5.14c1.133-.324 1.77-.512 2.897-.862 1.02-.314 1.595-.5 2.61-.834V63.34c-.22.105-.638.222-.888.053-.226-.155-.287-.3-.287-.678v-9.708c.016-.39.048-.734.392-.913.275-.143.768-.418 1.123-.418.676 0 .86.444.86 1.383v9.76c0 2.336.063 3.447.457 4.11.626 1.057 1.67.757 2.1.614l1.88-.69v-5.6c-.278.094-.525.036-.733-.17-.168-.17-.13-.588-.13-.822V48.91c0-2.453-1.043-3.368-2.61-3.368-2.686 0-4.005 2.272-4.332 2.82v-1.357c-.68.203-1.065.32-1.746.52-.622.184-.973.288-1.594.47v5.3c.233.007.38.072.547.233.23.223.236.51.236.784v9.553c0 .352-.004.625-.21.938-.163.25-.305.372-.574.496zM66.69 47.814v-5.14c.874-.065 1.368-.097 2.244-.145.997-.055 1.56-.082 2.558-.12v12.843c0 .653.182 1.096.678 1.096.458 0 .855-.103 1.162-.236.39-.17.483-.236.483-.678v-6.813c0-.274-.03-.612-.274-.873-.285-.306-.572-.366-1.03-.3v-5.09c.968-.03 1.514-.04 2.48-.053.935-.008 1.464-.008 2.4 0v21.82c0 4.382-2.935 5.636-5.22 5.636-1.955 0-3.94-.757-3.94-3.576V63.42c.617-.098.964-.156 1.58-.26.636-.108.996-.17 1.632-.287v2.036c0 .3-.013.926.807.926 1.017 0 1.592-.927 1.592-2.153V60.89c-.886.626-1.845 1.043-3.13 1.043-2.156 0-2.896-1.74-2.846-3.497V48.7c0-.313-.073-.49-.287-.69-.26-.242-.552-.25-.89-.196zM79.165 42.333h-1.123V39.33h3.236v3.603c0 .692-.215 1.37-.834 1.88-.628.515-1.462.443-2.035.443v-1.383c.24-.066.378-.14.546-.34.222-.26.21-.782.21-1.2zM88.142 43.43l.497-1.28h2.036v7.31H88.12c0-1.254-.736-3.108-1.908-3.108-.862 0-1.098.55-1.098 1.462 0 1.67 2.482 2.453 4.072 4.15 1.417 1.507 1.8 2.66 1.8 5.688 0 2.988-1.33 5.324-3.81 5.324-1.32 0-2.31-.47-3.04-1.592l-.47 1.174h-2.47V54.86h2.638c0 1.123.497 3.185 1.8 3.185.768 0 1.266-.524 1.266-1.476 0-1.5-2.31-2.624-3.744-3.98-1.356-1.28-1.96-2.69-1.96-5.064 0-3.574.734-5.558 3.813-5.558 1.35 0 2.267.428 3.132 1.46z" fill="#fff"/><path d="M41.056 37.303c-.39-.274-.768-.563-1.133-.87-.047-.165-.048-.312-.052-.463-.002-.16.008-.405-.057-.405-.08 0-.165.266-.358.462-.27-.245-.534-.5-.79-.764.243-.414.56-1.056 1.198-1.055.867.003.883 1.04.94 1.836.03.426.07.842.253 1.26zM42.95 38.438c-.29-.148-.578-.307-.86-.473-.18-.362-.453-.637-.534-.96-.13-.53-.207-1.343-.137-1.436.078-.103.207-.076.364-.103.163-.03.297-.082.353-.05.196.104.57 1.95.814 3.02z" fill="#92D5D4"/><path d="M44.736 39.212c-.418-.15-.83-.32-1.23-.506-.22-.973-.868-3.4-.826-3.505.04-.097.223-.11.408-.18.202-.073.395-.152.447-.122.117.07.8 2.444 1.2 4.314z" fill="#fff"/><path d="M46.324 39.692c-.387-.095-.77-.205-1.146-.328-.362-2.302-1.25-4.442-1.146-4.646.048-.096.25-.127.416-.18.197-.065.407-.15.516-.11.19.066.874 2.634 1.36 5.264z" fill="#92D5D4"/><path d="M47.795 39.977c-.344-.05-.686-.11-1.023-.184-.412-2.743-1.386-5.495-1.283-5.605.063-.072.312-.15.41-.104.27.128.62.558.69.76.105.307.867 2.57 1.205 5.133z" fill="#fff"/><path d="M49.116 40.11c-.32-.02-.637-.047-.95-.085-.198-2.315-1.082-4.778-.96-4.907.08-.08.34.058.54.146.19.08.338.12.45.275.084.117.706 2.66.92 4.57z" fill="#92D5D4"/><path d="M50.52 40.126c-.167.006-.338.01-.506.01-.145 0-.29-.003-.436-.007-.297-1.973-.872-4.243-.826-4.307.042-.06.326.03.326.164-.003.183-.006.88.26 1.34.272.464.68.615.737.674.087.088.336 1.27.446 2.126z" fill="#fff"/><path d="M51.808 40.032c-.29.033-.584.06-.88.077-.087-.67-.43-1.984-.33-2.08.058-.06.232-.09.403-.234.182-.152.237-.294.334-.294.123 0 .368 1.408.474 2.53z" fill="#92D5D4"/><path d="M53.22 39.803c-.32.067-.643.124-.97.17-.1-.732-.483-2.58-.554-2.865-.048-.198-.155-1.042-.132-1.098.04-.098.197-.16.332-.233.142-.075.26-.17.366-.17.244 0 .58 2.15.96 4.196z" fill="#fff"/><path d="M54.568 39.453c-.323.1-.654.19-.986.27-.273-1.96-.883-4.272-.83-4.4.064-.158.17-.216.31-.318.133-.1.257-.21.377-.202.212.014.76 2.417 1.128 4.65z" fill="#92D5D4"/><path d="M55.99 38.94c-.342.143-.69.273-1.042.39-.483-2.89-1.135-4.73-1.044-4.82.092-.09.378-.005.607.06.2.06.36.068.482.233.128.166.606 1.807.997 4.137z" fill="#fff"/><path d="M57.37 38.283c-.324.175-.657.338-.994.49-.43-2.346-.927-3.757-.797-3.885.078-.077.304.006.494.04.194.036.4.054.482.14.217.217.527 1.494.814 3.215z" fill="#92D5D4"/><path d="M58.586 37.56c-.273.18-.555.352-.84.516-.266-1.605-.724-2.774-.642-2.856.12-.118.266-.046.43-.012.166.035.308.1.392.185.125.126.41.812.66 2.167z" fill="#fff"/><path d="M60.68 35.926c-.27.247-.543.484-.827.712-.433-.07-.9 0-.978-.08-.286-.29.936-.992.755-1.16-.223-.203-.84.5-1.112.21-.245-.26.292-.95.153-1.063-.135-.11-.422.345-.74.343-.27 0-.64-.086-.64-.243 0-.208.47-.82 1.228-.818.484 0 .64.508 1.04.84.362.295.682.364.918.766.106.182.167.327.203.493z" fill="#92D5D4"/><path d="M45.55 23.072c-.32.296-.717.47-.913.6-.128.073-.216.1-.365.103-.09.004-.145 0-.236-.025.092.94.266 1.522.42 2.505.14.9.374 1.503.616 1.936l-.084.006c-.21 0-.936.91-2.79.903-1.474-.006-2.125-.654-2.23-.333-.443-.015-1.88-.04-2.218-.048-.092-.25-.828.53-1.84-.008-.74-.394-.967-1.607-.862-1.712.08-.078.144.098.286.17.092.047.28.086.32.047.1-.098-.364-.335-.517-1.378-.07-.494-.1-1.253.02-1.253.128 0-.014.613.816 1.15.455.295.81.235 1.33.37 0 0 .71.335.77.12.3.054 1.767.274 2.222.34.026.464.804-.017 1.294-.595.41-.486.777-.63.882-.734.13-.13-1.193-1.78-1.185-4.258.008-2.062.652-2.515 1.344-4.015 1.002-2.16 1.27-4.197 3.335-5.442 1.808-1.09 3.65-.04 4.124-.038.417 0 2.48-1.302 5.085.618 1.743 1.285 3.218 5.126 3.205 8.493-.008 2.87-1.133 3.31-1.135 3.728 0 .143.416.145.847.708.39.516.784 1.216.968.864.736-.293 1.81-.68 1.81-.68.162.178.596-.49 1.373-.888.784-.402 1.35-1.34 1.544-1.34.247 0-.573 1.58-.337 1.814.116.117.473-.157.684-.377.184-.192.197-.6.33-.6.147 0 .206.556.202 1.006 0 .642-.302.882-.197 1.09.06.128.193-.02.193.15-.002.34-.59.814-1.165 1.016-1.033.36-2.147-.296-2.192.003 0 0-1.144.312-1.96.528-.227-.23-1.032.857-2.05.854-.967-.003-1.68-.815-1.89-.817l-.088.005c.176-.52.265-1.114.33-1.93.08-.987.093-1.682.125-2.536-.097-.05-.15-.083-.23-.15-.117-.096-.176-.163-.26-.287-.095-.157-.242-.3-.355-.44-.215-.268-.5-.574-.704-1.01-.17-.37-.213-.64-.294-1.01-.103-.47-.134-.833-.21-.874-.092-.046-.31.3-1.062 1.047-.63.622-1.44.86-1.438.738 0-.072.418-.246.728-.82.26-.485.226-1.277.095-1.264-.144.014-.407.703-.9 1.263-.738.843-1.67.947-1.67.79 0-.112.32-.02.817-.76.34-.506.282-1.038.197-1.038-.17 0-.418.513-1.175 1.052-.678.482-1.406.504-1.406.36 0-.117.484-.272.878-.805.242-.328.426-.892.33-.984-.116-.107-.237.102-.78.246-.32.08-.606.088-.796.243-.168.14-.352.535-.484.918-.126.366-.184.747-.397 1.184-.31.65-.61 1.022-1.107 1.478z" fill="#FC121B"/><path d="M40.272 27.67c-.055.358-.284.558-.303.874-.027.458.193 1.137.19 1.775-.003.377-.057 1.24-.187 1.37-.197.193-.87.334-1.45.333-.537 0-1.136-.082-1.342-.292-.156-.155-.076-.977.07-1.643.183-.828.477-1.3.528-1.407.274-.586.094-.728.055-1.174-.024-.287-.01-.743.213-.99.158-.175-.23-1.15-.28-2.063-.028-.504-.01-1.057.277-1.344.186-.183 1-.25 1.608-.093.5.13 1.042.362 1.16.65.092.228-.1 1.02-.163 1.67-.066.704-.444 1.22-.384 1.5.05.234.057.513.01.834zM59.094 26c-.155-.573-.373-1.183-.476-1.964-.097-.735-.202-1.756-.06-1.9.17-.168.742-.216 1.228-.217.533-.002 1.212.122 1.343.252.104.104.01 1.044-.044 1.735-.055.67-.252.99-.215 1.33.04.337.238.498.324.837.102.39-.034.64.115 1.03.22.575.48 1.126.67 1.88.142.563.35 1.373.255 1.464-.25.247-.626.09-1.068.256-.462.175-1.044.332-1.243.23-.287-.143-.41-.848-.504-1.436-.128-.81-.047-1.24-.07-1.84-.016-.343-.17-.502-.22-.836-.046-.317.05-.5-.036-.82z"/><path d="M54.93 22.32c.17.21.416.426.416.693-.002.34-.024 1.62-.126 2.65-.11 1.08-.13 1.722-.623 2.672-.434.833-.822 1.125-1.495 1.692-.883.74-1.637 1.43-2.59 1.425-1.08-.004-1.88-.78-2.995-1.445-.768-.46-1.428-.82-1.98-1.665-.448-.69-.564-1.218-.695-1.998-.194-1.122-.49-2.41-.292-2.604.137-.137.616-.316.997-.667.497-.457.797-.828 1.11-1.476.213-.437.27-.818.397-1.183.132-.383.316-.78.484-.918.19-.155.478-.16.797-.244.542-.144.663-.353.778-.246.097.092-.087.656-.33.984-.393.533-.877.688-.877.806 0 .144.728.12 1.406-.36.757-.54 1.006-1.054 1.175-1.054.086 0 .142.532-.197 1.037-.5.74-.818.65-.818.76 0 .156.933.052 1.672-.79.492-.56.755-1.248.9-1.263.13-.012.165.78-.096 1.265-.31.573-.728.747-.728.82-.002.122.81-.116 1.438-.74.752-.748.97-1.092 1.062-1.046.076.04.107.405.21.875.08.37.123.64.294 1.01.205.436.49.742.706 1.01z" fill="#fff"/><path d="M38.29 23.424c.14-.22.675-.155 1.096-.076.437.084.94.24 1.03.5.05.144-.07.77-.123 1.278-.053.504-.252 1.147-.37 1.297-.094.12-.6.062-.64-.048-.054-.157-.03-.326-.043-.495-.015-.21-.108-.535-.253-.535-.13 0 .026.52-.094.834-.084.223-.355.222-.378.09-.077-.432-.27-.928-.347-1.476-.075-.546-.075-1.057.122-1.37zM38.605 26.856c-.17.117-.247.817-.095 1.07.116.196.973.28 1.122.068.276-.39.173-.924.057-1.043-.236-.233-.934-.2-1.085-.094zM38.475 30.184c.195 0 .4-.462.525-.82.12-.34.003-.865.342-.874.43-.01.37.847.44 1.424.063.567.06 1.305-.096 1.46-.134.13-.673.29-1.125.284-.403-.005-.885-.056-1.003-.25-.136-.23-.023-1.07.294-1.775.22-.49.424-1.198.684-1.198.208 0 .063.627-.03.887-.114.327-.275.86-.03.862zM58.963 22.453c.163-.163 1.553-.244 1.8.007.118.117-.04 2.36-.336 2.816-.097.148-.266.132-.47.212-.18.07-.222.15-.413.15-.444-.002-.765-3.004-.58-3.185zM59.643 26.25c.078-.207.588-.545.822-.4.26.16.35.6.258.745-.136.21-.725.466-.88.39-.262-.134-.307-.455-.2-.734zM60.584 29.073c.17 0 .126-.535.166-.92.026-.258-.16-.74-.003-.803.313-.13.534.9.738 1.53.142.437.352.988.257 1.15-.11.19-.463.186-.855.284-.358.09-.646.22-.776.153-.272-.136-.383-.84-.412-1.41-.03-.646-.024-1.513.358-1.617.26-.07.386.403.376.72-.016.52-.03.912.152.913z" fill="#92D5D4"/><path d="M49.68 25.467c-.214.07-.443.234-.536.506-.063.188-.06.354-.002.51.07.182.25.112.236-.045-.013-.157-.02-.29.042-.457.07-.192.174-.307.32-.415.05-.04-.002-.117-.06-.098zM48.1 28.052c-.023-.016-.03-.083-.013-.104.052-.078.21-.222.28-.26.043-.023.124-.027.166-.007.54.27 1.256.388 2.113.38.796-.01 1.317-.113 1.964-.34.027-.01.087-.017.13 0 .065.027.138.066.19.133.02.024.03.086-.006.11-.118.078-.294.143-.294.143-.33.573-.89 1.315-1.95 1.31-.875-.002-1.682-.417-2.247-1.24 0 0-.166-.02-.333-.124z"/><path d="M49.155 28.244c.584.1.86.114 1.475.102.578-.008 1.056-.048 1.396-.138.04-.01.066.058.053.09-.198.47-.705.86-1.428.857-.515-.002-1.362-.357-1.562-.827-.012-.03-.012-.098.065-.084z" fill="#fff"/><path d="M50.598 29.907c.066-.117.242-.163.39-.13.072.015.093.137-.018.137-.155 0-.136.006-.28.097-.073.046-.13-.035-.092-.103zM51.718 23.072c-.19.152-.478.497-.544.77-.047.194-.018.416.044.572.07.184.24.14.195-.03-.04-.153-.027-.375.048-.6.06-.177.245-.496.35-.62.04-.05-.037-.135-.092-.092zM52.243 24.36c0-.12.124-.085.124-.28.002-.218-.337-.227-.337-.445 0-.183.263-.296.465-.45.294-.22.437-.5.512-.5.103 0-.016.17.142.17.19.002.267-.325.365-.325.11 0-.034.417.182.42.207 0 .268-.294.378-.294.105 0-.065.306 0 .38.097.106.32-.055.365.026.04.07-.108.152-.1.26.012.134.203.178.203.276-.002.124-.444-.067-.445.232 0 .29.17.152.168.328 0 .19-.587.454-1.083.453-.382 0-.942-.08-.94-.25z"/><path d="M52.728 23.598c.155 0-.026.43.468.516.378.067.45-.272.562-.272.137 0 .005.55-.59.495-.572-.053-.656-.74-.44-.74z" fill="#fff"/><path d="M48.797 24.177c.003-.136-.253-.052-.252-.32.002-.262.255-.148.255-.39.003-.178-.17-.275-.336-.465-.352-.4-.216-.535-.287-.537-.13 0-.142.262-.3.26-.236 0-.33-.458-.43-.458-.11 0 .033.426-.13.425-.208 0-.285-.392-.398-.394-.104 0 0 .4-.074.464-.157.136-.45-.255-.528-.165-.053.06.116.353.065.476-.04.09-.087.13-.087.23 0 .156.468.182.468.562 0 .293-.195.155-.197.333 0 .202.536.38 1.03.38.496.002 1.2-.23 1.2-.4z"/><path d="M47.144 23.527c.155 0-.064.488.52.516.416.022.458-.462.568-.454.184.013-.02.706-.615.675-.58-.028-.69-.74-.473-.738zM55.734 24.2c-.05.634-.082.955.1.955.275.002.447-.467.54-.924.072-.354.118-.768-.272-.887-.388-.12-.34.496-.368.858zM44.168 25.44c.2 0 .04-.53-.04-.998-.056-.332-.052-.797-.39-.797-.393 0-.48.71-.233 1.127.21.358.56.67.663.67z" fill="#fff"/><path d="M46.712 21.482c.316-.017.717-.016.943.004.455.04 1.056.327.87.538-.12.142-.416-.24-.938-.24-.618 0-.972.136-1.16.247.08-.13.157-.273.234-.434l.052-.114zM54.44 21.688c-.272-.056-.706-.034-.93.027-.484.135-.805.525-.934.336-.13-.19.316-.45.617-.584.394-.177.79-.18 1.007-.213l.026.058c.065.137.14.263.213.378z"/><path d="M60.06 58.76v-9.368c0-.26.106-.483.406-.574.307-.093.704-.183.952-.183.626 0 .976.644.94 1.255v7.045c0 .678-.13 1.31-.68 1.697-.35.25-.846.395-1.187.51-.157.05-.43-.015-.43-.38zm-4.304 2.195v5.622l3.483-1.226 3.482-1.225c1.026-.453 1.577-.92 2.193-1.854.78-1.183.783-1.89.783-3.548v-11.56c0-.81-.058-2.307-1.017-3.198-.91-.846-1.984-1.017-3.08-.822-1.206.215-1.883.343-3.08.6-1.37.295-2.14.477-3.496.83v5.46c.3-.092.847-.207 1.123-.052.495.273.442 1.082.442 1.46v8.3c0 .327-.066.57-.288.834-.165.2-.378.315-.546.38z" fill="#fff"/><path d="M24.458 88.697c.604 0 .88.507.88 1.562 0 1.056-.277 1.557-.88 1.557-.604 0-.88-.5-.88-1.558 0-1.056.276-1.563.88-1.563zm0-.56c-1.328 0-2.192.815-2.192 2.123 0 1.31.864 2.12 2.192 2.12 1.327 0 2.19-.81 2.19-2.12 0-1.308-.863-2.124-2.19-2.124zM30.89 92.26v-1.65h-.56c0 .653-.116 1.117-.84 1.117h-.657V89.03c0-.152.085-.242.236-.242h.374v-.532H27.09v.532h.375c.15 0 .234.09.234.242v2.456c0 .15-.086.24-.235.24h-.368v.533h3.793zM31.915 91.485c0 .15-.087.24-.242.24h-.365v.533h2.21c1.468 0 2.364-.592 2.364-1.968 0-1.436-.914-2.034-2.326-2.034H31.3v.532h.372c.155 0 .242.09.242.242v2.455zm1.168-2.697h.287c.82 0 1.194.273 1.194 1.467s-.375 1.472-1.194 1.472h-.287v-2.94zM40.737 92.233V91.7h-.378c-.153 0-.238-.09-.238-.24v-1.013h.19c.346 0 .48.157.48.41v.235h.507V89.27h-.508v.235c0 .253-.134.41-.48.41h-.19v-1.152h.602c.78 0 1.123.132 1.123 1h.566v-1.532H38.36v.533h.378c.152 0 .237.09.237.24v2.456c0 .15-.086.24-.237.24h-.373v.533h2.372zM43.48 88.256l-1.04 3.018c-.122.368-.212.453-.428.453h-.21v.532h1.827v-.533h-.182c-.168 0-.387-.017-.387-.115 0-.084.027-.173.096-.386l.074-.24h1.268l.13.433c.027.09.032.157.032.216 0 .068-.155.09-.342.09h-.186v.533h2.27v-.533h-.214c-.216 0-.303-.085-.43-.453l-1.035-3.018H43.48zm.372.9h.013l.447 1.298h-.9l.44-1.3zM50.372 88.203h-.52l-.114.283c-.357-.217-.767-.35-1.19-.35-.868 0-1.804.272-1.804 1.267 0 1.734 2.718 1.033 2.718 1.896 0 .343-.394.518-.72.518-.742 0-1.287-.44-1.37-1.074h-.583v1.582h.525l.165-.32c.394.278.884.374 1.365.374.867 0 1.734-.327 1.734-1.292 0-1.72-2.717-1.11-2.717-1.87 0-.404.34-.52.702-.52.552 0 1.136.357 1.23.99h.578v-1.485zM52.722 89.916v-.868c0-.206.084-.26.24-.26h.254v-.532H50.96v.532h.378c.153 0 .24.06.24.164v2.534c0 .15-.087.24-.24.24h-.37v.533h2.243v-.533h-.248c-.155 0-.24-.065-.24-.21v-1.07h1.34v1.082c0 .162-.083.197-.235.197h-.252v.532h2.243v-.533h-.37c-.153 0-.24-.065-.24-.224V89.03c0-.152.087-.242.24-.242h.377v-.532H53.57v.532h.257c.152 0 .236.06.236.18v.948h-1.34zM58.587 88.256h-2.355v.532h.374c.15 0 .236.054.236.157v2.54c0 .15-.086.24-.236.24h-.368v.533h2.342v-.532h-.368c-.152 0-.236-.09-.236-.24V89.03c0-.217.084-.242.236-.242h.375v-.532zM61.005 88.697c.604 0 .88.507.88 1.562 0 1.056-.276 1.557-.88 1.557s-.88-.5-.88-1.558c0-1.056.276-1.563.88-1.563zm0-.56c-1.328 0-2.192.815-2.192 2.123 0 1.31.863 2.12 2.192 2.12 1.327 0 2.19-.81 2.19-2.12 0-1.308-.863-2.124-2.19-2.124zM65.345 88.256h-1.943v.532h.375c.15 0 .234.09.234.242v2.456c0 .15-.083.24-.233.24h-.37v.533h1.867v-.533h-.37c-.15 0-.236-.09-.236-.24v-2.203h.013l1.68 2.975h1.216v-3.23c0-.152.086-.242.236-.242h.363v-.532h-1.858v.532h.366c.152 0 .237.09.237.242v1.985h-.013l-1.562-2.76zM69.278 91.485c0 .15-.084.24-.232.24h-.37v.533h4.007v-1.636h-.562c0 .972-.338 1.104-.97 1.104h-.737V90.47h.362c.218 0 .303.278.303.502v.144h.5v-1.822h-.5v.132c0 .375-.128.514-.478.514h-.187v-1.153h.597c.77 0 1.11.132 1.11 1.002h.562v-1.535H68.67v.532h.375c.148 0 .232.09.232.242v2.455zM73.884 91.485c0 .15-.084.24-.237.24h-.36v.533h2.17c1.44 0 2.317-.592 2.317-1.968 0-1.436-.897-2.034-2.28-2.034h-2.213v.532h.367c.153 0 .237.09.237.242v2.455zm1.146-2.697h.28c.805 0 1.173.273 1.173 1.467s-.368 1.472-1.172 1.472h-.28v-2.94zM17.336 97.74V96.3c0-.847.49-.828.49-.828v-1.446h-3.313v1.446c.552 0 .67.372.67.607v4.856c0 .746-.66.7-.66.7v1.522h3.292v-1.522s-.48.085-.48-.716v-1.894h1.35v1.92c0 .722-.482.69-.482.69v1.522h3.218v-1.522s-.583.046-.583-.743V96.26c0-.74.594-.786.594-.786v-1.446h-3.236v1.446s.49.034.49.648v1.617h-1.348zM23.856 94.027l-1.335 6.575c-.21 1.05-.77 1.032-.77 1.032v1.522h2.866v-1.522s-.342-.006-.474-.216c-.097-.156-.136-.274-.055-.616l.077-.316H25.4l.097.446c.036.206.002.337-.1.495-.152.238-.45.207-.45.207v1.522h3.426v-1.522s-.57.11-.77-1.032l-1.336-6.575h-2.41zm.922 2.69l.074.003.355 2.394h-.826l.398-2.396zM28.75 94.027v1.446s.653.112.653.786v4.59c0 .752-.667.784-.667.784v1.522h2.632v-1.522s-.55-.02-.55-.784v-4.314l.124-.005 1.244 6.626h1.157l1.33-6.645h.176l-.007 4.34c0 .775-.74.783-.74.783v1.522h3.47v-1.522s-.682-.06-.682-.784v-4.59c0-.74.682-.786.682-.786v-1.446H33.71l-.595 3.34h-.094l-.557-3.34H28.75zM38.844 100.85c0 .752-.615.784-.615.784v1.522h3.85c1.252 0 2.576-.688 2.576-2.45 0-1.654-.86-2.073-1.62-2.432v-.027c.723-.26 1.41-.86 1.41-2.086 0-1.24-.845-2.133-2.133-2.133H38.22v1.446s.625.073.625.786v4.59zm2.152-1.514c0-.266.17-.235.17-.235h.428c.38 0 .818.257.818 1.386 0 1.09-.478 1.15-.818 1.15h-.287c-.34 0-.312-.47-.312-.47v-1.83zm0-3.316c0-.52.316-.47.316-.47h.176c.355 0 .794.088.794.97 0 1.006-.282 1.144-.794 1.144h-.323c-.21 0-.17-.236-.17-.236V96.02zM44.94 95.474s.604.073.604.786v4.324c0 2.063.894 2.85 2.392 2.85 2.26 0 2.597-1.258 2.597-2.99V96.26c0-.74.652-.786.652-.786v-1.446h-2.73v1.446s.726.008.726.813v4.16c0 .438.08 1.395-.766 1.395-.75 0-.812-.71-.812-1.426v-4.13c0-.713.604-.812.604-.812v-1.446H44.94v1.446zM54.525 96.02c0-.512.344-.47.344-.47.822 0 1.093.1 1.093.943 0 1.102-.216 1.32-.88 1.32h-.332c-.254 0-.225-.234-.225-.234v-1.56zm-2.048 4.83c0 .816-.707.784-.707.784v1.522h3.47v-1.522s-.715.03-.715-.784v-1.825h.31c.724 0 1.01.43 1.01 1.254v.893c0 1.612.495 2.26 1.547 2.26 1.482 0 1.543-1.02 1.543-2.355v-.78h-.42v.862c0 .426-.055.544-.287.544-.242 0-.266-.207-.266-.468l-.037-1.137c0-1.13-.65-1.384-1.32-1.674v-.028c.778-.165 1.638-.832 1.638-2.14 0-1.474-1.03-2.23-2.284-2.23h-4.2v1.446s.716-.044.716 1.022v4.354zM65.56 98.207h-3.22v1.316s.627.03.627.786v.49c0 .528-.245.855-.686.855-.653 0-.75-.673-.75-3.054 0-2.382.124-2.992.827-2.992.575 0 1.085.784 1.11 2.147h1.414v-3.85h-.803s-.034.387-.255.387c-.447 0-.552-.538-1.537-.538-1.904 0-3.092 1.86-3.092 4.972 0 3.084 1.156 4.71 3.018 4.71 1.02 0 1.1-.606 1.53-.606.353 0 .432.44.432.44h.778v-2.958c0-.82.61-.786.61-.786v-1.32zM66.696 100.85c0 .752-.76.784-.76.784v1.522h6.223v-4.108h-1.455c.123 2.214-.557 2.586-.97 2.586-.97 0-.867-.705-.867-.705v-1.85h.16c.322 0 .524.275.524.672v.33h.63V96.94h-.63v.23c0 .19-.03.7-.557.7h-.127v-1.926c0-.553.662-.47.662-.47.618 0 1.175.216 1.175 2.278h1.32v-3.724h-6.1v1.446s.77.02.77 1.022v4.354zM85.406 93.904h-.796s-.17.412-.394.412c-.576 0-.484-.565-1.47-.565-1.232 0-2.2.805-2.2 2.658 0 1.29.697 1.894 1.426 2.456.88.675 1.795 1.302 1.795 1.87 0 .67-.274.873-.74.873-.745 0-1.132-.77-1.248-2.217h-1.253v3.918h1.013s.008-.495.307-.495c.423 0 .553.618 1.567.618 1.235 0 2.447-.743 2.447-2.945 0-2.773-3.222-3.046-3.222-4.27 0-.604.35-.714.61-.714.6 0 .924.344 1.056 1.79h1.102v-3.386zM75.59 96.02c0-.512.343-.47.343-.47.825 0 1.096.1 1.096.943 0 1.102-.22 1.32-.882 1.32h-.333c-.255 0-.226-.234-.226-.234v-1.56zm-2.074 4.83c0 .816-.71.784-.71.784v1.522h3.497v-1.522s-.715.03-.715-.784v-1.825h.31c.726 0 1.014.43 1.014 1.254v.893c0 1.612.494 2.26 1.544 2.26 1.482 0 1.543-1.02 1.543-2.355v-.78h-.42v.862c0 .426-.054.544-.286.544-.242 0-.268-.207-.268-.468l-.037-1.137c0-1.13-.648-1.384-1.32-1.674v-.028c.778-.165 1.585-.832 1.585-2.14 0-1.474-.978-2.23-2.23-2.23H72.8v1.446s.717-.044.717 1.022v4.354z"/><path d="M91.62 63.53c1.387 0 1.387-2.08 0-2.08-1.386 0-1.386 2.08 0 2.08zm0-.084c-1.273 0-1.273-1.913 0-1.913 1.275 0 1.275 1.913 0 1.913zM92.13 63.047c0-.086-.015-.208-.047-.308-.052-.156-.18-.22-.18-.22.004 0 .288-.057.238-.308-.026-.15-.218-.245-.414-.245h-.542v1.08h.195v-.446h.228c.074 0 .145.01.19.043.085.058.128.216.128.405h.204zm-.19-.804c.025.15-.096.204-.238.204h-.33v-.33h.337c.11 0 .22.04.23.126z" fill="#fff"/><path d="M87.304 103.6c1.388 0 1.388-2.08 0-2.08-1.384.002-1.384 2.08 0 2.08zm0-.062c-1.296 0-1.296-1.95 0-1.95 1.303-.002 1.303 1.95 0 1.95zM87.82 103.118c0-.086-.02-.207-.053-.308-.052-.155-.177-.22-.177-.22.003 0 .287-.057.24-.307-.03-.15-.22-.245-.414-.245h-.546v1.08h.194v-.445h.23c.077 0 .146.01.19.04.085.06.13.22.13.406h.205zm-.19-.803c.022.15-.1.205-.24.205h-.33v-.33h.336c.11 0 .22.04.233.125z"/><ellipse transform="matrix(.004 -1 1 .004 20.582 71.671)" cx="46.25" cy="25.509" rx=".121" ry=".119"/><ellipse transform="matrix(.004 -1 1 .004 20.706 72.897)" cx="46.928" cy="26.059" rx=".119" ry=".119"/><ellipse transform="matrix(.003 -1 1 .003 21.831 72.356)" cx="47.217" cy="25.225" rx=".121" ry=".121"/><circle cx="47.763" cy="25.775" r=".12"/><ellipse transform="matrix(.007 -1 1 .007 22.855 73.21)" cx="48.287" cy="25.098" rx=".12" ry=".119"/><ellipse transform="matrix(.008 -1 1 .008 26.33 77.03)" cx="51.985" cy="25.246" rx=".104" ry=".105"/><ellipse transform="matrix(.004 -1 1 .004 27.442 77.995)" cx="52.872" cy="25.222" rx=".104" ry=".105"/><ellipse transform="matrix(.003 -1 1 .003 26.891 78.674)" cx="52.918" cy="25.845" rx=".121" ry=".12"/><ellipse transform="matrix(.007 -1 1 .007 27.629 79.124)" cx="53.649" cy="25.652" rx=".12" ry=".12"/><circle cx="54.224" cy="25.145" r=".12"/><ellipse transform="matrix(.005 -1 1 .005 24.452 77.603)" cx="51.232" cy="26.511" rx=".157" ry=".157"/><ellipse transform="matrix(.008 -1 1 .008 23.077 76.327)" cx="50.006" cy="26.533" rx=".158" ry=".157"/><g stroke="#000" stroke-width=".094" stroke-miterlimit="3.864"><path d="M38.718 15.06l-1.128-.68-.137.23 1.094.658c.152.09.23.173.253.272.03.104-.003.252-.076.37-.163.273-.38.342-.618.2l-1.143-.687-.136.228 1.162.7c.344.208.7.097.935-.297.13-.213.174-.424.13-.6-.042-.156-.147-.278-.337-.393zM40.55 13.683l-2.017-.596-.14.176 1 1.85.162-.202-.24-.445.586-.726.488.142.16-.2zm-.9-.017l-.462.57-.455-.842.918.272zM41.616 12.586l-.166-.16-.646.668-1.23-1.186-.183.19 1.397 1.348zM42.13 12.212l-1.248-1.487-.205.172 1.247 1.485zM42.638 9.765l-.132-.193-1.175.794.13.194.487-.33.956 1.416.198-.136-.953-1.414zM44.22 8.673l-.268.132-.105 1.024-.85-.56-.27.132 1.125.737.345.707.24-.118-.35-.717zM45.543 8.187l.254-.078.57 1.854-.255.078zM48.145 8.983c-.026-.132-.087-.236-.184-.316-.128-.104-.306-.148-.63-.16-.235-.01-.35-.032-.435-.084-.04-.03-.073-.074-.08-.115-.033-.17.102-.303.353-.35.1-.02.194-.02.273 0 .133.034.208.096.293.25l.16-.22c-.068-.097-.1-.135-.166-.18-.153-.106-.354-.138-.583-.094-.416.08-.658.342-.6.646.026.125.09.22.213.307.186.1.247.114.555.124.378.016.52.085.557.27.036.196-.12.392-.358.44-.165.03-.31.012-.426-.054-.113-.06-.178-.138-.244-.29l-.182.225c.068.125.106.173.177.23.173.137.405.182.67.13.457-.09.71-.39.638-.757zM51.313 8.502c.01-.305-.082-.587-.257-.77-.152-.166-.357-.256-.623-.272l-.016-.002c-.546-.018-.926.377-.946.982-.02.638.316 1.048.882 1.068.236.01.494-.085.66-.237.183-.17.29-.446.3-.768zm-.282-.016c-.015.49-.277.8-.667.787-.378-.014-.626-.342-.61-.805.016-.493.274-.788.673-.773.382.013.62.326.605.79zM53.293 9.213l.252-1.294-.26-.05-.243 1.25c-.034.175-.084.276-.17.333-.088.063-.236.083-.375.057-.308-.06-.45-.24-.395-.513l.253-1.307-.26-.052-.26 1.332c-.078.395.146.69.6.776.24.048.454.02.606-.085.132-.09.21-.23.253-.447zM55.072 10.5l-.144-1.022c.13.01.19.004.266-.022.14-.048.233-.15.29-.308.104-.288-.057-.584-.388-.704l-.773-.282-.665 1.824.25.09.3-.818.454.165.142.98.268.098zm.148-1.446c-.068.19-.23.245-.457.162l-.478-.174.208-.578.458.168c.25.09.34.232.27.422zM57.545 11.985l.107-1.027c.124.043.18.05.265.044.145-.015.26-.09.355-.228.17-.254.087-.582-.207-.78l-.683-.458-1.086 1.608.223.15.486-.724.402.27-.102.985.24.16zm.493-1.367c-.113.168-.284.182-.484.047l-.42-.284.342-.508.403.273c.22.147.27.305.158.473zM58.78 13.064l.094-.226-.66-.574.43-.494.602.524.153-.174-.605-.525.39-.45.658.574.205-.127-.912-.792-1.274 1.465zM60.398 14.313l.02-.263c-.12.034-.172.04-.253.034-.158-.01-.3-.078-.403-.195-.107-.12-.165-.27-.155-.42.01-.197.115-.384.326-.573.347-.313.755-.332 1.01-.048.103.114.145.24.13.38-.007.092-.026.15-.097.28l.268.033c.063-.122.08-.178.09-.27.02-.207-.053-.412-.22-.598-.364-.403-.932-.387-1.408.043-.208.187-.352.46-.366.703-.014.223.068.43.25.633.152.17.33.265.526.286.092.007.15.002.282-.027zM60.52 15.177l1.61-1.086-.15-.22-1.608 1.086zM62.722 16.274c.303-.162.395-.5.223-.826l-.375-.704-1.714.91.126.236.694-.37.224.423c.194.365.516.494.822.33zm-.142-.265c-.087.046-.165.056-.24.036-.112-.035-.193-.13-.328-.387l-.134-.25.608-.324.203.383c.134.252.1.428-.11.54zM62.18 18.406l.18-.162-.342-.804.604-.258.313.736.212-.09-.312-.736.547-.232.34.802.24-.022-.472-1.112-1.786.758zM37.338 16.732c.303.11.536.297.638.522.024.053.044.108.057.166l.426-.155.03.198-.435.16c0 .113-.02.23-.056.334-.193.53-.69.726-1.287.51-.57-.21-.83-.693-.642-1.206.104-.262.253-.428.458-.523.227-.11.526-.11.81-.005zm-.1.262c-.44-.158-.81-.027-.94.332-.137.375.065.713.527.88.436.16.826.023.955-.332.02-.055.032-.11.037-.165l-.22.08-.035-.198.234-.085c-.06-.217-.257-.402-.558-.513z"/></g></g></svg>