<svg xmlns="http://www.w3.org/2000/svg" viewBox="0 0 100 20" enable-background="new 0 0 100 20"><g><g fill="#433572"><path d="M7.398 8.192h-1.56v-6.52l-1.35 6.52H2.922L1.56 1.672v6.52H0V.138h2.285l1.415 6.2 1.425-6.2h2.273v8.054zM15.535 8.192h-1.832l-1.676-3.184h-1.49v3.184H8.975V.138h3.84c.728 0 1.302.234 1.724.7.388.43.582.97.582 1.62 0 1.1-.54 1.862-1.616 2.287l2.03 3.447zm-2.023-5.538c0-.83-.317-1.245-.95-1.245h-2.025v2.327h2.05c.26 0 .484-.128.67-.383.17-.23.255-.463.255-.7zM24.11 8.192h-1.56v-6.52l-1.35 6.52h-1.565l-1.362-6.52v6.52h-1.56V.138h2.284l1.415 6.2 1.425-6.2h2.273v8.054zM30.25.138c.613 0 1.107.15 1.478.453.48.39.718 1.01.718 1.866 0 .762-.228 1.36-.683 1.794-.368.35-.776.523-1.223.523h-2.398v3.42h-.933V.137h3.04zm.278 3.834c.154 0 .336-.11.546-.334.284-.303.426-.693.426-1.17 0-.5-.162-.896-.487-1.187-.25-.222-.508-.333-.777-.333h-2.094v3.025h2.386zM33.12 8.192L35.756.138H36.9l2.554 8.054H38.41l-.75-2.48h-2.74l-.804 2.48h-.996zm4.282-3.274l-1.07-3.516-1.188 3.516h2.258zM46.84 8.192h-1.08l-2.37-3.46h-1.632v3.46h-.933V.14h3.258c.827 0 1.425.193 1.793.577.345.36.516.93.516 1.71 0 .604-.164 1.1-.492 1.49-.344.4-.837.654-1.477.754L46.84 8.19zM45.452 2.37c0-.528-.158-.914-.474-1.154-.235-.18-.53-.27-.885-.27h-2.337v2.978h2.35c.454 0 .8-.16 1.037-.48.206-.277.308-.635.308-1.074zM47.302.946V.138H53v.808h-2.37v7.246h-.938V.946h-2.39zM55.425 1.738v6.454h-.94V.138h1.102l3.65 6.517V.138h.934v8.054h-1.065l-3.68-6.454zM67.533.138v.808h-4.107v2.646h3.953V4.4h-3.954v2.984h4.28v.808h-5.213V.138h5.04zM75 8.192h-1.08l-2.368-3.46H69.92v3.46h-.932V.138h3.26c.826 0 1.424.193 1.79.577.346.36.517.93.517 1.71 0 .604-.164 1.1-.492 1.49-.345.4-.838.654-1.478.754L75 8.19zM73.615 2.37c0-.528-.158-.914-.475-1.154-.233-.18-.528-.27-.883-.27H69.92v2.978h2.35c.454 0 .8-.16 1.038-.48.204-.277.307-.635.307-1.074zM78.267.808c-.45 0-.827.132-1.13.397-.302.264-.453.6-.453 1.007 0 .6.43 1.026 1.287 1.274l1.876.54c.443.126.79.363 1.044.712.25.335.374.717.374 1.145 0 .767-.254 1.386-.76 1.857-.507.47-1.182.707-2.026.707-.95 0-1.68-.256-2.19-.767-.492-.493-.738-1.173-.738-2.04h.874c0 .513.123.94.368 1.277.34.467.888.7 1.64.7.555 0 1.003-.132 1.344-.398.357-.286.534-.676.534-1.172 0-.576-.277-.96-.83-1.15-.393-.118-1.06-.32-2.008-.61-.594-.183-1.023-.433-1.288-.747-.265-.314-.398-.75-.398-1.308 0-.69.22-1.236.66-1.635C76.89.2 77.49 0 78.254 0c.76 0 1.344.14 1.756.42.683.47 1.025 1.117 1.025 1.944v.124h-.912v-.114c0-.49-.178-.876-.534-1.16-.34-.27-.78-.406-1.323-.406z"/></g><circle cx="47.116" cy="16.537" r="1.492" fill="#BCBEC0"/><circle cx="55.681" cy="16.537" r="1.492" fill="#BCBEC0"/><circle cx="64.247" cy="16.537" r="1.492" fill="#BCBEC0"/><circle cx="72.812" cy="16.537" r="1.492" fill="#BCBEC0"/><circle cx="81.377" cy="16.537" r="1.492" fill="#433572"/><circle cx="89.943" cy="16.537" r="1.492" fill="#BCBEC0"/><circle cx="98.508" cy="16.537" r="1.492" fill="#BCBEC0"/></g></svg>