<svg xmlns="http://www.w3.org/2000/svg" viewBox="0 0 100 66" enable-background="new 0 0 100 66"><g fill="#007DC5"><path d="M47.504 58.78c-19.766 1.826-40.352-1.047-43.23-16.49-1.42-7.61 2.048-15.683 6.654-20.697v-2.678C2.638 26.18-1.857 35.377.73 46.24c3.31 13.93 20.986 21.818 47.962 19.2 10.675-1.036 24.644-4.474 34.36-9.805v-7.573c-8.824 5.25-23.394 9.597-35.548 10.72zm52.053-40.05C94.864-4.15 50.44-5.602 21.8 11.83v1.93C50.406-.95 90.974-.86 94.675 20.215c1.238 6.98-2.69 14.24-9.705 18.414v5.474c8.443-3.095 17.104-13.11 14.587-25.374zM81.45 15.4h-5.177v23.064c0 2.716 1.31 5.066 5.178 5.44V15.402zM19.76 23.825h-5.186v15.07c0 2.714 1.31 5.064 5.185 5.44v-20.51zM14.574 16.104h5.174v4.907h-5.174zM50.787 44.093c-4.187 0-5.963-2.913-5.963-5.792V18.29h5.133v5.535h3.865v4.146h-3.865v10.015c0 1.175.563 1.825 1.782 1.825h2.082v4.283h-3.035"/><path d="M60.238 35.56c0 2.625 1.642 4.56 4.553 4.56 2.286 0 3.408-.633 4.723-1.935l3.16 3.032c-2.017 2.005-4.157 3.224-7.92 3.224-4.92 0-9.633-2.68-9.633-10.5 0-6.683 4.115-10.46 9.515-10.46 5.487 0 8.64 4.424 8.64 10.227v1.85H60.238m4.175-7.826c-1.75 0-3.11.903-3.67 2.128-.346.734-.464 1.297-.506 2.202h7.916c-.1-2.208-1.102-4.33-3.74-4.33zM33.714 27.97c1.503 0 2.133.747 2.133 1.95v14.2h5.136V29.9c0-2.883-1.542-6.07-6.044-6.07l-10.615-.005V44.12h5.136V27.97h4.254z"/></g></svg>